<?xml version="1.0" encoding="utf-8"?>
<!-- Generator: Adobe Illustrator 15.0.0, SVG Export Plug-In . SVG Version: 6.00 Build 0)  -->
<!DOCTYPE svg PUBLIC "-//W3C//DTD SVG 1.1//EN" "http://www.w3.org/Graphics/SVG/1.1/DTD/svg11.dtd">
<svg version="1.1" id="Layer_1" xmlns="http://www.w3.org/2000/svg" xmlns:xlink="http://www.w3.org/1999/xlink" x="0px" y="0px"
	 width="228.122px" height="162.136px" viewBox="0 0 228.122 162.136" enable-background="new 0 0 228.122 162.136"
	 xml:space="preserve">
<g>
	<defs>
		<rect id="SVGID_1_" x="-135.94" y="-69.452" width="500" height="300"/>
	</defs>
	<clipPath id="SVGID_2_">
		<use xlink:href="#SVGID_1_"  overflow="visible"/>
	</clipPath>
	<path clip-path="url(#SVGID_2_)" fill="none" stroke="#BEE37B" stroke-width="2.081" stroke-miterlimit="10" d="M28.554,146.188
		c25.473,9.518,54.588,14.907,85.508,14.907c30.918,0,60.033-5.39,85.506-14.907"/>
</g>
<g>
	<path fill="#BEE37B" d="M41.058,140.406l4.423-15.444l5.657,1.62c1.809,0.518,3.235,1.268,4.279,2.25
		c1.044,0.982,1.753,2.188,2.126,3.621c0.372,1.432,0.351,2.873-0.063,4.318c-0.296,1.034-0.778,1.967-1.448,2.797
		c-0.669,0.83-1.476,1.498-2.418,2.002c-0.965,0.523-1.999,0.83-3.103,0.921c-0.649,0.062-1.228,0.062-1.737,0
		c-0.509-0.063-1.325-0.254-2.447-0.575L41.058,140.406z M50.341,128.486l-3.211-0.92l-3.294,11.504l3.211,0.92
		c0.856,0.244,1.612,0.38,2.269,0.403c0.655,0.024,1.222-0.021,1.698-0.137c0.477-0.114,0.933-0.293,1.37-0.536
		c1.409-0.794,2.356-2.036,2.84-3.727c0.476-1.66,0.302-3.176-0.519-4.545c-0.302-0.51-0.684-0.967-1.147-1.371
		s-0.923-0.715-1.379-0.934C51.721,128.926,51.109,128.706,50.341,128.486z"/>
</g>
<g>
	<path fill="#BEE37B" d="M75.433,132.128l2.341,0.38l-2.58,15.881l-2.341-0.381L75.433,132.128z"/>
</g>
<g>
	<path fill="#BEE37B" d="M104.644,135.161l2.288,0.136l-7.569,15.737l-0.885-0.053l-5.767-16.529l2.311,0.137l4.136,11.944
		L104.644,135.161z"/>
</g>
<g>
	<path fill="#BEE37B" d="M121.911,135.171l2.372-0.088l0.604,16.078l-2.372,0.088L121.911,135.171z"/>
</g>
<g>
	<path fill="#BEE37B" d="M143.282,137.827l1.638,11.714l-2.281,0.319l-2.23-15.957l1.688-0.236l10.043,10.539l-1.638-11.715
		l2.282-0.318l2.23,15.957l-1.688,0.236L143.282,137.827z"/>
</g>
<g>
	<path fill="#BEE37B" d="M186.045,137.839l0.812,2.859l-1.474,0.418l-0.727-1.086c-0.492,0.546-1.058,1.026-1.699,1.439
		c-0.641,0.413-1.334,0.725-2.08,0.938c-1.152,0.326-2.272,0.43-3.36,0.309c-1.089-0.123-2.089-0.436-3.002-0.938
		c-0.912-0.504-1.708-1.182-2.385-2.037c-0.678-0.852-1.178-1.848-1.501-2.984c-0.316-1.115-0.413-2.211-0.292-3.287
		s0.43-2.07,0.926-2.98c0.495-0.91,1.16-1.707,1.992-2.385c0.832-0.68,1.803-1.176,2.912-1.49c0.553-0.158,1.112-0.256,1.675-0.298
		c0.563-0.04,1.116-0.024,1.659,0.046c0.541,0.068,1.065,0.191,1.57,0.367c0.504,0.176,0.976,0.401,1.413,0.676l-1.054,1.855
		c-0.297-0.178-0.632-0.33-1.003-0.457c-0.372-0.127-0.758-0.217-1.161-0.27c-0.401-0.054-0.816-0.068-1.244-0.042
		s-0.848,0.097-1.262,0.214c-0.783,0.223-1.471,0.578-2.063,1.064c-0.591,0.488-1.061,1.063-1.408,1.723
		c-0.347,0.662-0.561,1.389-0.643,2.184c-0.083,0.793-0.005,1.607,0.232,2.441c0.247,0.871,0.615,1.615,1.105,2.229
		c0.489,0.616,1.062,1.096,1.714,1.441c0.653,0.345,1.367,0.552,2.145,0.618s1.576-0.017,2.396-0.25
		c0.818-0.232,1.521-0.55,2.104-0.955c0.583-0.404,1.028-0.867,1.337-1.386l-0.82-2.892l-3.801,1.078l-0.578-2.037l5.982-1.699
		L186.045,137.839z"/>
</g>
<g>
	<defs>
		<rect id="SVGID_3_" x="-135.94" y="-69.452" width="500" height="300"/>
	</defs>
	<clipPath id="SVGID_4_">
		<use xlink:href="#SVGID_3_"  overflow="visible"/>
	</clipPath>
	<path clip-path="url(#SVGID_4_)" fill="none" stroke="#BEE37B" stroke-width="2.081" stroke-miterlimit="10" d="M46.035,111.885
		c20.811,7.18,44.183,11.057,68.026,11.057c23.842,0,47.213-3.877,68.023-11.057"/>
	<path clip-path="url(#SVGID_4_)" fill-rule="evenodd" clip-rule="evenodd" fill="#BEE37B" d="M115.753,58.804
		c-1.246-2.385-7.723-14.649-7.723-14.649s1.426-0.423,4.737-1.326c3.312-0.909,8.677-3.556,10.003-3.814
		c1.324-0.258,1.16-0.592,2.387-1.111c1.225-0.523,6.525-2.707,7.256-3.399c0.734-0.69,2.594-2.728,5.41-4.068
		c2.818-1.339,23.676-7.966,23.676-7.966s1.285,0.67,2.775,0.345c1.488-0.32,6.717-1.052,8.432-0.942
		c1.719,0.106,5.938,2.345,6.73,2.581c0.793,0.235,0.563-0.296,1.223-0.191c0.662,0.102,6.104,2.61,6.496,2.877
		c0.395,0.267-0.035,0.826-0.768,1.251c-0.727,0.428-9.141,3.191-11.289,3.742c-2.152,0.55-28.928,0.96-29.457,1.057
		c-0.529,0.098-0.438,1.19-0.438,1.19s-2.318,0.977-2.752,1.603c-0.434,0.623,0.908,2.946,0.975,3.278
		c0.061,0.328,0.127,0.791,0.486,1.358c0.359,0.561,1.932,3.281,1.932,3.281s-4.508,2.88-4.977,3.342
		c-0.465,0.462-0.334,0.66-1.33,1.646c-0.996,0.988-12.797,6.671-13.727,7.658c-0.932,0.987-2.057,1.38-3.129,3.291
		c-1.064,1.911-3.725,4.934-3.725,4.934S116.993,61.193,115.753,58.804 M24.828,17.776c0,0-2.057,1.309-2.524,1.703
		c-0.463,0.393-0.925,0.191-1.255,0.124c-0.329-0.067-0.857-0.335-1.187-0.669c-0.326-0.334-0.853-1.127-2.567-1.996
		c-1.712-0.869-2.705-1.074-4.82-0.753c-2.117,0.317-6.566,3.6-7.793,4.683c-1.231,1.084-1.693,1.544-1.703,2.965
		c-0.006,1.422,0.184,2.746,0.184,2.746s-0.298,0.162-0.466,0.557c-0.17,0.396-0.505,1.553-0.505,1.553s-2.091,1.638-2.19,1.935
		c-0.101,0.3,3.468,6.465,3.797,6.566c0.328,0.103,2.71-0.083,2.71-0.083s0.292,0.894,0.292,1.095
		C6.8,38.397,6.896,38.76,6.994,39.026c0.098,0.264-0.002,0.332-0.002,0.332s-2.688,2.232-2.955,2.328
		c-0.262,0.098-1.059,0.391-1.326,0.723c-0.266,0.327-0.465,0.721-0.108,1.814c0.357,1.095,2.359,3.615,3.051,3.95
		c0.693,0.336,1.618,0.375,1.919-0.086c0.297-0.461,0.57-1.585,0.57-1.585l0.329-0.164c0,0,0.465,0.134,0.629,0.334
		c0.164,0.202,0.356,0.829,0.69,0.731c0.329-0.098,2.321-1.504,2.424-2.035c0.101-0.528-0.022-2.212,0.144-2.445
		c0.167-0.233,1.321,0.076,2.381-0.447c1.062-0.524,2.625-2.103,3.418-2.231c0.796-0.127,3.503,0.415,3.503,0.415
		s0.449,2.267,0.681,2.502c0.228,0.23,0.955,0.253,1.092,0.184c0.133-0.061,0.528-0.109,0.528-0.109s4.111,6.832,5.522,8.588
		c1.412,1.761,6.424,6.715,6.62,7.079c0.196,0.364,0.359,0.829,0.359,0.829s-0.898,1.286-0.802,1.815
		c0.094,0.527,0.817,1.458,1.149,1.327c0.332-0.128,0.529-0.096,0.529-0.096s-0.103,0.395,0.457,0.896
		c0.561,0.497,1.683,0.573,1.683,0.573s0.127,0.824,0.457,1.156c0.327,0.332,0.754,0.83,1.187,0.569
		c0.427-0.263,1.161-1.049,1.297-1.25c0.132-0.198,0.627-0.129,0.86-0.292c0.23-0.165,0.564-0.393,0.929-0.985
		c0.369-0.593,1.139-2.274,1.177-3.135c0.034-0.857,0.136-0.957,0.136-0.957s4.974-2.947,6.432-3.502
		c1.457-0.555,2.454-1.242,2.454-1.242L54.301,56c0,0-0.63,0.326-0.438,1.018c0.195,0.698,0.226,1.194,0.789,1.227
		c0.561,0.039,1.191-0.087,1.191-0.087s1.378,1.691,1.738,1.957c0.365,0.266,0.595,0.139,0.592,0.664
		c-0.004,0.531-0.238,1.486,0.321,1.955c0.558,0.463,1.416,1.128,1.615,0.47c0.203-0.659,0.301-0.725,0.536-0.626
		c0.229,0.102,0.494,0.002,0.756,0.398c0.261,0.404,0.459,0.765,0.789,0.998c0.329,0.233,0.225,0.233,0.791,0.237l1.125,0.006
		c0,0,1.762,3.913,1.991,4.505c0.226,0.596,0.491,0.963,0.291,1.126c-0.2,0.166-0.498,0.494-0.833,0.591
		c-0.327,0.098-0.304,1.52,0.283,2.975c0.587,1.461,1.641,2.391,2.3,2.758c0.657,0.368,2.513,0.144,2.513,0.144
		s0.293,0.069,0.691-0.159c0.399-0.229,2.822-1.474,2.788-1.87c-0.029-0.396-2.641-6.689-3.263-7.424
		c-0.624-0.73-0.626-0.792-0.957-0.695c-0.33,0.095-1.922,1.144-1.985,0.979c-0.066-0.167-1.804-3.477-1.804-3.477
		s0.604-0.626,0.738-1.024c0.134-0.397-0.095-0.66,0.368-0.691c0.462-0.031,1.191,0.006,1.556-0.521
		c0.364-0.526,0.475-2.579,0.544-3.004c0.071-0.429,0.538-1.419,0.736-1.451c0.198-0.03,0.267-0.032,0.267-0.032
		s6.196,14.809,8.423,18.259c2.231,3.448,2.165,3.448,2.759,3.387c0.595-0.065,2.651-1.374,2.525-1.967
		c-0.134-0.6-1.315-1.531-1.315-1.531s-0.461-0.399-0.591-0.928c-0.13-0.528-0.587-0.995-0.717-1.854
		c-0.126-0.86-6.558-9.425-7.213-10.486c-0.655-1.061-0.973-3.243-1.564-4.304c-0.586-1.061-1.112-1.461-1.309-1.858
		c-0.197-0.397-0.594-0.271-0.328-0.73c0.269-0.46,0.535-1.054,1.195-0.918c0.659,0.136,1.19,0.14,1.317,0.801
		c0.132,0.662-0.6,0.787,0.392,0.662c0.995-0.127,3.31-0.18,3.31-0.18s0.952,6.781,1.735,8.074c0.789,1.291,5.173,3.766,6.526,4.301
		c1.35,0.535,1.882,0.438,2.575,0.378c0.693-0.064,1.455-0.16,1.191-0.49c-0.259-0.328-2.293-3.514-2.293-3.514
		s-2.646,0.545-3.373,0.244c-0.725-0.301-1.113-1.099-1.113-1.099l-0.415-9.388c0,0,0.797-0.062,0.8-0.722
		c0.003-0.661-0.124-1.655-0.124-1.655s0.33,0.335,1.386,0.341c1.056,0.007,2.447-0.055,2.447-0.055s4.322,7.231,8.789,12.412
		c4.465,5.182,14.205,13.497,14.701,13.603c0.496,0.099,0.592,0.097,0.592,0.097s1.775,1.929,3.523,2.67
		c1.75,0.735,2.938,1.007,5.119,0.683c2.186-0.313,6.029-2.011,7.689-3.724c1.662-1.707,10.096-8.469,12.691-11.825
		c2.6-3.358,9.055-11.588,9.055-11.588s1.65,0.806,2.65-0.71c1-1.515,3.662-4.67,5.322-6.116c1.662-1.448,2.391-1.709,3.383-2.098
		c0.992-0.393,6.1-3.274,10.738-5.361c4.643-2.091,17.209-4.003,19.33-4.917c2.121-0.913,4.104-1.433,4.104-1.433
		s17.916,11.998,22.141,13.608c4.221,1.613,8.568,3.75,9.625,4.153c1.058,0.403,2.113,0.41,2.113,0.41s-2.148-5.894-2.139-6.89
		c0.004-0.989,0.342-2.111,0.408-2.707c0.068-0.594,0.34-1.516-0.316-1.983c-0.662-0.47-17.668-9.221-19.184-10.157
		c-1.514-0.932-1.645-1.264-1.645-1.264s5.508-3.934,7.838-6.301c2.328-2.368,4.395-6.058,4.395-6.058s-3.488-2.464-4.479-2.603
		c-0.992-0.139-2.316,0.252-4.234,0.44c-1.92,0.189-4.297-0.288-4.297-0.288s-0.457-0.666-0.725-0.336
		c-0.266,0.332-5.328,7.177-5.793,7.371c-0.463,0.197-1.857,1.51-1.857,1.51s-5.133-3.927-7.299-6.516
		c-2.168-2.591-9.014-8.313-10.135-8.717c-1.121-0.404-1.451-0.407-1.783-0.407c-0.33,0-1.121-0.271-1.52-0.141
		c-0.398,0.13-2.652,1.44-3.449,2.227c-0.797,0.79-1.266,1.913-1.996,2.238c-0.725,0.328-1.787,0.519-2.119,0.913
		c-0.336,0.397-0.27,0.727-1.064,1.186c-0.797,0.457-5.492,0.761-6.354,1.086c-0.861,0.326-0.596,0.658-1.06,0.656
		c-0.462-0.003-12.892,0.128-17.526,1.093c-4.631,0.967-9.27,3.32-11.393,4.63c-2.123,1.312-3.52,2.423-4.578,2.686l-4.768,1.162
		c0,0-2.443-0.41-7.006,0.027c-4.564,0.439-15.143,0.91-16.197,0.506c-1.057-0.402-3.69-2.137-6.533-2.352
		c-2.842-0.211-6.811,0.36-6.811,0.36s-6.234,3.866-7.026,3.665c-0.793-0.203-1.713-1.068-3.232-1.342
		c-1.519-0.274-3.304-0.415-3.035-0.876c0.266-0.462,0.266-0.724,1.125-0.721c0.861,0.005,12.432-0.657,12.502-1.317
		c0.071-0.662,1.01-15.333,0.954-16.986c-0.056-1.656,0.275-1.718-0.255-1.917C85.011,3.253,80.32,3.03,80.32,3.03
		s-0.989-0.6-1.91-0.805c-0.929-0.202-9.586-0.317-9.586-0.317L68.16,2.103L57.457,1.381c0,0,0.005-0.992-0.16-1.09
		c-0.165-0.099-5.32-0.46-5.387-0.196c-0.068,0.265-0.3,0.562-0.3,0.562s-7.372,0.123-8.198,0.252
		c-0.827,0.127-3.516,2.523-5.109,3.506c-1.594,0.983-2.133,2.897-2.461,2.762c-0.33-0.134-0.564-0.333-0.564-0.333
		s-3.104,0.167-3.19,0.197c-0.079,0.034-1.243,1.015-1.243,1.015s0.136-0.258-0.726-0.331c-0.858-0.072-1.488,0.092-1.488,0.092
		s0.965-1.086,0.968-1.483c0.003-0.399-0.19-1.454-0.19-1.454s-3.305-0.183-3.508,0.078c-0.197,0.265-0.368,1.421-0.368,1.421
		s-1.396,1.048-1.496,1.283c-0.1,0.228-0.393,0.862-0.65,1.851c-0.264,0.992,0.906,2.7,1.17,3.146
		c0.26,0.448,0.458,0.795,0.458,0.795s1.202,0.769,1.265,1.231c0.062,0.464-0.337,1.189-0.403,1.519
		C25.807,16.536,24.828,17.776,24.828,17.776 M31.117,17.416c-0.219,0.263-2.869,1.306-3.082,1.256
		c-0.216-0.052-0.514-0.541-0.514-0.541l0.672-2.111c-0.011-0.024,0.022,0.073,0.022,0.073s0.825,0.139,1.255,0.322
		c0.429,0.183,1.566,0.405,1.782,0.457C31.466,16.922,31.331,17.153,31.117,17.416 M26.22,42.225c0,0,0.199-0.226,0.362-0.178
		c0.17,0.049,0.724,1.111,0.885,1.244c0.167,0.132-0.066,0.397-0.232,0.429C27.07,43.753,26.22,42.225,26.22,42.225 M37.976,52.657
		c0.234,0,0.799-0.162,0.895-0.326c0.102-0.168,0.072-0.66,0.171-0.96c0.106-0.296,0.266-0.065,0.431-0.033
		c0.166,0.036,3.066,1.014,3.696,1.182c0.626,0.167,1.087,0.368,1.119,0.532c0.033,0.166-0.997,1.053-1.261,1.215
		c-0.268,0.169-0.73,0.56-1.161,0.656c-0.433,0.098-1.023-0.534-1.981-0.639c-0.956-0.104-2.149,0.185-2.61,0.251
		c-0.464,0.063-1.09-0.469-1.254-0.602c-0.164-0.134,0.072-0.859,0.072-0.859S37.745,52.653,37.976,52.657 M34.194,49.627
		c0.033-0.165,0.664,0.136,0.857,0.235c0,0,0.485,2.118,0.22,2.282c-0.268,0.166-0.95-1.527-1.115-1.889
		C33.994,49.891,34.16,49.794,34.194,49.627 M30.57,47.491c0.165-0.102,0.892,0.269,1.252,0.434l1.577,2.061
		c0.228,0.298,1.538,2.95,1.832,3.347c0.295,0.398-0.92-0.961-1.183-1.165c-0.263-0.197-3.717-3.321-3.852-3.489
		C30.068,48.513,30.404,47.59,30.57,47.491 M28.986,14.477c-0.005,0.004-0.005,0.004-0.002-0.002
		C28.984,14.475,28.984,14.477,28.986,14.477 M32.268,15.722c0,0-0.597,0.128-1.012,0.108c-0.412-0.019-1.42-0.337-1.649-0.522
		c-0.221-0.177-0.598-0.788-0.621-0.831c0.06-0.017,1.011-0.62,1.606-0.898c0.629-0.293,2.352-1.027,2.634-1.029
		c0.28,0.003,0.89,0.438,0.991,0.536c0.099,0.099,0.078,0.25-0.121,0.745C33.893,14.325,32.268,15.722,32.268,15.722 M26.704,8.484
		c0,0,0.276,3.769,0.044,4.163c-0.233,0.397-1.088-0.499-1.614-1.035c-0.528-0.528-0.553-1.62-0.383-2.314
		c0.166-0.694,0.832-1.15,1.064-1.349C26.046,7.752,26.609,8.285,26.704,8.484 M28.255,44.402c0.103,0.053,1.448,1.461,1.513,1.582
		c0.064,0.112-0.616,0.588-0.797,0.557c-0.179-0.035-0.981-1.694-1.048-1.842C27.923,44.699,28.157,44.353,28.255,44.402"/>
</g>
</svg>
