<?xml version="1.0" encoding="utf-8"?>
<!-- Generator: Adobe Illustrator 15.0.0, SVG Export Plug-In . SVG Version: 6.00 Build 0)  -->
<!DOCTYPE svg PUBLIC "-//W3C//DTD SVG 1.1//EN" "http://www.w3.org/Graphics/SVG/1.1/DTD/svg11.dtd">
<svg version="1.1" id="Layer_1" xmlns="http://www.w3.org/2000/svg" xmlns:xlink="http://www.w3.org/1999/xlink" x="0px" y="0px"
	 width="282.961px" height="159.237px" viewBox="0 0 282.961 159.237" enable-background="new 0 0 282.961 159.237"
	 xml:space="preserve">
<g>
	<path fill="#BEE37B" d="M12.874,108.989l9.275-13.118l4.806,3.398c1.536,1.086,2.635,2.265,3.296,3.536
		c0.661,1.272,0.931,2.646,0.811,4.12c-0.122,1.476-0.618,2.828-1.486,4.056c-0.621,0.878-1.384,1.599-2.29,2.161
		c-0.905,0.563-1.887,0.928-2.944,1.092c-1.083,0.176-2.16,0.123-3.233-0.155c-0.632-0.156-1.179-0.348-1.639-0.573
		c-0.46-0.228-1.167-0.678-2.12-1.352L12.874,108.989z M25.574,100.802l-2.727-1.928l-6.909,9.77l2.727,1.929
		c0.727,0.515,1.396,0.892,2.007,1.13c0.611,0.24,1.16,0.385,1.648,0.433c0.487,0.049,0.977,0.03,1.47-0.054
		c1.592-0.284,2.896-1.145,3.911-2.58c0.998-1.41,1.334-2.897,1.011-4.461c-0.116-0.581-0.326-1.139-0.63-1.673
		c-0.303-0.534-0.635-0.979-0.994-1.337S26.226,101.263,25.574,100.802z"/>
</g>
<g>
	<path fill="#BEE37B" d="M40.72,126.248l6.759-14.6l4.504,2.085c1.352,0.626,2.286,1.503,2.805,2.631
		c0.519,1.129,0.489,2.315-0.088,3.563c-0.5,1.079-1.161,1.827-1.983,2.241c-0.822,0.415-1.552,0.551-2.188,0.409l1.302,8.813
		l-2.362-1.094l-1.166-8.256l-2.55-1.18l-2.941,6.354L40.72,126.248z M49.718,114.842l-0.972-0.45L46.612,119l2.54,1.176
		c0.466,0.217,0.886,0.319,1.259,0.311c0.372-0.01,0.764-0.107,1.176-0.293c0.412-0.187,0.748-0.561,1.01-1.125
		c0.249-0.537,0.338-1.051,0.27-1.545c-0.068-0.492-0.267-0.903-0.596-1.233C51.941,115.959,51.09,115.477,49.718,114.842z"/>
</g>
<g>
	<path fill="#BEE37B" d="M71.963,121.673l8.719,2.68l-0.602,1.959l-6.517-2.002l-1.35,4.393l6.011,1.847l-0.605,1.971l-6.011-1.847
		l-1.559,5.074l6.727,2.067l-0.603,1.959l-8.928-2.744L71.963,121.673z"/>
</g>
<g>
	<path fill="#BEE37B" d="M102.143,133.108c-0.055-0.346-0.161-0.663-0.318-0.954c-0.158-0.29-0.346-0.546-0.563-0.77
		c-0.217-0.223-0.454-0.406-0.713-0.551c-0.258-0.146-0.517-0.24-0.773-0.287c-0.288-0.052-0.56-0.066-0.817-0.043
		c-0.258,0.022-0.49,0.086-0.696,0.189c-0.207,0.103-0.381,0.246-0.523,0.431c-0.143,0.186-0.24,0.417-0.291,0.697
		c-0.05,0.271-0.019,0.529,0.093,0.771c0.112,0.243,0.265,0.472,0.46,0.687c0.195,0.216,0.414,0.419,0.655,0.61
		c0.242,0.193,0.47,0.371,0.682,0.534c0.341,0.272,0.706,0.548,1.096,0.826c0.391,0.278,0.774,0.57,1.152,0.876
		c0.377,0.307,0.731,0.632,1.063,0.974c0.333,0.341,0.615,0.704,0.85,1.09c0.233,0.386,0.4,0.803,0.498,1.25
		c0.099,0.447,0.101,0.928,0.007,1.441c-0.145,0.793-0.417,1.467-0.819,2.022c-0.402,0.555-0.895,0.991-1.479,1.311
		c-0.585,0.318-1.243,0.523-1.972,0.613c-0.73,0.09-1.496,0.061-2.297-0.085s-1.523-0.361-2.166-0.646
		c-0.643-0.285-1.208-0.653-1.695-1.104c-0.488-0.451-0.893-0.991-1.216-1.62c-0.322-0.629-0.56-1.358-0.713-2.19l2.041-1.373
		c0.022,0.566,0.134,1.107,0.336,1.625c0.203,0.517,0.483,0.981,0.841,1.394c0.358,0.413,0.788,0.764,1.289,1.054
		c0.501,0.291,1.065,0.493,1.692,0.606c0.363,0.066,0.754,0.089,1.176,0.067c0.421-0.021,0.817-0.104,1.188-0.251
		c0.37-0.147,0.695-0.369,0.976-0.666c0.28-0.296,0.463-0.683,0.55-1.158c0.063-0.348,0.018-0.68-0.135-0.996
		c-0.153-0.317-0.368-0.625-0.645-0.926c-0.278-0.3-0.6-0.595-0.969-0.884c-0.37-0.29-0.738-0.577-1.108-0.862
		c-0.267-0.205-0.556-0.42-0.866-0.645c-0.311-0.224-0.617-0.459-0.919-0.705c-0.303-0.247-0.588-0.511-0.857-0.794
		c-0.268-0.283-0.495-0.59-0.681-0.92c-0.186-0.331-0.316-0.69-0.395-1.078c-0.078-0.39-0.075-0.811,0.008-1.264
		c0.11-0.604,0.319-1.12,0.626-1.548c0.309-0.428,0.681-0.768,1.117-1.021c0.436-0.252,0.924-0.414,1.464-0.488
		c0.54-0.073,1.094-0.059,1.66,0.045c0.529,0.096,1.013,0.256,1.452,0.48c0.438,0.225,0.832,0.496,1.18,0.817
		c0.347,0.321,0.643,0.68,0.887,1.074c0.244,0.396,0.431,0.815,0.561,1.261L102.143,133.108z"/>
</g>
<g>
	<path fill="#BEE37B" d="M127.899,135.965c-0.092-0.337-0.233-0.641-0.422-0.913c-0.189-0.27-0.404-0.504-0.645-0.701
		s-0.498-0.353-0.77-0.468c-0.273-0.115-0.541-0.182-0.801-0.199c-0.291-0.021-0.563-0.003-0.817,0.048
		c-0.253,0.053-0.477,0.142-0.671,0.267c-0.193,0.125-0.35,0.287-0.472,0.486c-0.121,0.2-0.191,0.441-0.211,0.725
		c-0.019,0.276,0.041,0.528,0.18,0.757c0.138,0.229,0.316,0.438,0.534,0.631c0.218,0.192,0.458,0.37,0.72,0.534
		c0.262,0.165,0.507,0.316,0.736,0.454c0.369,0.233,0.763,0.466,1.182,0.699c0.418,0.232,0.833,0.48,1.242,0.742
		c0.41,0.262,0.798,0.545,1.166,0.848c0.368,0.301,0.69,0.631,0.966,0.988c0.275,0.357,0.487,0.753,0.634,1.187
		c0.148,0.433,0.204,0.911,0.168,1.431c-0.055,0.805-0.251,1.505-0.588,2.103c-0.337,0.596-0.778,1.085-1.323,1.468
		c-0.546,0.381-1.177,0.658-1.893,0.829c-0.715,0.17-1.479,0.228-2.292,0.173c-0.812-0.056-1.553-0.189-2.224-0.4
		c-0.671-0.211-1.273-0.514-1.808-0.908s-0.998-0.886-1.389-1.474c-0.391-0.589-0.708-1.288-0.953-2.097l1.875-1.593
		c0.085,0.56,0.256,1.085,0.516,1.577c0.259,0.49,0.59,0.921,0.991,1.291c0.402,0.369,0.868,0.671,1.399,0.902
		c0.53,0.233,1.113,0.371,1.749,0.415c0.368,0.024,0.76,0.003,1.176-0.065c0.417-0.067,0.8-0.195,1.151-0.383
		c0.352-0.188,0.65-0.444,0.896-0.77c0.246-0.326,0.385-0.73,0.417-1.213c0.024-0.353-0.058-0.678-0.245-0.976
		c-0.188-0.297-0.436-0.58-0.745-0.847s-0.663-0.524-1.062-0.771c-0.399-0.247-0.798-0.491-1.197-0.733
		c-0.288-0.174-0.599-0.355-0.932-0.544c-0.333-0.188-0.665-0.388-0.993-0.598c-0.328-0.211-0.641-0.441-0.94-0.693
		c-0.298-0.251-0.558-0.53-0.78-0.838c-0.221-0.308-0.392-0.651-0.513-1.028c-0.121-0.378-0.165-0.796-0.134-1.256
		c0.042-0.612,0.192-1.148,0.451-1.607c0.258-0.461,0.59-0.84,0.995-1.14c0.405-0.299,0.872-0.515,1.4-0.647
		c0.529-0.134,1.081-0.182,1.655-0.143c0.536,0.036,1.035,0.143,1.497,0.315c0.461,0.174,0.882,0.401,1.264,0.681
		c0.381,0.28,0.715,0.604,1.002,0.969c0.287,0.365,0.519,0.763,0.698,1.191L127.899,135.965z"/>
</g>
<g>
	<path fill="#BEE37B" d="M164.916,131.44l2.346-0.137l-4.948,16.473l-0.827,0.049l-5.844-12.604l-4.377,13.199l-0.84,0.049
		l-6.779-15.791l2.38-0.139l4.724,10.995l3.842-11.494l1.748-0.102l5.171,10.97L164.916,131.44z"/>
</g>
<g>
	<path fill="#BEE37B" d="M183.878,128.465l1.591-0.303l10.114,14.545l-2.315,0.441l-2.999-4.282l-6.743,1.284l-1.081,5.061
		l-2.326,0.443L183.878,128.465z M188.956,137.03l-3.641-5.238l-1.274,6.175L188.956,137.03z"/>
</g>
<g>
	<path fill="#BEE37B" d="M202.458,124.296l10.763-3.358l0.61,1.957l-4.276,1.334l4.188,13.424l-2.199,0.686l-4.188-13.423
		l-4.287,1.338L202.458,124.296z"/>
</g>
<g>
	<path fill="#BEE37B" d="M229.452,123.376c-0.332-0.701-0.567-1.411-0.708-2.131c-0.142-0.719-0.189-1.429-0.146-2.128
		c0.041-0.699,0.173-1.377,0.394-2.034c0.22-0.656,0.522-1.272,0.908-1.851c0.385-0.577,0.85-1.102,1.396-1.571
		c0.545-0.471,1.169-0.872,1.87-1.204c0.521-0.246,1.055-0.436,1.604-0.568c0.55-0.132,1.099-0.209,1.648-0.232
		c0.551-0.021,1.09,0.012,1.621,0.1c0.53,0.089,1.034,0.232,1.51,0.432l-0.738,2.02c-0.32-0.138-0.67-0.229-1.048-0.275
		c-0.378-0.045-0.769-0.052-1.169-0.02c-0.401,0.033-0.806,0.105-1.215,0.219c-0.41,0.112-0.813,0.263-1.208,0.45
		c-0.743,0.352-1.363,0.806-1.864,1.366c-0.5,0.559-0.864,1.184-1.094,1.874c-0.229,0.691-0.315,1.424-0.259,2.199
		c0.058,0.776,0.272,1.556,0.644,2.34c0.387,0.819,0.857,1.501,1.413,2.045s1.165,0.944,1.829,1.199
		c0.663,0.254,1.369,0.358,2.115,0.311s1.509-0.255,2.285-0.623c0.485-0.229,0.898-0.49,1.235-0.782
		c0.337-0.291,0.62-0.6,0.85-0.924c0.229-0.325,0.413-0.661,0.555-1.008c0.142-0.348,0.256-0.69,0.342-1.028l2.104,0.622
		c-0.122,0.551-0.3,1.082-0.531,1.596c-0.233,0.514-0.519,0.996-0.856,1.45c-0.338,0.453-0.731,0.865-1.179,1.239
		c-0.447,0.373-0.952,0.693-1.514,0.959c-1.09,0.516-2.17,0.797-3.238,0.845c-1.069,0.047-2.079-0.112-3.029-0.478
		c-0.951-0.366-1.815-0.923-2.594-1.672C230.605,125.364,229.961,124.452,229.452,123.376z"/>
</g>
<g>
	<path fill="#BEE37B" d="M259.006,97.151l1.918-1.356l9.289,13.137l-1.918,1.356l-4.043-5.717l-6.667,4.713l4.042,5.718
		l-1.918,1.356l-9.289-13.137l1.919-1.356l4.016,5.68l6.667-4.714L259.006,97.151z"/>
</g>
<g>
	<defs>
		<rect id="SVGID_3_" x="-108.52" y="-70.902" width="500" height="300"/>
	</defs>
	<clipPath id="SVGID_1_">
		<use xlink:href="#SVGID_3_"  overflow="visible"/>
	</clipPath>
	<path clip-path="url(#SVGID_1_)" fill="none" stroke="#BEE37B" stroke-width="2.081" stroke-miterlimit="10" d="M0.678,111.454
		c33.236,28.521,83.967,46.743,140.803,46.743s107.566-18.223,140.803-46.743"/>
	<path clip-path="url(#SVGID_1_)" fill="none" stroke="#BEE37B" stroke-width="2.081" stroke-miterlimit="10" d="M28.288,84.788
		c2.414,1.95,4.73,3.662,6.826,5.12c27.491,19.153,66.263,30.135,106.366,30.135c40.104,0,78.875-10.981,106.368-30.135
		c2.095-1.458,4.412-3.17,6.825-5.12"/>
	<path clip-path="url(#SVGID_1_)" fill="#BFDB7D" d="M158.325,24.788c0-6.066-4.935-11.001-10.999-11.001s-11,4.935-11,11.001
		c0,6.064,4.936,11,11,11S158.325,30.852,158.325,24.788 M136.463,24.788c0-5.992,4.873-10.862,10.863-10.862
		s10.861,4.87,10.861,10.862c0,5.991-4.871,10.862-10.861,10.862S136.463,30.779,136.463,24.788"/>
	<path clip-path="url(#SVGID_1_)" fill="#BFDB7D" d="M138.167,29.291c-0.053-0.095-0.168-0.14-0.271-0.092
		c-0.101,0.048-0.15,0.172-0.096,0.272c0.052,0.099,0.175,0.143,0.274,0.088C138.175,29.506,138.216,29.388,138.167,29.291"/>
	<path clip-path="url(#SVGID_1_)" fill="#BFDB7D" d="M137.923,28.761c-0.039-0.101-0.157-0.148-0.263-0.109
		c-0.104,0.044-0.156,0.163-0.114,0.267c0.046,0.105,0.169,0.15,0.271,0.105C137.92,28.977,137.967,28.859,137.923,28.761"/>
	<path clip-path="url(#SVGID_1_)" fill="#BFDB7D" d="M137.538,27.692l-0.006-0.027l-0.009-0.03
		c-0.041-0.089-0.142-0.133-0.239-0.107c-0.11,0.027-0.175,0.142-0.143,0.25c0.03,0.106,0.143,0.169,0.251,0.135
		C137.49,27.881,137.55,27.788,137.538,27.692"/>
	<path clip-path="url(#SVGID_1_)" fill="#BFDB7D" d="M137.713,28.215c-0.035-0.101-0.15-0.156-0.258-0.121
		c-0.105,0.037-0.163,0.152-0.127,0.259c0.033,0.108,0.157,0.16,0.263,0.12C137.695,28.432,137.744,28.32,137.713,28.215"/>
	<path clip-path="url(#SVGID_1_)" fill="#BFDB7D" d="M137.231,27.34c0.109-0.027,0.179-0.136,0.155-0.24
		c-0.025-0.109-0.134-0.175-0.246-0.15c-0.108,0.023-0.179,0.129-0.151,0.24C137.014,27.302,137.124,27.368,137.231,27.34"/>
	<path clip-path="url(#SVGID_1_)" fill="#BFDB7D" d="M139.427,31.245c-0.068-0.083-0.195-0.097-0.282-0.027
		c-0.089,0.07-0.106,0.199-0.034,0.287c0.071,0.089,0.202,0.097,0.288,0.023C139.485,31.457,139.492,31.33,139.427,31.245"/>
	<path clip-path="url(#SVGID_1_)" fill="#BFDB7D" d="M138.44,29.806c-0.056-0.096-0.18-0.129-0.276-0.075
		c-0.102,0.053-0.138,0.177-0.08,0.275c0.058,0.099,0.179,0.13,0.277,0.072C138.458,30.021,138.494,29.899,138.44,29.806"/>
	<path clip-path="url(#SVGID_1_)" fill="#BFDB7D" d="M139.524,31.675c-0.084,0.073-0.097,0.206-0.018,0.289
		c0.078,0.08,0.207,0.084,0.289,0.005c0.08-0.077,0.086-0.204,0.012-0.283C139.732,31.609,139.609,31.6,139.524,31.675"/>
	<path clip-path="url(#SVGID_1_)" fill="#BFDB7D" d="M137.271,26.526c-0.019-0.106-0.126-0.178-0.236-0.161
		c-0.112,0.015-0.186,0.121-0.166,0.231c0.019,0.113,0.125,0.186,0.236,0.164S137.29,26.632,137.271,26.526"/>
	<path clip-path="url(#SVGID_1_)" fill="#BFDB7D" d="M140.071,32.05c-0.053,0-0.102,0.021-0.142,0.059
		c-0.042,0.041-0.061,0.092-0.061,0.145c0,0.051,0.021,0.103,0.061,0.142c0.082,0.079,0.212,0.075,0.288-0.008
		c0.077-0.083,0.077-0.209-0.003-0.282C140.175,32.067,140.124,32.05,140.071,32.05"/>
	<path clip-path="url(#SVGID_1_)" fill="#BFDB7D" d="M139.07,30.784c-0.063-0.088-0.189-0.106-0.282-0.044
		c-0.091,0.066-0.113,0.191-0.05,0.285c0.034,0.046,0.081,0.073,0.134,0.08c0.052,0.009,0.107-0.005,0.152-0.04
		c0.045-0.033,0.071-0.08,0.078-0.131C139.111,30.884,139.101,30.828,139.07,30.784"/>
	<path clip-path="url(#SVGID_1_)" fill="#BFDB7D" d="M138.742,30.304c-0.058-0.092-0.184-0.118-0.28-0.06
		c-0.097,0.06-0.125,0.186-0.064,0.281c0.061,0.094,0.187,0.121,0.28,0.058C138.77,30.521,138.799,30.396,138.742,30.304"/>
	<path clip-path="url(#SVGID_1_)" fill="#BFDB7D" d="M137.034,23.21c0.11,0.015,0.218-0.058,0.236-0.164
		c0.019-0.107-0.054-0.212-0.166-0.232c-0.111-0.023-0.216,0.051-0.236,0.163C136.848,23.086,136.923,23.193,137.034,23.21"/>
	<path clip-path="url(#SVGID_1_)" fill="#BFDB7D" d="M138.164,19.842c0.097,0.054,0.221,0.02,0.276-0.071
		c0.053-0.096,0.018-0.219-0.079-0.277c-0.097-0.056-0.218-0.024-0.277,0.074C138.028,19.665,138.062,19.788,138.164,19.842"/>
	<path clip-path="url(#SVGID_1_)" fill="#BFDB7D" d="M137.455,21.479c0.107,0.034,0.223-0.021,0.258-0.12
		c0.032-0.106-0.017-0.217-0.122-0.259c-0.106-0.039-0.23,0.011-0.263,0.119C137.292,21.326,137.35,21.443,137.455,21.479"/>
	<path clip-path="url(#SVGID_1_)" fill="#BFDB7D" d="M137.66,20.921c0.105,0.04,0.224-0.008,0.263-0.108
		c0.044-0.1-0.003-0.217-0.105-0.261c-0.103-0.048-0.226,0-0.272,0.102C137.504,20.76,137.556,20.877,137.66,20.921"/>
	<path clip-path="url(#SVGID_1_)" fill="#BFDB7D" d="M137.188,25.951c-0.018-0.108-0.112-0.187-0.224-0.179
		c-0.114,0.014-0.199,0.113-0.182,0.226c0.014,0.111,0.117,0.19,0.227,0.176C137.123,26.157,137.203,26.057,137.188,25.951"/>
	<path clip-path="url(#SVGID_1_)" fill="#BFDB7D" d="M139.427,18.327c0.066-0.084,0.058-0.208-0.028-0.282
		c-0.086-0.073-0.217-0.065-0.288,0.023c-0.072,0.089-0.055,0.217,0.034,0.288C139.232,18.425,139.359,18.413,139.427,18.327"/>
	<path clip-path="url(#SVGID_1_)" fill="#BFDB7D" d="M138.742,19.269c0.057-0.091,0.03-0.214-0.064-0.279
		c-0.093-0.064-0.219-0.037-0.28,0.057c-0.059,0.097-0.033,0.222,0.064,0.281C138.558,19.388,138.684,19.362,138.742,19.269"/>
	<path clip-path="url(#SVGID_1_)" fill="#BFDB7D" d="M140.643,32.5l-0.022-0.021c-0.082-0.048-0.194-0.034-0.262,0.042
		c-0.074,0.083-0.067,0.21,0.017,0.284c0.087,0.074,0.214,0.065,0.286-0.024c0.066-0.077,0.066-0.188,0.003-0.26L140.643,32.5z"/>
	<path clip-path="url(#SVGID_1_)" fill="#BFDB7D" d="M137.896,20.374c0.104,0.048,0.219,0.008,0.271-0.09
		c0.049-0.096,0.008-0.217-0.09-0.268c-0.102-0.054-0.225-0.011-0.277,0.087C137.747,20.205,137.794,20.328,137.896,20.374"/>
	<path clip-path="url(#SVGID_1_)" fill="#BFDB7D" d="M136.92,24.988c0.112-0.004,0.203-0.094,0.2-0.2
		c0.003-0.109-0.088-0.199-0.2-0.201c-0.113-0.001-0.206,0.087-0.21,0.201C136.714,24.9,136.807,24.989,136.92,24.988"/>
	<path clip-path="url(#SVGID_1_)" fill="#BFDB7D" d="M137.284,22.048c0.097,0.023,0.198-0.022,0.239-0.11l0.009-0.028l0.006-0.029
		c0.012-0.094-0.048-0.19-0.144-0.222c-0.11-0.034-0.223,0.029-0.254,0.137C137.109,21.906,137.174,22.016,137.284,22.048"/>
	<path clip-path="url(#SVGID_1_)" fill="#BFDB7D" d="M136.926,24.394c0.113,0.003,0.203-0.082,0.211-0.189
		c0.01-0.109-0.075-0.203-0.188-0.214c-0.113-0.007-0.21,0.076-0.219,0.189C136.72,24.294,136.815,24.39,136.926,24.394"/>
	<path clip-path="url(#SVGID_1_)" fill="#BFDB7D" d="M136.949,25.582c0.112-0.01,0.197-0.104,0.187-0.212
		c-0.007-0.108-0.097-0.192-0.21-0.189c-0.112,0.004-0.206,0.097-0.197,0.214C136.738,25.504,136.836,25.59,136.949,25.582"/>
	<path clip-path="url(#SVGID_1_)" fill="#BFDB7D" d="M136.965,23.798c0.111,0.013,0.206-0.07,0.224-0.175
		c0.013-0.108-0.067-0.207-0.179-0.221c-0.11-0.016-0.213,0.061-0.228,0.175C136.766,23.69,136.851,23.789,136.965,23.798"/>
	<path clip-path="url(#SVGID_1_)" fill="#BFDB7D" d="M137.143,22.625c0.109,0.023,0.219-0.044,0.244-0.15
		c0.024-0.105-0.046-0.213-0.153-0.243c-0.111-0.025-0.219,0.041-0.244,0.152C136.961,22.494,137.033,22.604,137.143,22.625"/>
	<path clip-path="url(#SVGID_1_)" fill="#BFDB7D" d="M139.07,18.791c0.031-0.046,0.042-0.099,0.032-0.15
		c-0.007-0.05-0.033-0.098-0.078-0.132c-0.045-0.035-0.1-0.049-0.152-0.043c-0.053,0.008-0.1,0.036-0.134,0.081
		c-0.063,0.096-0.041,0.223,0.052,0.286C138.881,18.896,139.007,18.877,139.07,18.791"/>
	<path clip-path="url(#SVGID_1_)" fill="#BFDB7D" d="M155.896,19.245l0.017,0.024l0.017,0.026c0.063,0.069,0.173,0.087,0.261,0.035
		c0.095-0.061,0.124-0.185,0.063-0.279c-0.063-0.098-0.188-0.122-0.279-0.06C155.888,19.048,155.856,19.155,155.896,19.245"/>
	<path clip-path="url(#SVGID_1_)" fill="#BFDB7D" d="M155.127,17.899c0.086-0.074,0.095-0.207,0.018-0.289s-0.208-0.086-0.289-0.006
		c-0.08,0.078-0.085,0.203-0.01,0.284C154.919,17.965,155.043,17.973,155.127,17.899"/>
	<path clip-path="url(#SVGID_1_)" fill="#BFDB7D" d="M154.58,17.524c0.051,0,0.103-0.02,0.142-0.061
		c0.042-0.04,0.063-0.091,0.063-0.144c0-0.05-0.021-0.104-0.063-0.143c-0.081-0.078-0.21-0.075-0.288,0.008
		c-0.075,0.085-0.075,0.212,0.003,0.287C154.477,17.507,154.527,17.524,154.58,17.524"/>
	<path clip-path="url(#SVGID_1_)" fill="#BFDB7D" d="M155.227,18.327c0.066,0.086,0.192,0.098,0.28,0.029
		c0.091-0.071,0.105-0.197,0.035-0.288c-0.07-0.088-0.203-0.096-0.288-0.021C155.168,18.119,155.158,18.243,155.227,18.327"/>
	<path clip-path="url(#SVGID_1_)" fill="#BFDB7D" d="M155.582,18.791c0.063,0.087,0.188,0.106,0.281,0.042
		c0.093-0.063,0.115-0.19,0.05-0.282c-0.034-0.049-0.083-0.077-0.134-0.085c-0.051-0.006-0.106,0.008-0.151,0.043
		c-0.045,0.034-0.072,0.082-0.079,0.132C155.54,18.691,155.551,18.745,155.582,18.791"/>
	<path clip-path="url(#SVGID_1_)" fill="#BFDB7D" d="M154.292,17.053c0.076-0.084,0.069-0.213-0.017-0.286
		c-0.088-0.074-0.214-0.065-0.284,0.023c-0.074,0.087-0.065,0.214,0.015,0.285C154.091,17.147,154.218,17.136,154.292,17.053"/>
	<path clip-path="url(#SVGID_1_)" fill="#BFDB7D" d="M152.359,15.675c0.056-0.098,0.021-0.226-0.079-0.276
		c-0.103-0.054-0.225-0.013-0.274,0.089c-0.051,0.1-0.014,0.222,0.082,0.271C152.186,15.807,152.306,15.774,152.359,15.675"/>
	<path clip-path="url(#SVGID_1_)" fill="#BFDB7D" d="M139.809,17.886c0.074-0.079,0.066-0.204-0.013-0.282
		c-0.082-0.08-0.212-0.076-0.289,0.006c-0.079,0.082-0.066,0.214,0.018,0.289C139.609,17.973,139.734,17.965,139.809,17.886"/>
	<path clip-path="url(#SVGID_1_)" fill="#BFDB7D" d="M152.871,15.978c0.061-0.095,0.033-0.224-0.064-0.281
		c-0.098-0.057-0.224-0.025-0.278,0.075c-0.056,0.098-0.025,0.221,0.068,0.274C152.688,16.104,152.809,16.074,152.871,15.978"/>
	<path clip-path="url(#SVGID_1_)" fill="#BFDB7D" d="M153.364,16.311c0.066-0.092,0.045-0.221-0.047-0.287
		c-0.093-0.064-0.222-0.035-0.283,0.059c-0.063,0.096-0.037,0.215,0.053,0.28C153.173,16.424,153.3,16.403,153.364,16.311"/>
	<path clip-path="url(#SVGID_1_)" fill="#BFDB7D" d="M157.701,23.994c-0.111,0.009-0.194,0.103-0.188,0.211
		c0.009,0.108,0.1,0.192,0.212,0.189c0.111-0.004,0.206-0.099,0.196-0.213C157.913,24.069,157.814,23.984,157.701,23.994"/>
	<path clip-path="url(#SVGID_1_)" fill="#BFDB7D" d="M157.463,23.624c0.016,0.106,0.112,0.187,0.225,0.177
		c0.113-0.012,0.198-0.111,0.183-0.223c-0.017-0.114-0.116-0.191-0.229-0.175C157.531,23.417,157.45,23.516,157.463,23.624"/>
	<path clip-path="url(#SVGID_1_)" fill="#BFDB7D" d="M157.42,22.232c-0.11,0.029-0.179,0.138-0.154,0.242
		c0.023,0.107,0.134,0.174,0.243,0.151c0.11-0.022,0.181-0.131,0.154-0.242C157.639,22.273,157.529,22.207,157.42,22.232"/>
	<path clip-path="url(#SVGID_1_)" fill="#BFDB7D" d="M157.381,23.046c0.02,0.106,0.126,0.179,0.237,0.164
		c0.112-0.017,0.186-0.124,0.165-0.233c-0.02-0.112-0.126-0.186-0.236-0.162C157.436,22.836,157.359,22.94,157.381,23.046"/>
	<path clip-path="url(#SVGID_1_)" fill="#BFDB7D" d="M157.732,24.586c-0.104,0.002-0.187,0.077-0.199,0.17v0.031v0.029
		c0.013,0.095,0.096,0.169,0.199,0.171c0.11,0.001,0.205-0.087,0.208-0.2C157.938,24.674,157.843,24.585,157.732,24.586"/>
	<path clip-path="url(#SVGID_1_)" fill="#BFDB7D" d="M151.566,15.5l0.027,0.013c0.092,0.027,0.194-0.021,0.239-0.113
		c0.05-0.1,0.004-0.222-0.098-0.268c-0.104-0.048-0.223-0.002-0.268,0.103c-0.039,0.094-0.009,0.203,0.07,0.253L151.566,15.5z"/>
	<path clip-path="url(#SVGID_1_)" fill="#BFDB7D" d="M156.939,21.359c0.034,0.1,0.151,0.154,0.256,0.12
		c0.109-0.036,0.165-0.15,0.128-0.26c-0.034-0.108-0.157-0.158-0.261-0.119C156.956,21.142,156.908,21.254,156.939,21.359"/>
	<path clip-path="url(#SVGID_1_)" fill="#BFDB7D" d="M156.487,20.284c0.049,0.098,0.165,0.138,0.267,0.09
		c0.103-0.046,0.151-0.169,0.098-0.269c-0.053-0.1-0.174-0.141-0.274-0.09C156.479,20.067,156.437,20.188,156.487,20.284"/>
	<path clip-path="url(#SVGID_1_)" fill="#BFDB7D" d="M156.73,20.813c0.038,0.101,0.156,0.148,0.261,0.108
		c0.105-0.044,0.157-0.159,0.115-0.266c-0.049-0.103-0.17-0.151-0.272-0.103C156.73,20.596,156.684,20.715,156.73,20.813"/>
	<path clip-path="url(#SVGID_1_)" fill="#BFDB7D" d="M156.212,19.771c0.054,0.091,0.178,0.126,0.277,0.071
		c0.1-0.053,0.135-0.176,0.076-0.274c-0.053-0.098-0.178-0.13-0.275-0.073C156.19,19.554,156.158,19.675,156.212,19.771"/>
	<path clip-path="url(#SVGID_1_)" fill="#BFDB7D" d="M157.119,21.913c0.029,0.103,0.14,0.163,0.249,0.136
		c0.109-0.03,0.174-0.142,0.141-0.252c-0.03-0.109-0.142-0.171-0.252-0.137C157.152,21.696,157.091,21.809,157.119,21.913"/>
	<path clip-path="url(#SVGID_1_)" fill="#BFDB7D" d="M153.839,16.671c0.07-0.09,0.056-0.219-0.032-0.287
		c-0.09-0.071-0.218-0.053-0.284,0.036c-0.065,0.093-0.05,0.218,0.034,0.287C153.643,16.772,153.769,16.758,153.839,16.671"/>
	<path clip-path="url(#SVGID_1_)" fill="#BFDB7D" d="M143.086,15.503c0.101-0.043,0.143-0.165,0.1-0.268
		c-0.047-0.105-0.166-0.151-0.27-0.103c-0.102,0.046-0.146,0.168-0.098,0.268C142.867,15.502,142.988,15.548,143.086,15.503"/>
	<path clip-path="url(#SVGID_1_)" fill="#BFDB7D" d="M151.028,15.276c0.103,0.041,0.217-0.011,0.259-0.115
		c0.045-0.106-0.004-0.223-0.111-0.263c-0.104-0.043-0.222,0.008-0.261,0.113C150.876,15.118,150.929,15.236,151.028,15.276"/>
	<path clip-path="url(#SVGID_1_)" fill="#BFDB7D" d="M143.625,15.276c0.1-0.04,0.149-0.158,0.111-0.265
		c-0.038-0.105-0.156-0.156-0.261-0.116c-0.106,0.043-0.155,0.16-0.113,0.266C143.406,15.263,143.521,15.317,143.625,15.276"/>
	<path clip-path="url(#SVGID_1_)" fill="#BFDB7D" d="M142.055,16.046c0.096-0.054,0.124-0.177,0.069-0.274
		c-0.056-0.1-0.182-0.132-0.279-0.076c-0.098,0.058-0.125,0.187-0.064,0.282C141.842,16.073,141.964,16.104,142.055,16.046"/>
	<path clip-path="url(#SVGID_1_)" fill="#BFDB7D" d="M144.173,15.081c0.103-0.036,0.158-0.148,0.127-0.255
		c-0.033-0.108-0.146-0.171-0.254-0.134c-0.107,0.035-0.165,0.153-0.127,0.259C143.957,15.056,144.07,15.116,144.173,15.081"/>
	<path clip-path="url(#SVGID_1_)" fill="#BFDB7D" d="M144.731,14.916c0.104-0.029,0.168-0.134,0.144-0.244
		c-0.026-0.111-0.139-0.182-0.247-0.152c-0.108,0.033-0.173,0.144-0.142,0.252C144.517,14.881,144.628,14.944,144.731,14.916"/>
	<path clip-path="url(#SVGID_1_)" fill="#BFDB7D" d="M141.566,16.363c0.087-0.064,0.113-0.186,0.051-0.279
		c-0.061-0.095-0.19-0.123-0.281-0.06c-0.094,0.067-0.116,0.195-0.049,0.287C141.354,16.403,141.479,16.425,141.566,16.363"/>
	<path clip-path="url(#SVGID_1_)" fill="#BFDB7D" d="M140.071,17.524c0.053,0,0.104-0.017,0.144-0.053
		c0.079-0.075,0.079-0.202,0.002-0.287c-0.076-0.083-0.205-0.086-0.288-0.008c-0.04,0.039-0.059,0.093-0.061,0.143
		c0,0.053,0.021,0.104,0.061,0.144C139.969,17.502,140.018,17.524,140.071,17.524"/>
	<path clip-path="url(#SVGID_1_)" fill="#BFDB7D" d="M140.62,17.094l0.022-0.021l0.023-0.018c0.062-0.075,0.062-0.188-0.003-0.265
		c-0.072-0.088-0.199-0.097-0.286-0.023c-0.084,0.073-0.092,0.202-0.018,0.286C140.427,17.129,140.539,17.144,140.62,17.094"/>
	<path clip-path="url(#SVGID_1_)" fill="#BFDB7D" d="M141.097,16.708c0.083-0.069,0.1-0.194,0.033-0.287
		c-0.068-0.089-0.196-0.108-0.283-0.038c-0.09,0.07-0.105,0.197-0.035,0.285C140.885,16.755,141.011,16.771,141.097,16.708"/>
	<path clip-path="url(#SVGID_1_)" fill="#BFDB7D" d="M142.563,15.759c0.096-0.049,0.133-0.171,0.084-0.271
		c-0.051-0.102-0.175-0.143-0.274-0.089c-0.102,0.05-0.137,0.178-0.081,0.276C142.347,15.774,142.467,15.807,142.563,15.759"/>
	<path clip-path="url(#SVGID_1_)" fill="#BFDB7D" d="M148.778,14.686c0.107,0.012,0.208-0.061,0.226-0.172
		c0.021-0.111-0.055-0.222-0.168-0.232c-0.112-0.016-0.213,0.064-0.226,0.176C148.594,14.57,148.671,14.673,148.778,14.686"/>
	<path clip-path="url(#SVGID_1_)" fill="#BFDB7D" d="M149.354,14.784c0.105,0.021,0.211-0.049,0.235-0.157
		c0.024-0.11-0.046-0.222-0.155-0.243c-0.11-0.021-0.217,0.052-0.238,0.163C149.177,14.658,149.247,14.763,149.354,14.784"/>
	<path clip-path="url(#SVGID_1_)" fill="#BFDB7D" d="M148.199,14.622c0.107,0.005,0.206-0.077,0.218-0.187
		c0.011-0.115-0.071-0.211-0.185-0.221c-0.111-0.007-0.208,0.075-0.217,0.189C148.01,14.515,148.091,14.611,148.199,14.622"/>
	<path clip-path="url(#SVGID_1_)" fill="#BFDB7D" d="M149.922,14.916c0.103,0.029,0.214-0.034,0.244-0.144
		c0.03-0.108-0.031-0.219-0.142-0.252c-0.108-0.03-0.221,0.041-0.246,0.152C149.752,14.782,149.818,14.887,149.922,14.916"/>
	<path clip-path="url(#SVGID_1_)" fill="#BFDB7D" d="M150.479,15.081c0.104,0.035,0.217-0.025,0.253-0.13
		c0.037-0.106-0.019-0.223-0.128-0.259c-0.104-0.037-0.222,0.026-0.253,0.134C150.321,14.933,150.376,15.044,150.479,15.081"/>
	<path clip-path="url(#SVGID_1_)" fill="#BFDB7D" d="M145.298,14.784c0.108-0.021,0.177-0.126,0.158-0.237
		c-0.021-0.111-0.127-0.184-0.238-0.163s-0.179,0.133-0.155,0.243C145.088,14.735,145.194,14.805,145.298,14.784"/>
	<path clip-path="url(#SVGID_1_)" fill="#BFDB7D" d="M147.618,14.588c0.104,0.004,0.199-0.086,0.205-0.2
		c0.007-0.111-0.081-0.204-0.194-0.208c-0.115-0.003-0.206,0.085-0.206,0.198C147.421,14.491,147.508,14.584,147.618,14.588"/>
	<path clip-path="url(#SVGID_1_)" fill="#BFDB7D" d="M146.452,14.622c0.106-0.01,0.19-0.107,0.184-0.219
		c-0.008-0.114-0.105-0.196-0.218-0.189c-0.114,0.01-0.194,0.106-0.183,0.221C146.247,14.544,146.345,14.626,146.452,14.622"/>
	<path clip-path="url(#SVGID_1_)" fill="#BFDB7D" d="M145.843,14.688l0.03-0.006l0.028-0.002c0.093-0.027,0.154-0.121,0.142-0.221
		c-0.014-0.113-0.115-0.194-0.228-0.177c-0.112,0.01-0.188,0.121-0.17,0.232C145.663,14.614,145.746,14.682,145.843,14.688"/>
	<path clip-path="url(#SVGID_1_)" fill="#BFDB7D" d="M147.035,14.588c0.107-0.004,0.195-0.097,0.192-0.21
		c0-0.113-0.092-0.201-0.204-0.198c-0.113,0.004-0.2,0.097-0.195,0.208C146.834,14.502,146.928,14.592,147.035,14.588"/>
	<path clip-path="url(#SVGID_1_)" fill="#BFDB7D" d="M155.227,31.245c-0.068,0.087-0.059,0.212,0.027,0.285
		c0.085,0.072,0.218,0.064,0.288-0.023c0.07-0.09,0.056-0.219-0.035-0.289C155.419,31.15,155.293,31.162,155.227,31.245"/>
	<path clip-path="url(#SVGID_1_)" fill="#BFDB7D" d="M147.616,34.984c-0.108,0.006-0.195,0.098-0.193,0.21
		c0,0.114,0.09,0.203,0.205,0.201c0.113-0.004,0.202-0.098,0.195-0.21C147.817,35.073,147.724,34.982,147.616,34.984"/>
	<path clip-path="url(#SVGID_1_)" fill="#BFDB7D" d="M151.593,34.06l-0.026,0.013l-0.028,0.012c-0.079,0.052-0.111,0.158-0.07,0.254
		c0.045,0.103,0.162,0.15,0.268,0.103c0.103-0.046,0.146-0.168,0.098-0.268C151.788,34.083,151.686,34.036,151.593,34.06"/>
	<path clip-path="url(#SVGID_1_)" fill="#BFDB7D" d="M153.087,33.21c-0.09,0.063-0.115,0.186-0.053,0.28
		c0.06,0.093,0.19,0.124,0.282,0.058c0.093-0.067,0.114-0.192,0.048-0.283C153.3,33.171,153.173,33.149,153.087,33.21"/>
	<path clip-path="url(#SVGID_1_)" fill="#BFDB7D" d="M152.089,33.814c-0.097,0.049-0.134,0.17-0.083,0.271
		c0.05,0.101,0.172,0.142,0.274,0.09c0.1-0.051,0.135-0.177,0.079-0.277C152.306,33.803,152.186,33.765,152.089,33.814"/>
	<path clip-path="url(#SVGID_1_)" fill="#BFDB7D" d="M153.556,32.869c-0.083,0.068-0.099,0.193-0.033,0.282
		c0.066,0.091,0.194,0.112,0.284,0.041c0.088-0.072,0.103-0.198,0.032-0.287C153.769,32.819,153.643,32.801,153.556,32.869"/>
	<path clip-path="url(#SVGID_1_)" fill="#BFDB7D" d="M154.006,32.497c-0.08,0.072-0.089,0.2-0.018,0.287
		c0.073,0.087,0.2,0.096,0.287,0.022c0.086-0.074,0.093-0.201,0.017-0.285C154.218,32.438,154.09,32.428,154.006,32.497"/>
	<path clip-path="url(#SVGID_1_)" fill="#BFDB7D" d="M154.58,32.05c-0.053,0-0.104,0.017-0.144,0.056
		c-0.078,0.073-0.079,0.199-0.003,0.282c0.078,0.083,0.207,0.087,0.288,0.01c0.039-0.041,0.061-0.093,0.063-0.144
		c0-0.053-0.021-0.104-0.063-0.143C154.683,32.071,154.631,32.052,154.58,32.05"/>
	<path clip-path="url(#SVGID_1_)" fill="#BFDB7D" d="M148.778,34.886c-0.107,0.016-0.185,0.117-0.168,0.229
		c0.013,0.112,0.113,0.19,0.226,0.178c0.111-0.013,0.188-0.122,0.168-0.232C148.986,34.948,148.886,34.875,148.778,34.886"/>
	<path clip-path="url(#SVGID_1_)" fill="#BFDB7D" d="M149.354,34.792c-0.106,0.018-0.177,0.122-0.158,0.234
		c0.021,0.112,0.125,0.185,0.238,0.164c0.109-0.021,0.18-0.132,0.155-0.244C149.564,34.837,149.459,34.77,149.354,34.792"/>
	<path clip-path="url(#SVGID_1_)" fill="#BFDB7D" d="M148.199,34.955c-0.108,0.008-0.19,0.104-0.184,0.217
		c0.009,0.112,0.105,0.199,0.217,0.188c0.113-0.009,0.195-0.107,0.184-0.219C148.405,35.031,148.307,34.946,148.199,34.955"/>
	<path clip-path="url(#SVGID_1_)" fill="#BFDB7D" d="M150.479,34.494c-0.104,0.037-0.158,0.149-0.128,0.255
		c0.031,0.109,0.148,0.174,0.253,0.134c0.109-0.038,0.165-0.152,0.128-0.259C150.695,34.519,150.581,34.458,150.479,34.494"/>
	<path clip-path="url(#SVGID_1_)" fill="#BFDB7D" d="M149.922,34.661c-0.105,0.025-0.17,0.133-0.146,0.243
		c0.028,0.111,0.141,0.18,0.249,0.151c0.108-0.03,0.172-0.146,0.142-0.252C150.136,34.694,150.024,34.63,149.922,34.661"/>
	<path clip-path="url(#SVGID_1_)" fill="#BFDB7D" d="M151.027,34.296c-0.099,0.041-0.151,0.158-0.112,0.265
		c0.038,0.104,0.157,0.158,0.261,0.116c0.106-0.041,0.156-0.158,0.111-0.263C151.245,34.312,151.131,34.258,151.027,34.296"/>
	<path clip-path="url(#SVGID_1_)" fill="#BFDB7D" d="M152.597,33.529c-0.094,0.053-0.124,0.177-0.068,0.274
		c0.055,0.099,0.181,0.13,0.278,0.075c0.098-0.059,0.125-0.19,0.064-0.282C152.809,33.501,152.688,33.471,152.597,33.529"/>
	<path clip-path="url(#SVGID_1_)" fill="#BFDB7D" d="M157.509,26.951c-0.11-0.025-0.22,0.042-0.243,0.149
		c-0.024,0.105,0.044,0.213,0.154,0.241c0.109,0.028,0.219-0.038,0.243-0.151C157.688,27.082,157.619,26.973,157.509,26.951"/>
	<path clip-path="url(#SVGID_1_)" fill="#BFDB7D" d="M157.368,27.528c-0.109-0.031-0.22,0.029-0.249,0.135
		c-0.028,0.102,0.033,0.217,0.138,0.25c0.11,0.034,0.222-0.026,0.252-0.135C157.542,27.67,157.478,27.555,157.368,27.528"/>
	<path clip-path="url(#SVGID_1_)" fill="#BFDB7D" d="M154.846,31.686c-0.075,0.079-0.07,0.208,0.011,0.283
		c0.08,0.081,0.211,0.077,0.288-0.005c0.077-0.083,0.068-0.216-0.018-0.289C155.043,31.602,154.919,31.609,154.846,31.686"/>
	<path clip-path="url(#SVGID_1_)" fill="#BFDB7D" d="M157.618,26.365c-0.111-0.017-0.218,0.055-0.237,0.161
		c-0.021,0.107,0.055,0.212,0.166,0.235c0.11,0.021,0.217-0.052,0.236-0.165C157.804,26.486,157.73,26.384,157.618,26.365"/>
	<path clip-path="url(#SVGID_1_)" fill="#BFDB7D" d="M157.726,25.18c-0.112-0.003-0.203,0.081-0.211,0.189
		c-0.008,0.109,0.075,0.203,0.187,0.212c0.113,0.009,0.211-0.073,0.221-0.187C157.932,25.278,157.837,25.184,157.726,25.18"/>
	<path clip-path="url(#SVGID_1_)" fill="#BFDB7D" d="M157.688,25.775c-0.112-0.012-0.209,0.069-0.225,0.176
		c-0.013,0.106,0.068,0.206,0.179,0.222c0.112,0.015,0.212-0.064,0.229-0.175C157.886,25.884,157.801,25.786,157.688,25.775"/>
	<path clip-path="url(#SVGID_1_)" fill="#BFDB7D" d="M157.195,28.096c-0.104-0.035-0.222,0.019-0.256,0.122
		c-0.031,0.103,0.017,0.217,0.121,0.257c0.105,0.038,0.229-0.014,0.263-0.122C157.36,28.246,157.305,28.131,157.195,28.096"/>
	<path clip-path="url(#SVGID_1_)" fill="#BFDB7D" d="M156.991,28.654c-0.104-0.041-0.223,0.007-0.263,0.107
		c-0.045,0.098,0.002,0.216,0.105,0.263c0.103,0.045,0.224,0,0.272-0.102C157.148,28.815,157.096,28.696,156.991,28.654"/>
	<path clip-path="url(#SVGID_1_)" fill="#BFDB7D" d="M155.582,30.786c-0.031,0.042-0.042,0.098-0.033,0.148
		c0.007,0.051,0.034,0.098,0.078,0.133c0.044,0.033,0.102,0.047,0.152,0.038c0.051-0.005,0.1-0.034,0.134-0.078
		c0.065-0.095,0.041-0.22-0.05-0.283C155.77,30.678,155.645,30.696,155.582,30.786"/>
	<path clip-path="url(#SVGID_1_)" fill="#BFDB7D" d="M156.19,30.245c-0.088-0.053-0.2-0.036-0.262,0.035l-0.016,0.025l-0.017,0.026
		c-0.04,0.088-0.009,0.194,0.077,0.253c0.093,0.062,0.218,0.036,0.28-0.059C156.314,30.431,156.285,30.305,156.19,30.245"/>
	<path clip-path="url(#SVGID_1_)" fill="#BFDB7D" d="M156.754,29.199c-0.102-0.048-0.218-0.003-0.267,0.092
		c-0.051,0.096-0.011,0.217,0.09,0.267c0.101,0.056,0.223,0.015,0.274-0.088C156.905,29.373,156.856,29.247,156.754,29.199"/>
	<path clip-path="url(#SVGID_1_)" fill="#BFDB7D" d="M156.489,29.731c-0.1-0.052-0.224-0.021-0.277,0.075
		c-0.054,0.093-0.021,0.215,0.078,0.274c0.098,0.056,0.219,0.025,0.275-0.074C156.624,29.909,156.589,29.784,156.489,29.731"/>
	<path clip-path="url(#SVGID_1_)" fill="#BFDB7D" d="M145.298,34.792c-0.104-0.022-0.21,0.046-0.235,0.154
		c-0.026,0.112,0.044,0.223,0.155,0.244s0.218-0.052,0.238-0.164C145.475,34.914,145.406,34.81,145.298,34.792"/>
	<path clip-path="url(#SVGID_1_)" fill="#BFDB7D" d="M141.78,33.596c-0.061,0.092-0.033,0.223,0.064,0.281
		c0.098,0.056,0.224,0.025,0.279-0.074c0.055-0.098,0.024-0.222-0.069-0.274C141.964,33.471,141.841,33.5,141.78,33.596"/>
	<path clip-path="url(#SVGID_1_)" fill="#BFDB7D" d="M141.287,33.265c-0.066,0.091-0.045,0.217,0.049,0.283
		c0.092,0.067,0.221,0.035,0.281-0.057c0.062-0.095,0.036-0.217-0.051-0.281C141.476,33.148,141.353,33.171,141.287,33.265"/>
	<path clip-path="url(#SVGID_1_)" fill="#BFDB7D" d="M142.292,33.898c-0.056,0.1-0.022,0.226,0.081,0.276
		c0.1,0.053,0.224,0.012,0.273-0.089s0.013-0.222-0.084-0.271C142.467,33.765,142.347,33.803,142.292,33.898"/>
	<path clip-path="url(#SVGID_1_)" fill="#BFDB7D" d="M143.623,34.296c-0.102-0.038-0.217,0.015-0.261,0.118
		c-0.042,0.105,0.007,0.222,0.113,0.263c0.104,0.042,0.221-0.012,0.261-0.116C143.774,34.455,143.725,34.337,143.623,34.296"/>
	<path clip-path="url(#SVGID_1_)" fill="#BFDB7D" d="M140.812,32.903c-0.07,0.088-0.055,0.217,0.035,0.289
		c0.087,0.07,0.215,0.05,0.283-0.041c0.067-0.089,0.05-0.214-0.033-0.282C141.01,32.8,140.885,32.819,140.812,32.903"/>
	<path clip-path="url(#SVGID_1_)" fill="#BFDB7D" d="M144.731,34.661c-0.104-0.031-0.215,0.033-0.246,0.142
		c-0.032,0.106,0.031,0.222,0.143,0.252c0.108,0.029,0.221-0.04,0.244-0.151C144.899,34.793,144.836,34.686,144.731,34.661"/>
	<path clip-path="url(#SVGID_1_)" fill="#BFDB7D" d="M144.173,34.494c-0.104-0.035-0.216,0.021-0.254,0.13
		c-0.038,0.107,0.02,0.221,0.127,0.259c0.107,0.04,0.221-0.025,0.254-0.135C144.331,34.643,144.273,34.528,144.173,34.494"/>
	<path clip-path="url(#SVGID_1_)" fill="#BFDB7D" d="M142.818,34.174c-0.051,0.1-0.005,0.22,0.098,0.266
		c0.104,0.048,0.223,0.002,0.27-0.101c0.043-0.105,0-0.225-0.1-0.269C142.988,34.025,142.867,34.07,142.818,34.174"/>
	<path clip-path="url(#SVGID_1_)" fill="#BFDB7D" d="M146.452,34.955c-0.107-0.009-0.206,0.076-0.217,0.186
		c-0.012,0.112,0.068,0.21,0.183,0.219c0.112,0.011,0.209-0.076,0.218-0.188C146.643,35.059,146.559,34.962,146.452,34.955"/>
	<path clip-path="url(#SVGID_1_)" fill="#BFDB7D" d="M145.901,34.894l-0.028-0.003l-0.03-0.005c-0.097,0.006-0.18,0.072-0.197,0.175
		c-0.019,0.11,0.058,0.219,0.17,0.232c0.112,0.015,0.214-0.066,0.228-0.178C146.054,35.014,145.994,34.922,145.901,34.894"/>
	<path clip-path="url(#SVGID_1_)" fill="#BFDB7D" d="M147.034,34.984c-0.106-0.002-0.202,0.089-0.206,0.201
		c-0.006,0.112,0.082,0.206,0.194,0.21c0.113,0.002,0.205-0.087,0.205-0.201C147.23,35.082,147.143,34.99,147.034,34.984"/>
	<path clip-path="url(#SVGID_1_)" fill="#BFDB7D" d="M137.482,24.788c0,5.426,4.417,9.844,9.844,9.844s9.844-4.418,9.844-9.844
		c0-5.429-4.416-9.847-9.844-9.847S137.482,19.358,137.482,24.788 M147.326,15.08c5.353,0,9.708,4.354,9.708,9.708
		c0,5.353-4.355,9.707-9.708,9.707s-9.709-4.354-9.709-9.707C137.617,19.434,141.974,15.08,147.326,15.08"/>
	<path clip-path="url(#SVGID_1_)" fill="#BFDB7D" d="M147.326,34.395c5.297,0,9.606-4.311,9.606-9.607
		c0-5.298-4.31-9.607-9.606-9.607s-9.608,4.309-9.608,9.607C137.718,30.083,142.029,34.395,147.326,34.395 M147.326,15.249
		c5.259,0,9.539,4.277,9.539,9.539c0,5.26-4.28,9.537-9.539,9.537s-9.539-4.277-9.539-9.537
		C137.787,19.525,142.067,15.249,147.326,15.249"/>
	<path clip-path="url(#SVGID_1_)" fill="#BFDB7D" d="M147.326,33.102c4.586,0,8.314-3.729,8.314-8.314s-3.729-8.317-8.314-8.317
		s-8.316,3.732-8.316,8.317S142.74,33.102,147.326,33.102 M147.326,16.811c4.398,0,7.976,3.577,7.976,7.977
		c0,4.396-3.577,7.975-7.976,7.975s-7.976-3.579-7.976-7.975C139.35,20.388,142.928,16.811,147.326,16.811"/>
	<path clip-path="url(#SVGID_1_)" fill="#BFDB7D" d="M147.326,32.573c4.29,0,7.784-3.495,7.784-7.786
		c0-4.293-3.494-7.785-7.784-7.785c-4.292,0-7.786,3.492-7.786,7.785C139.54,29.078,143.034,32.573,147.326,32.573 M147.326,17.138
		c4.216,0,7.648,3.432,7.648,7.649c0,4.219-3.433,7.649-7.648,7.649c-4.217,0-7.65-3.43-7.65-7.649
		C139.676,20.57,143.109,17.138,147.326,17.138"/>
	<path clip-path="url(#SVGID_1_)" fill="#BFDB7D" d="M142.933,22.33c-0.063-0.082-0.146-0.157-0.274-0.232
		c0.117,0.067,0.196,0.156,0.265,0.254c-0.401,0.72-0.63,1.551-0.63,2.435c0,1.068,0.335,2.057,0.903,2.872l-0.304,0.216
		l0.027,0.042l0.309-0.213c0.913,1.28,2.407,2.118,4.098,2.118c2.775,0,5.033-2.259,5.033-5.035c0-2.775-2.258-5.035-5.033-5.035
		c-1.832,0-3.436,0.984-4.316,2.448c-0.119-0.01-0.233-0.038-0.351-0.102c0.128,0.071,0.236,0.104,0.34,0.119
		C142.976,22.256,142.955,22.294,142.933,22.33 M147.326,19.958c2.665,0,4.83,2.165,4.83,4.829s-2.165,4.829-4.83,4.829
		c-1.62,0-3.055-0.801-3.932-2.027l0.059-0.041c0.856,1.236,2.273,2.046,3.873,2.046c2.613,0,4.738-2.156,4.738-4.807
		s-2.125-4.807-4.738-4.807c-1.676,0-3.146,0.886-3.99,2.22c-0.029,0.002-0.059,0.002-0.087,0.002
		C144.107,20.855,145.611,19.958,147.326,19.958 M144.601,23.807c0,0-0.072-0.064-0.109-0.165c-0.033-0.081-0.104-0.215-0.188-0.348
		c0.039,0.05,0.09,0.1,0.155,0.137c0.109,0.062,0.229,0.082,0.323,0.061c-0.036,0.01-0.065,0.027-0.085,0.042
		C144.54,23.657,144.601,23.807,144.601,23.807 M144.477,23.396c-0.152-0.088-0.229-0.245-0.171-0.346
		c0.011,0.005,0.019,0.01,0.02,0.011c-0.001-0.001-0.008-0.007-0.019-0.015c0.06-0.101,0.233-0.112,0.387-0.024
		c0.153,0.089,0.23,0.245,0.17,0.349C144.805,23.473,144.632,23.484,144.477,23.396 M144.153,22.96
		c-0.1-0.043-0.118-0.008-0.118-0.008c-0.07-0.083-0.183-0.167-0.185-0.167c0.002,0,0.13,0.055,0.237,0.074
		C144.088,22.859,144.067,22.896,144.153,22.96 M144.252,23.026c-0.031,0.06-0.024,0.138,0.013,0.213
		c-0.011-0.018-0.021-0.035-0.032-0.053c-0.052-0.072-0.12-0.142-0.104-0.169C144.143,22.992,144.201,23.008,144.252,23.026
		 M144.26,23.011c-0.041-0.034-0.085-0.075-0.068-0.102c0.015-0.028,0.109-0.002,0.198,0.005c0.018,0.002,0.038,0.003,0.057,0.003
		C144.366,22.923,144.297,22.954,144.26,23.011 M144.928,23.237c-0.028-0.092-0.104-0.186-0.216-0.248
		c-0.063-0.037-0.131-0.061-0.192-0.068c0.156,0.007,0.308,0,0.394-0.011c0.105-0.016,0.198,0.015,0.198,0.015
		s-0.161,0.02-0.189,0.219C144.919,23.168,144.919,23.2,144.928,23.237 M144.915,23.4c0.025-0.044,0.028-0.092,0.018-0.144
		c0.02,0.082,0.08,0.186,0.217,0.278l-0.001,0.001c-0.147-0.072-0.267-0.072-0.35-0.05C144.851,23.469,144.891,23.442,144.915,23.4
		 M145.227,24.343c-0.026,0.143-0.045,0.292-0.045,0.444c0,0.447,0.135,0.862,0.363,1.207l-0.075,0.054
		c-0.237-0.36-0.378-0.794-0.378-1.261c0-0.169,0.02-0.331,0.054-0.491C145.172,24.313,145.2,24.329,145.227,24.343 M145.512,23.465
		c0.032-0.04,0.058-0.08,0.089-0.117c0.026,0.017,0.05,0.04,0.066,0.063c-0.04,0.052-0.079,0.102-0.113,0.156
		c-0.029-0.002-0.062-0.009-0.094-0.025c0.015-0.022,0.029-0.044,0.046-0.065c0.024,0.007,0.048,0.007,0.059-0.004
		C145.564,23.473,145.544,23.475,145.512,23.465 M147.326,21.788c-0.015-0.086-0.064-0.086-0.064-0.086
		c0.044-0.08,0.064-0.189,0.064-0.191c0,0.002,0.02,0.111,0.063,0.191C147.39,21.702,147.34,21.702,147.326,21.788 M147.4,21.79
		c0.036,0,0.066,0.076,0.111,0.138c0.013,0.02,0.026,0.039,0.04,0.057c-0.052-0.062-0.129-0.102-0.216-0.106
		C147.346,21.839,147.364,21.79,147.4,21.79 M147.316,21.879c-0.089,0.004-0.166,0.044-0.22,0.108
		c0.017-0.018,0.03-0.038,0.043-0.059c0.045-0.062,0.075-0.138,0.113-0.138C147.288,21.79,147.306,21.839,147.316,21.879
		 M147.324,21.925c0.002,0.011,0.002,0.018,0.002,0.018s0-0.007,0.002-0.018c0.139,0.002,0.252,0.113,0.252,0.254
		c0,0.027-0.006,0.053-0.014,0.078c-0.079-0.007-0.159-0.011-0.24-0.011c-0.082,0-0.16,0.004-0.239,0.011
		c-0.009-0.025-0.016-0.051-0.016-0.078C147.071,22.038,147.185,21.927,147.324,21.925 M145.564,23.998
		c0.04,0.007,0.078-0.01,0.129-0.022c0.142-0.029,0.313,0.056,0.33,0.063c-0.43-0.247-0.403-0.037-0.552-0.192
		c0.033-0.065,0.066-0.13,0.106-0.192c0.213,0.053,0.014,0.136,0.446,0.384l0.001,0.001c-0.006-0.003-0.174-0.109-0.22-0.255
		c-0.018-0.047-0.021-0.091-0.049-0.123c0.073-0.049,0.036-0.137,0.036-0.137c-0.012,0.078-0.097,0.1-0.097,0.1
		c-0.017-0.004-0.036-0.007-0.058-0.008h-0.005c0.042-0.01,0.072-0.026,0.094-0.062c0.023-0.042,0.021-0.082,0.006-0.115
		c0.051-0.063,0.105-0.121,0.165-0.177c0.006,0.005,0.014,0.009,0.022,0.015c0.295,0.222,0.433,0.607,0.374,0.919
		c-0.241,0.208-0.641,0.276-0.98,0.134c-0.005-0.002-0.008-0.004-0.013-0.005c0.021-0.083,0.042-0.163,0.069-0.24
		c0.032-0.005,0.062-0.025,0.085-0.06c0.021-0.037,0.019-0.074,0.005-0.11c0,0,0.003,0,0.004,0.001
		c0.013,0.019,0.024,0.035,0.037,0.046c0,0,0.021,0.087-0.041,0.134C145.461,24.097,145.557,24.086,145.564,23.998 M145.67,23.52
		L145.67,23.52L145.67,23.52z M146.559,23.138c0.063,0.25,0.287,0.504,0.653,0.614c-0.012,0.002-0.022,0.005-0.033,0.005
		c-0.254,0.027-0.357,0.135-0.391,0.179h-0.011v-0.002c0,0-0.22-0.048-0.391,0.169c-0.006,0.008-0.014,0.015-0.019,0.02
		c0.033-0.338-0.151-0.665-0.4-0.867c-0.011-0.01-0.024-0.017-0.035-0.024c0.188-0.175,0.406-0.315,0.647-0.409
		C146.543,22.911,146.53,23.02,146.559,23.138 M147.087,22.695c0.046,0.041,0.07,0.099,0.07,0.164c0,0.101-0.061,0.183-0.152,0.183
		c-0.1,0-0.137-0.064-0.137-0.126c0-0.061,0.036-0.103,0.102-0.103c0.032,0,0.068,0.027,0.074,0.063
		c0.005,0.045-0.028,0.073-0.028,0.073c0.06-0.009,0.084-0.15-0.047-0.164c-0.09-0.01-0.141,0.07-0.141,0.143
		c0,0.028,0.019,0.164,0.177,0.164c0.049,0,0.086-0.015,0.117-0.038c0,0.001,0,0.001-0.001,0.001
		c-0.012,0.019-0.019,0.031-0.024,0.045c0,0-0.073,0.048-0.162,0.025c0,0,0.068,0.059,0.162,0.03
		c0.017,0.033,0.061,0.05,0.099,0.081c0.121,0.088,0.131,0.248,0.131,0.252c0-0.427-0.237-0.269-0.104-0.504
		c0.044-0.077,0.104-0.169,0.104-0.253c0-0.02-0.003-0.033-0.007-0.051h0.007h0.005c-0.003,0.018-0.005,0.031-0.005,0.051
		c0,0.084,0.06,0.176,0.105,0.253c0.135,0.235-0.105,0.077-0.105,0.504c0-0.004,0.01-0.164,0.13-0.252
		c0.038-0.031,0.082-0.048,0.098-0.081c0.095,0.029,0.163-0.03,0.163-0.03c-0.088,0.023-0.163-0.025-0.163-0.025
		c-0.004-0.014-0.011-0.026-0.024-0.045v-0.001c0.031,0.023,0.068,0.038,0.117,0.038c0.158,0,0.177-0.136,0.177-0.164
		c0-0.073-0.049-0.153-0.142-0.143c-0.13,0.014-0.106,0.155-0.047,0.164c0,0-0.031-0.028-0.026-0.073
		c0.005-0.036,0.041-0.063,0.073-0.063c0.064,0,0.1,0.042,0.1,0.103c0,0.062-0.035,0.126-0.135,0.126
		c-0.091,0-0.152-0.082-0.152-0.183c0-0.065,0.022-0.123,0.072-0.164c0.148,0.02,0.292,0.051,0.431,0.102
		c0.045,0.077,0.07,0.181,0.045,0.32c-0.057,0.288-0.362,0.532-0.716,0.618c-0.354-0.086-0.662-0.33-0.715-0.618
		c-0.028-0.139-0.003-0.243,0.042-0.32C146.792,22.746,146.936,22.715,147.087,22.695 M146.74,22.698
		c0.053-0.039,0.113-0.062,0.164-0.062c0.025,0,0.049,0.004,0.07,0.008C146.896,22.659,146.816,22.677,146.74,22.698
		 M147.151,22.691c0.032-0.005,0.063-0.005,0.094-0.007c0.004,0.101-0.033,0.191-0.033,0.191s0,0.006-0.003,0.015
		c0-0.008,0.002-0.016,0.002-0.024C147.211,22.808,147.195,22.743,147.151,22.691 M147.26,22.523
		c0.022-0.003,0.044-0.004,0.066-0.004c0.021,0,0.042,0.001,0.065,0.004c-0.02,0.027-0.036,0.054-0.048,0.09h-0.018h-0.019
		C147.295,22.577,147.279,22.55,147.26,22.523 M147.443,22.89c-0.003-0.009-0.003-0.015-0.003-0.015s-0.039-0.09-0.034-0.191
		c0.03,0.002,0.062,0.002,0.094,0.007c-0.044,0.052-0.059,0.117-0.059,0.175C147.441,22.874,147.443,22.881,147.443,22.89
		 M147.677,22.644c0.021-0.004,0.045-0.008,0.069-0.008c0.051,0,0.111,0.023,0.166,0.062
		C147.834,22.677,147.755,22.659,147.677,22.644 M148.07,22.823c0.777,0.305,1.33,1.069,1.33,1.964c0,1.163-0.932,2.106-2.074,2.106
		c-0.69,0-1.299-0.345-1.676-0.872l1.245-0.866c0.01,0.01,0.021,0.019,0.032,0.029c0.014,0.015,0.028,0.03,0.046,0.042
		c0.007,0.008,0.016,0.014,0.024,0.02c0.014,0.01,0.028,0.023,0.045,0.032c0.016,0.007,0.032,0.013,0.048,0.022
		c0.011,0.003,0.022,0.009,0.031,0.013c0.02,0.008,0.038,0.013,0.057,0.02c0.021,0.004,0.041,0.009,0.061,0.011
		c0.01,0.002,0.021,0.004,0.034,0.004c0.017,0.001,0.033,0.006,0.053,0.006c0.018,0,0.035-0.005,0.053-0.006
		c0.011,0,0.022-0.002,0.033-0.004c0.021-0.004,0.04-0.007,0.06-0.011c0.021-0.007,0.04-0.012,0.058-0.02
		c0.011-0.004,0.021-0.01,0.031-0.013c0.015-0.009,0.033-0.015,0.048-0.022c0.016-0.009,0.029-0.022,0.044-0.032
		c0.01-0.006,0.019-0.012,0.027-0.02c0.016-0.012,0.031-0.027,0.044-0.04c0.015-0.014,0.029-0.031,0.042-0.044
		c0.008-0.011,0.013-0.021,0.021-0.027c0.01-0.018,0.022-0.03,0.031-0.042c0.007-0.019,0.015-0.038,0.021-0.052
		c0.006-0.01,0.01-0.022,0.016-0.029c0.005-0.019,0.012-0.04,0.016-0.058c0.008-0.023,0.012-0.042,0.014-0.061
		c0.004-0.012,0.004-0.021,0.004-0.033c0.003-0.017,0.007-0.035,0.007-0.053s-0.004-0.037-0.007-0.052c0-0.014,0-0.023-0.004-0.034
		c-0.002-0.02-0.006-0.041-0.014-0.061c-0.004-0.019-0.011-0.037-0.016-0.055c-0.006-0.013-0.01-0.022-0.016-0.033
		c-0.006-0.013-0.01-0.026-0.018-0.041l0.815-0.565l-0.067-0.096l-0.81,0.573c-0.011-0.013-0.021-0.023-0.035-0.034
		c-0.013-0.016-0.028-0.028-0.044-0.044c-0.009-0.007-0.018-0.011-0.026-0.018c-0.004-0.001-0.01-0.006-0.014-0.01h-0.002
		c-0.01-0.008-0.019-0.015-0.029-0.021c-0.015-0.009-0.03-0.012-0.046-0.022c-0.011-0.006-0.022-0.009-0.034-0.013
		c-0.017-0.009-0.036-0.015-0.053-0.018c-0.021-0.006-0.042-0.011-0.065-0.015c-0.009,0-0.019-0.002-0.028-0.002
		c-0.006,0-0.01-0.001-0.017-0.001c0.061-0.175,0.175-0.318,0.346-0.315c0.033,0,0.063,0.01,0.091,0.022
		c0.011,0.015,0.022,0.022,0.032,0.026c0.033,0.03,0.053,0.068,0.048,0.118c-0.008,0.107-0.092,0.15-0.165,0.145
		c-0.055-0.006-0.105-0.041-0.098-0.094c0.005-0.046,0.05-0.072,0.076-0.046c0.022,0.021-0.004,0.047-0.004,0.047
		c0.038-0.01,0.032-0.042,0.032-0.042c0.089,0.065,0.109-0.019,0.109-0.019c-0.016,0.019-0.043,0.016-0.059,0
		c-0.045-0.047-0.079-0.045-0.109-0.035c-0.03,0.008-0.067,0.04-0.074,0.095c-0.006,0.079,0.065,0.125,0.133,0.129
		c0.093,0.001,0.173-0.066,0.185-0.171c0.006-0.051-0.006-0.094-0.031-0.127h0.001c0,0-0.085-0.17-0.404-0.201
		c-0.012,0-0.021-0.003-0.033-0.005c0.368-0.11,0.591-0.364,0.651-0.614C148.121,23.02,148.108,22.911,148.07,22.823
		 M146.954,24.081c0.008-0.009,0.021-0.009,0.031-0.009c0.028,0.039,0.038,0.076,0.03,0.108c-0.018,0.022-0.048,0.037-0.081,0.041
		c-0.042,0.004-0.088-0.013-0.122-0.047c0-0.014,0.007-0.028,0.024-0.028c0.031-0.002,0.05,0.034,0.05,0.034
		c0.005-0.034-0.031-0.052-0.031-0.052c0.031-0.007,0.044-0.017,0.05-0.028c0.007-0.004,0.016-0.008,0.022-0.014
		c0,0-0.005,0.032,0.034,0.042C146.962,24.128,146.932,24.102,146.954,24.081 M146.896,24.054c-0.009-0.014-0.017-0.019-0.017-0.019
		c0.007,0.013,0.007,0.02,0.002,0.028c-0.001,0.002-0.002,0.002-0.002,0.004c-0.017,0.016-0.045,0.019-0.062,0
		c0,0,0.002,0.007,0.009,0.018c-0.025,0.003-0.04,0.012-0.047,0.024c-0.004-0.012-0.009-0.021-0.012-0.033
		c-0.001-0.042,0.013-0.079,0.038-0.109c0.032,0.006,0.068,0.017,0.105,0.038c0.01,0.008,0.019,0.015,0.028,0.021
		C146.928,24.032,146.911,24.039,146.896,24.054 M146.743,24.085c0.004,0.032,0.014,0.059,0.031,0.081
		c0.006,0.028,0.026,0.059,0.067,0.084c0.086,0.057,0.169,0.035,0.198-0.014c0.014-0.021,0.016-0.042,0.014-0.068
		c0.005-0.013,0.007-0.024,0.006-0.041c-0.006-0.055-0.041-0.087-0.074-0.095c-0.005-0.003-0.011-0.003-0.016-0.006
		c-0.013-0.011-0.024-0.022-0.04-0.035c-0.033-0.022-0.064-0.035-0.096-0.044c0.004-0.004,0.012-0.009,0.017-0.015
		c0.028-0.012,0.058-0.022,0.091-0.022c0.168-0.003,0.282,0.14,0.344,0.315c-0.006,0-0.008,0.001-0.015,0.001
		c-0.01,0-0.021,0.002-0.03,0.002c-0.021,0.004-0.041,0.009-0.062,0.015c-0.019,0.003-0.037,0.009-0.057,0.018
		c-0.009,0.004-0.022,0.007-0.033,0.013c-0.014,0.01-0.03,0.013-0.046,0.022c-0.011,0.006-0.018,0.013-0.028,0.021h-0.003
		c-0.004,0.004-0.007,0.009-0.011,0.01c-0.012,0.007-0.021,0.011-0.029,0.018c-0.016,0.016-0.03,0.028-0.044,0.044
		c-0.016,0.014-0.028,0.029-0.041,0.046c-0.008,0.007-0.015,0.017-0.02,0.025c-0.005,0.005-0.009,0.013-0.014,0.018
		c-0.163-0.152-0.277-0.332-0.2-0.452c0.018-0.028,0.048-0.042,0.079-0.053c0.011-0.002,0.021-0.006,0.028-0.007
		c0.003-0.003,0.007,0,0.01,0C146.751,23.997,146.737,24.035,146.743,24.085 M146.899,23.886c0.062-0.049,0.176-0.069,0.336-0.09
		c0.031-0.004,0.06-0.011,0.091-0.016c0.031,0.005,0.059,0.012,0.092,0.016c0.157,0.021,0.273,0.041,0.335,0.09
		c-0.007,0-0.012-0.001-0.018-0.001c-0.223-0.024-0.341,0.169-0.387,0.338c-0.009,0-0.015-0.002-0.022-0.002
		s-0.015,0.002-0.023,0.002c-0.045-0.169-0.165-0.362-0.387-0.338C146.911,23.885,146.904,23.886,146.899,23.886 M146.636,23.991
		c-0.119,0.149,0.041,0.357,0.21,0.5c-0.004,0.003-0.009,0.007-0.012,0.013c-0.002,0.005-0.005,0.014-0.008,0.019l-0.001,0.001
		c-0.207-0.072-0.468-0.111-0.537,0.07c-0.002,0.006-0.002,0.012-0.004,0.014c-0.029-0.074-0.002-0.172,0.043-0.305
		c0.01-0.026,0.018-0.055,0.023-0.08c0.019-0.019,0.039-0.033,0.053-0.054c0.094-0.104,0.166-0.18,0.249-0.193
		C146.646,23.98,146.641,23.986,146.636,23.991 M145.316,24.382c0.304,0.114,0.676,0.111,0.952-0.09
		c-0.005,0.01-0.005,0.021-0.007,0.029c-0.103,0.256,0.047,0.425,0.047,0.425v-0.001c0.027,0.04,0.068,0.076,0.126,0.103
		c0.123,0.059,0.232,0.042,0.267-0.025c0.027-0.052,0.006-0.135-0.085-0.181c-0.062-0.029-0.113-0.024-0.138-0.005
		c-0.02,0.015-0.036,0.04-0.006,0.103c0.012,0.021,0.003,0.042-0.025,0.042c0,0,0.102,0.039,0.07-0.067c0,0,0.031,0.022,0.061,0
		c0,0-0.042,0.004-0.057-0.023c-0.016-0.037,0.03-0.054,0.083-0.029c0.064,0.029,0.081,0.089,0.064,0.131
		c-0.026,0.058-0.108,0.094-0.229,0.03c-0.058-0.03-0.095-0.068-0.112-0.11c0-0.007-0.003-0.015-0.007-0.026
		c-0.008-0.033-0.008-0.067,0.007-0.098c0.066-0.125,0.275-0.116,0.492-0.051c-0.003,0.005-0.003,0.009-0.007,0.013
		c-0.004,0.011-0.009,0.02-0.012,0.029c-0.004,0.009-0.011,0.017-0.012,0.026c0,0,0,0.001-0.001,0.001
		c-0.003,0.011-0.005,0.023-0.008,0.034c-0.004,0.018-0.009,0.037-0.013,0.057c-0.001,0.013-0.001,0.026-0.003,0.037
		c-0.001,0.004-0.001,0.009-0.001,0.014v0.002c-0.003,0.013-0.003,0.022-0.003,0.035c0,0.011,0,0.025,0.003,0.034v0.002
		c0,0.006,0,0.01,0.001,0.015c0.002,0.011,0.002,0.023,0.003,0.035c0.004,0.019,0.009,0.038,0.013,0.058
		c0.006,0.021,0.012,0.042,0.021,0.061c0.003,0.007,0.008,0.019,0.012,0.027c0.004,0.005,0.005,0.013,0.007,0.016v0.004
		c0.006,0.009,0.01,0.02,0.015,0.034c0,0,0.004,0.002,0.004,0.004l-1.237,0.877c-0.221-0.335-0.351-0.735-0.351-1.167
		c0-0.143,0.017-0.281,0.043-0.416C145.301,24.375,145.31,24.379,145.316,24.382 M147.326,26.96c1.181,0,2.143-0.973,2.143-2.173
		c0-0.954-0.61-1.762-1.453-2.055c-0.066-0.09-0.158-0.144-0.253-0.144c-0.081,0-0.141,0.017-0.188,0.04
		c-0.052-0.005-0.105-0.006-0.159-0.009c0.01-0.034,0.027-0.066,0.052-0.093c1.167,0.074,2.092,1.058,2.092,2.261
		c0,1.252-1.003,2.269-2.233,2.269c-0.746,0-1.404-0.372-1.81-0.943l0.077-0.052C145.983,26.606,146.612,26.96,147.326,26.96
		 M147.611,22.263c0.008-0.026,0.013-0.055,0.013-0.084c0-0.06-0.016-0.114-0.046-0.16c0.087,0.11,0.184,0.212,0.245,0.265
		c0.009,0.006,0.011,0.01,0.018,0.015C147.764,22.284,147.691,22.273,147.611,22.263 M147.026,22.179
		c0,0.029,0.006,0.058,0.013,0.084c-0.077,0.01-0.152,0.021-0.227,0.036l0.016-0.015c0.062-0.053,0.158-0.155,0.247-0.265
		C147.044,22.065,147.026,22.119,147.026,22.179 M147.182,22.526c0.027,0.027,0.045,0.059,0.054,0.093
		c-0.054,0.003-0.106,0.004-0.159,0.009c-0.047-0.023-0.106-0.04-0.187-0.04c-0.095,0-0.188,0.054-0.254,0.144
		c-0.285,0.099-0.543,0.256-0.759,0.462c-0.03-0.021-0.058-0.037-0.087-0.05C146.159,22.788,146.646,22.561,147.182,22.526
		 M145.839,23.225c-0.049,0.049-0.099,0.101-0.145,0.155c-0.027-0.03-0.059-0.053-0.07-0.06c0.042-0.049,0.085-0.099,0.131-0.143
		C145.781,23.19,145.81,23.205,145.839,23.225 M145.508,23.642c-0.03,0.05-0.06,0.101-0.087,0.15
		c-0.018-0.025-0.041-0.052-0.063-0.079c0.017-0.029,0.034-0.058,0.05-0.088C145.443,23.633,145.477,23.637,145.508,23.642
		 M145.255,23.359c-0.021-0.056-0.021-0.111,0.013-0.169c0.025-0.046,0.095-0.081,0.187-0.087
		C145.383,23.184,145.316,23.268,145.255,23.359 M145.276,23.89c0.017,0.02,0.025,0.037,0.025,0.037
		c0.005-0.016-0.004-0.031-0.021-0.051c0.011-0.026,0.026-0.049,0.036-0.073c0.029,0.021,0.052,0.047,0.067,0.07
		c-0.025,0.058-0.047,0.115-0.069,0.173c-0.03,0.002-0.06-0.007-0.09-0.022C145.24,23.98,145.256,23.934,145.276,23.89
		 M145.3,24.086c-0.023,0.069-0.044,0.139-0.058,0.208c-0.031-0.014-0.061-0.029-0.084-0.046c0.016-0.065,0.032-0.129,0.053-0.188
		C145.23,24.069,145.264,24.081,145.3,24.086 M147.326,27.327c1.382,0,2.506-1.139,2.506-2.54c0-1.187-0.808-2.184-1.896-2.461
		c-0.017-0.018-0.035-0.041-0.058-0.059c-0.127-0.1-0.309-0.325-0.431-0.556c0.026,0.033,0.061,0.051,0.097,0.051
		c0.1-0.003,0.124-0.062,0.121-0.111c0-0.038-0.025-0.088-0.08-0.086c-0.062,0.002-0.068,0.055-0.068,0.064
		c0,0.03,0.021,0.061,0.057,0.055c0.05-0.005,0.038-0.061,0.017-0.064c0,0,0.014,0.01,0.01,0.029
		c-0.001,0.015-0.014,0.026-0.026,0.026c-0.026,0-0.039-0.016-0.041-0.041c0-0.021,0.014-0.049,0.053-0.049
		c0.034,0,0.059,0.029,0.062,0.068c0,0.048-0.033,0.09-0.097,0.09c-0.056,0.001-0.14-0.055-0.118-0.182
		c0.005-0.035,0.021-0.067,0.044-0.098c0.041,0.004,0.091,0,0.136-0.02c0.157-0.062,0.227-0.272,0.063-0.449
		c-0.172-0.195-0.349-0.343-0.349-0.57c0,0.282,0.166,0.395,0.327,0.583c0.144,0.166,0.073,0.343-0.037,0.4
		c-0.088,0.047-0.193,0.027-0.237-0.033c-0.063-0.089-0.014-0.177,0.049-0.214c0.048-0.029,0.109-0.029,0.135,0.016
		c0.022,0.043,0,0.089-0.035,0.083c-0.031-0.004-0.022-0.042-0.022-0.042c-0.025,0.033-0.004,0.056-0.004,0.056
		c-0.109,0-0.078,0.08-0.078,0.08c0.003-0.025,0.026-0.04,0.049-0.034c0.063,0.009,0.091-0.012,0.108-0.034
		c0.02-0.03,0.031-0.075,0.006-0.123c-0.04-0.068-0.128-0.064-0.185-0.026c-0.007,0.006-0.012,0.012-0.019,0.019
		c0.026-0.098,0.051-0.223,0.055-0.361c-0.006-0.012-0.015-0.021-0.023-0.032c-0.002,0.155-0.026,0.305-0.053,0.414l0.002-0.003
		c-0.042,0.058-0.051,0.134-0.011,0.208c0.021,0.04,0.058,0.067,0.1,0.075c-0.021,0.032-0.034,0.065-0.042,0.095
		c-0.009,0.036-0.004,0.067,0.002,0.096c-0.04-0.091-0.073-0.18-0.086-0.259c-0.014,0.079-0.047,0.168-0.089,0.259
		c0.009-0.029,0.011-0.06,0.003-0.096c-0.005-0.03-0.021-0.063-0.041-0.095c0.041-0.008,0.078-0.035,0.099-0.075
		c0.042-0.074,0.032-0.15-0.012-0.208c0.002,0,0.004,0.003,0.004,0.003c-0.024-0.109-0.053-0.259-0.055-0.414
		c-0.008,0.011-0.014,0.022-0.023,0.032c0.006,0.138,0.03,0.263,0.057,0.361c-0.007-0.007-0.011-0.013-0.02-0.019
		c-0.056-0.038-0.142-0.042-0.183,0.026c-0.027,0.048-0.016,0.093,0.005,0.123c0.018,0.022,0.043,0.043,0.107,0.034
		c0.021-0.006,0.046,0.009,0.049,0.034c0,0,0.032-0.08-0.077-0.08c0,0,0.022-0.023-0.002-0.056c0,0,0.006,0.038-0.024,0.042
		c-0.035,0.006-0.057-0.04-0.035-0.083c0.025-0.045,0.087-0.045,0.135-0.016c0.062,0.037,0.113,0.125,0.05,0.214
		c-0.046,0.06-0.151,0.08-0.238,0.033c-0.11-0.057-0.182-0.234-0.037-0.4c0.159-0.188,0.328-0.301,0.328-0.583
		c0,0.227-0.178,0.375-0.352,0.57c-0.158,0.177-0.095,0.387,0.065,0.449c0.047,0.02,0.094,0.024,0.136,0.02
		c0.023,0.031,0.039,0.063,0.046,0.098c0.019,0.127-0.064,0.183-0.12,0.182c-0.063,0-0.097-0.042-0.097-0.09
		c0.001-0.039,0.027-0.068,0.063-0.068c0.038,0,0.053,0.028,0.053,0.049c-0.003,0.025-0.016,0.041-0.042,0.041
		c-0.012,0-0.026-0.011-0.027-0.026c-0.002-0.019,0.01-0.029,0.01-0.029c-0.021,0.003-0.033,0.059,0.018,0.064
		c0.035,0.006,0.055-0.025,0.056-0.055c0-0.009-0.004-0.063-0.066-0.064c-0.056-0.002-0.081,0.048-0.082,0.086
		c-0.002,0.049,0.021,0.108,0.122,0.111c0.035,0,0.071-0.018,0.096-0.051c-0.121,0.231-0.304,0.456-0.429,0.556
		c-0.023,0.018-0.042,0.041-0.059,0.059c-0.474,0.122-0.894,0.376-1.217,0.725c-0.133-0.009-0.235,0.026-0.279,0.097
		c-0.058,0.102-0.043,0.188,0.003,0.261c-0.013,0.022-0.025,0.044-0.038,0.068c-0.076-0.046-0.15-0.109-0.179-0.195
		c-0.072-0.208,0.041-0.394,0.356-0.293c0,0-0.2-0.172-0.445-0.128c-0.163,0.029-0.493,0.02-0.8-0.038
		c0.049,0.003,0.087-0.012,0.102-0.039c0.039-0.076-0.02-0.133-0.07-0.161c-0.043-0.023-0.109-0.035-0.131,0.005
		c-0.022,0.049,0.033,0.087,0.044,0.091c0.033,0.018,0.075,0.024,0.084-0.005c0.015-0.044-0.051-0.07-0.063-0.054
		c0,0,0.016-0.001,0.034,0.009c0.016,0.011,0.023,0.029,0.017,0.039c-0.009,0.018-0.035,0.018-0.06,0.003
		c-0.026-0.016-0.049-0.042-0.035-0.069c0.015-0.027,0.06-0.025,0.104-0.002c0.054,0.029,0.082,0.077,0.057,0.128
		c-0.021,0.04-0.12,0.066-0.251-0.028c-0.035-0.029-0.067-0.06-0.09-0.096c0.025-0.027,0.037-0.068,0.037-0.11
		c0-0.159-0.204-0.34-0.469-0.337h-0.006c0.834-1.29,2.272-2.148,3.905-2.148c2.573,0,4.666,2.126,4.666,4.738
		c0,2.613-2.093,4.737-4.666,4.737c-1.577,0-2.972-0.797-3.817-2.016l1.784-1.239C145.749,26.909,146.489,27.327,147.326,27.327
		 M143.433,22.223c0.246,0.002,0.409,0.165,0.426,0.282c0.015,0.095-0.052,0.159-0.138,0.154c-0.124-0.01-0.2-0.103-0.215-0.173
		c-0.012-0.052,0.015-0.098,0.077-0.086c0.056,0.008,0.097,0.052,0.075,0.078c-0.016,0.016-0.056-0.011-0.056-0.011
		c0.024,0.038,0.058,0.037,0.058,0.037c-0.046,0.081,0.057,0.109,0.057,0.109c-0.026-0.019-0.032-0.044-0.019-0.057
		c0.04-0.041,0.027-0.073,0.009-0.104c-0.02-0.031-0.068-0.069-0.131-0.081c-0.093-0.012-0.126,0.054-0.108,0.12
		c0.003,0.009,0.011,0.016,0.015,0.026c-0.05-0.043-0.107-0.089-0.176-0.136c0.032-0.054,0.064-0.107,0.099-0.158H143.433z
		 M143.497,22.546l-0.001-0.002c0.043,0.067,0.125,0.121,0.225,0.138c0.051,0.009,0.095-0.002,0.121-0.023
		c0.026,0.035,0.058,0.062,0.089,0.087c0.035,0.031,0.072,0.048,0.107,0.062c-0.118-0.026-0.23-0.062-0.325-0.102
		c0.083,0.059,0.168,0.142,0.252,0.23c-0.029-0.025-0.063-0.046-0.106-0.065c-0.039-0.012-0.078-0.023-0.122-0.028
		c0.004-0.038-0.006-0.078-0.04-0.118c-0.065-0.083-0.159-0.125-0.239-0.125c0.003-0.002,0.006-0.002,0.009-0.002
		c-0.066-0.026-0.144-0.058-0.226-0.096c0.018-0.035,0.038-0.07,0.059-0.105C143.375,22.452,143.44,22.502,143.497,22.546
		 M143.433,22.6c-0.009,0-0.019,0-0.027,0.003c-0.067,0.016-0.107,0.077-0.048,0.149c0.038,0.051,0.096,0.074,0.135,0.077
		c0.032,0.002,0.068-0.006,0.081-0.061c0.006-0.018,0.032-0.025,0.061-0.012c0,0-0.076-0.076-0.122,0.005
		c0,0-0.015-0.029-0.062-0.03c0,0,0.047,0.017,0.038,0.042c-0.01,0.03-0.07,0.015-0.106-0.027c-0.043-0.048-0.014-0.091,0.036-0.11
		c0.068-0.021,0.189-0.003,0.258,0.1c0.049,0.072,0.024,0.16-0.063,0.196c-0.109,0.045-0.335-0.016-0.458-0.228
		c-0.004-0.004-0.006-0.01-0.011-0.018c0.028-0.058,0.058-0.112,0.086-0.167C143.303,22.551,143.372,22.577,143.433,22.6
		 M143.654,22.951c0.038-0.023,0.067-0.052,0.078-0.09c0.042,0.005,0.085,0.014,0.127,0.031c0.149,0.068,0.176,0.165,0.149,0.204
		c-0.028,0.048-0.086,0.046-0.138,0.015c-0.042-0.026-0.067-0.063-0.051-0.089c0.018-0.028,0.053-0.024,0.079-0.007
		c0.024,0.017,0.036,0.036,0.024,0.054c-0.005,0.01-0.022,0.014-0.04,0.005c-0.02-0.009-0.025-0.026-0.025-0.026
		c-0.008,0.019,0.048,0.063,0.077,0.029c0.021-0.022-0.005-0.057-0.036-0.079c-0.011-0.004-0.072-0.033-0.102,0.011
		c-0.023,0.039,0.02,0.091,0.062,0.112c0.051,0.032,0.129,0.056,0.173-0.018c0.017-0.024,0.01-0.063-0.015-0.101
		c0.203,0.235,0.374,0.513,0.432,0.671c0.085,0.234,0.333,0.318,0.333,0.318c-0.244-0.22-0.141-0.412,0.073-0.456
		c0.09-0.016,0.181,0.016,0.26,0.059c-0.013,0.023-0.021,0.046-0.032,0.068c-0.087-0.005-0.174,0.024-0.232,0.129
		c-0.045,0.074-0.018,0.189,0.066,0.304c-0.062,0.219-0.097,0.451-0.097,0.692c0,0.526,0.157,1.011,0.427,1.417l-1.771,1.257
		c-0.515-0.76-0.816-1.683-0.816-2.674c0-0.745,0.17-1.449,0.471-2.072C143.26,22.945,143.517,23.028,143.654,22.951
		 M145.058,23.713c-0.048,0.101-0.09,0.207-0.124,0.316c-0.049-0.087-0.052-0.17-0.024-0.218
		C144.945,23.75,144.997,23.719,145.058,23.713 M143.232,22.226c0.028,0,0.058,0,0.09-0.001c-0.024,0.038-0.048,0.074-0.07,0.114
		c-0.022-0.013-0.042-0.026-0.064-0.041C143.202,22.274,143.217,22.25,143.232,22.226 M143.18,22.315
		c0.021,0.014,0.041,0.029,0.062,0.044c-0.022,0.037-0.045,0.075-0.066,0.112c-0.022-0.009-0.045-0.019-0.069-0.033
		C143.13,22.397,143.154,22.355,143.18,22.315 M143.097,22.456c0.023,0.011,0.045,0.022,0.07,0.034
		c-0.023,0.04-0.042,0.082-0.063,0.123c-0.016-0.028-0.031-0.057-0.046-0.085C143.071,22.504,143.084,22.478,143.097,22.456
		 M143.045,22.556c0.015,0.025,0.031,0.055,0.046,0.084c-0.32,0.645-0.502,1.375-0.502,2.147c0,1.007,0.307,1.942,0.829,2.714
		l-0.056,0.042c-0.545-0.783-0.867-1.734-0.867-2.756C142.495,23.98,142.694,23.221,143.045,22.556"/>
	<path clip-path="url(#SVGID_1_)" fill="#BFDB7D" d="M140.955,21.517c0.013,0.009,0.028,0.011,0.043,0.008
		c0.021-0.006,0.048-0.004,0.077,0.007l0.729,0.235l0.506,0.476c0.032,0.034,0.055,0.066,0.064,0.094
		c0.004,0.016,0.015,0.028,0.03,0.037l0.045,0.026c0.018,0.008,0.029,0.007,0.036-0.004l0.086-0.147
		c0.005-0.012,0-0.022-0.019-0.033l-0.048-0.026c-0.018-0.01-0.035-0.012-0.055-0.007c-0.024,0.011-0.047,0.011-0.068-0.003
		c-0.013-0.006-0.024-0.017-0.037-0.029l-0.337-0.319l0.439,0.142c0.016,0.005,0.031,0.011,0.045,0.017
		c-0.009,0-0.018-0.004-0.025-0.004c0.119,0.147,0.278,0.27,0.439,0.366c-0.012-0.016-0.022-0.03-0.036-0.044
		c-0.099-0.066-0.195-0.139-0.285-0.216l0.029,0.016c0.02,0.011,0.03,0.011,0.037,0l0.006-0.01h0.001l0.022-0.041
		c0.091,0.035,0.18,0.076,0.265,0.12c0.02,0.003,0.038,0.005,0.056,0.005c-0.099-0.051-0.204-0.1-0.313-0.136l0.079-0.139
		c0.005-0.009,0-0.015-0.016-0.022l-0.05-0.031c-0.017-0.008-0.033-0.012-0.052-0.006c-0.029,0.006-0.066,0.005-0.106-0.009
		l-0.808-0.262l-0.433-0.412c-0.033-0.031-0.049-0.062-0.049-0.092c0.003-0.016-0.006-0.027-0.024-0.037l-0.048-0.029
		c-0.021-0.011-0.032-0.009-0.04,0.004l-0.082,0.142c-0.007,0.011-0.002,0.023,0.015,0.033l0.047,0.027
		c0.02,0.011,0.037,0.015,0.061,0.008c0.015-0.004,0.031-0.002,0.045,0.007c0.008,0.003,0.018,0.011,0.029,0.02l0.28,0.265
		l-0.398-0.132c-0.004,0-0.008-0.002-0.011-0.005c-0.013-0.005-0.018-0.016-0.023-0.032c-0.003-0.019-0.013-0.032-0.027-0.039
		l-0.047-0.028c-0.022-0.01-0.037-0.01-0.043,0l-0.103,0.179c-0.006,0.011,0,0.022,0.02,0.033L140.955,21.517z M142.539,22.041
		c0.005,0.016,0.016,0.024,0.027,0.031c-0.03-0.025-0.064-0.052-0.094-0.082c0.012,0.001,0.022,0.007,0.032,0.009
		C142.52,22.007,142.529,22.021,142.539,22.041"/>
	<path clip-path="url(#SVGID_1_)" fill="#BFDB7D" d="M146.938,19.307c0.014,0,0.021-0.009,0.021-0.031v-0.054v-0.001
		c0-0.018-0.009-0.037-0.024-0.049c-0.021-0.017-0.03-0.036-0.03-0.061c0-0.015,0.001-0.033,0.007-0.046l0.107-0.452l0.099,0.452
		c0.003,0.018,0.005,0.038,0.005,0.058c0,0.015-0.008,0.036-0.022,0.053c-0.011,0.018-0.018,0.035-0.018,0.058v0.042
		c0,0.022,0.007,0.031,0.021,0.031h0.231c0.007,0,0.012-0.006,0.012-0.023v-0.059v-0.003c0-0.016-0.007-0.032-0.02-0.046
		c-0.022-0.021-0.038-0.053-0.047-0.098l-0.174-0.828l0.137-0.583c0.012-0.044,0.028-0.071,0.056-0.086
		c0.015-0.006,0.021-0.02,0.021-0.04v-0.055v-0.002c0-0.023-0.007-0.033-0.022-0.033h-0.166c-0.014,0-0.021,0.01-0.021,0.031v0.054
		c0,0.023,0.008,0.042,0.023,0.056c0.015,0.012,0.019,0.027,0.019,0.042c0,0.009-0.001,0.023-0.004,0.033l-0.089,0.379l-0.084-0.412
		c-0.001-0.004-0.003-0.008-0.003-0.011c0-0.013,0.006-0.025,0.018-0.037c0.012-0.012,0.019-0.027,0.019-0.043V17.49
		c0-0.027-0.007-0.039-0.021-0.039h-0.206c-0.011,0-0.018,0.01-0.018,0.033v0.002v0.057c0,0.016,0.004,0.03,0.016,0.041
		c0.016,0.017,0.026,0.039,0.033,0.071l0.162,0.748l-0.162,0.675c-0.012,0.047-0.027,0.083-0.049,0.104
		c-0.011,0.012-0.016,0.024-0.016,0.046v0.05c0,0.02,0.007,0.029,0.02,0.029H146.938z"/>
	<path clip-path="url(#SVGID_1_)" fill="#BFDB7D" d="M147.622,19.307c0.013,0,0.019-0.007,0.019-0.025v-0.054
		c0-0.021-0.006-0.034-0.019-0.05c-0.018-0.019-0.026-0.051-0.026-0.094v-1.412c0-0.04,0.009-0.071,0.026-0.091
		c0.013-0.014,0.019-0.031,0.019-0.049v-0.056c0-0.019-0.006-0.025-0.017-0.025h-0.22c-0.013,0-0.019,0.008-0.019,0.027v0.002v0.052
		c0,0.018,0.006,0.035,0.019,0.049c0.019,0.02,0.027,0.049,0.027,0.091v1.412c0,0.043-0.009,0.075-0.027,0.094
		c-0.013,0.018-0.019,0.032-0.019,0.05v0.056c0,0.016,0.006,0.023,0.016,0.023H147.622z"/>
	<path clip-path="url(#SVGID_1_)" fill="#BFDB7D" d="M147.924,19.307c0.012,0,0.017-0.007,0.017-0.025v-0.054
		c0-0.021-0.005-0.034-0.017-0.05c-0.021-0.019-0.027-0.051-0.027-0.094v-1.412c0-0.04,0.006-0.071,0.027-0.091
		c0.012-0.014,0.017-0.031,0.017-0.049v-0.056c0-0.019-0.005-0.025-0.016-0.025h-0.22c-0.013,0-0.019,0.008-0.019,0.027v0.002v0.052
		c0,0.018,0.006,0.035,0.019,0.049c0.019,0.02,0.025,0.049,0.025,0.091v1.412c0,0.043-0.007,0.075-0.025,0.094
		c-0.013,0.018-0.019,0.032-0.019,0.05v0.056c0,0.016,0.004,0.023,0.016,0.023H147.924z"/>
	<path clip-path="url(#SVGID_1_)" fill="#BFDB7D" d="M150.148,20.28c0.011,0.008,0.021,0.002,0.03-0.016l0.026-0.045
		c0.01-0.014,0.012-0.031,0.008-0.052c-0.004-0.025,0.004-0.056,0.023-0.093l0.708-1.225c0.019-0.033,0.043-0.054,0.067-0.064
		c0.02-0.007,0.033-0.018,0.041-0.035l0.028-0.047c0.008-0.013,0.008-0.023-0.002-0.029l-0.19-0.111
		c-0.01-0.006-0.02-0.002-0.029,0.015l-0.025,0.046c-0.011,0.016-0.016,0.035-0.011,0.052c0.004,0.025-0.002,0.056-0.021,0.093
		l-0.707,1.225c-0.021,0.034-0.044,0.056-0.07,0.065c-0.017,0.008-0.029,0.018-0.04,0.034l-0.028,0.047
		c-0.009,0.015-0.007,0.025,0.002,0.03L150.148,20.28z"/>
	<path clip-path="url(#SVGID_1_)" fill="#BFDB7D" d="M152.043,22.182l0.047-0.025c0.015-0.009,0.026-0.021,0.032-0.039
		c0.01-0.026,0.03-0.05,0.067-0.07l1.224-0.708c0.035-0.02,0.066-0.027,0.093-0.021c0.02,0.003,0.037,0,0.053-0.01l0.046-0.027
		c0.015-0.009,0.021-0.017,0.015-0.027l-0.111-0.19c-0.004-0.009-0.016-0.014-0.031-0.002l-0.046,0.025
		c-0.018,0.012-0.027,0.023-0.034,0.041c-0.009,0.026-0.029,0.05-0.065,0.068l-1.227,0.71c-0.032,0.018-0.063,0.025-0.092,0.021
		c-0.019-0.003-0.035,0-0.049,0.008l-0.051,0.027c-0.013,0.01-0.019,0.02-0.013,0.027l0.11,0.19
		C152.017,22.194,152.028,22.194,152.043,22.182"/>
	<path clip-path="url(#SVGID_1_)" fill="#BFDB7D" d="M153.549,21.39c-0.009,0.023-0.032,0.05-0.066,0.068l-1.226,0.707
		c-0.036,0.021-0.065,0.029-0.092,0.025c-0.02-0.004-0.036,0-0.052,0.007l-0.049,0.028c-0.017,0.007-0.019,0.017-0.015,0.025
		l0.111,0.192c0.007,0.01,0.015,0.011,0.034,0.001l0.046-0.024c0.015-0.011,0.025-0.023,0.031-0.041
		c0.009-0.026,0.03-0.049,0.066-0.07l1.225-0.706c0.035-0.021,0.065-0.028,0.093-0.025c0.019,0.004,0.037,0.002,0.052-0.006
		l0.049-0.029c0.013-0.008,0.018-0.016,0.013-0.026l-0.109-0.192c-0.008-0.009-0.018-0.011-0.034,0l-0.045,0.026
		C153.564,21.359,153.553,21.374,153.549,21.39"/>
	<path clip-path="url(#SVGID_1_)" fill="#BFDB7D" d="M152.824,24.625c-0.016-0.011-0.031-0.018-0.048-0.018h-0.057
		c-0.018,0-0.026,0.007-0.026,0.016v0.221c0,0.013,0.011,0.02,0.028,0.02h0.055c0.019,0,0.032-0.007,0.048-0.02
		c0.021-0.018,0.051-0.026,0.093-0.026h1.413c0.04,0,0.071,0.008,0.093,0.026c0.014,0.013,0.029,0.02,0.048,0.02h0.056
		c0.017,0,0.024-0.007,0.024-0.016v-0.223c0-0.011-0.009-0.018-0.027-0.018h-0.053c-0.019,0-0.035,0.007-0.048,0.018
		c-0.021,0.019-0.051,0.029-0.093,0.029h-1.413C152.875,24.654,152.845,24.645,152.824,24.625"/>
	<path clip-path="url(#SVGID_1_)" fill="#BFDB7D" d="M154.472,24.909c-0.021,0-0.036,0.007-0.049,0.021
		c-0.021,0.016-0.051,0.024-0.093,0.024h-1.413c-0.042,0-0.072-0.008-0.093-0.024c-0.016-0.014-0.031-0.021-0.048-0.021h-0.056
		c-0.02,0-0.027,0.006-0.027,0.017v0.22c0,0.013,0.011,0.018,0.029,0.018h0.054c0.019,0,0.032-0.005,0.048-0.018
		c0.021-0.018,0.051-0.028,0.093-0.028h1.413c0.04,0,0.071,0.01,0.093,0.028c0.014,0.013,0.028,0.018,0.049,0.018h0.055
		c0.017,0,0.024-0.005,0.024-0.015V24.93c0-0.014-0.009-0.021-0.027-0.021H154.472z"/>
	<path clip-path="url(#SVGID_1_)" fill="#BFDB7D" d="M154.472,25.208c-0.021,0-0.036,0.009-0.049,0.02
		c-0.021,0.018-0.051,0.028-0.093,0.028h-1.413c-0.042,0-0.072-0.01-0.093-0.028c-0.016-0.011-0.031-0.02-0.048-0.02h-0.056
		c-0.02,0-0.027,0.007-0.027,0.017v0.221c0,0.011,0.011,0.02,0.029,0.02h0.054c0.019,0,0.032-0.009,0.048-0.02
		c0.021-0.017,0.051-0.026,0.093-0.026h1.413c0.04,0,0.071,0.009,0.093,0.026c0.014,0.011,0.028,0.02,0.049,0.02h0.055
		c0.017,0,0.024-0.006,0.024-0.018v-0.22c0-0.011-0.009-0.02-0.027-0.02H154.472z"/>
	<path clip-path="url(#SVGID_1_)" fill="#BFDB7D" d="M153.784,28.207c-0.016-0.009-0.033-0.011-0.051-0.009
		c-0.025,0.005-0.059-0.002-0.096-0.022l-1.221-0.708c-0.036-0.021-0.058-0.042-0.068-0.07c-0.006-0.016-0.019-0.031-0.033-0.039
		l-0.047-0.03c-0.015-0.007-0.024-0.007-0.03,0.003l-0.109,0.191c-0.007,0.011-0.001,0.022,0.013,0.03l0.048,0.027
		c0.016,0.01,0.031,0.011,0.052,0.007c0.025-0.006,0.057,0.004,0.094,0.023l1.224,0.707c0.033,0.021,0.058,0.045,0.066,0.07
		c0.005,0.018,0.018,0.031,0.033,0.041l0.049,0.027c0.014,0.007,0.021,0.007,0.026-0.002l0.111-0.19
		c0.007-0.012,0.001-0.022-0.014-0.029L153.784,28.207z"/>
	<path clip-path="url(#SVGID_1_)" fill="#BFDB7D" d="M153.635,28.46c-0.016-0.01-0.03-0.011-0.05-0.008
		c-0.032,0.008-0.077,0-0.128-0.022l-1.472-0.634c-0.021-0.009-0.038-0.009-0.042,0l-0.015,0.025
		c-0.005,0.008,0.002,0.021,0.021,0.036l1.296,0.959c0.04,0.032,0.064,0.061,0.072,0.09c0.001,0.017,0.011,0.032,0.029,0.041
		l0.051,0.032c0.019,0.008,0.028,0.008,0.037-0.007l0.082-0.143c0.009-0.011,0.003-0.023-0.014-0.033l-0.053-0.031
		c-0.016-0.008-0.033-0.01-0.056-0.002c-0.027,0.008-0.055,0.006-0.084-0.013c-0.01-0.004-0.017-0.011-0.026-0.02l-0.672-0.498
		l0.783,0.337c0.014,0.006,0.025,0.014,0.035,0.02c0.022,0.011,0.039,0.029,0.044,0.053c0.005,0.015,0.014,0.027,0.028,0.035
		l0.05,0.031c0.017,0.01,0.03,0.01,0.034,0l0.11-0.191c0.008-0.01,0-0.022-0.014-0.03L153.635,28.46z"/>
	<path clip-path="url(#SVGID_1_)" fill="#BFDB7D" d="M151.137,30.87c-0.031-0.009-0.064-0.036-0.102-0.082l-0.956-1.285
		c-0.016-0.018-0.026-0.028-0.037-0.022l-0.024,0.014c-0.01,0.006-0.009,0.019,0,0.043l0.641,1.478
		c0.021,0.047,0.027,0.086,0.017,0.114c-0.005,0.016-0.003,0.032,0.006,0.052l0.03,0.051c0.01,0.018,0.021,0.022,0.033,0.012
		l0.145-0.083c0.012-0.005,0.012-0.018,0.003-0.034l-0.031-0.052c-0.007-0.014-0.022-0.025-0.043-0.031
		c-0.03-0.006-0.05-0.026-0.067-0.053c-0.006-0.007-0.01-0.018-0.016-0.031l-0.331-0.769l0.512,0.687
		c0.007,0.012,0.015,0.023,0.021,0.031c0.014,0.024,0.018,0.047,0.011,0.071c-0.004,0.016-0.002,0.031,0.007,0.044l0.028,0.051
		c0.009,0.019,0.021,0.023,0.029,0.019l0.189-0.11c0.012-0.009,0.013-0.019,0.004-0.035l-0.028-0.047
		C151.167,30.888,151.154,30.877,151.137,30.87"/>
	<path clip-path="url(#SVGID_1_)" fill="#BFDB7D" d="M147.748,31.973l-0.186-1.59c-0.001-0.026-0.011-0.038-0.02-0.038h-0.03
		c-0.01,0-0.018,0.012-0.021,0.038l-0.185,1.599c-0.005,0.052-0.02,0.089-0.042,0.108c-0.013,0.012-0.021,0.026-0.021,0.047v0.06
		c0,0.018,0.008,0.03,0.021,0.03h0.169c0.012,0,0.019-0.012,0.019-0.03v-0.06c0-0.018-0.009-0.035-0.024-0.05
		c-0.021-0.02-0.032-0.046-0.032-0.081c0-0.008,0.001-0.02,0.004-0.033l0.097-0.829l0.1,0.848c0,0.014,0.001,0.027,0.001,0.036
		c0,0.028-0.008,0.049-0.023,0.066c-0.013,0.015-0.018,0.027-0.018,0.043v0.06c0,0.018,0.005,0.03,0.017,0.03h0.219
		c0.013,0,0.02-0.012,0.02-0.03v-0.053c0-0.019-0.007-0.035-0.02-0.05C147.771,32.071,147.757,32.032,147.748,31.973"/>
	<path clip-path="url(#SVGID_1_)" fill="#BFDB7D" d="M146.97,30.37c-0.013,0-0.018,0.006-0.018,0.028v0.053
		c0,0.019,0.005,0.035,0.018,0.046c0.017,0.021,0.026,0.054,0.026,0.095v1.413c0,0.04-0.01,0.072-0.026,0.092
		c-0.013,0.014-0.018,0.031-0.018,0.049v0.056c0,0.016,0.004,0.025,0.016,0.025h0.22c0.012,0,0.019-0.011,0.019-0.03v-0.051
		c0-0.018-0.007-0.035-0.019-0.049c-0.021-0.02-0.027-0.05-0.027-0.092v-1.413c0-0.039,0.007-0.071,0.027-0.095
		c0.012-0.013,0.019-0.029,0.019-0.046v-0.055c0-0.02-0.006-0.026-0.016-0.026H146.97z"/>
	<path clip-path="url(#SVGID_1_)" fill="#BFDB7D" d="M144.863,29.791l-0.961,1.294c-0.029,0.043-0.061,0.066-0.091,0.072
		c-0.017,0.004-0.029,0.014-0.04,0.031l-0.029,0.052c-0.01,0.017-0.008,0.03,0.003,0.035l0.146,0.084
		c0.011,0.008,0.022,0.002,0.031-0.014l0.031-0.054c0.007-0.014,0.012-0.032,0.004-0.055c-0.011-0.027-0.005-0.054,0.012-0.083
		c0.004-0.008,0.011-0.017,0.021-0.027l0.499-0.673l-0.339,0.785c-0.007,0.013-0.012,0.027-0.018,0.032
		c-0.015,0.025-0.033,0.041-0.054,0.049c-0.017,0.004-0.028,0.011-0.037,0.026l-0.028,0.051c-0.011,0.017-0.011,0.03,0,0.034
		l0.188,0.11c0.011,0.005,0.021,0,0.03-0.018l0.026-0.045c0.009-0.016,0.014-0.032,0.009-0.049c-0.008-0.033,0-0.075,0.023-0.131
		l0.632-1.471c0.011-0.021,0.011-0.036,0.003-0.042l-0.025-0.013C144.89,29.766,144.878,29.772,144.863,29.791"/>
	<path clip-path="url(#SVGID_1_)" fill="#BFDB7D" d="M144.472,29.808c0.02-0.035,0.043-0.06,0.069-0.068
		c0.018-0.006,0.03-0.017,0.04-0.032l0.028-0.05c0.007-0.013,0.007-0.023,0-0.029l-0.192-0.111c-0.011-0.005-0.02,0-0.03,0.016
		l-0.027,0.045c-0.008,0.017-0.013,0.035-0.008,0.052c0.006,0.027-0.003,0.057-0.022,0.093l-0.708,1.226
		c-0.019,0.035-0.042,0.056-0.068,0.066c-0.019,0.007-0.031,0.016-0.041,0.032l-0.025,0.048c-0.011,0.015-0.011,0.024,0,0.029
		l0.189,0.111c0.012,0.006,0.022,0.002,0.029-0.015l0.029-0.046c0.008-0.014,0.011-0.031,0.006-0.05
		c-0.004-0.027,0.002-0.058,0.022-0.093L144.472,29.808z"/>
	<path clip-path="url(#SVGID_1_)" fill="#BFDB7D" d="M144.211,29.657c0.021-0.035,0.043-0.057,0.069-0.067
		c0.018-0.006,0.031-0.017,0.041-0.032l0.025-0.048c0.008-0.015,0.008-0.025,0-0.031l-0.19-0.111
		c-0.011-0.005-0.021-0.001-0.031,0.016l-0.026,0.045c-0.008,0.017-0.011,0.033-0.008,0.05c0.006,0.029-0.002,0.06-0.023,0.095
		l-0.705,1.225c-0.021,0.035-0.044,0.057-0.07,0.065c-0.018,0.009-0.032,0.02-0.04,0.035l-0.027,0.046
		c-0.008,0.016-0.008,0.024,0,0.03l0.192,0.11c0.011,0.008,0.021,0.003,0.029-0.014l0.026-0.044c0.01-0.019,0.014-0.035,0.008-0.054
		c-0.005-0.025,0.003-0.056,0.022-0.094L144.211,29.657z"/>
	<path clip-path="url(#SVGID_1_)" fill="#BFDB7D" d="M142.768,27.842l-1.478,0.642c-0.047,0.02-0.084,0.026-0.115,0.016
		c-0.015-0.008-0.031-0.005-0.049,0.004l-0.05,0.03c-0.018,0.01-0.023,0.022-0.016,0.036l0.084,0.143
		c0.007,0.011,0.016,0.014,0.035,0.002l0.052-0.028c0.016-0.01,0.026-0.025,0.031-0.047c0.005-0.027,0.024-0.051,0.052-0.067
		c0.008-0.004,0.018-0.012,0.031-0.015l0.769-0.331l-0.686,0.511c-0.014,0.008-0.023,0.015-0.032,0.019
		c-0.024,0.014-0.046,0.018-0.069,0.014c-0.017-0.006-0.032-0.002-0.043,0.004l-0.053,0.031c-0.017,0.011-0.024,0.017-0.018,0.029
		l0.11,0.189c0.007,0.009,0.017,0.011,0.034,0.003l0.046-0.029c0.016-0.007,0.028-0.019,0.032-0.038
		c0.01-0.033,0.038-0.066,0.084-0.101l1.284-0.955c0.021-0.017,0.027-0.029,0.022-0.038l-0.015-0.025
		C142.806,27.831,142.791,27.831,142.768,27.842"/>
	<path clip-path="url(#SVGID_1_)" fill="#BFDB7D" d="M141.131,28.435c0.009-0.026,0.03-0.049,0.065-0.071l1.225-0.705
		c0.034-0.021,0.065-0.028,0.094-0.023c0.02,0.002,0.036,0,0.052-0.009l0.049-0.027c0.013-0.01,0.02-0.019,0.013-0.028l-0.108-0.189
		c-0.008-0.01-0.018-0.01-0.035-0.002l-0.046,0.026c-0.015,0.008-0.027,0.021-0.031,0.04c-0.009,0.028-0.032,0.05-0.067,0.07
		l-1.225,0.708c-0.034,0.019-0.065,0.025-0.093,0.022c-0.017-0.003-0.036-0.002-0.051,0.007l-0.048,0.028
		c-0.016,0.009-0.02,0.018-0.014,0.028l0.111,0.19c0.005,0.01,0.016,0.01,0.033,0.002l0.046-0.025
		C141.115,28.465,141.126,28.453,141.131,28.435"/>
	<path clip-path="url(#SVGID_1_)" fill="#BFDB7D" d="M140.98,28.175c0.01-0.023,0.03-0.05,0.066-0.07l1.225-0.707
		c0.034-0.021,0.066-0.026,0.094-0.023c0.018,0.004,0.035,0,0.051-0.009l0.048-0.028c0.016-0.01,0.02-0.017,0.014-0.025
		l-0.108-0.192c-0.007-0.01-0.018-0.01-0.033-0.001l-0.048,0.027c-0.017,0.008-0.026,0.022-0.032,0.04
		c-0.008,0.026-0.03,0.049-0.067,0.069l-1.225,0.707c-0.033,0.019-0.065,0.026-0.091,0.023c-0.02-0.004-0.037,0-0.053,0.008
		l-0.046,0.027c-0.015,0.008-0.02,0.017-0.015,0.027l0.111,0.191c0.007,0.009,0.016,0.011,0.033,0.001l0.045-0.027
		C140.963,28.206,140.976,28.192,140.98,28.175"/>
	<path clip-path="url(#SVGID_1_)" fill="#BFDB7D" d="M140.831,27.915c0.009-0.027,0.03-0.051,0.065-0.07l1.224-0.705
		c0.037-0.022,0.068-0.029,0.096-0.025c0.017,0.003,0.035,0.002,0.049-0.009l0.049-0.026c0.015-0.01,0.02-0.019,0.015-0.025
		l-0.11-0.194c-0.007-0.008-0.017-0.011-0.034-0.002l-0.045,0.028c-0.016,0.007-0.027,0.022-0.032,0.039
		c-0.01,0.027-0.032,0.05-0.067,0.071l-1.225,0.706c-0.034,0.021-0.065,0.027-0.092,0.023c-0.019-0.005-0.036,0-0.053,0.008
		l-0.047,0.028c-0.015,0.009-0.02,0.016-0.015,0.026l0.112,0.19c0.005,0.01,0.016,0.012,0.033,0.003l0.045-0.026
		C140.813,27.946,140.825,27.933,140.831,27.915"/>
	<path clip-path="url(#SVGID_1_)" fill="#BFDB7D" d="M140.12,25.153h0.053c0.019,0,0.035-0.005,0.049-0.018
		c0.022-0.018,0.051-0.028,0.092-0.028h1.415c0.041,0,0.072,0.01,0.092,0.028c0.016,0.013,0.029,0.018,0.047,0.018h0.058
		c0.017,0,0.025-0.005,0.025-0.016v-0.221c0-0.011-0.01-0.016-0.028-0.016h-0.055c-0.018,0-0.031,0.005-0.047,0.016
		c-0.02,0.018-0.051,0.028-0.092,0.028h-1.415c-0.04,0-0.07-0.01-0.092-0.028c-0.015-0.011-0.03-0.016-0.049-0.016h-0.056
		c-0.016,0-0.024,0.003-0.024,0.012v0.223C140.093,25.148,140.102,25.153,140.12,25.153"/>
	<path clip-path="url(#SVGID_1_)" fill="#BFDB7D" d="M140.186,24.842c0.014,0,0.028-0.004,0.04-0.016
		c0.017-0.014,0.04-0.028,0.07-0.035l0.75-0.159l0.675,0.159c0.047,0.012,0.082,0.03,0.104,0.051
		c0.011,0.01,0.025,0.016,0.042,0.016h0.054c0.02,0,0.029-0.006,0.029-0.02v-0.173c0-0.01-0.01-0.017-0.03-0.017h-0.056
		c-0.021,0-0.037,0.007-0.051,0.023c-0.016,0.021-0.037,0.031-0.061,0.031c-0.017,0-0.031-0.004-0.048-0.008l-0.452-0.108
		l0.452-0.096c0.022-0.004,0.041-0.006,0.059-0.006s0.037,0.006,0.055,0.022c0.018,0.012,0.035,0.018,0.056,0.018h0.046
		c0.021,0,0.03-0.006,0.03-0.02v-0.232c0-0.007-0.008-0.011-0.023-0.011h-0.062c-0.017,0-0.033,0.006-0.047,0.019
		c-0.021,0.022-0.055,0.037-0.098,0.045l-0.828,0.177l-0.581-0.138c-0.046-0.01-0.073-0.03-0.088-0.057
		c-0.007-0.013-0.022-0.02-0.041-0.02h-0.054c-0.024,0-0.036,0.007-0.036,0.022v0.165c0,0.014,0.01,0.02,0.031,0.02h0.052
		c0.024,0,0.043-0.006,0.06-0.021c0.01-0.013,0.025-0.021,0.041-0.021c0.011,0,0.022,0.004,0.035,0.005l0.376,0.089l-0.411,0.086
		h-0.011c-0.014,0-0.026-0.003-0.037-0.016c-0.013-0.013-0.027-0.02-0.043-0.02h-0.055c-0.025,0-0.038,0.01-0.038,0.021v0.205
		c0,0.012,0.012,0.02,0.036,0.02H140.186z"/>
	<path clip-path="url(#SVGID_1_)" fill="#BFDB7D" d="M143.229,18.913c0.024,0.009,0.045,0.023,0.063,0.046l0.516,0.566l0.199,0.667
		c0.013,0.046,0.018,0.084,0.009,0.116c-0.003,0.012,0,0.028,0.009,0.043l0.025,0.046c0.011,0.018,0.021,0.023,0.032,0.016
		l0.148-0.085c0.012-0.008,0.012-0.019,0-0.037l-0.025-0.048c-0.01-0.018-0.025-0.029-0.046-0.031
		c-0.024-0.005-0.044-0.016-0.058-0.038c-0.007-0.013-0.014-0.029-0.02-0.044l-0.131-0.445l0.311,0.343
		c0.015,0.015,0.025,0.031,0.035,0.046c0.008,0.015,0.012,0.035,0.008,0.06c-0.002,0.02,0.003,0.038,0.012,0.058l0.024,0.036
		c0.009,0.019,0.02,0.026,0.03,0.017l0.202-0.115c0.006-0.004,0.006-0.011-0.003-0.027l-0.029-0.05
		c-0.01-0.017-0.022-0.028-0.042-0.032c-0.028-0.009-0.06-0.03-0.088-0.062l-0.565-0.629l-0.171-0.573
		c-0.014-0.047-0.012-0.08,0.003-0.106c0.01-0.01,0.007-0.027-0.003-0.043l-0.026-0.049c-0.011-0.02-0.024-0.026-0.035-0.017
		l-0.144,0.082c-0.013,0.006-0.014,0.018-0.003,0.037l0.026,0.046c0.012,0.02,0.027,0.031,0.047,0.038
		c0.017,0.002,0.031,0.014,0.038,0.026c0.005,0.009,0.01,0.02,0.014,0.032l0.111,0.37l-0.28-0.312
		c-0.003-0.004-0.007-0.008-0.007-0.01c-0.006-0.01-0.008-0.024-0.003-0.038c0.003-0.019,0.003-0.035-0.005-0.049l-0.027-0.046
		c-0.013-0.022-0.024-0.03-0.036-0.022l-0.179,0.103c-0.011,0.006-0.011,0.017,0,0.038l0.029,0.05
		C143.205,18.9,143.217,18.909,143.229,18.913"/>
	<path clip-path="url(#SVGID_1_)" fill="#BFDB7D" d="M143.771,18.598c0.025,0.01,0.049,0.031,0.069,0.066l0.707,1.224
		c0.021,0.037,0.029,0.066,0.024,0.094c-0.004,0.019-0.003,0.037,0.007,0.051l0.028,0.049c0.008,0.016,0.017,0.019,0.025,0.016
		l0.191-0.112c0.009-0.006,0.011-0.017,0.002-0.034l-0.026-0.045c-0.01-0.015-0.023-0.028-0.039-0.035
		c-0.027-0.007-0.052-0.03-0.069-0.065l-0.707-1.226c-0.021-0.035-0.028-0.064-0.025-0.091c0.007-0.02,0-0.036-0.006-0.055
		l-0.029-0.045c-0.009-0.013-0.017-0.021-0.024-0.013l-0.193,0.11c-0.009,0.006-0.01,0.016-0.001,0.032l0.026,0.048
		C143.74,18.581,143.753,18.592,143.771,18.598"/>
	<path clip-path="url(#SVGID_1_)" fill="#BFDB7D" d="M147.212,20.699c0.01-0.013,0.019-0.025,0.025-0.04
		c0.007-0.133,0.032-0.271,0.089-0.397c0.056,0.126,0.081,0.262,0.086,0.397c0.009,0.013,0.018,0.025,0.027,0.04
		c-0.005-0.146-0.035-0.304-0.113-0.442C147.246,20.395,147.216,20.553,147.212,20.699"/>
	<path clip-path="url(#SVGID_1_)" fill="#BFDB7D" d="M214.666,0.854c-13.739-0.001-27.479-0.003-41.218,0.008
		c-0.365,0-0.758,0.069-1.095,0.209c-0.979,0.411-1.62,1.043-1.968,1.846h-0.046c-0.206,0.531-0.29,1.135-0.25,1.807
		c0.002,0.035-0.003,0.066,0,0.097c0,0.015,0.002,0.065,0.003,0.134c-0.023,0.463-0.242,0.631-0.828,0.62
		c-2.008-0.044-4.019-0.029-6.029-0.009c-1.483,0.012-2.243,0.805-2.261,2.291c-0.002,0.182-0.024,0.364-0.033,0.467h-4.166
		c-0.16-1.541-0.561-1.917-2.026-2.006c-0.094-0.004-0.189-0.003-0.283-0.011c-1.712-0.186-3.425-0.37-5.136-0.557
		c-1.808-0.199-3.612-0.42-5.422-0.589c-0.647-0.058-1.147,0.252-1.334,0.916c-0.088,0.313-0.132,0.647-0.141,0.974
		c-0.021,0.593-0.268,0.77-0.881,0.773c-3.354,0.016-6.709,0.023-10.059,0.159c-2.977,0.118-5.909-0.076-8.773-0.878
		c-4.458-1.251-8.901-2.569-13.347-3.867c-2.732-0.795-5.471-1.57-8.195-2.396c-4.544-1.385-8.569-0.654-8.715-0.616
		c-1.344,0.336-2.712,0.621-4.01,1.091c-3.801,1.374-7.311,3.302-10.479,5.817c-1.767,1.406-3.36,2.947-3.68,5.362
		c-0.02,0.154-0.287,0.353-0.469,0.396c-0.757,0.173-1.531,0.275-2.289,0.442c-2.329,0.512-4.563,1.219-6.518,2.694
		c-4.236,3.2-2.822,8.993,0.83,10.406c0.124,0.047,0.232,0.138,0.454,0.274c-1.85,0.505-3.366,1.375-4.753,2.552
		c-2.099,1.782-3.009,5.096-1.874,7.558c0.457,0.994,1.265,1.831,1.95,2.711c0.314,0.403,0.715,0.741,1.084,1.116
		c-0.604,0.209-1.116,0.367-1.617,0.56c-3.274,1.274-4.588,4.494-3.851,7.59c0.963,4.05,5.129,6.476,8.495,6.851
		c3.097,0.347,6.221,0.459,9.334,0.668c2.452,0.165,4.906,0.316,7.358,0.481c0.47,0.032,0.936,0.105,1.356,0.154
		c-0.674,0.644-1.304,1.247-1.942,1.856c-0.643-0.297-1.333-0.726-2.084-0.943c-2.981-0.857-5.991-1.253-9.081-0.514
		c-3.364,0.809-5.958,2.572-7.472,5.756c-0.713,1.502-0.475,2.893,0.749,3.542c0.855,0.453,1.829,0.728,2.779,0.944
		c1.739,0.389,3.558,0.467,5.182,1.298c1.188,0.606,2.354,1.258,3.522,1.903c1.826,1.008,3.78,1.321,5.816,0.983
		c2.232-0.367,4.441-0.9,6.68-1.213c3.947-0.56,7.902-1.095,11.871-1.468c2.663-0.25,4.777-1.215,6.472-3.342
		c1.085-1.36,2.387-2.599,3.765-3.671c3.392-2.64,6.578-5.456,9.384-8.736c3.552-4.153,8.054-6.988,13.139-8.899
		c4.051-1.135,7.328,0.892,7.328,0.892l0.148,0.018c0.155,0.046,0.309,0.122,0.469,0.14c1.267,0.148,6.67,0.882,7.937,1.017
		c0.893,0.092,1.784,0.194,2.68,0.24c0.847,0.041,1.246-0.345,1.364-1.174c0.044-0.316,0.141-0.624,0.211-0.919
		c2.333,0.274,4.578,0.576,6.833,0.791c1.432,0.137,1.437,0.08,1.44,1.504c0.005,1.483,0.836,2.31,2.331,2.312
		c1.986,0.004,3.975-0.002,5.959,0.002c0.252,0.002,0.502,0.023,0.818,0.04c0,0.47-0.005,0.877,0.001,1.283v0.222
		c0.009,0.361,0.084,0.708,0.207,1.033c0.2,0.597,0.551,1.105,1.064,1.511c0.444,0.378,0.961,0.636,1.476,0.724
		c0.205,0.045,0.414,0.07,0.617,0.07c2.286,0.002,41.404-0.018,41.556-0.018v-5.299c0,0-0.684,0.051-1.879,0.113
		c-1.196,0.052-2.904,0.158-4.955,0.227c-2.052,0.075-4.443,0.139-7.007,0.18c-1.282,0.015-2.606,0.049-3.951,0.049
		c-1.346,0.008-2.714,0.015-4.08,0.019c-1.366-0.006-2.733-0.011-4.08-0.019c-1.345-0.003-2.669-0.034-3.95-0.051
		c-2.564-0.042-4.956-0.107-7.007-0.182c-2.049-0.065-3.759-0.171-4.956-0.223c-1.196-0.062-1.879-0.113-1.879-0.113
		s0.683-0.052,1.879-0.117c1.197-0.049,2.907-0.154,4.956-0.222c2.051-0.077,4.442-0.14,7.007-0.182
		c1.281-0.014,2.605-0.047,3.95-0.05c1.347-0.006,2.714-0.015,4.08-0.022c1.366,0.007,2.734,0.016,4.08,0.021
		c1.345,0.001,2.669,0.037,3.951,0.051c2.563,0.041,4.955,0.105,7.007,0.18c2.051,0.067,3.759,0.175,4.955,0.224
		c1.195,0.063,1.879,0.117,1.879,0.117V38.397c0,0-0.684,0.052-1.879,0.115c-1.196,0.049-2.904,0.156-4.955,0.223
		c-2.052,0.077-4.443,0.141-7.007,0.181c-1.282,0.015-2.606,0.05-3.951,0.051c-1.346,0.006-2.714,0.013-4.08,0.018
		c-1.366-0.005-2.733-0.012-4.08-0.019c-1.345-0.002-2.669-0.035-3.95-0.05c-2.564-0.044-4.956-0.107-7.007-0.182
		c-2.052-0.066-3.759-0.173-4.956-0.222c-1.196-0.063-1.879-0.115-1.879-0.115s0.683-0.053,1.879-0.116
		c1.197-0.049,2.904-0.158,4.956-0.223c2.051-0.076,4.442-0.138,7.007-0.181c1.281-0.017,2.605-0.049,3.95-0.052
		c1.347-0.007,2.714-0.013,4.08-0.019c1.366,0.006,2.734,0.012,4.08,0.019c1.345,0,2.669,0.035,3.951,0.05
		c2.563,0.041,4.955,0.105,7.007,0.181c2.051,0.066,3.759,0.174,4.955,0.225c1.195,0.063,1.879,0.116,1.879,0.116V17.523
		c0,0-0.684,0.051-1.879,0.115c-1.196,0.049-2.904,0.158-4.955,0.223c-2.052,0.076-4.443,0.14-7.007,0.181
		c-1.282,0.015-2.606,0.05-3.951,0.05c-1.346,0.007-2.714,0.014-4.08,0.022c-1.366-0.008-2.733-0.015-4.08-0.022
		c-1.345-0.002-2.669-0.035-3.95-0.051c-2.564-0.043-4.956-0.106-7.007-0.18c-2.049-0.067-3.759-0.174-4.956-0.225
		c-1.196-0.062-1.879-0.113-1.879-0.113s0.683-0.052,1.879-0.115c1.197-0.051,2.907-0.159,4.956-0.224
		c2.051-0.076,4.442-0.138,7.007-0.18c1.281-0.016,2.605-0.05,3.95-0.052c1.347-0.008,2.714-0.015,4.08-0.019
		c1.366,0.004,2.734,0.011,4.08,0.019c1.345,0,2.669,0.034,3.951,0.05c2.563,0.042,4.955,0.104,7.007,0.182
		c2.051,0.064,3.759,0.172,4.955,0.222c1.195,0.065,1.879,0.117,1.879,0.117V0.882C214.853,0.869,214.758,0.854,214.666,0.854
		 M135.701,24.788c0-6.272,5.104-11.378,11.377-11.378s11.377,5.106,11.377,11.378c0,6.275-5.104,11.377-11.377,11.377
		S135.701,31.063,135.701,24.788 M142.06,13.132c0.21-2.04,0.424-4.085,0.646-6.126c0.154-1.418,0.585-1.676,2.017-1.486
		c2.313,0.307,4.638,0.536,6.956,0.794c1.29,0.145,2.583,0.264,3.866,0.442c0.569,0.076,0.849,0.488,0.794,1.062
		c-0.186,1.949-0.378,3.897-0.583,5.845c-0.073,0.699-0.186,1.396-0.295,2.193c-0.031-0.025-0.066-0.049-0.1-0.073
		c-0.002,0.072-0.013,0.144-0.029,0.214c-2.16-2.028-5.062-3.284-8.254-3.284c-1.794,0-3.49,0.404-5.023,1.108
		C142.051,13.583,142.037,13.354,142.06,13.132 M140.576,34.943c0.204,0.131,0.408,0.259,0.621,0.376l-0.095-0.024
		C140.926,35.198,140.75,35.077,140.576,34.943 M153.115,37.359c-0.298,2.674-0.588,5.349-0.888,8.024
		c-0.082,0.737-0.489,1.154-1.126,1.089c-1.407-0.142-2.812-0.33-4.218-0.483c-0.854-0.092-5.508-0.7-6.673-0.821l1.232-9.714
		c1.684,0.896,3.599,1.405,5.636,1.405c2.273,0,4.396-0.642,6.213-1.739c0.007,0.077,0.009,0.156-0.003,0.239
		c0.039-0.019,0.066-0.037,0.067-0.047C153.269,36.057,153.188,36.707,153.115,37.359 M159.908,27.324
		c-0.07,0.172-0.441,0.223-0.794,0.383c0.073-0.726,0.095-1.194,0.184-1.651c0.029-0.147,0.281-1.042,0.36-1.02
		c0.18,0.057,0.442,0.904,0.442,1.041C160.106,26.495,160.061,26.939,159.908,27.324 M170.041,48.88h-1.713
		c-1.703,0-3.408-0.064-5.105,0.02c-1.099,0.055-1.891-0.668-1.878-1.904c0.048-5.363,0.015-10.731,0.015-16.098
		c0-7.65,0.004-15.303,0.007-22.956c0-1.544,0.52-2.056,2.07-2.056h6.604V48.88z M173.139,27.845
		c1.197-0.049,2.904-0.157,4.956-0.223c2.051-0.075,4.442-0.14,7.007-0.182c1.281-0.014,2.605-0.047,3.95-0.049
		c1.347-0.007,2.713-0.015,4.08-0.022c1.366,0.007,2.734,0.015,4.08,0.02c1.345,0,2.669,0.037,3.951,0.051
		c2.563,0.041,4.955,0.105,7.007,0.181c2.051,0.066,3.759,0.175,4.952,0.224c1.198,0.062,1.882,0.116,1.882,0.116
		s-0.684,0.052-1.882,0.114c-1.193,0.051-2.901,0.158-4.952,0.226c-2.052,0.075-4.443,0.139-7.007,0.18
		c-1.282,0.015-2.606,0.049-3.951,0.049c-1.346,0.008-2.714,0.015-4.08,0.02c-1.367-0.006-2.733-0.012-4.08-0.02
		c-1.345-0.002-2.669-0.037-3.95-0.05c-2.564-0.043-4.956-0.106-7.007-0.183c-2.052-0.064-3.759-0.171-4.956-0.222
		c-1.196-0.062-1.879-0.114-1.879-0.114S171.942,27.909,173.139,27.845 M179.711,10.831c-2.028,0.004-3.706-1.648-3.733-3.663
		c0.028-1.985,1.736-3.698,3.714-3.708c1.954-0.01,3.679,1.679,3.723,3.629C183.404,9.169,181.771,10.828,179.711,10.831
		 M193.979,10.833c-2.065,0.007-3.679-1.572-3.724-3.647c0.005-2.027,1.657-3.734,3.666-3.725c1.906,0.011,3.807,1.594,3.707,3.726
		c0.006,0.097,0.003,0.195,0,0.291C197.522,9.392,195.807,10.824,193.979,10.833"/>
</g>
</svg>
