<?xml version="1.0" encoding="utf-8"?>
<!-- Generator: Adobe Illustrator 15.0.0, SVG Export Plug-In . SVG Version: 6.00 Build 0)  -->
<!DOCTYPE svg PUBLIC "-//W3C//DTD SVG 1.1//EN" "http://www.w3.org/Graphics/SVG/1.1/DTD/svg11.dtd">
<svg version="1.1" id="Layer_1" xmlns="http://www.w3.org/2000/svg" xmlns:xlink="http://www.w3.org/1999/xlink" x="0px" y="0px"
	 width="229.33px" height="183.784px" viewBox="0 0 229.33 183.784" enable-background="new 0 0 229.33 183.784"
	 xml:space="preserve">
<g>
	<defs>
		<rect id="SVGID_1_" x="-135.335" y="-58.628" width="500" height="300"/>
	</defs>
	<clipPath id="SVGID_2_">
		<use xlink:href="#SVGID_1_"  overflow="visible"/>
	</clipPath>
	<path clip-path="url(#SVGID_2_)" fill="#BEE37B" d="M217.247,3.878c-2.508-2.034-5.306-3.516-8.802-3.495v36.443
		c2.616,0.684,5.152,1.348,7.689,2.011c-0.021,0.218-0.039,0.433-0.06,0.648h-7.606v13.671c4.714-0.976,10.487-4.075,14.163-7.148
		c3.523-2.948,5.511-6.882,6.298-11.21C230.923,23.842,225.226,10.351,217.247,3.878"/>
	<path clip-path="url(#SVGID_2_)" fill="#BEE37B" d="M22.887,31.735c-3.874,0.001-6.267,2.146-6.301,6.011
		c-0.083,9.767-0.075,19.534-0.004,29.302c0.029,3.58,2.306,6,5.737,6.085c4.905,0.126,9.819,0.034,14.877,0.034V31.735
		C32.331,31.735,27.609,31.731,22.887,31.735"/>
	<path clip-path="url(#SVGID_2_)" fill="#BEE37B" d="M59.756,32.823h-0.044c0.002,0.019,0.007,0.034,0.01,0.052h0.042
		C59.762,32.857,59.758,32.842,59.756,32.823"/>
	<path clip-path="url(#SVGID_2_)" fill="#BEE37B" d="M66.648,54.042c0.268,1.572,0.146,3.741,1.107,4.52
		c0.965,0.782,3.065,0.094,4.659,0.183c5.352,0.302,10.703,0.669,16.201,1.019c-0.347-2.037-0.703-4.162-1.064-6.284
		c-1.168-6.868-2.337-13.737-3.507-20.607c1.105-0.018,2.21-0.033,3.313-0.053c-0.914-4.999-1.826-10.001-2.779-15.225
		c2.627,0,4.916,0.027,7.206-0.005c2.204-0.03,4.409-0.119,6.613-0.181c0.005-0.192,0.013-0.386,0.019-0.578
		c-0.742-0.264-1.473-0.576-2.232-0.786c-13.823-3.821-27.853-5.976-42.23-4.775c-2.729,0.229-5.449,1.046-8.061,1.925
		c-0.794,0.266-1.208,1.657-1.797,2.534c0.858,0.485,1.681,1.311,2.577,1.395c3.389,0.327,6.8,0.412,10.449,0.6
		c0.861,4.949,1.749,10.024,2.634,15.099c1.11,0.015,2.22,0.029,3.332,0.044C64.271,39.923,65.445,46.985,66.648,54.042
		 M60.404,17.652h20.992c0.858,5.037,1.721,10.104,2.582,15.171c-6.95,0.003-13.899,0.008-20.85,0.01
		c-0.758-4.109-1.519-8.218-2.268-12.328C60.692,19.597,60.568,18.685,60.404,17.652"/>
	<path clip-path="url(#SVGID_2_)" fill="#BEE37B" d="M12.446,25.761c0-9.553-2.614-17.298-2.614-17.298s-2.613,7.745-2.613,17.298
		c0,9.557,2.613,17.302,2.613,17.302S12.446,35.318,12.446,25.761"/>
	<path clip-path="url(#SVGID_2_)" fill="#BEE37B" d="M7.22,79.156c0,9.555,2.612,17.3,2.612,17.3s2.615-7.745,2.615-17.3
		c0-9.557-2.615-17.302-2.615-17.302S7.22,69.599,7.22,79.156"/>
	<path clip-path="url(#SVGID_2_)" fill="#BEE37B" d="M0,52.464c0,0,5.126,7.282,11.449,7.282c1.035,0,2.036-0.091,2.988-0.251
		V45.438c-0.952-0.165-1.953-0.253-2.988-0.253C5.126,45.185,0,52.464,0,52.464"/>
	<path clip-path="url(#SVGID_2_)" fill="#BEE37B" d="M56.045,102.772c2.239,0,4.057-1.816,4.057-4.059
		c0-2.234-1.818-4.053-4.057-4.053c-2.238,0-4.057,1.818-4.057,4.053C51.988,100.956,53.807,102.772,56.045,102.772"/>
	<path clip-path="url(#SVGID_2_)" fill="#BEE37B" d="M205.116,60.91c-1.025,0-1.86,0.837-1.86,1.864c0,1.027,0.835,1.861,1.86,1.861
		c1.03,0,1.863-0.834,1.863-1.861C206.979,61.747,206.146,60.91,205.116,60.91"/>
	<path clip-path="url(#SVGID_2_)" fill="#BEE37B" d="M87.415,32.889c-0.004-0.022-0.007-0.046-0.011-0.069h-0.047
		c0.004,0.021,0.007,0.042,0.011,0.061C87.382,32.884,87.398,32.885,87.415,32.889"/>
	<path clip-path="url(#SVGID_2_)" fill="#BEE37B" d="M206.015,57.966c-2.288,0.089-2.814-1.135-3.233-2.949
		c0.965-0.345,1.975-0.631,2.912-1.077c0.414-0.197,0.959-0.715,0.967-1.092c0.065-4.388,0.042-8.777,0.042-13.321
		c-6.052,0-11.896,0.027-17.736-0.015c-1.986-0.015-3.973-0.168-5.95-0.35c-0.402-0.036-1.046-0.448-1.083-0.748
		c-0.057-0.461,0.175-1.203,0.532-1.423c0.827-0.509,1.78-1.017,2.72-1.096c3.394-0.289,6.813-0.618,10.21-0.522
		c3.738,0.102,7.463,0.656,11.312,1.025v-1.705c-0.004-10.889-0.009-21.776-0.002-32.66c0-0.679,0.098-1.356,0.149-2.033h-3.361
		c-6.051,1.373-10.472,5.096-14.218,9.822c-5.655,7.133-9.366,15.291-12.512,23.739c-0.438,1.178-0.928,1.607-2.24,1.523
		c-10.359-0.65-20.729-1.197-31.091-1.818c-3.724-0.222-7.242-0.006-10.824,1.564c-5.444,2.386-11.337,3.129-17.299,2.855
		c-3.34-0.152-6.542-0.935-9.13-3.187c-0.759-0.662-1.354-1.723-1.613-2.709c-0.531-2.029-0.761-4.136-1.168-6.201
		c-0.19-0.97-0.632-1.638-1.811-1.061c-3.145,1.531-6.406,3.069-8.436,5.962c-1.557,2.224-3.322,2.82-5.735,2.4
		c0.638,4.068,1.243,8.139,1.928,12.197c0.793,4.696,1.735,9.372,2.441,14.079c0.194,1.307,0.736,1.511,1.856,1.742
		c4.413,0.919,8.799,1.977,13.185,3.023c0.676,0.162,1.298,0.542,1.948,0.821c-0.023,0.16-0.046,0.322-0.067,0.479
		c-0.823,0.04-1.647,0.114-2.471,0.114c-15.661,0.004-31.325,0.004-46.986-0.024c-0.988-0.003-2.018-0.097-2.941-0.405
		c-0.669-0.224-1.633-0.837-1.676-1.347c-0.062-0.705,0.44-1.894,1.013-2.137c2.023-0.858,4.169-1.433,6.287-2.046
		c0.692-0.203,1.443-0.195,2.321-0.299c-1.529-8.845-3.031-17.528-4.532-26.211H39.395v38.84h14.373c0,2.668-0.059,5.138,0.027,7.61
		c0.04,1.112-0.383,1.5-1.413,1.705c-3.249,0.649-6.074,2.198-8.365,4.563c-0.469,0.482-0.659,1.818-0.328,2.36
		c0.566,0.915,1.448,0.43,2.174-0.252c2.197-2.06,4.74-3.483,7.844-4.017c0.022,0.459,0.057,0.817,0.051,1.177
		c-6.668,1.096-11.757,6.881-11.757,13.853c0,7.758,6.288,14.047,14.044,14.047c7.756,0,14.044-6.289,14.044-14.047
		c0-4.445-2.071-8.406-5.294-10.977c0.088-0.172,0.169-0.329,0.26-0.481c0.122-0.205,0.294-0.373,0.524-0.653
		c4.704,4.187,6.604,9.232,5.156,15.39c-0.257,1.088-0.32,2.107,0.947,2.385c1.272,0.275,1.653-0.744,1.881-1.785
		c1.008-4.596,0.667-9.045-1.86-13.085c-1.266-2.022-2.935-3.788-4.547-5.828c1.97-3.387,4.083-6.941,6.109-10.551
		c0.584-1.044,1.247-1.442,2.478-1.431c6.531,0.071,13.065-0.059,19.595,0.043c16.188,0.254,32.292-0.777,48.303-3.099
		c13.295-1.934,26.475-4.504,39.45-8.013c4.094-1.104,8.084-2.312,12.267-0.469c0.84,0.369,1.769,0.568,2.675,0.743
		c1.396,0.272,2.218,0.7,2.179,2.488c-0.05,2.392,2.438,4.359,4.941,4.353c2.641-0.011,4.826-2.137,4.952-4.824
		C210.22,60.58,208.27,57.879,206.015,57.966 M94.249,32.747c-0.125-0.193-0.248-0.383-0.373-0.576
		c2.428-1.809,4.856-3.618,7.542-5.62c0.43,2.347,0.771,4.21,1.135,6.196H94.249z M55.995,90.477
		c4.509-0.079,8.249,3.674,8.246,8.266c-0.004,4.607-3.534,8.158-8.102,8.152c-4.672-0.008-8.353-3.617-8.347-8.184
		C47.8,94.288,51.518,90.551,55.995,90.477 M58.49,84.89c-0.088-0.352-0.09-0.812,0.034-1.43c1.593,0.51,3.072,0.981,4.742,1.511
		c-0.26,0.472-0.466,0.852-0.714,1.301C61.297,85.615,59.932,85.144,58.49,84.89 M64.828,82.459
		c-2.126-0.679-4.169-1.333-6.342-2.026v-8.617h12.526C68.876,75.49,66.843,78.994,64.828,82.459 M201.211,59.6
		c-0.419,0.266-1.012,0.56-1.432,0.459c-2.265-0.534-4.502-1.192-7.216-1.935c3.224-0.98,5.983-1.818,8.786-2.671
		C202.147,56.96,203.179,58.353,201.211,59.6 M205.116,65.646c-1.586,0-2.871-1.285-2.871-2.872s1.285-2.873,2.871-2.873
		c1.588,0,2.874,1.286,2.874,2.873S206.704,65.646,205.116,65.646"/>
	<path clip-path="url(#SVGID_2_)" fill="none" stroke="#BEE37B" stroke-width="2.081" stroke-miterlimit="10" d="M16.852,162.808
		c28.221,12.619,61.789,19.937,97.813,19.937c36.025,0,69.594-7.317,97.814-19.937"/>
</g>
<g>
	<path fill="#BEE37B" d="M36.024,142.943l8.06,2.943l-0.703,1.925l-5.853-2.137l-1.541,4.22l5.582,2.038l-0.703,1.926l-5.582-2.039
		l-2.571,7.043l-2.207-0.806L36.024,142.943z"/>
</g>
<g>
	<path fill="#BEE37B" d="M59.257,150.308l2.244,0.519l-3.15,13.634l7.058,1.631l-0.472,2.042l-9.302-2.149L59.257,150.308z"/>
</g>
<g>
	<path fill="#BEE37B" d="M83.645,154.92l2.353,0.301l-2.035,15.96l-2.354-0.301L83.645,154.92z"/>
</g>
<g>
	<path fill="#BEE37B" d="M102.731,156.686l9.117,0.295l-0.066,2.048l-6.814-0.221l-0.149,4.594l6.285,0.203l-0.066,2.061
		l-6.285-0.203l-0.172,5.306l7.033,0.228l-0.066,2.049l-9.335-0.302L102.731,156.686z"/>
</g>
<g>
	<path fill="#BEE37B" d="M143.037,168.752l0.25,2.962l-1.526,0.129l-0.506-1.207c-0.587,0.443-1.234,0.807-1.943,1.09
		c-0.707,0.282-1.447,0.457-2.22,0.522c-1.194,0.101-2.313-0.013-3.358-0.34c-1.045-0.329-1.967-0.827-2.768-1.494
		c-0.799-0.669-1.45-1.485-1.951-2.454c-0.502-0.966-0.803-2.039-0.902-3.218c-0.098-1.154,0.016-2.248,0.341-3.282
		c0.325-1.031,0.817-1.949,1.479-2.747c0.66-0.801,1.465-1.454,2.412-1.962c0.946-0.506,1.994-0.81,3.142-0.906
		c0.574-0.049,1.141-0.039,1.701,0.03c0.561,0.066,1.102,0.188,1.621,0.36c0.518,0.171,1.009,0.391,1.471,0.661
		c0.462,0.269,0.881,0.581,1.258,0.933l-1.389,1.621c-0.258-0.232-0.558-0.446-0.897-0.641c-0.341-0.195-0.702-0.357-1.088-0.486
		c-0.385-0.13-0.789-0.223-1.213-0.279c-0.426-0.057-0.852-0.066-1.281-0.03c-0.811,0.068-1.553,0.286-2.228,0.65
		c-0.674,0.366-1.244,0.839-1.711,1.421c-0.468,0.584-0.816,1.256-1.049,2.02s-0.312,1.577-0.239,2.44
		c0.076,0.903,0.296,1.704,0.66,2.401c0.362,0.697,0.832,1.278,1.406,1.742c0.575,0.464,1.237,0.803,1.987,1.018
		c0.75,0.213,1.55,0.283,2.399,0.212c0.849-0.071,1.598-0.25,2.248-0.536s1.176-0.654,1.577-1.104l-0.253-2.996l-3.936,0.333
		l-0.179-2.112l6.197-0.523L143.037,168.752z"/>
</g>
<g>
	<path fill="#BEE37B" d="M158.372,152.899l8.924-1.893l0.425,2.005l-6.67,1.414l0.954,4.496l6.151-1.304l0.428,2.016l-6.151,1.305
		l1.102,5.193l6.883-1.46l0.425,2.005l-9.137,1.938L158.372,152.899z"/>
</g>
<g>
	<path fill="#BEE37B" d="M188.109,161.891l-5.35-15.173l4.682-1.65c1.404-0.496,2.687-0.52,3.845-0.074
		c1.159,0.447,1.967,1.318,2.424,2.615c0.396,1.121,0.443,2.118,0.144,2.989c-0.299,0.87-0.727,1.477-1.281,1.819l7.082,5.403
		l-2.453,0.865l-6.598-5.099l-2.65,0.935l2.328,6.604L188.109,161.891z M186.594,147.441l-1.01,0.356l1.688,4.79l2.639-0.93
		c0.485-0.171,0.857-0.391,1.117-0.657c0.261-0.267,0.474-0.61,0.639-1.031c0.165-0.42,0.144-0.924-0.063-1.51
		c-0.196-0.559-0.49-0.989-0.883-1.295c-0.393-0.305-0.821-0.461-1.287-0.468C188.967,146.69,188.02,146.938,186.594,147.441z"/>
</g>
<g>
	<defs>
		<rect id="SVGID_3_" x="-135.335" y="-58.628" width="500" height="300"/>
	</defs>
	<clipPath id="SVGID_4_">
		<use xlink:href="#SVGID_3_"  overflow="visible"/>
	</clipPath>
	<path clip-path="url(#SVGID_4_)" fill="none" stroke="#BEE37B" stroke-width="2.081" stroke-miterlimit="10" d="M36.699,129.78
		c23.163,9.566,50.245,14.811,77.966,14.811s54.805-5.244,77.966-14.811"/>
</g>
</svg>
