<?xml version="1.0" encoding="utf-8"?>
<!-- Generator: Adobe Illustrator 15.0.0, SVG Export Plug-In . SVG Version: 6.00 Build 0)  -->
<!DOCTYPE svg PUBLIC "-//W3C//DTD SVG 1.1//EN" "http://www.w3.org/Graphics/SVG/1.1/DTD/svg11.dtd">
<svg version="1.1" id="Layer_1" xmlns="http://www.w3.org/2000/svg" xmlns:xlink="http://www.w3.org/1999/xlink" x="0px" y="0px"
	 width="190.327px" height="197.628px" viewBox="0 0 190.327 197.628" enable-background="new 0 0 190.327 197.628"
	 xml:space="preserve">
<g>
	<path fill="#BEE37B" d="M20.792,171.743l-0.819-0.276l-1.861-8.433l-3.454,10.223l-2.182-0.737l5.134-15.199l1.615,0.546
		l2.064,11.091l8.333-7.578l1.615,0.545l-5.134,15.199l-2.183-0.736l3.45-10.214L20.792,171.743z"/>
</g>
<g>
	<path fill="#BEE37B" d="M50.976,166.516l1.59,0.303l4.065,17.243l-2.316-0.44l-1.216-5.084l-6.743-1.281l-2.866,4.308l-2.325-0.442
		L50.976,166.516z M52.552,176.346l-1.462-6.209l-3.453,5.274L52.552,176.346z"/>
</g>
<g>
	<path fill="#BEE37B" d="M72.381,185.917l1.099-16.052l4.952,0.339c1.486,0.102,2.672,0.587,3.56,1.455
		c0.887,0.869,1.284,1.989,1.19,3.362c-0.081,1.186-0.432,2.119-1.052,2.801s-1.253,1.068-1.898,1.164l4.363,7.767l-2.597-0.178
		l-4.037-7.294l-2.803-0.192l-0.478,6.985L72.381,185.917z M76.712,172.05l-1.069-0.073l-0.347,5.066l2.792,0.191
		c0.513,0.035,0.942-0.019,1.286-0.16c0.345-0.143,0.676-0.373,0.995-0.693c0.317-0.32,0.499-0.791,0.541-1.412
		c0.041-0.59-0.06-1.103-0.299-1.538c-0.239-0.437-0.572-0.749-0.998-0.94C79.188,172.299,78.221,172.153,76.712,172.05z"/>
</g>
<g>
	<path fill="#BEE37B" d="M99.707,170.746l2.373-0.057l0.381,16.085l-2.373,0.057L99.707,170.746z"/>
</g>
<g>
	<path fill="#BEE37B" d="M116.333,169.897l11.202-1.275l0.232,2.037l-4.451,0.507l1.592,13.972l-2.289,0.261l-1.592-13.972
		l-4.462,0.508L116.333,169.897z"/>
</g>
<g>
	<path fill="#BEE37B" d="M141.656,166.151l2.322-0.492l3.33,15.74l-2.321,0.492L141.656,166.151z"/>
</g>
<g>
	<path fill="#BEE37B" d="M169.84,171.64l-0.82,0.275l-6.579-5.596l3.426,10.234l-2.184,0.73l-5.093-15.213l1.616-0.541l8.347,7.59
		l2.061-11.074l1.617-0.541l5.093,15.213l-2.185,0.73l-3.423-10.223L169.84,171.64z"/>
</g>
<g>
	<defs>
		<rect id="SVGID_1_" x="-162.835" y="-51.706" width="500" height="300"/>
	</defs>
	<clipPath id="SVGID_2_">
		<use xlink:href="#SVGID_1_"  overflow="visible"/>
	</clipPath>
	<path clip-path="url(#SVGID_2_)" fill="#BFDB7D" d="M92.791,27.99l0.781-2.221l0.823-2.205c0.485-1.272,0.255-2.855-1.61-3.621
		c-1.871-0.769-3.164,0.264-3.672,1.597l-0.809,2.169l-0.049,0.131l-0.151,0.417l-0.665,1.899c-0.225,0.636-0.262,1.339-0.037,1.966
		c0.271-0.714,0.732-1.395,1.344-1.759l0.582-1.667l0.15-0.411l0.85-2.279c0.084-0.217,0.281-0.612,0.646-0.806
		c0.334-0.181,0.768-0.166,1.289,0.041c0.521,0.206,0.85,0.491,0.977,0.846c0.139,0.386,0.021,0.799-0.061,1.01l-0.682,1.827
		l-0.002-0.001l-0.146,0.403l-0.148,0.402l0.006,0.002l-0.627,1.778l-0.019,0.059c-0.075,0.216-0.257,0.605-0.608,0.814
		l-0.002,0.001l-0.066,0.035l-0.021,0.01l-0.055,0.024l-0.021,0.008l-0.059,0.02l-0.02,0.005l-0.074,0.019l-0.006,0.002
		c-0.057,0.011-0.115,0.019-0.178,0.023h-0.014l-0.078,0.003h-0.021l-0.076-0.004H90.25l-0.004-0.001
		c-0.178-0.012-0.371-0.052-0.58-0.121c-0.131-0.043-0.25-0.092-0.359-0.147c-0.127,0.181-0.244,0.425-0.332,0.692l-0.195,0.609
		c0.141,0.066,0.293,0.125,0.457,0.178C91.169,30.345,92.339,29.273,92.791,27.99"/>
	<path clip-path="url(#SVGID_2_)" fill="#BFDB7D" d="M90.957,30.977l0.324-1c-0.404,0.156-0.877,0.221-1.418,0.152
		c0,0-0.117,0.368-0.234,0.736c-0.108,0.37-0.221,0.739-0.221,0.739l-0.443,1.48c0.49,0.242,0.838,0.555,1.092,0.911l0.598-2.014
		C90.654,31.98,90.806,31.479,90.957,30.977"/>
	<path clip-path="url(#SVGID_2_)" fill="#BFDB7D" d="M88.222,33.06c-0.164-0.048-0.324-0.082-0.477-0.106l-0.174,0.615
		c-0.074,0.271-0.109,0.542-0.102,0.763c0.121,0.015,0.246,0.04,0.381,0.076c0.213,0.058,0.395,0.132,0.551,0.22l0.002,0.002
		l0.01,0.007l0.066,0.04l0.018,0.011l0.064,0.045l0.01,0.009c0.051,0.038,0.096,0.077,0.137,0.119l0.004,0.003l0.053,0.057
		l0.012,0.015l0.039,0.05l0.014,0.018l0.033,0.051l0.01,0.018l0.039,0.069c0.039,0.081,0.066,0.164,0.081,0.248
		c0.065,0.296,0.011,0.591-0.036,0.762l-0.016,0.061c0,0-0.15,0.558-0.282,1.118c-0.062,0.254-0.122,0.504-0.171,0.706l-0.102,0.417
		l-0.103,0.416h0.003c-0.049,0.201-0.109,0.452-0.17,0.706c-0.119,0.563-0.24,1.127-0.24,1.127l-0.012,0.06
		c-0.049,0.223-0.176,0.631-0.504,0.877v0.003l-0.064,0.043l-0.02,0.012l-0.053,0.03l-0.022,0.01l-0.054,0.027l-0.02,0.007
		l-0.072,0.027l-0.006,0.003c-0.055,0.019-0.115,0.033-0.174,0.044l-0.015,0.003l-0.076,0.011l-0.022,0.003l-0.078,0.007h-0.012
		h-0.002c-0.178,0.009-0.377-0.007-0.594-0.05c-0.134-0.028-0.257-0.062-0.373-0.103c-0.109,0.195-0.199,0.451-0.246,0.728
		l-0.113,0.632c0.148,0.046,0.307,0.087,0.477,0.118c1.982,0.357,3.017-0.839,3.314-2.157c0,0,0.121-0.573,0.244-1.144
		c0.135-0.569,0.271-1.139,0.271-1.139s0.139-0.568,0.277-1.137c0.133-0.57,0.289-1.136,0.289-1.136
		C90.576,35.173,90.152,33.623,88.222,33.06"/>
	<path clip-path="url(#SVGID_2_)" fill="#BFDB7D" d="M86.787,30.809c0,0-0.174,0.586-0.35,1.171
		c-0.179,0.584-0.339,1.175-0.339,1.175c-0.372,1.372-0.196,2.9,1.214,3.257c0.541,0.136,0.996,0.038,1.393-0.204l0.031-0.114
		c0.035-0.132,0.088-0.391,0.035-0.643c-0.018-0.072-0.037-0.134-0.066-0.192c-0.008-0.015-0.018-0.032-0.027-0.054l-0.01-0.013
		l-0.025-0.039l-0.01-0.014L88.601,35.1l-0.01-0.013l-0.041-0.045l-0.004-0.004c-0.035-0.035-0.072-0.067-0.111-0.097l-0.01-0.006
		l-0.055-0.039l-0.016-0.009l-0.057-0.036c-0.004-0.002-0.01-0.006-0.012-0.007l-0.008-0.004c-0.029,0.035-0.061,0.069-0.09,0.098
		c-0.139,0.128-0.266,0.189-0.516,0.121c-0.252-0.066-0.33-0.184-0.383-0.365c-0.086-0.29-0.063-0.735,0.061-1.186
		c0,0,0.158-0.585,0.336-1.163c0.172-0.578,0.346-1.158,0.346-1.158s0.176-0.578,0.354-1.156l0.371-1.151
		c0.143-0.445,0.367-0.828,0.598-1.024c0.143-0.122,0.275-0.174,0.521-0.092c0.244,0.083,0.314,0.204,0.361,0.388
		c0.01,0.04,0.016,0.085,0.021,0.132h0.008h0.016l0.067,0.003h0.015h0.068l0.008-0.002c0.055-0.003,0.104-0.009,0.148-0.018
		l0.006-0.002c0.021-0.006,0.041-0.012,0.061-0.016l0.016-0.003l0.045-0.017l0.018-0.005l0.041-0.019l0.018-0.006l0.051-0.028
		l0.008-0.004c0.281-0.165,0.428-0.492,0.492-0.673l0.037-0.112c-0.188-0.418-0.521-0.757-1.047-0.94
		c-1.355-0.477-2.389,0.681-2.814,2.037c0,0-0.189,0.58-0.375,1.161C86.965,30.224,86.787,30.809,86.787,30.809"/>
	<path clip-path="url(#SVGID_2_)" fill="#BFDB7D" d="M86.224,45.021c0,0-0.072,0.378-0.121,0.761
		c-0.055,0.38-0.109,0.762-0.109,0.762c0.515,0.173,0.912,0.436,1.207,0.751c0,0,0.074-0.515,0.146-1.032
		c0.068-0.515,0.162-1.03,0.162-1.03l0.367-2.056c-0.379,0.204-0.838,0.326-1.381,0.326L86.224,45.021z"/>
	<path clip-path="url(#SVGID_2_)" fill="#BFDB7D" d="M86.41,49.634c0,0-0.059,0.569-0.115,1.141
		c-0.028,0.257-0.053,0.512-0.072,0.718h-0.004l-0.036,0.422l-0.134,2.287l-0.004,0.062c-0.012,0.225-0.086,0.644-0.35,0.942
		l-0.002,0.002l-0.053,0.054l-0.017,0.016l-0.045,0.036l-0.018,0.014l-0.048,0.035l-0.018,0.011l-0.064,0.04l-0.006,0.002
		c-0.051,0.029-0.106,0.053-0.164,0.075l-0.012,0.004l-0.074,0.025l-0.02,0.007l-0.074,0.018l-0.014,0.004h-0.002
		c-0.172,0.04-0.369,0.058-0.59,0.052c-0.138-0.003-0.265-0.015-0.384-0.035c-0.069,0.21-0.11,0.48-0.112,0.76l-0.007,0.643
		C84.125,56.989,84.289,57,84.46,57c2.033-0.011,2.811-1.35,2.885-2.679l0.137-2.302c0,0,0.051-0.576,0.109-1.153
		c0.061-0.577,0.119-1.152,0.119-1.152c0.113-1.332-0.438-2.793-2.453-3.094c-0.172-0.024-0.332-0.036-0.491-0.039l-0.087,0.635
		c-0.041,0.278-0.041,0.55-0.006,0.769c0.121-0.003,0.25,0.004,0.386,0.022c0.217,0.027,0.411,0.074,0.575,0.141l0.004,0.001
		l0.009,0.005l0.071,0.03l0.019,0.009l0.07,0.035l0.01,0.007c0.057,0.03,0.106,0.062,0.153,0.097l0.003,0.004l0.059,0.049
		l0.014,0.012l0.045,0.045l0.015,0.016l0.041,0.044l0.012,0.017l0.047,0.063c0.053,0.075,0.092,0.153,0.123,0.233
		c0.109,0.283,0.105,0.581,0.088,0.756L86.41,49.634z"/>
	<path clip-path="url(#SVGID_2_)" fill="#BFDB7D" d="M84.832,50.067c0.553,0.057,0.998-0.108,1.346-0.404l0.011-0.117
		c0.014-0.136,0.024-0.399-0.072-0.64c-0.025-0.068-0.056-0.127-0.094-0.181c-0.009-0.013-0.023-0.029-0.037-0.048l-0.009-0.012
		l-0.034-0.035l-0.011-0.012l-0.038-0.035l-0.011-0.01l-0.049-0.04l-0.004-0.004c-0.039-0.028-0.08-0.056-0.123-0.078l-0.01-0.007
		l-0.058-0.03l-0.018-0.007l-0.06-0.027c-0.002-0.001-0.01-0.004-0.012-0.004l-0.01-0.004c-0.023,0.039-0.049,0.077-0.076,0.109
		c-0.115,0.146-0.231,0.226-0.488,0.194c-0.258-0.03-0.356-0.136-0.436-0.308c-0.121-0.276-0.154-0.719-0.088-1.183
		c0,0,0.086-0.599,0.172-1.201c0.078-0.601,0.186-1.197,0.184-1.197l0.427-2.385c0.077-0.463,0.272-0.867,0.477-1.088
		c0.131-0.138,0.256-0.207,0.508-0.154c0.254,0.053,0.342,0.165,0.404,0.34c0.014,0.039,0.025,0.082,0.037,0.127h0.008
		c0.002-0.001,0.012-0.001,0.014-0.001l0.066-0.006l0.018-0.002l0.068-0.009l0.006-0.001c0.055-0.01,0.103-0.022,0.148-0.037
		l0.004-0.002c0.022-0.008,0.041-0.016,0.059-0.022l0.015-0.006l0.043-0.021l0.018-0.009l0.039-0.022l0.016-0.01l0.047-0.032
		l0.008-0.004c0.258-0.197,0.365-0.54,0.404-0.727l0.025-0.116c-0.24-0.391-0.611-0.689-1.154-0.809
		c-1.403-0.317-2.285,0.964-2.557,2.366l-0.434,2.418c0.002,0-0.105,0.604-0.185,1.216c-0.088,0.608-0.174,1.217-0.174,1.217
		C82.936,48.421,83.408,49.931,84.832,50.067"/>
	<path clip-path="url(#SVGID_2_)" fill="#BFDB7D" d="M85.945,35.599c-0.297-0.641-0.297-1.462-0.139-2.212
		c-0.529,0.399-0.882,1.009-1.06,1.661c0,0-0.135,0.487-0.25,0.979c-0.119,0.492-0.24,0.982-0.24,0.982l-0.106,0.434l-0.033,0.135
		l-0.072,0.297c0,0-0.129,0.488-0.229,0.985c-0.105,0.496-0.211,0.991-0.211,0.991c-0.139,0.665-0.107,1.369,0.188,1.963
		c0.197-0.741,0.578-1.476,1.134-1.913l0.184-0.867c0.09-0.434,0.201-0.863,0.201-0.863l0.072-0.292l0.032-0.134l0.033-0.135
		l0.072-0.293L85.945,35.599z"/>
	<path clip-path="url(#SVGID_2_)" fill="#BFDB7D" d="M86.484,56.617c-0.34,0.266-0.771,0.467-1.309,0.566
		c0,0-0.003,0.383-0.007,0.767c0.015,0.384,0.029,0.767,0.029,0.767l0.066,1.532c0.537,0.066,0.975,0.244,1.323,0.489l-0.088-2.057
		c0,0-0.004-0.128-0.014-0.322c-0.014-0.192-0.02-0.45-0.012-0.709L86.484,56.617z"/>
	<path clip-path="url(#SVGID_2_)" fill="#BFDB7D" d="M82.447,56.309l-0.012,1.24c-0.021,0.619,0.024,1.243,0.024,1.243l0.107,2.488
		c0.133,1.449,0.867,2.841,2.295,2.65c0.551-0.068,0.953-0.33,1.234-0.691l-0.013-0.117c-0.014-0.134-0.057-0.39-0.197-0.605
		c-0.042-0.061-0.083-0.11-0.131-0.154c-0.012-0.01-0.026-0.024-0.045-0.038l-0.014-0.01l-0.037-0.028l-0.014-0.009l-0.045-0.027
		l-0.013-0.007l-0.055-0.028l-0.006-0.003c-0.043-0.019-0.09-0.037-0.139-0.05l-0.009-0.004l-0.065-0.016l-0.017-0.004l-0.067-0.013
		c-0.004,0-0.013-0.002-0.013-0.002l-0.01-0.001c-0.014,0.043-0.029,0.084-0.049,0.122c-0.082,0.166-0.18,0.269-0.438,0.293
		c-0.257,0.026-0.375-0.056-0.49-0.208c-0.181-0.244-0.328-0.67-0.363-1.14l-0.106-2.434c0,0-0.044-0.608-0.023-1.216
		c0.006-0.607,0.014-1.216,0.014-1.216c0.004-0.469,0.103-0.905,0.263-1.158c0.102-0.159,0.211-0.249,0.469-0.24
		c0.26,0.009,0.365,0.106,0.463,0.268c0.022,0.036,0.041,0.077,0.061,0.119l0.007-0.002c0.002-0.001,0.012-0.003,0.014-0.004
		l0.065-0.017l0.015-0.004l0.063-0.021l0.007-0.003c0.053-0.019,0.098-0.039,0.139-0.061l0.004-0.002
		c0.02-0.011,0.037-0.022,0.053-0.033l0.013-0.008l0.04-0.027l0.015-0.012l0.033-0.029l0.014-0.011l0.041-0.041l0.004-0.004
		c0.211-0.238,0.275-0.59,0.283-0.78l0.008-0.118c-0.295-0.345-0.711-0.575-1.264-0.606C83.121,53.443,82.435,54.862,82.447,56.309"
		/>
	<path clip-path="url(#SVGID_2_)" fill="#BFDB7D" d="M83.009,53.898l0.104-1.78l0.017-0.303l0.01-0.14l0.037-0.441l0.182-1.772
		c-0.397-0.591-0.536-1.417-0.459-2.182c-0.487,0.469-0.75,1.129-0.813,1.812l-0.207,2.032l-0.027,0.306h-0.002l-0.01,0.142
		l-0.025,0.451l-0.121,2.046c-0.055,0.684,0.14,1.388,0.535,1.929C82.273,55.222,82.509,54.422,83.009,53.898"/>
	<path clip-path="url(#SVGID_2_)" fill="#BFDB7D" d="M88.072,69.806c-0.271,0.35-0.607,0.654-1.094,0.898l0.479,1.447
		c0,0,0.463,1.453,0.5,1.438c0.537-0.104,1.016-0.079,1.432,0.033c0,0-0.215-0.455-0.383-0.929c-0.158-0.481-0.316-0.96-0.316-0.96
		s-0.158-0.482-0.316-0.961c-0.08-0.239-0.16-0.48-0.221-0.659C88.095,69.932,88.072,69.806,88.072,69.806"/>
	<path clip-path="url(#SVGID_2_)" fill="#BFDB7D" d="M84.863,73.031c0,0,0.199,0.602,0.398,1.202
		c0.248,0.586,0.495,1.171,0.495,1.171c0.291,0.678,0.714,1.304,1.226,1.668c0.545,0.351,1.174,0.435,1.811,0.104
		c0.496-0.254,0.777-0.631,0.904-1.055l-0.055-0.101c-0.072-0.113-0.18-0.345-0.377-0.501c-0.055-0.044-0.109-0.079-0.166-0.104
		c-0.016-0.006-0.035-0.014-0.055-0.022l-0.018-0.005l-0.041-0.014l-0.019-0.004l-0.048-0.011l-0.014-0.003l-0.061-0.008h-0.008
		c-0.047-0.004-0.094-0.005-0.145-0.003h-0.012l-0.064,0.006l-0.018,0.002l-0.066,0.009c-0.004,0.001-0.012,0.002-0.014,0.002
		l-0.011,0.002c0,0.046-0.003,0.091-0.009,0.132c-0.027,0.186-0.09,0.316-0.324,0.425s-0.369,0.069-0.523-0.04
		c-0.246-0.174-0.506-0.541-0.693-0.978c0,0-0.241-0.564-0.479-1.129c-0.191-0.582-0.385-1.163-0.385-1.163
		s-0.781-2.324-0.726-2.338c-0.113-0.46-0.125-0.91-0.033-1.199c0.058-0.181,0.14-0.296,0.392-0.356
		c0.252-0.059,0.379,0.006,0.514,0.137c0.029,0.028,0.057,0.062,0.086,0.098l0.008-0.005c0.002,0,0.009-0.004,0.011-0.006
		l0.059-0.033l0.014-0.009l0.056-0.037l0.008-0.005c0.045-0.031,0.084-0.062,0.115-0.095l0.004-0.003l0.045-0.044l0.012-0.012
		l0.029-0.036l0.012-0.016l0.025-0.037l0.01-0.015l0.029-0.049l0.004-0.005c0.149-0.285,0.098-0.631,0.053-0.814l-0.027-0.113
		c-0.393-0.249-0.842-0.371-1.385-0.262c-1.445,0.276-1.643,1.828-1.297,3.258C84.056,70.63,84.863,73.031,84.863,73.031"/>
	<path clip-path="url(#SVGID_2_)" fill="#BFDB7D" d="M87.912,65.193l-0.016-0.093c0-0.002,0-0.003-0.002-0.003l-0.053-0.305
		c-0.034-0.202-0.075-0.455-0.121-0.711c-0.059-0.566-0.117-1.13-0.117-1.13c-0.066-0.654-0.336-1.292-0.839-1.762
		c-0.487-0.47-1.2-0.775-2.211-0.719c-0.172,0.011-0.334,0.031-0.489,0.06l0.03,0.642c0.015,0.282,0.089,0.547,0.173,0.754
		c0.118-0.028,0.245-0.048,0.381-0.059c0.221-0.019,0.418-0.013,0.596,0.016h0.002l0.014,0.002l0.074,0.016l0.021,0.004l0.077,0.02
		l0.013,0.004c0.059,0.018,0.115,0.039,0.17,0.063l0.004,0.002l0.07,0.035l0.016,0.01l0.055,0.032l0.019,0.013l0.049,0.035
		l0.018,0.013l0.058,0.052c0.067,0.061,0.121,0.128,0.168,0.197c0.164,0.252,0.221,0.541,0.238,0.714l0.006,0.062v0.001
		c0,0,0.061,0.563,0.119,1.129l0.192,1.115l0.058,0.353c0.036,0.209,0.082,0.486,0.129,0.762c0.049,0.279,0.098,0.557,0.133,0.767
		c0.051,0.204,0.086,0.342,0.086,0.342l0.014,0.059c0.053,0.216,0.113,0.628-0.078,0.987h-0.002l-0.037,0.066l-0.012,0.018
		l-0.035,0.048l-0.014,0.019l-0.039,0.048l-0.014,0.014l-0.052,0.054l-0.004,0.005c-0.043,0.04-0.09,0.078-0.141,0.114l-0.012,0.009
		l-0.064,0.043l-0.018,0.011l-0.066,0.039l-0.012,0.006l-0.002,0.001c-0.158,0.086-0.342,0.155-0.556,0.21
		c-0.135,0.034-0.26,0.055-0.381,0.067c-0.014,0.224,0.015,0.497,0.084,0.77c0,0,0.146,0.629,0.16,0.625
		c0.156-0.023,0.316-0.058,0.48-0.107c1.915-0.574,2.401-2.076,2.086-3.323c-0.035,0.011-0.236-1.173-0.342-1.815h0.002
		L87.912,65.193z"/>
	<path clip-path="url(#SVGID_2_)" fill="#BFDB7D" d="M83.941,67.834c-0.027-0.166-0.064-0.389-0.102-0.611l-0.152-0.889
		l-0.074-0.442l-0.024-0.14l-0.05-0.303c0,0-0.075-0.445-0.147-0.889l-0.094-0.895c-0.507-0.497-0.804-1.286-0.927-2.06
		c-0.35,0.564-0.461,1.281-0.389,1.975c0,0,0.053,0.517,0.107,1.033c0.065,0.518,0.163,1.032,0.163,1.032l0.05,0.313l0.026,0.142
		l0.023,0.143h0.002l0.051,0.312c0,0,0.346,2.061,0.387,2.057c0.166,0.686,0.513,1.334,1.035,1.758
		c-0.147-0.778-0.131-1.626,0.181-2.263C84.007,68.107,83.982,67.998,83.941,67.834"/>
	<path clip-path="url(#SVGID_2_)" fill="#BFDB7D" d="M90.734,81.837c0.197,0,0.432-0.102,0.701-0.305
		c0.34-0.255,0.535-0.52,0.564-0.768c0.033-0.277-0.125-0.544-0.193-0.648l-0.011-0.011c-0.13-0.193-0.489-0.721-0.786-1.178
		l-0.025,0.017l-0.24-0.426c-0.018-0.031-0.033-0.066-0.053-0.098c-0.068,1.181-0.141,2.297-0.219,3.341
		c0.041,0.022,0.082,0.047,0.125,0.058C90.642,81.832,90.687,81.837,90.734,81.837"/>
	<path clip-path="url(#SVGID_2_)" fill="#BFDB7D" d="M87.99,38.188l0.229-0.944c0.031-0.135,0.064-0.27,0.096-0.396
		c-0.172,0.043-0.344,0.073-0.521,0.073c-0.193,0-0.391-0.025-0.59-0.076c-0.383-0.096-0.707-0.281-0.973-0.528l-0.441,1.794
		c0.238,0.047,0.482,0.077,0.736,0.077H87.99z"/>
	<path clip-path="url(#SVGID_2_)" fill="#BFDB7D" d="M92.248,24.296l0.006,0.002l0.504-1.357c0.051-0.128,0.152-0.445,0.059-0.702
		c-0.102-0.285-0.445-0.473-0.719-0.581c-0.225-0.089-0.426-0.133-0.596-0.133c-0.123,0-0.227,0.022-0.314,0.071
		c-0.248,0.132-0.391,0.444-0.441,0.572l-0.973,2.619c0.65,0.297,1.329,0.542,2.031,0.731L92.248,24.296z"/>
	<path clip-path="url(#SVGID_2_)" fill="#BFDB7D" d="M88.603,32.729l0.252-0.842h-0.563l-0.176,0.587
		c-0.01,0.031-0.02,0.064-0.029,0.096c0.086,0.019,0.17,0.032,0.26,0.057C88.441,32.655,88.515,32.697,88.603,32.729"/>
	<path clip-path="url(#SVGID_2_)" fill="#BFDB7D" d="M83.259,34.688v0.699c0,0.576,0.203,1.111,0.551,1.556l0.248-1.022
		c0.105-0.446,0.224-0.888,0.25-0.975c0.221-0.811,0.654-1.486,1.228-1.917l0.164-0.124c0.053-0.194,0.161-0.575,0.282-0.971
		C84.437,32.158,83.259,33.301,83.259,34.688"/>
	<path clip-path="url(#SVGID_2_)" fill="#BFDB7D" d="M135.726,53.76c0.244,7.722-13.725,19.484-13.725,21.324
		c0,1.838,4.045,2.205,4.045,2.205c-17.648,18.504-25,12.744-25,12.744c-1.73-3.286-2.301-34.03-2.486-51.844h5.242
		c1.803,0,3.268-1.255,3.268-2.802v-0.699c0-1.547-1.465-2.801-3.268-2.801h-5.297c-0.027-3.895-0.033-6.312-0.033-6.312
		l-0.045-0.028c5.59-1.449,9.727-6.515,9.727-12.559C108.154,5.814,102.337,0,95.163,0C87.99,0,82.175,5.814,82.175,12.988
		c0,4.451,2.246,8.364,5.661,10.701l0.855-2.306c0.406-1.06,1.156-1.776,2.08-2.036c-2.018-1.397-3.34-3.722-3.34-6.359
		c0-4.271,3.463-7.731,7.731-7.731s7.731,3.46,7.731,7.731c0,4.27-3.463,7.732-7.731,7.732c-0.226,0-0.45-0.016-0.671-0.035
		c0.691,0.946,0.673,2.114,0.322,3.039l-0.82,2.203l-0.779,2.212c-0.281,0.801-0.768,1.408-1.379,1.785
		c-0.005,0.604-0.008,1.258-0.014,1.963h-0.67l-0.068,0.224l-0.635,2.139c0.371,0.732,0.412,1.578,0.201,2.35
		c0,0.001-0.153,0.559-0.283,1.12l-0.115,0.469h1.514c-0.105,10.332-0.346,25.002-0.861,36.153c0.205,0.239,0.384,0.513,0.523,0.823
		l1.207,2.226c0.313,0.498,0.986,1.484,0.986,1.484c0.582,0.954,1.242,2.772-0.73,4.434c-0.633,0.534-1.346,0.817-2.061,0.817
		c-0.186,0-0.367-0.024-0.547-0.061c-0.281,3.076-0.611,5.225-1.002,5.968c0,0-7.354,5.76-24.998-12.744
		c0,0,4.043-0.367,4.043-2.205c0-2.365-13.952-14.127-13.725-21.324c0,0-7.597,17.156-1.347,25.858c0,0,1.714,1.223,5.025-0.369
		c0,0,10.226,19.968,36.748,30.532c0.004,0.068,0.27,0.068,0.271,0c26.525-10.563,36.75-30.532,36.75-30.532
		c3.313,1.592,5.025,0.369,5.025,0.369C143.324,70.916,135.726,53.76,135.726,53.76"/>
	<path clip-path="url(#SVGID_2_)" fill="#BFDB7D" d="M86.951,79.71l0.227,0.414c0,0,0.289,0.584,0.676,1.117l0.73,1.084
		c0.811,1.305,2.484,1.936,4.018,0.641c1.555-1.312,1.305-2.762,0.65-3.837c0,0-0.684-0.997-1.012-1.526l-0.174-0.321l-0.188-0.349
		v0.001l-0.861-1.585c-0.518-1.155-1.764-2.052-3.656-1.332c-0.162,0.062-0.308,0.131-0.445,0.207l0.254,0.593
		c0.111,0.261,0.254,0.497,0.398,0.666c0.102-0.065,0.215-0.125,0.342-0.18c0.201-0.089,0.391-0.147,0.566-0.177l0.002-0.001
		l0.012-0.001l0.078-0.012l0.02-0.001l0.078-0.005h0.014c0.061-0.003,0.121-0.002,0.18,0.004h0.004l0.076,0.011l0.018,0.004
		l0.061,0.013l0.021,0.005l0.057,0.017l0.021,0.008l0.07,0.028c0.08,0.035,0.15,0.082,0.215,0.133
		c0.236,0.182,0.354,0.444,0.444,0.591l0.03,0.053l1.064,1.964c-0.016,0.009,0.061,0.14,0.178,0.33l0.019,0.034l0.002-0.001
		c0.351,0.557,1.038,1.564,1.038,1.564c0.123,0.182,0.318,0.545,0.268,0.952c-0.045,0.374-0.295,0.741-0.738,1.076
		c-0.453,0.339-0.861,0.46-1.227,0.36c-0.4-0.11-0.688-0.464-0.822-0.663c0,0-1.041-1.533-1.297-1.987
		c0.004-0.001,0.006-0.004,0.008-0.006l-0.066-0.126l-0.217-0.399l-0.869-1.605c-0.692-0.283-1.169-0.977-1.539-1.687
		c-0.153,0.66-0.053,1.407,0.255,2.05L86.951,79.71z"/>
	<path clip-path="url(#SVGID_2_)" fill="none" stroke="#BEE37B" stroke-width="2.081" stroke-miterlimit="10" d="M0.41,177.982
		c27.568,11.8,60.02,18.605,94.754,18.605c34.734,0,67.185-6.806,94.754-18.605"/>
	<path clip-path="url(#SVGID_2_)" fill="none" stroke="#BEE37B" stroke-width="2.081" stroke-miterlimit="10" d="M19.674,144.621
		c22.607,8.928,48.753,13.813,75.489,13.813s52.881-4.885,75.49-13.813"/>
</g>
</svg>
