<?xml version="1.0" encoding="utf-8"?>
<!-- Generator: Adobe Illustrator 15.0.0, SVG Export Plug-In . SVG Version: 6.00 Build 0)  -->
<!DOCTYPE svg PUBLIC "-//W3C//DTD SVG 1.1//EN" "http://www.w3.org/Graphics/SVG/1.1/DTD/svg11.dtd">
<svg version="1.1" id="Layer_1" xmlns="http://www.w3.org/2000/svg" xmlns:xlink="http://www.w3.org/1999/xlink" x="0px" y="0px"
	 width="208.651px" height="197.903px" viewBox="0 0 208.651 197.903" enable-background="new 0 0 208.651 197.903"
	 xml:space="preserve">
<g>
	<path fill="#BEE37B" d="M22.606,169.398l-0.808-0.309l-1.536-8.498l-3.844,10.083l-2.152-0.82l5.714-14.99l1.593,0.607
		l1.636,11.161l8.619-7.252l1.593,0.607l-5.715,14.99l-2.151-0.821l3.84-10.072L22.606,169.398z"/>
</g>
<g>
	<path fill="#BEE37B" d="M47.891,164.129l2.301,0.577l-3.912,15.606l-2.301-0.576L47.891,164.129z"/>
</g>
<g>
	<path fill="#BEE37B" d="M65.49,167.893l2.278,0.342l-2.082,13.838l7.163,1.078l-0.312,2.072l-9.441-1.421L65.49,167.893z"/>
</g>
<g>
	<path fill="#BEE37B" d="M88.934,170.575l2.368,0.141l-0.952,16.061l-2.368-0.141L88.934,170.575z"/>
</g>
<g>
	<path fill="#BEE37B" d="M105.538,171.103l11.27-0.32l0.059,2.051l-4.479,0.127l0.4,14.056l-2.303,0.065l-0.4-14.056l-4.488,0.128
		L105.538,171.103z"/>
</g>
<g>
	<path fill="#BEE37B" d="M133.876,169.134l1.606-0.209l9.248,15.111l-2.338,0.305l-2.743-4.449l-6.807,0.889l-1.376,4.986
		l-2.347,0.307L133.876,169.134z M138.445,177.98l-3.328-5.441l-1.633,6.09L138.445,177.98z"/>
</g>
<g>
	<path fill="#BEE37B" d="M160.391,180.85l-4.06-15.568l4.805-1.252c1.44-0.376,2.72-0.293,3.837,0.248
		c1.117,0.543,1.85,1.479,2.196,2.809c0.3,1.151,0.265,2.148-0.107,2.991c-0.371,0.843-0.848,1.411-1.43,1.705l6.605,5.979
		l-2.519,0.657l-6.146-5.634l-2.719,0.709l1.767,6.775L160.391,180.85z M160.091,166.326l-1.036,0.27l1.282,4.914l2.707-0.705
		c0.498-0.13,0.887-0.317,1.168-0.561c0.282-0.244,0.523-0.568,0.723-0.975c0.2-0.404,0.221-0.908,0.064-1.51
		c-0.149-0.572-0.406-1.027-0.771-1.364c-0.366-0.337-0.781-0.528-1.244-0.573C162.519,165.775,161.555,165.943,160.091,166.326z"/>
</g>
<g>
	<path fill="#BEE37B" d="M186.772,155.47l2.487-0.974l-1.783,9.22l2.993,7.646l-2.199,0.86l-2.993-7.646l-7.6-5.547l2.488-0.975
		l5.373,4.031L186.772,155.47z"/>
</g>
<g>
	<defs>
		<rect id="SVGID_1_" x="-145.675" y="-51.569" width="500" height="300"/>
	</defs>
	<clipPath id="SVGID_2_">
		<use xlink:href="#SVGID_1_"  overflow="visible"/>
	</clipPath>
	<path clip-path="url(#SVGID_2_)" fill="#BFDB7D" d="M146.411,76.728c0.113,3.09,1.181,4.885,3.203,5.378
		c1.793-1.105,2.462-3.181,2.005-6.233c-0.422-2.978-1.489-4.865-3.206-5.666C146.927,71.58,146.257,73.752,146.411,76.728"/>
	<path clip-path="url(#SVGID_2_)" fill="#BFDB7D" d="M124.152,89.031c-1.564,1.945-1.907,4.1-1.029,6.469
		c2.48,0,4.366-1.088,5.668-3.263c1.217-2.136,1.426-4.426,0.625-6.87C127.09,86.287,125.336,87.508,124.152,89.031"/>
	<path clip-path="url(#SVGID_2_)" fill="#BFDB7D" d="M158.313,39.766c-1.907-1.066-4.215-1.43-6.924-1.087
		c0.572,2.365,1.737,4.234,3.493,5.608c1.981,1.489,4.191,1.793,6.632,0.916C161.438,42.761,160.373,40.952,158.313,39.766"/>
	<path clip-path="url(#SVGID_2_)" fill="#BFDB7D" d="M154.936,31.125c-2.25-0.723-4.617-0.686-7.095,0.116
		c0.533,2.097,1.984,3.682,4.349,4.75c2.48,1.105,4.693,1.01,6.638-0.286C158.714,33.493,157.415,31.966,154.936,31.125"/>
	<path clip-path="url(#SVGID_2_)" fill="#BFDB7D" d="M161.804,55.327c0.189-2.781-0.557-4.898-2.233-6.349
		c-1.258-1.068-3.279-1.925-6.064-2.576c0,2.596,0.63,4.712,1.888,6.355C156.92,54.7,159.056,55.559,161.804,55.327"/>
	<path clip-path="url(#SVGID_2_)" fill="#BFDB7D" d="M155.852,25.005c1.87-0.764,2.784-2.786,2.748-6.067
		c-0.076-3.241-1.09-5.188-3.035-5.834c-1.373,1.411-2.135,3.489-2.285,6.234C153.087,22.354,153.943,24.241,155.852,25.005"/>
	<path clip-path="url(#SVGID_2_)" fill="#BFDB7D" d="M148.757,16.938c1.753-1.374,2.252-3.567,1.487-6.581
		c-0.801-2.939-2.192-4.599-4.176-4.978c-1.072,2.059-1.413,4.348-1.03,6.866C145.496,14.992,146.735,16.557,148.757,16.938"/>
	<path clip-path="url(#SVGID_2_)" fill="#BFDB7D" d="M164.891,29.295c0.65-3.011,0.114-5.244-1.601-6.695
		c-1.677,1.107-2.899,2.823-3.661,5.152c-0.88,2.67-0.535,4.822,1.029,6.466C162.794,33.987,164.208,32.352,164.891,29.295"/>
	<path clip-path="url(#SVGID_2_)" fill="#BFDB7D" d="M163.29,44.345c2.403-0.153,4.14-1.28,5.206-3.375
		c0.955-1.908,1.203-4.255,0.744-7.04c-2.021,0.153-3.738,1.278-5.149,3.375C162.602,39.559,162.335,41.904,163.29,44.345"/>
	<path clip-path="url(#SVGID_2_)" fill="#BFDB7D" d="M164.208,55.044c4.537-0.229,7.112-3.297,7.721-9.213
		c-2.669,0.152-4.806,1.086-6.406,2.805C163.843,50.465,163.403,52.604,164.208,55.044"/>
	<path clip-path="url(#SVGID_2_)" fill="#BFDB7D" d="M151.733,62.767c-0.917,2.367-1.069,4.714-0.46,7.04
		c0.688,2.555,2.115,3.985,4.291,4.29c1.601-1.756,1.851-3.966,0.746-6.637C155.279,64.942,153.755,63.38,151.733,62.767"/>
	<path clip-path="url(#SVGID_2_)" fill="#BFDB7D" d="M132.677,93.151c2.252-0.153,3.854-1.603,4.811-4.351
		c0.913-2.667,0.704-4.993-0.632-6.977c-1.907,0.99-3.339,2.496-4.289,4.519C131.456,88.708,131.494,90.976,132.677,93.151"/>
	<path clip-path="url(#SVGID_2_)" fill="#BFDB7D" d="M140.403,10.984c1.104-2.288,1.03-4.575-0.229-6.864
		c-1.182-2.134-2.901-3.51-5.15-4.12c-0.535,2.861-0.363,5.302,0.515,7.322C136.492,9.498,138.114,10.718,140.403,10.984"/>
	<path clip-path="url(#SVGID_2_)" fill="#BFDB7D" d="M158.998,58.305c-1.334-1.83-3.165-3.012-5.492-3.549
		c-0.419,2.481-0.136,4.731,0.858,6.751c1.146,2.327,2.937,3.55,5.38,3.665C160.658,62.694,160.407,60.405,158.998,58.305"/>
	<path clip-path="url(#SVGID_2_)" fill="#BFDB7D" d="M159.17,71.123c3.128-9.422,4.503-16.861,4.12-22.314
		c-1.143-17.282-10.759-30.479-28.839-39.596c-0.19-2.175-1.563-3.738-4.117-4.693c-2.481-0.953-4.771-0.876-6.869,0.229
		c2.214,3.51,4.483,5.398,6.813,5.665c0.455,0.039,1.104-0.057,1.941-0.287c0.88-0.229,1.528-0.321,1.946-0.286
		c0.649,0.04,2.729,1.222,6.238,3.55c3.091,2.022,4.883,3.414,5.376,4.174c-1.677-0.838-3.543-0.914-5.605-0.229
		c-1.83,0.573-3.244,1.431-4.234,2.578c0.99,1.866,3.13,2.669,6.41,2.401c3.356-0.23,5.187-1.411,5.491-3.548
		c1.942,1.985,3.692,3.994,5.259,6.031c-0.861-0.856-2.191-1.361-4.001-1.511c-2.592-0.229-4.807,0.249-6.636,1.433
		c0.534,1.981,2.345,3.279,5.436,3.889c3.126,0.612,5.188-0.092,6.18-2.118c-0.087-0.309-0.206-0.596-0.353-0.861
		c5.641,7.631,8.643,15.642,8.99,24.035c0.345,8.239-1.525,15.907-5.605,23.003c-3.433,6.026-8.012,10.966-13.731,14.819
		c1.372-0.992,2.021-2.711,1.944-5.149c-0.037-2.329-0.59-4.178-1.658-5.551c-1.868,0.688-3.091,2.557-3.663,5.609
		c-0.611,3.165,0.115,5.262,2.175,6.291c-6.563,3.51-10.223,5.379-10.986,5.61c-4.448,1.548-8.193,2.49-11.235,2.833V97.5
		C136.994,95.416,150.07,86.626,159.17,71.123"/>
	<path clip-path="url(#SVGID_2_)" fill="#BFDB7D" d="M139.832,13.104c-2.023-1.413-4.332-1.582-6.925-0.517
		c-2.326,0.956-3.891,2.405-4.691,4.351c2.211,1.106,4.595,1.278,7.152,0.515C138.037,16.651,139.527,15.201,139.832,13.104"/>
	<path clip-path="url(#SVGID_2_)" fill="#BFDB7D" d="M130.847,98.128c-2.056-1.373-4.328-1.66-6.806-0.858
		c0.188,4.462,3.662,6.559,10.409,6.295C133.996,101.2,132.793,99.387,130.847,98.128"/>
	<path clip-path="url(#SVGID_2_)" fill="#BFDB7D" d="M140.574,93.896c-2.822-0.952-4.96-0.518-6.409,1.314
		c0.421,1.985,2.042,3.283,4.866,3.89c2.822,0.648,5.071,0.25,6.748-1.2C144.827,96.106,143.092,94.771,140.574,93.896"/>
	<path clip-path="url(#SVGID_2_)" fill="#BFDB7D" d="M162.147,65.458c2.594,0.418,4.747-0.133,6.465-1.66
		c1.524-1.337,2.536-3.263,3.032-5.778C165.237,58.058,162.069,60.536,162.147,65.458"/>
	<path clip-path="url(#SVGID_2_)" fill="#BFDB7D" d="M161.688,70.092c-2.403,0.916-3.646,2.535-3.72,4.863
		c2.176,1.145,4.407,1.124,6.691-0.056c2.177-1.147,3.513-2.805,4.007-4.979C166.189,69.196,163.862,69.255,161.688,70.092"/>
	<path clip-path="url(#SVGID_2_)" fill="#BFDB7D" d="M156.424,79.648c-2.861,0.417-4.541,1.64-5.035,3.661
		c1.488,1.717,3.699,2.213,6.639,1.488c2.859-0.685,4.614-1.984,5.263-3.891C161.461,79.648,159.17,79.227,156.424,79.648"/>
	<path clip-path="url(#SVGID_2_)" fill="#BFDB7D" d="M152.877,88.346c-1.716-0.764-3.547-0.991-5.493-0.688
		c-2.021,0.342-3.263,1.182-3.719,2.517c-0.038,0.992,0.57,1.736,1.831,2.233c1.067,0.458,2.438,0.668,4.118,0.626
		c1.563-0.076,2.937-0.34,4.12-0.797c1.26-0.497,1.867-1.088,1.831-1.775C155.565,89.852,154.67,89.147,152.877,88.346"/>
	<path clip-path="url(#SVGID_2_)" fill="#BFDB7D" d="M62.24,76.728c-0.115,3.09-1.183,4.885-3.203,5.378
		c-1.795-1.105-2.463-3.181-2.004-6.233c0.42-2.978,1.487-4.865,3.202-5.666C61.724,71.58,62.393,73.752,62.24,76.728"/>
	<path clip-path="url(#SVGID_2_)" fill="#BFDB7D" d="M84.498,89.031c1.563,1.945,1.908,4.1,1.03,6.469
		c-2.48,0-4.367-1.088-5.666-3.263c-1.219-2.136-1.428-4.426-0.629-6.87C81.561,86.287,83.317,87.508,84.498,89.031"/>
	<path clip-path="url(#SVGID_2_)" fill="#BFDB7D" d="M50.338,39.766c1.908-1.066,4.217-1.43,6.925-1.087
		c-0.572,2.365-1.736,4.234-3.49,5.608c-1.985,1.489-4.197,1.793-6.639,0.916C47.21,42.761,48.279,40.952,50.338,39.766"/>
	<path clip-path="url(#SVGID_2_)" fill="#BFDB7D" d="M53.715,31.125c2.252-0.723,4.616-0.686,7.095,0.116
		c-0.533,2.097-1.984,3.682-4.35,4.75c-2.476,1.105-4.692,1.01-6.635-0.286C49.937,33.493,51.236,31.966,53.715,31.125"/>
	<path clip-path="url(#SVGID_2_)" fill="#BFDB7D" d="M46.848,55.327c-0.19-2.781,0.555-4.898,2.233-6.349
		c1.257-1.068,3.281-1.925,6.064-2.576c0,2.596-0.628,4.712-1.889,6.355C51.734,54.7,49.596,55.559,46.848,55.327"/>
	<path clip-path="url(#SVGID_2_)" fill="#BFDB7D" d="M52.798,25.005c-1.867-0.764-2.782-2.786-2.744-6.067
		c0.076-3.241,1.087-5.188,3.031-5.834c1.374,1.411,2.138,3.489,2.288,6.234C55.565,22.354,54.708,24.241,52.798,25.005"/>
	<path clip-path="url(#SVGID_2_)" fill="#BFDB7D" d="M59.894,16.938c-1.753-1.374-2.249-3.567-1.486-6.581
		c0.8-2.939,2.192-4.599,4.175-4.978c1.07,2.059,1.412,4.348,1.03,6.866C63.156,14.992,61.917,16.557,59.894,16.938"/>
	<path clip-path="url(#SVGID_2_)" fill="#BFDB7D" d="M43.76,29.295c-0.649-3.011-0.115-5.244,1.602-6.695
		c1.677,1.107,2.899,2.823,3.661,5.152c0.878,2.67,0.536,4.822-1.031,6.466C45.859,33.987,44.445,32.352,43.76,29.295"/>
	<path clip-path="url(#SVGID_2_)" fill="#BFDB7D" d="M45.361,44.345c-2.404-0.153-4.139-1.28-5.208-3.375
		c-0.953-1.908-1.199-4.255-0.743-7.04c2.022,0.153,3.738,1.278,5.148,3.375C46.047,39.559,46.315,41.904,45.361,44.345"/>
	<path clip-path="url(#SVGID_2_)" fill="#BFDB7D" d="M44.444,55.044c-4.539-0.229-7.114-3.297-7.723-9.213
		c2.667,0.152,4.808,1.086,6.408,2.805C44.808,50.465,45.246,52.604,44.444,55.044"/>
	<path clip-path="url(#SVGID_2_)" fill="#BFDB7D" d="M56.919,62.767c0.915,2.367,1.067,4.714,0.457,7.04
		c-0.686,2.555-2.116,3.985-4.291,4.29c-1.603-1.756-1.85-3.966-0.743-6.637C53.371,64.942,54.898,63.38,56.919,62.767"/>
	<path clip-path="url(#SVGID_2_)" fill="#BFDB7D" d="M75.974,93.151c-2.252-0.153-3.854-1.603-4.81-4.351
		c-0.914-2.667-0.704-4.993,0.631-6.977c1.909,0.99,3.34,2.496,4.292,4.519C77.193,88.708,77.155,90.976,75.974,93.151"/>
	<path clip-path="url(#SVGID_2_)" fill="#BFDB7D" d="M68.248,10.984c-1.106-2.288-1.029-4.575,0.229-6.864
		C69.66,1.986,71.378,0.61,73.625,0c0.538,2.861,0.366,5.302-0.513,7.322C72.159,9.498,70.537,10.718,68.248,10.984"/>
	<path clip-path="url(#SVGID_2_)" fill="#BFDB7D" d="M49.651,58.305c1.338-1.83,3.168-3.012,5.493-3.549
		c0.42,2.481,0.137,4.731-0.858,6.751c-1.145,2.327-2.937,3.55-5.381,3.665C47.992,62.694,48.241,60.405,49.651,58.305"/>
	<path clip-path="url(#SVGID_2_)" fill="#BFDB7D" d="M49.481,71.123c-3.129-9.422-4.503-16.861-4.12-22.314
		C46.504,31.526,56.118,18.33,74.198,9.212c0.192-2.175,1.562-3.738,4.12-4.693c2.48-0.953,4.769-0.876,6.868,0.229
		c-2.212,3.51-4.484,5.398-6.809,5.665c-0.46,0.039-1.109-0.057-1.947-0.287c-0.878-0.229-1.526-0.321-1.946-0.286
		c-0.649,0.04-2.727,1.222-6.236,3.55c-3.09,2.022-4.883,3.414-5.377,4.174c1.678-0.838,3.545-0.914,5.605-0.229
		c1.83,0.573,3.243,1.431,4.235,2.578c-0.992,1.866-3.127,2.669-6.409,2.401c-3.356-0.23-5.187-1.411-5.493-3.548
		c-1.941,1.985-3.692,3.994-5.258,6.031c0.861-0.856,2.19-1.361,4-1.511c2.595-0.229,4.806,0.249,6.637,1.433
		c-0.536,1.981-2.346,3.279-5.435,3.889c-3.127,0.612-5.189-0.092-6.179-2.118c0.086-0.309,0.206-0.596,0.351-0.861
		c-5.64,7.631-8.641,15.642-8.993,24.035c-0.345,8.239,1.528,15.907,5.61,23.003c3.431,6.026,8.009,10.966,13.73,14.819
		c-1.372-0.992-2.021-2.711-1.945-5.149c0.038-2.329,0.591-4.178,1.659-5.551c1.87,0.688,3.09,2.557,3.663,5.609
		c0.611,3.165-0.115,5.262-2.175,6.291c6.561,3.51,10.224,5.379,10.986,5.61c4.447,1.548,8.193,2.49,11.237,2.833V97.5
		C71.655,95.416,58.582,86.626,49.481,71.123"/>
	<path clip-path="url(#SVGID_2_)" fill="#BFDB7D" d="M68.821,13.104c2.02-1.413,4.33-1.582,6.923-0.517
		c2.325,0.956,3.891,2.405,4.691,4.351c-2.212,1.106-4.595,1.278-7.153,0.515C70.613,16.651,69.125,15.201,68.821,13.104"/>
	<path clip-path="url(#SVGID_2_)" fill="#BFDB7D" d="M77.803,98.128c2.06-1.373,4.329-1.66,6.808-0.858
		c-0.189,4.462-3.661,6.559-10.412,6.295C74.655,101.2,75.86,99.387,77.803,98.128"/>
	<path clip-path="url(#SVGID_2_)" fill="#BFDB7D" d="M68.076,93.896c2.822-0.952,4.959-0.518,6.408,1.314
		c-0.418,1.985-2.04,3.283-4.864,3.89c-2.82,0.648-5.07,0.25-6.749-1.2C63.822,96.106,65.558,94.771,68.076,93.896"/>
	<path clip-path="url(#SVGID_2_)" fill="#BFDB7D" d="M46.505,65.458c-2.595,0.418-4.749-0.133-6.465-1.66
		c-1.526-1.337-2.537-3.263-3.034-5.778C43.414,58.058,46.582,60.536,46.505,65.458"/>
	<path clip-path="url(#SVGID_2_)" fill="#BFDB7D" d="M46.964,70.092c2.402,0.916,3.643,2.535,3.717,4.863
		c-2.174,1.145-4.406,1.124-6.694-0.056c-2.174-1.147-3.509-2.805-4.004-4.979C42.462,69.196,44.788,69.255,46.964,70.092"/>
	<path clip-path="url(#SVGID_2_)" fill="#BFDB7D" d="M52.227,79.648c2.861,0.417,4.539,1.64,5.036,3.661
		c-1.489,1.717-3.699,2.213-6.638,1.488c-2.861-0.685-4.615-1.984-5.263-3.891C47.191,79.648,49.481,79.227,52.227,79.648"/>
	<path clip-path="url(#SVGID_2_)" fill="#BFDB7D" d="M55.773,88.346c1.719-0.764,3.549-0.991,5.495-0.688
		c2.022,0.342,3.26,1.182,3.718,2.517c0.039,0.992-0.571,1.736-1.831,2.233c-1.066,0.458-2.44,0.668-4.118,0.626
		c-1.564-0.076-2.94-0.34-4.121-0.797c-1.26-0.497-1.868-1.088-1.831-1.775C53.085,89.852,53.983,89.147,55.773,88.346"/>
	<polygon clip-path="url(#SVGID_2_)" fill="#BFDB7D" points="104.325,78.115 108.12,89.797 120.402,89.797 110.465,97.014 
		114.261,108.695 104.325,101.476 94.389,108.695 98.184,97.014 88.248,89.797 100.53,89.797 	"/>
	<path clip-path="url(#SVGID_2_)" fill="none" stroke="#BEE37B" stroke-width="2.081" stroke-miterlimit="10" d="M0.456,174.087
		c29.42,14.354,65.229,22.775,103.869,22.775c38.64,0,74.449-8.422,103.87-22.775"/>
	<path clip-path="url(#SVGID_2_)" fill="none" stroke="#BEE37B" stroke-width="2.081" stroke-miterlimit="10" d="M21.44,141.775
		c24.204,10.905,53.18,16.934,82.885,16.934c29.705,0,58.681-6.028,82.885-16.934"/>
</g>
</svg>
