<?xml version="1.0" encoding="utf-8"?>
<!-- Generator: Adobe Illustrator 15.0.0, SVG Export Plug-In . SVG Version: 6.00 Build 0)  -->
<!DOCTYPE svg PUBLIC "-//W3C//DTD SVG 1.1//EN" "http://www.w3.org/Graphics/SVG/1.1/DTD/svg11.dtd">
<svg version="1.1" id="Layer_1" xmlns="http://www.w3.org/2000/svg" xmlns:xlink="http://www.w3.org/1999/xlink" x="0px" y="0px"
	 width="184.052px" height="185.003px" viewBox="0 0 184.052 185.003" enable-background="new 0 0 184.052 185.003"
	 xml:space="preserve">
<g>
	<defs>
		<rect id="SVGID_1_" x="-158.118" y="-58.018" width="500" height="300"/>
	</defs>
	<clipPath id="SVGID_2_">
		<use xlink:href="#SVGID_1_"  overflow="visible"/>
	</clipPath>
	<path clip-path="url(#SVGID_2_)" fill-rule="evenodd" clip-rule="evenodd" fill="#FFFFFF" d="M124.306,20.248
		c2.607,1.107,5.191,2.422,7.771,3.87c0.46-2.475,0.938-4.958,1.449-7.419c-2.598-1.642-5.207-3.109-7.849-4.361
		C125.197,14.974,124.742,17.608,124.306,20.248"/>
	<path clip-path="url(#SVGID_2_)" fill-rule="evenodd" clip-rule="evenodd" fill="#FFFFFF" d="M139.676,29.291
		c2.508,1.897,5.012,3.809,7.548,5.534c0.505-2.106,1.032-4.203,1.621-6.299c-2.573-1.857-5.105-3.97-7.632-6.067
		C140.658,24.717,140.149,27.006,139.676,29.291"/>
	<path clip-path="url(#SVGID_2_)" fill-rule="evenodd" clip-rule="evenodd" fill="#FFFFFF" d="M154.955,39.033
		c2.604,1.141,5.213,2.174,7.85,3.113c0.58-2.097,1.192-4.175,1.888-6.237c-2.687-0.869-5.361-1.858-8-2.988
		C156.053,34.938,155.487,36.976,154.955,39.033"/>
	<path clip-path="url(#SVGID_2_)" fill-rule="evenodd" clip-rule="evenodd" fill="#FFFFFF" d="M168.505,58.146
		c2.618,0.885,5.232,1.715,7.876,2.471c0.223-2.59,0.507-5.17,0.882-7.717c-2.671-0.486-5.313-1.092-7.945-1.772
		C168.979,53.453,168.711,55.794,168.505,58.146"/>
	<path clip-path="url(#SVGID_2_)" fill-rule="evenodd" clip-rule="evenodd" fill="#FFFFFF" d="M152.964,51.734
		c-2.574-1.26-5.143-2.549-7.686-3.932c-0.163,2.207-0.269,4.432-0.354,6.647c2.584,1.32,5.177,2.566,7.775,3.818
		C152.748,56.084,152.825,53.898,152.964,51.734"/>
	<path clip-path="url(#SVGID_2_)" fill-rule="evenodd" clip-rule="evenodd" fill="#FFFFFF" d="M168.505,58.146
		c-2.609-0.951-5.206-1.939-7.797-2.992c-0.13,2.219-0.192,4.467-0.217,6.715c2.61,1.168,5.206,2.302,7.823,3.435
		C168.317,62.91,168.375,60.517,168.505,58.146"/>
	<path clip-path="url(#SVGID_2_)" fill-rule="evenodd" clip-rule="evenodd" fill="#FFFFFF" d="M168.623,72.568
		c2.63,1.293,5.246,2.611,7.893,3.902c-0.166-2.673-0.303-5.334-0.351-7.994c-2.639-1.012-5.251-2.086-7.851-3.172
		C168.356,67.716,168.469,70.14,168.623,72.568"/>
	<path clip-path="url(#SVGID_2_)" fill-rule="evenodd" clip-rule="evenodd" fill="#FFFFFF" d="M136.971,57.628
		c-2.658-1.1-5.331-2.098-8.004-3.025c-0.093,2.566-0.155,5.15-0.215,7.724c2.748,0.77,5.494,1.594,8.245,2.522
		C136.969,62.44,136.96,60.028,136.971,57.628"/>
	<path clip-path="url(#SVGID_2_)" fill-rule="evenodd" clip-rule="evenodd" fill="#FFFFFF" d="M110.395,1.746
		c-2.952,0.657-5.926,1.634-8.929,2.938c-0.351,2.93-0.688,5.853-1.04,8.776c2.95-1.449,5.871-2.514,8.755-3.254
		C109.58,7.379,109.979,4.568,110.395,1.746"/>
	<path clip-path="url(#SVGID_2_)" fill-rule="evenodd" clip-rule="evenodd" fill="#FFFFFF" d="M127.221,4.479
		c-2.72-1.185-5.479-2.101-8.254-2.72c-0.478,2.742-0.932,5.476-1.382,8.213c2.72,0.53,5.425,1.316,8.092,2.365
		C126.182,9.715,126.692,7.092,127.221,4.479"/>
	<path clip-path="url(#SVGID_2_)" fill-rule="evenodd" clip-rule="evenodd" fill="#FFFFFF" d="M143.021,15.725
		c-2.595-2.255-5.196-4.377-7.813-6.368c-0.584,2.445-1.139,4.882-1.683,7.342c2.573,1.797,5.131,3.714,7.688,5.759
		C141.787,20.201,142.381,17.959,143.021,15.725"/>
	<path clip-path="url(#SVGID_2_)" fill-rule="evenodd" clip-rule="evenodd" fill="#FFFFFF" d="M158.803,26.954
		c-2.693-1.318-5.371-2.848-8.008-4.584c-0.678,2.048-1.331,4.101-1.95,6.156c2.598,1.648,5.201,3.099,7.848,4.395
		C157.355,30.918,158.061,28.926,158.803,26.954"/>
	<path clip-path="url(#SVGID_2_)" fill-rule="evenodd" clip-rule="evenodd" fill="#FFFFFF" d="M175.441,31.261
		c-2.83-0.302-5.626-0.772-8.408-1.416c-0.826,2-1.594,4.03-2.341,6.063c2.704,0.735,5.414,1.325,8.161,1.776
		C173.674,35.523,174.531,33.387,175.441,31.261"/>
	<path clip-path="url(#SVGID_2_)" fill-rule="evenodd" clip-rule="evenodd" fill="#FFFFFF" d="M108.026,18.679
		c2.794-0.465,5.553-0.59,8.282-0.446c0.418-2.756,0.834-5.502,1.276-8.261c-2.771-0.226-5.567-0.165-8.404,0.233
		C108.79,13.032,108.41,15.853,108.026,18.679"/>
	<path clip-path="url(#SVGID_2_)" fill-rule="evenodd" clip-rule="evenodd" fill="#FFFFFF" d="M170.773,44.308
		c2.689,0.492,5.383,0.873,8.104,1.1c0.697-2.442,1.462-4.868,2.309-7.268c-2.802,0.014-5.579-0.144-8.333-0.456
		C172.09,39.874,171.406,42.079,170.773,44.308"/>
	<path clip-path="url(#SVGID_2_)" fill-rule="evenodd" clip-rule="evenodd" fill="#FFFFFF" d="M108.026,18.679
		c-2.847,0.813-5.729,1.965-8.645,3.55c-0.351,2.922-0.709,5.842-1.049,8.765c2.911-1.711,5.776-2.949,8.608-3.825
		C107.289,24.335,107.662,21.508,108.026,18.679"/>
	<path clip-path="url(#SVGID_2_)" fill-rule="evenodd" clip-rule="evenodd" fill="#FFFFFF" d="M124.306,20.248
		c-2.639-0.911-5.302-1.57-7.997-2.015c-0.388,2.767-0.779,5.525-1.131,8.295c2.679,0.366,5.326,0.919,7.954,1.704
		C123.487,25.56,123.894,22.903,124.306,20.248"/>
	<path clip-path="url(#SVGID_2_)" fill-rule="evenodd" clip-rule="evenodd" fill="#FFFFFF" d="M139.676,29.291
		c-2.521-1.844-5.051-3.552-7.599-5.173c-0.432,2.495-0.841,5.001-1.188,7.515c2.544,1.428,5.078,2.956,7.6,4.603
		C138.836,33.913,139.242,31.598,139.676,29.291"/>
	<path clip-path="url(#SVGID_2_)" fill-rule="evenodd" clip-rule="evenodd" fill="#FFFFFF" d="M154.955,39.033
		c-2.599-1.267-5.172-2.663-7.731-4.208c-0.435,2.13-0.847,4.263-1.18,6.426c2.532,1.468,5.089,2.807,7.656,4.065
		C154.047,43.199,154.482,41.106,154.955,39.033"/>
	<path clip-path="url(#SVGID_2_)" fill-rule="evenodd" clip-rule="evenodd" fill="#FFFFFF" d="M170.773,44.308
		c-2.674-0.615-5.328-1.336-7.969-2.162c-0.505,2.115-0.967,4.25-1.333,6.418c2.603,0.933,5.219,1.779,7.847,2.564
		C169.714,48.828,170.221,46.554,170.773,44.308"/>
	<path clip-path="url(#SVGID_2_)" fill-rule="evenodd" clip-rule="evenodd" fill="#FFFFFF" d="M105.918,35.689
		c2.781-0.579,5.529-0.806,8.259-0.812c0.315-2.784,0.644-5.564,1.001-8.349c-2.721-0.059-5.465,0.12-8.237,0.641
		C106.585,30.015,106.252,32.856,105.918,35.689"/>
	<path clip-path="url(#SVGID_2_)" fill-rule="evenodd" clip-rule="evenodd" fill="#FFFFFF" d="M122.173,36.282
		c2.626,0.822,5.228,1.835,7.817,2.95c0.272-2.538,0.56-5.08,0.898-7.599c-2.578-1.291-5.156-2.443-7.757-3.401
		C122.784,30.913,122.472,33.595,122.173,36.282"/>
	<path clip-path="url(#SVGID_2_)" fill-rule="evenodd" clip-rule="evenodd" fill="#FFFFFF" d="M137.661,43.296
		c2.538,1.496,5.065,3.063,7.618,4.506c0.206-2.193,0.452-4.375,0.765-6.552c-2.544-1.58-5.043-3.316-7.556-5.015
		C138.179,38.583,137.903,40.938,137.661,43.296"/>
	<path clip-path="url(#SVGID_2_)" fill-rule="evenodd" clip-rule="evenodd" fill="#FFFFFF" d="M152.964,51.734
		c2.576,1.182,5.154,2.324,7.744,3.42c0.193-2.213,0.442-4.408,0.764-6.59c-2.612-1.01-5.196-2.098-7.771-3.248
		C153.399,47.439,153.155,49.584,152.964,51.734"/>
	<path clip-path="url(#SVGID_2_)" fill-rule="evenodd" clip-rule="evenodd" fill="#FFFFFF" d="M105.918,35.689
		c-2.846,0.943-5.718,2.241-8.646,4.079c-0.35,2.924-0.698,5.837-1.05,8.761c2.966-1.949,5.873-3.319,8.742-4.307
		C105.28,41.375,105.594,38.539,105.918,35.689"/>
	<path clip-path="url(#SVGID_2_)" fill-rule="evenodd" clip-rule="evenodd" fill="#FFFFFF" d="M122.173,36.282
		c-2.646-0.675-5.309-1.13-7.996-1.405c-0.301,2.791-0.576,5.577-0.851,8.371c2.714,0.213,5.408,0.564,8.1,1.123
		C121.667,41.669,121.913,38.978,122.173,36.282"/>
	<path clip-path="url(#SVGID_2_)" fill-rule="evenodd" clip-rule="evenodd" fill="#FFFFFF" d="M137.661,43.296
		c-2.55-1.461-5.104-2.808-7.671-4.064c-0.234,2.54-0.441,5.099-0.626,7.652c2.609,1.096,5.208,2.266,7.813,3.551
		C137.313,48.05,137.46,45.673,137.661,43.296"/>
	<path clip-path="url(#SVGID_2_)" fill-rule="evenodd" clip-rule="evenodd" fill="#FFFFFF" d="M104.069,52.775
		c2.868-0.676,5.692-0.977,8.508-1.127c0.241-2.799,0.483-5.596,0.749-8.4c-2.764,0.088-5.548,0.341-8.36,0.974
		C104.658,47.076,104.368,49.927,104.069,52.775"/>
	<path clip-path="url(#SVGID_2_)" fill-rule="evenodd" clip-rule="evenodd" fill="#FFFFFF" d="M120.844,52.509
		c2.726,0.561,5.421,1.277,8.123,2.094c0.105-2.578,0.233-5.145,0.397-7.719c-2.635-0.953-5.271-1.814-7.938-2.514
		C121.212,47.087,121.023,49.802,120.844,52.509"/>
	<path clip-path="url(#SVGID_2_)" fill-rule="evenodd" clip-rule="evenodd" fill="#FFFFFF" d="M136.971,57.628
		c2.644,1.131,5.291,2.35,7.94,3.543c-0.023-2.236-0.033-4.486,0.013-6.723c-2.592-1.314-5.162-2.701-7.746-4.013
		C137.07,52.832,137.014,55.227,136.971,57.628"/>
	<path clip-path="url(#SVGID_2_)" fill-rule="evenodd" clip-rule="evenodd" fill="#FFFFFF" d="M152.827,64.884
		c2.635,1.236,5.268,2.516,7.906,3.795c-0.12-2.277-0.214-4.551-0.242-6.811c-2.606-1.187-5.195-2.394-7.792-3.601
		C152.691,60.47,152.75,62.673,152.827,64.884"/>
	<path clip-path="url(#SVGID_2_)" fill-rule="evenodd" clip-rule="evenodd" fill="#FFFFFF" d="M104.069,52.775
		c-2.918,1.031-5.875,2.467-8.898,4.527c-0.351,2.924-0.691,5.846-1.032,8.762c3.095-2.166,6.118-3.66,9.102-4.742
		C103.515,58.476,103.785,55.629,104.069,52.775"/>
	<path clip-path="url(#SVGID_2_)" fill-rule="evenodd" clip-rule="evenodd" fill="#FFFFFF" d="M120.844,52.509
		c-2.735-0.457-5.496-0.711-8.267-0.861c-0.224,2.808-0.434,5.609-0.64,8.414c2.832,0.08,5.662,0.242,8.47,0.593
		C120.544,57.943,120.683,55.226,120.844,52.509"/>
	<path clip-path="url(#SVGID_2_)" fill-rule="evenodd" clip-rule="evenodd" fill="#FFFFFF" d="M152.827,64.884
		c-2.634-1.258-5.282-2.471-7.916-3.713c0.061,2.256,0.153,4.5,0.257,6.754c2.706,1.174,5.405,2.35,8.106,3.615
		C153.097,69.316,152.945,67.101,152.827,64.884"/>
	<path clip-path="url(#SVGID_2_)" fill-rule="evenodd" clip-rule="evenodd" fill="#FFFFFF" d="M168.623,72.568
		c-2.638-1.311-5.259-2.592-7.89-3.889c0.164,2.28,0.369,4.567,0.592,6.848c2.674,1.422,5.338,2.857,8.005,4.355
		C169.066,77.443,168.82,75,168.623,72.568"/>
	<path clip-path="url(#SVGID_2_)" fill-rule="evenodd" clip-rule="evenodd" fill="#BFDB7D" d="M176.165,68.476
		c0.006-2.633,0.074-5.264,0.216-7.859c-2.643-0.756-5.258-1.586-7.876-2.471c-0.13,2.371-0.187,4.764-0.19,7.158
		C170.914,66.39,173.526,67.464,176.165,68.476"/>
	<path clip-path="url(#SVGID_2_)" fill-rule="evenodd" clip-rule="evenodd" fill="#BFDB7D" d="M144.262,47.22
		c-2.208-1.279-4.401-2.627-6.601-3.924c-0.201,2.377-0.349,4.754-0.483,7.139c2.365,1.199,4.716,2.463,7.084,3.676l0.662,0.338
		c0.086-2.215,0.192-4.44,0.355-6.647C144.938,47.611,144.6,47.415,144.262,47.22"/>
	<path clip-path="url(#SVGID_2_)" fill-rule="evenodd" clip-rule="evenodd" fill="#BFDB7D" d="M135.281,34.208
		c-1.46-0.896-2.925-1.752-4.393-2.576c-0.339,2.519-0.626,5.061-0.898,7.599c1.769,0.866,3.532,1.775,5.291,2.736
		c0.795,0.433,1.587,0.876,2.38,1.329c0.242-2.359,0.518-4.713,0.827-7.061C137.42,35.539,136.354,34.864,135.281,34.208"/>
	<path clip-path="url(#SVGID_2_)" fill-rule="evenodd" clip-rule="evenodd" fill="#BFDB7D" d="M177.263,52.9
		c0.441-2.521,0.989-5.02,1.616-7.492c-2.723-0.227-5.416-0.608-8.105-1.1c-0.553,2.246-1.06,4.52-1.455,6.821
		C171.95,51.808,174.592,52.414,177.263,52.9"/>
	<path clip-path="url(#SVGID_2_)" fill-rule="evenodd" clip-rule="evenodd" fill="#BFDB7D" d="M159.825,54.779
		c-2.296-0.98-4.58-1.998-6.861-3.045c-0.139,2.164-0.216,4.35-0.265,6.533c2.376,1.104,4.742,2.207,7.126,3.297l0.666,0.305
		c0.018-1.604,0.056-3.207,0.122-4.797c0.025-0.641,0.059-1.281,0.095-1.918l-0.095-0.041L159.825,54.779z"/>
	<path clip-path="url(#SVGID_2_)" fill-rule="evenodd" clip-rule="evenodd" fill="#BFDB7D" d="M128.916,30.671
		c0.656,0.31,1.314,0.632,1.973,0.961c0.348-2.514,0.757-5.02,1.188-7.515c-1.054-0.589-2.105-1.157-3.161-1.7
		c-1.53-0.784-3.068-1.512-4.61-2.17c-0.412,2.656-0.818,5.312-1.174,7.985C125.071,28.944,126.992,29.768,128.916,30.671"/>
	<path clip-path="url(#SVGID_2_)" fill-rule="evenodd" clip-rule="evenodd" fill="#BFDB7D" d="M96.561,48.316l1.021-8.728
		c2.819-1.738,5.591-2.989,8.337-3.899c0.334-2.833,0.667-5.674,1.023-8.519c-2.744,0.848-5.521,2.046-8.339,3.676l1.021-8.741
		c2.831-1.515,5.632-2.636,8.402-3.426c0.223-1.652,0.448-3.3,0.671-4.947c0.16-1.175,0.322-2.352,0.483-3.526
		c-0.161,0.04-0.323,0.083-0.483,0.127c-2.657,0.714-5.343,1.711-8.053,3.025l1.353-11.583c0.104-0.869-0.521-1.662-1.393-1.764
		c-0.866-0.101-1.663,0.528-1.764,1.394L86.952,103.13c-0.102,0.871,0.526,1.662,1.396,1.764c0.868,0.104,1.66-0.525,1.763-1.393
		l5.427-46.439c2.893-1.932,5.729-3.295,8.532-4.287c0.299-2.848,0.589-5.699,0.896-8.553
		C102.201,45.173,99.408,46.484,96.561,48.316"/>
	<path clip-path="url(#SVGID_2_)" fill-rule="evenodd" clip-rule="evenodd" fill="#BFDB7D" d="M128.916,38.774
		c-2.234-0.935-4.479-1.783-6.743-2.492c-0.26,2.696-0.506,5.387-0.747,8.089c2.514,0.658,5.005,1.463,7.49,2.353l0.448,0.16
		c0.185-2.552,0.392-5.112,0.626-7.652C129.634,39.079,129.273,38.923,128.916,38.774"/>
	<path clip-path="url(#SVGID_2_)" fill-rule="evenodd" clip-rule="evenodd" fill="#BFDB7D" d="M119.743,27.346
		c-1.117-0.25-2.235-0.464-3.362-0.641c-0.4-0.063-0.802-0.124-1.203-0.177c-0.33,2.563-0.633,5.125-0.923,7.685l-0.078,0.663
		l0.078,0.007c0.708,0.074,1.417,0.159,2.126,0.261c1.122,0.158,2.243,0.351,3.362,0.579c0.812,0.165,1.621,0.352,2.43,0.559
		c0.299-2.687,0.611-5.37,0.959-8.05C122.007,27.896,120.876,27.602,119.743,27.346"/>
	<path clip-path="url(#SVGID_2_)" fill-rule="evenodd" clip-rule="evenodd" fill="#BFDB7D" d="M177.309,84.509
		c-0.296-2.678-0.569-5.371-0.793-8.039c-2.646-1.291-5.263-2.609-7.893-3.902c0.197,2.431,0.443,4.875,0.707,7.314
		C171.986,81.386,174.645,82.941,177.309,84.509"/>
	<path clip-path="url(#SVGID_2_)" fill-rule="evenodd" clip-rule="evenodd" fill="#BFDB7D" d="M144.262,40.116
		c0.593,0.386,1.188,0.766,1.782,1.135c0.333-2.163,0.745-4.296,1.18-6.426c-0.992-0.675-1.979-1.379-2.962-2.098
		c-1.535-1.121-3.058-2.281-4.586-3.436c-0.434,2.306-0.84,4.622-1.188,6.945C140.411,37.535,142.327,38.858,144.262,40.116"/>
	<path clip-path="url(#SVGID_2_)" fill-rule="evenodd" clip-rule="evenodd" fill="#BFDB7D" d="M146.044,41.25
		c-0.313,2.177-0.559,4.358-0.765,6.552c1.73,0.941,3.474,1.84,5.221,2.715c0.82,0.408,1.642,0.814,2.464,1.216
		c0.191-2.15,0.436-4.295,0.736-6.418c-1.069-0.523-2.135-1.06-3.2-1.617C149.01,42.919,147.522,42.106,146.044,41.25"/>
	<path clip-path="url(#SVGID_2_)" fill-rule="evenodd" clip-rule="evenodd" fill="#BFDB7D" d="M104.069,52.775
		c-0.284,2.854-0.555,5.701-0.829,8.547c1.837-0.447,3.651-0.746,5.457-0.961c1.081-0.127,2.159-0.221,3.24-0.299
		c0.206-2.805,0.416-5.605,0.64-8.414c-1.291,0.068-2.583,0.168-3.88,0.322C107.164,52.152,105.623,52.41,104.069,52.775"/>
	<path clip-path="url(#SVGID_2_)" fill-rule="evenodd" clip-rule="evenodd" fill="#BFDB7D" d="M135.281,49.519
		c-1.971-0.932-3.94-1.805-5.917-2.635c-0.164,2.574-0.292,5.141-0.397,7.719c2.107,0.732,4.214,1.506,6.314,2.34
		c0.565,0.224,1.129,0.455,1.689,0.685c0.043-2.402,0.1-4.796,0.206-7.193C136.547,50.124,135.914,49.818,135.281,49.519"/>
	<path clip-path="url(#SVGID_2_)" fill-rule="evenodd" clip-rule="evenodd" fill="#BFDB7D" d="M120.844,52.509
		c-0.161,2.717-0.3,5.434-0.437,8.146c2.796,0.438,5.569,1.024,8.345,1.672c0.049-2.068,0.097-4.142,0.164-6.207
		c0.018-0.506,0.032-1.011,0.051-1.517l-0.051-0.016C126.229,53.777,123.55,53.066,120.844,52.509"/>
	<path clip-path="url(#SVGID_2_)" fill-rule="evenodd" clip-rule="evenodd" fill="#BFDB7D" d="M150.5,57.205
		c-1.863-0.9-3.722-1.809-5.576-2.756c-0.046,2.236-0.036,4.486-0.013,6.723c1.859,0.875,3.726,1.738,5.589,2.613
		c0.778,0.363,1.554,0.731,2.327,1.1c-0.077-2.211-0.136-4.414-0.128-6.618C151.963,57.914,151.234,57.56,150.5,57.205"/>
	<path clip-path="url(#SVGID_2_)" fill-rule="evenodd" clip-rule="evenodd" fill="#BFDB7D" d="M119.743,44.046
		c-1.119-0.197-2.24-0.361-3.362-0.496c-0.709-0.086-1.418-0.16-2.126-0.225c-0.31-0.027-0.62-0.052-0.929-0.078
		c-0.266,2.805-0.508,5.602-0.749,8.401c0.559,0.031,1.117,0.062,1.678,0.103c0.708,0.051,1.417,0.109,2.126,0.178
		c1.122,0.107,2.243,0.242,3.362,0.406c0.367,0.053,0.735,0.111,1.101,0.174c0.18-2.707,0.368-5.422,0.582-8.139
		C120.865,44.255,120.305,44.146,119.743,44.046"/>
	<path clip-path="url(#SVGID_2_)" fill-rule="evenodd" clip-rule="evenodd" fill="#BFDB7D" d="M136.971,57.628
		c-0.011,2.4-0.002,4.812,0.026,7.221c2.425,0.845,4.845,1.773,7.265,2.72l0.906,0.356c-0.104-2.254-0.196-4.498-0.257-6.754
		l-0.649-0.293C141.828,59.78,139.396,58.667,136.971,57.628"/>
	<path clip-path="url(#SVGID_2_)" fill-rule="evenodd" clip-rule="evenodd" fill="#BFDB7D" d="M166.125,36.283
		c-0.479-0.119-0.955-0.244-1.433-0.374c-0.695,2.061-1.308,4.14-1.888,6.237c1.105,0.347,2.209,0.672,3.32,0.981
		c1.543,0.429,3.093,0.824,4.648,1.181c0.633-2.228,1.316-4.433,2.081-6.624C170.593,37.312,168.354,36.845,166.125,36.283"/>
	<path clip-path="url(#SVGID_2_)" fill-rule="evenodd" clip-rule="evenodd" fill="#BFDB7D" d="M184.052,31.088
		c-2.906,0.253-5.767,0.307-8.61,0.173c-0.911,2.126-1.768,4.262-2.588,6.423c2.754,0.312,5.531,0.469,8.333,0.456
		C182.09,35.769,183.041,33.426,184.052,31.088"/>
	<path clip-path="url(#SVGID_2_)" fill-rule="evenodd" clip-rule="evenodd" fill="#BFDB7D" d="M161.472,48.564
		c-0.321,2.182-0.569,4.377-0.764,6.59c1.803,0.732,3.606,1.433,5.417,2.113c0.793,0.295,1.588,0.588,2.38,0.879
		c0.206-2.352,0.474-4.693,0.813-7.018c-1.068-0.318-2.135-0.648-3.193-0.988C164.569,49.642,163.02,49.121,161.472,48.564"/>
	<path clip-path="url(#SVGID_2_)" fill-rule="evenodd" clip-rule="evenodd" fill="#BFDB7D" d="M160.613,61.921l-0.122-0.053
		c0.019,1.42,0.061,2.846,0.122,4.278c0.036,0.843,0.075,1.687,0.12,2.533c1.8,0.887,3.594,1.765,5.392,2.65
		c0.83,0.41,1.663,0.822,2.498,1.238c-0.155-2.427-0.267-4.851-0.309-7.263l-2.189-0.953
		C164.287,63.552,162.453,62.746,160.613,61.921"/>
	<path clip-path="url(#SVGID_2_)" fill-rule="evenodd" clip-rule="evenodd" fill="#BFDB7D" d="M159.825,68.238
		c-2.336-1.131-4.665-2.26-6.998-3.354c0.118,2.217,0.27,4.432,0.447,6.657c2.186,1.033,4.368,2.123,6.551,3.226l0.788,0.401
		l0.712,0.359c-0.222-2.281-0.428-4.568-0.592-6.848l-0.12-0.056L159.825,68.238z"/>
	<path clip-path="url(#SVGID_2_)" fill-rule="evenodd" clip-rule="evenodd" fill="#BFDB7D" d="M160.613,34.49
		c1.354,0.506,2.715,0.977,4.079,1.419c0.467-1.27,0.938-2.537,1.433-3.798c0.296-0.758,0.597-1.515,0.908-2.266
		c-0.303-0.089-0.608-0.177-0.908-0.269c-1.849-0.561-3.687-1.19-5.512-1.898c-0.263-0.101-0.527-0.205-0.788-0.307
		c-0.341-0.138-0.682-0.277-1.023-0.417c-0.741,1.972-1.446,3.965-2.109,5.967c1.038,0.446,2.083,0.868,3.133,1.272
		C160.086,34.292,160.351,34.39,160.613,34.49"/>
	<path clip-path="url(#SVGID_2_)" fill-rule="evenodd" clip-rule="evenodd" fill="#BFDB7D" d="M133.525,16.699
		c0.544-2.46,1.098-4.896,1.682-7.342c-2.087-1.438-4.178-2.762-6.291-3.954c-0.563-0.316-1.129-0.627-1.695-0.924
		c-0.528,2.614-1.039,5.237-1.544,7.859c1.084,0.512,2.166,1.064,3.239,1.646C130.461,14.822,131.994,15.729,133.525,16.699"/>
	<path clip-path="url(#SVGID_2_)" fill-rule="evenodd" clip-rule="evenodd" fill="#BFDB7D" d="M148.845,28.526
		c0.53-1.759,1.083-3.515,1.655-5.27l0.295-0.886l-0.295-0.228c-2.101-1.644-4.174-3.457-6.238-5.303
		c-0.416-0.372-0.828-0.742-1.241-1.114c-0.64,2.235-1.233,4.476-1.808,6.734c1.014,0.841,2.028,1.685,3.049,2.514
		C145.78,26.21,147.307,27.412,148.845,28.526"/>
	<path clip-path="url(#SVGID_2_)" fill-rule="evenodd" clip-rule="evenodd" fill="#BFDB7D" d="M135.281,26.213
		c1.47,0.986,2.933,2.01,4.395,3.077c0.474-2.284,0.982-4.573,1.537-6.832c-1.975-1.58-3.949-3.083-5.932-4.513
		c-0.585-0.422-1.169-0.838-1.756-1.247c-0.511,2.461-0.988,4.944-1.448,7.419C133.146,24.799,134.215,25.497,135.281,26.213"/>
	<path clip-path="url(#SVGID_2_)" fill-rule="evenodd" clip-rule="evenodd" fill="#BFDB7D" d="M159.825,41.041
		c-1.628-0.63-3.25-1.298-4.87-2.008c-0.473,2.073-0.908,4.166-1.255,6.283c2.031,0.909,4.07,1.776,6.125,2.6
		c0.261,0.105,0.525,0.207,0.788,0.314c0.284,0.11,0.572,0.223,0.858,0.334c0.366-2.168,0.828-4.302,1.332-6.418
		c-0.729-0.259-1.461-0.528-2.19-0.804C160.351,41.244,160.086,41.143,159.825,41.041"/>
	<path clip-path="url(#SVGID_2_)" fill-rule="evenodd" clip-rule="evenodd" fill="#BFDB7D" d="M150.5,36.717
		c1.479,0.816,2.962,1.588,4.455,2.315c0.532-2.056,1.098-4.094,1.737-6.112c-2.086-1.02-4.143-2.138-6.192-3.373
		c-0.553-0.332-1.104-0.672-1.655-1.021c-0.589,2.095-1.115,4.192-1.621,6.298C148.312,35.483,149.407,36.112,150.5,36.717"/>
	<path clip-path="url(#SVGID_2_)" fill-rule="evenodd" clip-rule="evenodd" fill="#BFDB7D" d="M116.381,9.893
		c0.4,0.02,0.803,0.046,1.204,0.079c0.45-2.737,0.904-5.471,1.382-8.213c-0.858-0.101-1.721-0.171-2.586-0.211
		c-0.709-0.032-1.418-0.045-2.126-0.038c-1.283,0.013-2.569,0.091-3.86,0.236c-0.416,2.822-0.814,5.633-1.214,8.459
		c1.703-0.241,3.394-0.356,5.074-0.364C114.963,9.838,115.672,9.856,116.381,9.893"/>
	<path clip-path="url(#SVGID_2_)" fill-rule="evenodd" clip-rule="evenodd" fill="#BFDB7D" d="M116.309,18.233l0.072,0.013
		c1.127,0.186,2.245,0.411,3.362,0.676c1.528,0.365,3.048,0.805,4.563,1.326c0.437-2.639,0.892-5.275,1.371-7.911
		c-1.96-0.77-3.942-1.399-5.934-1.89c-0.721-0.176-1.437-0.335-2.158-0.475c-0.419,2.603-0.812,5.196-1.204,7.794L116.309,18.233z"
		/>
	<path clip-path="url(#SVGID_2_)" fill-rule="evenodd" clip-rule="evenodd" fill="#BFDB7D" d="M114.255,26.518
		c0.307,0,0.613,0.003,0.923,0.01c0.351-2.771,0.743-5.529,1.131-8.295c-0.684-0.036-1.368-0.055-2.054-0.056
		c-1.84-0.004-3.69,0.123-5.558,0.396c-0.223,0.033-0.444,0.067-0.672,0.106c-0.363,2.829-0.736,5.656-1.084,8.49
		c0.586-0.11,1.173-0.205,1.756-0.287C110.563,26.626,112.411,26.514,114.255,26.518"/>
	<path clip-path="url(#SVGID_2_)" fill-rule="evenodd" clip-rule="evenodd" fill="#BFDB7D" d="M108.697,35.22
		c-0.923,0.119-1.849,0.275-2.779,0.469c-0.325,2.849-0.638,5.685-0.953,8.533c1.251-0.279,2.494-0.488,3.732-0.639
		c1.55-0.187,3.091-0.287,4.629-0.336c0.274-2.794,0.55-5.58,0.85-8.371C112.36,34.88,110.535,34.982,108.697,35.22"/>
	<path clip-path="url(#SVGID_2_)" fill-rule="evenodd" clip-rule="evenodd" fill="#FFFFFF" d="M59.746,20.248
		c-2.607,1.107-5.191,2.422-7.771,3.87c-0.46-2.475-0.938-4.958-1.448-7.419c2.596-1.642,5.205-3.109,7.849-4.361
		C58.854,14.974,59.309,17.608,59.746,20.248"/>
	<path clip-path="url(#SVGID_2_)" fill-rule="evenodd" clip-rule="evenodd" fill="#FFFFFF" d="M44.376,29.291
		c-2.509,1.897-5.012,3.809-7.548,5.534c-0.506-2.106-1.032-4.203-1.621-6.299c2.573-1.857,5.106-3.97,7.632-6.067
		C43.395,24.717,43.903,27.006,44.376,29.291"/>
	<path clip-path="url(#SVGID_2_)" fill-rule="evenodd" clip-rule="evenodd" fill="#FFFFFF" d="M29.097,39.033
		c-2.605,1.141-5.213,2.174-7.85,3.113c-0.58-2.097-1.192-4.175-1.887-6.237c2.686-0.869,5.361-1.858,8-2.988
		C27.999,34.938,28.564,36.976,29.097,39.033"/>
	<path clip-path="url(#SVGID_2_)" fill-rule="evenodd" clip-rule="evenodd" fill="#FFFFFF" d="M15.547,58.146
		c-2.618,0.885-5.232,1.715-7.877,2.471c-0.223-2.59-0.506-5.17-0.88-7.717c2.67-0.486,5.313-1.092,7.944-1.772
		C15.074,53.453,15.341,55.794,15.547,58.146"/>
	<path clip-path="url(#SVGID_2_)" fill-rule="evenodd" clip-rule="evenodd" fill="#FFFFFF" d="M31.088,51.734
		c2.574-1.26,5.143-2.549,7.685-3.932c0.165,2.207,0.268,4.432,0.355,6.647c-2.584,1.32-5.177,2.566-7.774,3.818
		C31.305,56.084,31.227,53.898,31.088,51.734"/>
	<path clip-path="url(#SVGID_2_)" fill-rule="evenodd" clip-rule="evenodd" fill="#FFFFFF" d="M15.547,58.146
		c2.61-0.951,5.206-1.939,7.797-2.992c0.13,2.219,0.193,4.467,0.217,6.715c-2.61,1.168-5.207,2.302-7.823,3.435
		C15.734,62.91,15.677,60.517,15.547,58.146"/>
	<path clip-path="url(#SVGID_2_)" fill-rule="evenodd" clip-rule="evenodd" fill="#FFFFFF" d="M15.43,72.568
		c-2.631,1.293-5.246,2.611-7.894,3.902c0.166-2.673,0.303-5.334,0.352-7.994c2.638-1.012,5.25-2.086,7.851-3.172
		C15.696,67.716,15.583,70.14,15.43,72.568"/>
	<path clip-path="url(#SVGID_2_)" fill-rule="evenodd" clip-rule="evenodd" fill="#FFFFFF" d="M47.081,57.628
		c2.659-1.1,5.332-2.098,8.005-3.025c0.092,2.566,0.154,5.15,0.214,7.724c-2.748,0.77-5.494,1.594-8.245,2.522
		C47.082,62.44,47.092,60.028,47.081,57.628"/>
	<path clip-path="url(#SVGID_2_)" fill-rule="evenodd" clip-rule="evenodd" fill="#FFFFFF" d="M73.658,1.746
		c2.952,0.657,5.926,1.634,8.928,2.938c0.35,2.93,0.689,5.853,1.041,8.776c-2.951-1.449-5.871-2.514-8.756-3.254
		C74.47,7.379,74.074,4.568,73.658,1.746"/>
	<path clip-path="url(#SVGID_2_)" fill-rule="evenodd" clip-rule="evenodd" fill="#FFFFFF" d="M56.83,4.479
		c2.721-1.185,5.481-2.101,8.255-2.72c0.477,2.742,0.932,5.476,1.382,8.213c-2.719,0.53-5.425,1.316-8.091,2.365
		C57.871,9.715,57.359,7.092,56.83,4.479"/>
	<path clip-path="url(#SVGID_2_)" fill-rule="evenodd" clip-rule="evenodd" fill="#FFFFFF" d="M41.031,15.725
		c2.595-2.255,5.196-4.377,7.813-6.368c0.585,2.445,1.138,4.882,1.683,7.342c-2.574,1.797-5.132,3.714-7.688,5.759
		C42.264,20.201,41.67,17.959,41.031,15.725"/>
	<path clip-path="url(#SVGID_2_)" fill-rule="evenodd" clip-rule="evenodd" fill="#FFFFFF" d="M25.249,26.954
		c2.693-1.318,5.372-2.848,8.009-4.584c0.677,2.048,1.33,4.101,1.949,6.156c-2.598,1.648-5.2,3.099-7.848,4.395
		C26.697,30.918,25.991,28.926,25.249,26.954"/>
	<path clip-path="url(#SVGID_2_)" fill-rule="evenodd" clip-rule="evenodd" fill="#FFFFFF" d="M8.61,31.261
		c2.83-0.302,5.626-0.772,8.408-1.416c0.827,2,1.595,4.03,2.341,6.063c-2.704,0.735-5.415,1.325-8.16,1.776
		C10.379,35.523,9.521,33.387,8.61,31.261"/>
	<path clip-path="url(#SVGID_2_)" fill-rule="evenodd" clip-rule="evenodd" fill="#FFFFFF" d="M76.025,18.679
		c-2.794-0.465-5.553-0.59-8.282-0.446c-0.418-2.756-0.833-5.502-1.277-8.261c2.772-0.226,5.569-0.165,8.405,0.233
		C75.261,13.032,75.643,15.853,76.025,18.679"/>
	<path clip-path="url(#SVGID_2_)" fill-rule="evenodd" clip-rule="evenodd" fill="#FFFFFF" d="M13.278,44.308
		c-2.689,0.492-5.383,0.873-8.105,1.1c-0.697-2.442-1.462-4.868-2.308-7.268c2.802,0.014,5.58-0.144,8.334-0.456
		C11.962,39.874,12.646,42.079,13.278,44.308"/>
	<path clip-path="url(#SVGID_2_)" fill-rule="evenodd" clip-rule="evenodd" fill="#FFFFFF" d="M76.025,18.679
		c2.847,0.813,5.729,1.965,8.644,3.55c0.35,2.922,0.709,5.842,1.049,8.765c-2.91-1.711-5.777-2.949-8.608-3.825
		C76.764,24.335,76.39,21.508,76.025,18.679"/>
	<path clip-path="url(#SVGID_2_)" fill-rule="evenodd" clip-rule="evenodd" fill="#FFFFFF" d="M59.746,20.248
		c2.639-0.911,5.301-1.57,7.997-2.015c0.389,2.767,0.779,5.525,1.131,8.295c-2.679,0.366-5.326,0.919-7.954,1.704
		C60.564,25.56,60.158,22.903,59.746,20.248"/>
	<path clip-path="url(#SVGID_2_)" fill-rule="evenodd" clip-rule="evenodd" fill="#FFFFFF" d="M44.376,29.291
		c2.521-1.844,5.051-3.552,7.6-5.173c0.431,2.495,0.84,5.001,1.187,7.515c-2.544,1.428-5.078,2.956-7.599,4.603
		C45.216,33.913,44.81,31.598,44.376,29.291"/>
	<path clip-path="url(#SVGID_2_)" fill-rule="evenodd" clip-rule="evenodd" fill="#FFFFFF" d="M29.097,39.033
		c2.599-1.267,5.172-2.663,7.731-4.208c0.435,2.13,0.847,4.263,1.18,6.426c-2.532,1.468-5.089,2.807-7.655,4.065
		C30.004,43.199,29.57,41.106,29.097,39.033"/>
	<path clip-path="url(#SVGID_2_)" fill-rule="evenodd" clip-rule="evenodd" fill="#FFFFFF" d="M13.278,44.308
		c2.674-0.615,5.328-1.336,7.969-2.162c0.505,2.115,0.968,4.25,1.333,6.418c-2.603,0.933-5.219,1.779-7.847,2.564
		C14.338,48.828,13.832,46.554,13.278,44.308"/>
	<path clip-path="url(#SVGID_2_)" fill-rule="evenodd" clip-rule="evenodd" fill="#FFFFFF" d="M78.134,35.689
		c-2.781-0.579-5.529-0.806-8.259-0.812c-0.315-2.784-0.643-5.564-1.001-8.349c2.721-0.059,5.466,0.12,8.237,0.641
		C77.468,30.015,77.801,32.856,78.134,35.689"/>
	<path clip-path="url(#SVGID_2_)" fill-rule="evenodd" clip-rule="evenodd" fill="#FFFFFF" d="M61.878,36.282
		c-2.626,0.822-5.227,1.835-7.816,2.95c-0.273-2.538-0.56-5.08-0.899-7.599c2.578-1.291,5.156-2.443,7.757-3.401
		C61.268,30.913,61.58,33.595,61.878,36.282"/>
	<path clip-path="url(#SVGID_2_)" fill-rule="evenodd" clip-rule="evenodd" fill="#FFFFFF" d="M46.391,43.296
		c-2.538,1.496-5.065,3.063-7.618,4.506c-0.205-2.193-0.452-4.375-0.765-6.552c2.544-1.58,5.044-3.316,7.557-5.015
		C45.873,38.583,46.148,40.938,46.391,43.296"/>
	<path clip-path="url(#SVGID_2_)" fill-rule="evenodd" clip-rule="evenodd" fill="#FFFFFF" d="M31.088,51.734
		c-2.576,1.182-5.154,2.324-7.744,3.42c-0.194-2.213-0.442-4.408-0.764-6.59c2.612-1.01,5.196-2.098,7.773-3.248
		C30.652,47.439,30.897,49.584,31.088,51.734"/>
	<path clip-path="url(#SVGID_2_)" fill-rule="evenodd" clip-rule="evenodd" fill="#FFFFFF" d="M78.134,35.689
		c2.845,0.943,5.718,2.241,8.645,4.079c0.351,2.924,0.7,5.837,1.05,8.761c-2.966-1.949-5.872-3.319-8.742-4.307
		C78.772,41.375,78.457,38.539,78.134,35.689"/>
	<path clip-path="url(#SVGID_2_)" fill-rule="evenodd" clip-rule="evenodd" fill="#FFFFFF" d="M61.878,36.282
		c2.647-0.675,5.31-1.13,7.997-1.405c0.301,2.791,0.576,5.577,0.85,8.371c-2.713,0.213-5.409,0.564-8.1,1.123
		C62.385,41.669,62.139,38.978,61.878,36.282"/>
	<path clip-path="url(#SVGID_2_)" fill-rule="evenodd" clip-rule="evenodd" fill="#FFFFFF" d="M46.391,43.296
		c2.551-1.461,5.104-2.808,7.671-4.064c0.234,2.54,0.441,5.099,0.626,7.652c-2.61,1.096-5.208,2.266-7.813,3.551
		C46.741,48.05,46.592,45.673,46.391,43.296"/>
	<path clip-path="url(#SVGID_2_)" fill-rule="evenodd" clip-rule="evenodd" fill="#FFFFFF" d="M79.982,52.775
		c-2.867-0.676-5.691-0.977-8.508-1.127c-0.241-2.799-0.483-5.596-0.75-8.4c2.765,0.088,5.549,0.341,8.362,0.974
		C79.394,47.076,79.684,49.927,79.982,52.775"/>
	<path clip-path="url(#SVGID_2_)" fill-rule="evenodd" clip-rule="evenodd" fill="#FFFFFF" d="M63.208,52.509
		c-2.726,0.561-5.422,1.277-8.122,2.094c-0.107-2.578-0.234-5.145-0.399-7.719c2.635-0.953,5.273-1.814,7.938-2.514
		C62.84,47.087,63.029,49.802,63.208,52.509"/>
	<path clip-path="url(#SVGID_2_)" fill-rule="evenodd" clip-rule="evenodd" fill="#FFFFFF" d="M47.081,57.628
		c-2.644,1.131-5.29,2.35-7.94,3.543c0.023-2.236,0.033-4.486-0.013-6.723c2.592-1.314,5.162-2.701,7.747-4.013
		C46.981,52.832,47.038,55.227,47.081,57.628"/>
	<path clip-path="url(#SVGID_2_)" fill-rule="evenodd" clip-rule="evenodd" fill="#FFFFFF" d="M31.225,64.884
		c-2.635,1.236-5.268,2.516-7.906,3.795c0.12-2.277,0.215-4.551,0.242-6.811c2.607-1.187,5.195-2.394,7.793-3.601
		C31.361,60.47,31.303,62.673,31.225,64.884"/>
	<path clip-path="url(#SVGID_2_)" fill-rule="evenodd" clip-rule="evenodd" fill="#FFFFFF" d="M79.982,52.775
		c2.919,1.031,5.875,2.467,8.898,4.527c0.351,2.924,0.692,5.846,1.033,8.762c-3.095-2.166-6.118-3.66-9.103-4.742
		C80.538,58.476,80.267,55.629,79.982,52.775"/>
	<path clip-path="url(#SVGID_2_)" fill-rule="evenodd" clip-rule="evenodd" fill="#FFFFFF" d="M63.208,52.509
		c2.735-0.457,5.495-0.711,8.267-0.861c0.223,2.808,0.433,5.609,0.639,8.414c-2.832,0.08-5.662,0.242-8.469,0.593
		C63.508,57.943,63.369,55.226,63.208,52.509"/>
	<path clip-path="url(#SVGID_2_)" fill-rule="evenodd" clip-rule="evenodd" fill="#FFFFFF" d="M31.225,64.884
		c2.635-1.258,5.281-2.471,7.916-3.713c-0.062,2.256-0.153,4.5-0.256,6.754c-2.706,1.174-5.406,2.35-8.108,3.615
		C30.955,69.316,31.107,67.101,31.225,64.884"/>
	<path clip-path="url(#SVGID_2_)" fill-rule="evenodd" clip-rule="evenodd" fill="#FFFFFF" d="M15.43,72.568
		c2.637-1.311,5.258-2.592,7.889-3.889c-0.164,2.28-0.37,4.567-0.592,6.848c-2.674,1.422-5.337,2.857-8.004,4.355
		C14.986,77.443,15.232,75,15.43,72.568"/>
	<path clip-path="url(#SVGID_2_)" fill-rule="evenodd" clip-rule="evenodd" fill="#BFDB7D" d="M7.888,68.476
		c-0.007-2.633-0.074-5.264-0.218-7.859c2.645-0.756,5.259-1.586,7.877-2.471c0.13,2.371,0.188,4.764,0.192,7.158
		C13.138,66.39,10.526,67.464,7.888,68.476"/>
	<path clip-path="url(#SVGID_2_)" fill-rule="evenodd" clip-rule="evenodd" fill="#BFDB7D" d="M39.79,47.22
		c2.208-1.279,4.401-2.627,6.601-3.924c0.201,2.377,0.349,4.754,0.484,7.139c-2.366,1.199-4.717,2.463-7.085,3.676l-0.662,0.338
		c-0.087-2.215-0.191-4.44-0.356-6.647C39.113,47.611,39.452,47.415,39.79,47.22"/>
	<path clip-path="url(#SVGID_2_)" fill-rule="evenodd" clip-rule="evenodd" fill="#BFDB7D" d="M48.771,34.208
		c1.46-0.896,2.925-1.752,4.393-2.576c0.338,2.519,0.626,5.061,0.898,7.599c-1.769,0.866-3.533,1.775-5.291,2.736
		c-0.794,0.433-1.587,0.876-2.38,1.329c-0.242-2.359-0.517-4.713-0.826-7.061C46.631,35.539,47.699,34.864,48.771,34.208"/>
	<path clip-path="url(#SVGID_2_)" fill-rule="evenodd" clip-rule="evenodd" fill="#BFDB7D" d="M6.79,52.9
		c-0.442-2.521-0.99-5.02-1.617-7.492c2.722-0.227,5.416-0.608,8.105-1.1c0.553,2.246,1.06,4.52,1.455,6.821
		C12.102,51.808,9.46,52.414,6.79,52.9"/>
	<path clip-path="url(#SVGID_2_)" fill-rule="evenodd" clip-rule="evenodd" fill="#BFDB7D" d="M24.227,54.779
		c2.296-0.98,4.58-1.998,6.861-3.045c0.139,2.164,0.217,4.35,0.266,6.533c-2.377,1.104-4.742,2.207-7.127,3.297l-0.666,0.305
		c-0.018-1.604-0.055-3.207-0.122-4.797c-0.025-0.641-0.06-1.281-0.095-1.918l0.095-0.041L24.227,54.779z"/>
	<path clip-path="url(#SVGID_2_)" fill-rule="evenodd" clip-rule="evenodd" fill="#BFDB7D" d="M55.136,30.671
		c-0.656,0.31-1.313,0.632-1.973,0.961c-0.346-2.514-0.756-5.02-1.187-7.515c1.053-0.589,2.104-1.157,3.16-1.7
		c1.53-0.784,3.068-1.512,4.61-2.17c0.412,2.656,0.819,5.312,1.174,7.985C58.981,28.944,57.06,29.768,55.136,30.671"/>
	<path clip-path="url(#SVGID_2_)" fill-rule="evenodd" clip-rule="evenodd" fill="#BFDB7D" d="M87.491,48.316l-1.021-8.728
		c-2.819-1.738-5.59-2.989-8.336-3.899c-0.333-2.833-0.666-5.674-1.024-8.519c2.743,0.848,5.521,2.046,8.339,3.676l-1.021-8.741
		c-2.831-1.515-5.632-2.636-8.403-3.426c-0.222-1.652-0.448-3.3-0.671-4.947c-0.159-1.175-0.322-2.352-0.483-3.526
		c0.161,0.04,0.324,0.083,0.483,0.127c2.657,0.714,5.343,1.711,8.054,3.025L82.054,1.775c-0.104-0.869,0.523-1.662,1.393-1.764
		c0.867-0.101,1.664,0.528,1.765,1.394L97.101,103.13c0.103,0.871-0.526,1.662-1.396,1.764c-0.869,0.104-1.662-0.525-1.763-1.393
		l-5.428-46.439c-2.892-1.932-5.73-3.295-8.532-4.287c-0.299-2.848-0.589-5.699-0.895-8.553
		C81.849,45.173,84.644,46.484,87.491,48.316"/>
	<path clip-path="url(#SVGID_2_)" fill-rule="evenodd" clip-rule="evenodd" fill="#BFDB7D" d="M55.136,38.774
		c2.234-0.935,4.481-1.783,6.742-2.492c0.261,2.696,0.507,5.387,0.747,8.089c-2.511,0.658-5.004,1.463-7.489,2.353l-0.448,0.16
		c-0.185-2.552-0.392-5.112-0.626-7.652C54.418,39.079,54.779,38.923,55.136,38.774"/>
	<path clip-path="url(#SVGID_2_)" fill-rule="evenodd" clip-rule="evenodd" fill="#BFDB7D" d="M64.309,27.346
		c1.117-0.25,2.236-0.464,3.362-0.641c0.401-0.063,0.802-0.124,1.203-0.177c0.331,2.563,0.633,5.125,0.923,7.685l0.078,0.663
		l-0.078,0.007c-0.709,0.074-1.417,0.159-2.126,0.261c-1.122,0.158-2.243,0.351-3.362,0.579c-0.812,0.165-1.621,0.352-2.431,0.559
		c-0.298-2.687-0.61-5.37-0.958-8.05C62.044,27.896,63.176,27.602,64.309,27.346"/>
	<path clip-path="url(#SVGID_2_)" fill-rule="evenodd" clip-rule="evenodd" fill="#BFDB7D" d="M6.743,84.509
		c0.296-2.678,0.569-5.371,0.793-8.039c2.647-1.291,5.263-2.609,7.894-3.902c-0.199,2.431-0.445,4.875-0.708,7.314
		C12.065,81.386,9.407,82.941,6.743,84.509"/>
	<path clip-path="url(#SVGID_2_)" fill-rule="evenodd" clip-rule="evenodd" fill="#BFDB7D" d="M39.79,40.116
		c-0.592,0.386-1.188,0.766-1.782,1.135c-0.333-2.163-0.745-4.296-1.18-6.426c0.992-0.675,1.979-1.379,2.962-2.098
		c1.535-1.121,3.058-2.281,4.586-3.436c0.434,2.306,0.84,4.622,1.188,6.945C43.641,37.535,41.726,38.858,39.79,40.116"/>
	<path clip-path="url(#SVGID_2_)" fill-rule="evenodd" clip-rule="evenodd" fill="#BFDB7D" d="M38.008,41.25
		c0.312,2.177,0.56,4.358,0.765,6.552c-1.731,0.941-3.474,1.84-5.221,2.715c-0.82,0.408-1.643,0.814-2.464,1.216
		c-0.191-2.15-0.435-4.295-0.735-6.418c1.069-0.523,2.135-1.06,3.199-1.617C35.042,42.919,36.529,42.106,38.008,41.25"/>
	<path clip-path="url(#SVGID_2_)" fill-rule="evenodd" clip-rule="evenodd" fill="#BFDB7D" d="M79.982,52.775
		c0.284,2.854,0.555,5.701,0.828,8.547c-1.836-0.447-3.65-0.746-5.456-0.961c-1.081-0.127-2.16-0.221-3.24-0.299
		c-0.206-2.805-0.416-5.605-0.64-8.414c1.292,0.068,2.583,0.168,3.88,0.322C76.887,52.152,78.428,52.41,79.982,52.775"/>
	<path clip-path="url(#SVGID_2_)" fill-rule="evenodd" clip-rule="evenodd" fill="#BFDB7D" d="M48.771,49.519
		c1.971-0.932,3.94-1.805,5.917-2.635c0.164,2.574,0.292,5.141,0.398,7.719c-2.108,0.732-4.214,1.506-6.315,2.34
		c-0.565,0.224-1.128,0.455-1.689,0.685c-0.043-2.402-0.1-4.796-0.207-7.193C47.504,50.124,48.139,49.818,48.771,49.519"/>
	<path clip-path="url(#SVGID_2_)" fill-rule="evenodd" clip-rule="evenodd" fill="#BFDB7D" d="M63.208,52.509
		c0.161,2.717,0.3,5.434,0.437,8.146c-2.796,0.438-5.57,1.024-8.345,1.672c-0.048-2.068-0.097-4.142-0.164-6.207l-0.05-1.517
		l0.05-0.016C57.823,53.777,60.502,53.066,63.208,52.509"/>
	<path clip-path="url(#SVGID_2_)" fill-rule="evenodd" clip-rule="evenodd" fill="#BFDB7D" d="M33.552,57.205
		c1.863-0.9,3.722-1.809,5.576-2.756c0.046,2.236,0.036,4.486,0.013,6.723c-1.859,0.875-3.726,1.738-5.589,2.613
		c-0.778,0.363-1.555,0.731-2.327,1.1c0.078-2.211,0.136-4.414,0.129-6.618C32.089,57.914,32.818,57.56,33.552,57.205"/>
	<path clip-path="url(#SVGID_2_)" fill-rule="evenodd" clip-rule="evenodd" fill="#BFDB7D" d="M64.309,44.046
		c1.119-0.197,2.24-0.361,3.362-0.496c0.709-0.086,1.417-0.16,2.126-0.225c0.31-0.027,0.621-0.052,0.928-0.078
		c0.267,2.805,0.509,5.602,0.75,8.401c-0.559,0.031-1.117,0.062-1.678,0.103c-0.709,0.051-1.417,0.109-2.126,0.178
		c-1.122,0.107-2.243,0.242-3.362,0.406c-0.367,0.053-0.735,0.111-1.101,0.174c-0.178-2.707-0.368-5.422-0.583-8.139
		C63.187,44.255,63.748,44.146,64.309,44.046"/>
	<path clip-path="url(#SVGID_2_)" fill-rule="evenodd" clip-rule="evenodd" fill="#BFDB7D" d="M47.081,57.628
		c0.011,2.4,0.001,4.812-0.026,7.221c-2.424,0.845-4.844,1.773-7.265,2.72l-0.905,0.356c0.102-2.254,0.194-4.498,0.256-6.754
		l0.649-0.293C42.224,59.78,44.656,58.667,47.081,57.628"/>
	<path clip-path="url(#SVGID_2_)" fill-rule="evenodd" clip-rule="evenodd" fill="#BFDB7D" d="M17.928,36.283
		c0.479-0.119,0.954-0.244,1.432-0.374c0.695,2.061,1.307,4.14,1.887,6.237c-1.105,0.347-2.21,0.672-3.319,0.981
		c-1.544,0.429-3.093,0.824-4.649,1.181c-0.633-2.228-1.317-4.433-2.08-6.624C13.458,37.312,15.699,36.845,17.928,36.283"/>
	<path clip-path="url(#SVGID_2_)" fill-rule="evenodd" clip-rule="evenodd" fill="#BFDB7D" d="M0,31.088
		c2.906,0.253,5.768,0.307,8.61,0.173c0.911,2.126,1.769,4.262,2.589,6.423c-2.754,0.312-5.532,0.469-8.334,0.456
		C1.962,35.769,1.011,33.426,0,31.088"/>
	<path clip-path="url(#SVGID_2_)" fill-rule="evenodd" clip-rule="evenodd" fill="#BFDB7D" d="M22.58,48.564
		c0.322,2.182,0.569,4.377,0.764,6.59c-1.803,0.732-3.607,1.433-5.416,2.113c-0.794,0.295-1.588,0.588-2.381,0.879
		c-0.206-2.352-0.473-4.693-0.814-7.018c1.069-0.318,2.134-0.648,3.195-0.988C19.483,49.642,21.032,49.121,22.58,48.564"/>
	<path clip-path="url(#SVGID_2_)" fill-rule="evenodd" clip-rule="evenodd" fill="#BFDB7D" d="M23.438,61.921l0.122-0.053
		c-0.019,1.42-0.061,2.846-0.122,4.278c-0.036,0.843-0.075,1.687-0.12,2.533c-1.8,0.887-3.594,1.765-5.391,2.65
		c-0.831,0.41-1.664,0.822-2.498,1.238c0.154-2.427,0.266-4.851,0.309-7.263l2.189-0.953C19.765,63.552,21.599,62.746,23.438,61.921
		"/>
	<path clip-path="url(#SVGID_2_)" fill-rule="evenodd" clip-rule="evenodd" fill="#BFDB7D" d="M24.227,68.238
		c2.336-1.131,4.666-2.26,6.998-3.354c-0.117,2.217-0.269,4.432-0.448,6.657c-2.185,1.033-4.366,2.123-6.55,3.226l-0.788,0.401
		l-0.712,0.359c0.222-2.281,0.428-4.568,0.592-6.848l0.12-0.056L24.227,68.238z"/>
	<path clip-path="url(#SVGID_2_)" fill-rule="evenodd" clip-rule="evenodd" fill="#BFDB7D" d="M23.438,34.49
		c-1.354,0.506-2.715,0.977-4.079,1.419c-0.467-1.27-0.939-2.537-1.432-3.798c-0.297-0.758-0.597-1.515-0.909-2.266
		c0.303-0.089,0.608-0.177,0.909-0.269c1.848-0.561,3.686-1.19,5.511-1.898c0.263-0.101,0.527-0.205,0.788-0.307
		c0.341-0.138,0.682-0.277,1.023-0.417c0.742,1.972,1.448,3.965,2.11,5.967c-1.038,0.446-2.083,0.868-3.133,1.272
		C23.965,34.292,23.701,34.39,23.438,34.49"/>
	<path clip-path="url(#SVGID_2_)" fill-rule="evenodd" clip-rule="evenodd" fill="#BFDB7D" d="M50.527,16.699
		c-0.545-2.46-1.098-4.896-1.683-7.342c2.087-1.438,4.178-2.762,6.291-3.954c0.563-0.316,1.129-0.627,1.695-0.924
		c0.529,2.614,1.041,5.237,1.546,7.859c-1.085,0.512-2.166,1.064-3.241,1.646C53.59,14.822,52.057,15.729,50.527,16.699"/>
	<path clip-path="url(#SVGID_2_)" fill-rule="evenodd" clip-rule="evenodd" fill="#BFDB7D" d="M35.207,28.526
		c-0.53-1.759-1.083-3.515-1.655-5.27l-0.294-0.886l0.294-0.228c2.1-1.644,4.174-3.457,6.238-5.303
		c0.417-0.372,0.829-0.742,1.241-1.114c0.639,2.235,1.234,4.476,1.808,6.734c-1.013,0.841-2.028,1.685-3.049,2.514
		C38.272,26.21,36.745,27.412,35.207,28.526"/>
	<path clip-path="url(#SVGID_2_)" fill-rule="evenodd" clip-rule="evenodd" fill="#BFDB7D" d="M48.771,26.213
		c-1.47,0.986-2.933,2.01-4.395,3.077c-0.472-2.284-0.981-4.573-1.537-6.832c1.976-1.58,3.95-3.083,5.932-4.513
		c0.585-0.422,1.17-0.838,1.757-1.247c0.51,2.461,0.987,4.944,1.448,7.419C50.906,24.799,49.836,25.497,48.771,26.213"/>
	<path clip-path="url(#SVGID_2_)" fill-rule="evenodd" clip-rule="evenodd" fill="#BFDB7D" d="M24.227,41.041
		c1.628-0.63,3.251-1.298,4.87-2.008c0.473,2.073,0.908,4.166,1.256,6.283c-2.032,0.909-4.071,1.776-6.126,2.6
		c-0.261,0.105-0.525,0.207-0.788,0.314c-0.284,0.11-0.572,0.223-0.858,0.334c-0.366-2.168-0.829-4.302-1.333-6.418
		c0.729-0.259,1.461-0.528,2.191-0.804C23.702,41.244,23.965,41.143,24.227,41.041"/>
	<path clip-path="url(#SVGID_2_)" fill-rule="evenodd" clip-rule="evenodd" fill="#BFDB7D" d="M33.552,36.717
		c-1.478,0.816-2.962,1.588-4.455,2.315c-0.532-2.056-1.098-4.094-1.737-6.112c2.087-1.02,4.142-2.138,6.192-3.373
		c0.553-0.332,1.104-0.672,1.655-1.021c0.589,2.095,1.116,4.192,1.621,6.298C35.739,35.483,34.646,36.112,33.552,36.717"/>
	<path clip-path="url(#SVGID_2_)" fill-rule="evenodd" clip-rule="evenodd" fill="#BFDB7D" d="M67.671,9.893
		c-0.4,0.02-0.804,0.046-1.204,0.079c-0.45-2.737-0.904-5.471-1.382-8.213c0.858-0.101,1.72-0.171,2.586-0.211
		c0.709-0.032,1.417-0.045,2.126-0.038c1.283,0.013,2.569,0.091,3.861,0.236c0.416,2.822,0.813,5.633,1.213,8.459
		c-1.703-0.241-3.393-0.356-5.074-0.364C69.088,9.838,68.38,9.856,67.671,9.893"/>
	<path clip-path="url(#SVGID_2_)" fill-rule="evenodd" clip-rule="evenodd" fill="#BFDB7D" d="M67.743,18.233l-0.072,0.013
		c-1.126,0.186-2.245,0.411-3.363,0.676c-1.528,0.365-3.047,0.805-4.562,1.326c-0.437-2.639-0.892-5.275-1.37-7.911
		c1.959-0.77,3.942-1.399,5.932-1.89c0.72-0.176,1.437-0.335,2.159-0.475c0.419,2.603,0.81,5.196,1.204,7.794L67.743,18.233z"/>
	<path clip-path="url(#SVGID_2_)" fill-rule="evenodd" clip-rule="evenodd" fill="#BFDB7D" d="M69.797,26.518
		c-0.307,0-0.613,0.003-0.923,0.01c-0.351-2.771-0.742-5.529-1.131-8.295c0.684-0.036,1.368-0.055,2.054-0.056
		c1.841-0.004,3.69,0.123,5.558,0.396c0.222,0.033,0.444,0.067,0.671,0.106c0.364,2.829,0.738,5.656,1.084,8.49
		c-0.586-0.11-1.172-0.205-1.755-0.287C73.489,26.626,71.641,26.514,69.797,26.518"/>
	<path clip-path="url(#SVGID_2_)" fill-rule="evenodd" clip-rule="evenodd" fill="#BFDB7D" d="M75.354,35.22
		c0.923,0.119,1.849,0.275,2.779,0.469c0.324,2.849,0.638,5.685,0.953,8.533c-1.251-0.279-2.493-0.488-3.732-0.639
		c-1.549-0.187-3.091-0.287-4.63-0.336c-0.273-2.794-0.549-5.58-0.849-8.371C71.691,34.88,73.517,34.982,75.354,35.22"/>
	<path clip-path="url(#SVGID_2_)" fill="none" stroke="#BEE37B" stroke-width="2.081" stroke-miterlimit="10" d="M6.375,169.056
		c25.474,9.518,54.589,14.907,85.507,14.907c30.919,0,60.034-5.39,85.507-14.907"/>
</g>
<g>
	<path fill="#BEE37B" d="M18.453,163.113l4.578-15.424l4.758,1.412c1.428,0.424,2.48,1.156,3.156,2.198
		c0.676,1.042,0.818,2.221,0.427,3.539c-0.338,1.141-0.884,1.976-1.638,2.505s-1.456,0.769-2.106,0.721l2.561,8.532l-2.495-0.74
		l-2.347-8.001l-2.694-0.799l-1.992,6.713L18.453,163.113z M25.709,150.527l-1.027-0.305l-1.445,4.869l2.683,0.796
		c0.493,0.146,0.923,0.188,1.291,0.124c0.367-0.063,0.74-0.217,1.121-0.46c0.38-0.243,0.659-0.663,0.836-1.259
		c0.168-0.567,0.184-1.089,0.045-1.566s-0.395-0.856-0.769-1.136C28.07,151.311,27.159,150.957,25.709,150.527z"/>
</g>
<g>
	<path fill="#BEE37B" d="M53.706,154.977l1.598,0.258l4.542,17.124l-2.327-0.376l-1.357-5.048l-6.776-1.095l-2.745,4.387
		l-2.337-0.378L53.706,154.977z M55.554,164.76l-1.633-6.168l-3.306,5.37L55.554,164.76z"/>
</g>
<g>
	<path fill="#BEE37B" d="M74.093,165.676c0.035-0.774,0.158-1.511,0.37-2.213c0.212-0.702,0.5-1.352,0.866-1.949
		c0.365-0.6,0.798-1.137,1.3-1.614c0.502-0.477,1.058-0.88,1.669-1.21c0.61-0.33,1.267-0.575,1.97-0.735
		c0.703-0.16,1.441-0.224,2.216-0.188c0.576,0.026,1.137,0.109,1.684,0.249c0.547,0.139,1.069,0.328,1.565,0.565
		c0.497,0.238,0.958,0.521,1.385,0.847c0.427,0.326,0.805,0.689,1.133,1.088l-1.598,1.439c-0.219-0.271-0.484-0.517-0.797-0.734
		c-0.313-0.217-0.654-0.405-1.024-0.564c-0.369-0.158-0.762-0.284-1.176-0.376c-0.415-0.092-0.84-0.147-1.278-0.167
		c-0.82-0.037-1.583,0.074-2.286,0.336c-0.703,0.261-1.318,0.641-1.845,1.145c-0.526,0.502-0.945,1.109-1.257,1.822
		c-0.313,0.712-0.489,1.502-0.527,2.368c-0.041,0.905,0.056,1.728,0.292,2.469c0.235,0.741,0.587,1.379,1.055,1.916
		c0.467,0.534,1.042,0.957,1.725,1.265c0.681,0.307,1.452,0.479,2.311,0.519c0.537,0.024,1.023-0.014,1.458-0.113
		c0.435-0.1,0.829-0.238,1.184-0.419c0.354-0.181,0.674-0.391,0.962-0.632c0.288-0.24,0.549-0.489,0.783-0.748l1.568,1.534
		c-0.365,0.43-0.771,0.816-1.217,1.162c-0.446,0.345-0.924,0.638-1.435,0.881c-0.511,0.241-1.051,0.423-1.621,0.544
		c-0.57,0.12-1.166,0.167-1.788,0.139c-1.204-0.054-2.29-0.312-3.256-0.77c-0.967-0.459-1.785-1.072-2.454-1.84
		c-0.669-0.768-1.172-1.664-1.51-2.69C74.182,167.973,74.04,166.866,74.093,165.676z"/>
</g>
<g>
	<path fill="#BEE37B" d="M102.37,157.937l2.371-0.115l0.781,16.07l-2.371,0.115L102.37,157.937z"/>
</g>
<g>
	<path fill="#BEE37B" d="M122.586,160.507l1.714,11.703l-2.279,0.334l-2.334-15.942l1.687-0.247l10.111,10.474l-1.714-11.703
		l2.279-0.333l2.334,15.941l-1.686,0.246L122.586,160.507z"/>
</g>
<g>
	<path fill="#BEE37B" d="M164.136,160.621l0.814,2.857l-1.473,0.42l-0.729-1.086c-0.49,0.548-1.057,1.029-1.697,1.441
		c-0.64,0.416-1.332,0.729-2.078,0.941c-1.152,0.328-2.272,0.433-3.361,0.313c-1.088-0.121-2.089-0.434-3.002-0.934
		c-0.914-0.502-1.71-1.179-2.388-2.033c-0.679-0.851-1.181-1.846-1.505-2.982c-0.317-1.115-0.416-2.211-0.296-3.287
		c0.119-1.076,0.427-2.07,0.921-2.98c0.495-0.912,1.158-1.709,1.99-2.389c0.831-0.68,1.801-1.178,2.908-1.494
		c0.555-0.158,1.113-0.258,1.676-0.299c0.563-0.041,1.117-0.027,1.659,0.042s1.065,0.19,1.571,0.366
		c0.504,0.176,0.977,0.4,1.414,0.674l-1.052,1.857c-0.298-0.178-0.632-0.33-1.003-0.457c-0.373-0.125-0.759-0.215-1.161-0.268
		s-0.817-0.066-1.245-0.039c-0.428,0.025-0.848,0.098-1.262,0.215c-0.783,0.224-1.47,0.58-2.061,1.068
		c-0.592,0.488-1.061,1.063-1.406,1.725c-0.347,0.662-0.561,1.389-0.641,2.182c-0.082,0.795-0.003,1.607,0.234,2.441
		c0.249,0.872,0.618,1.615,1.109,2.229c0.49,0.615,1.063,1.095,1.716,1.439s1.368,0.551,2.146,0.615
		c0.777,0.066,1.576-0.018,2.396-0.252s1.521-0.553,2.103-0.959c0.583-0.406,1.028-0.867,1.336-1.387l-0.824-2.891l-3.799,1.084
		l-0.581-2.039l5.979-1.705L164.136,160.621z"/>
</g>
<g>
	<defs>
		<rect id="SVGID_3_" x="-158.118" y="-58.018" width="500" height="300"/>
	</defs>
	<clipPath id="SVGID_4_">
		<use xlink:href="#SVGID_3_"  overflow="visible"/>
	</clipPath>
	<path clip-path="url(#SVGID_4_)" fill="none" stroke="#BEE37B" stroke-width="2.081" stroke-miterlimit="10" d="M23.857,134.752
		c20.811,7.18,44.182,11.058,68.024,11.058c23.843,0,47.214-3.878,68.026-11.058"/>
</g>
</svg>
