<?xml version="1.0" standalone="no"?>
<!DOCTYPE svg PUBLIC "-//W3C//DTD SVG 1.1//EN" "http://www.w3.org/Graphics/SVG/1.1/DTD/svg11.dtd" >
<svg xmlns="http://www.w3.org/2000/svg" xmlns:xlink="http://www.w3.org/1999/xlink" version="1.1">
<metadata>
Created by FontForge 20170731 at Wed Nov 11 07:12:12 2020
 By Aleksey,,,
Copyright (c) Mark Simonson, 2005. All rights reserved.
</metadata>
<defs>
<font id="ProximaNova-ExtrabldIt" horiz-adv-x="1206" >
  <font-face 
    font-family="Proxima Nova Th"
    font-weight="800"
    font-style="italic"
    font-stretch="normal"
    units-per-em="2048"
    panose-1="2 0 5 6 3 0 0 2 0 4"
    ascent="1618"
    descent="-430"
    x-height="989"
    cap-height="1366"
    bbox="-463 -594 2427 1851"
    underline-thickness="40"
    underline-position="-312"
    unicode-range="U+000D-FB04"
  />
<missing-glyph horiz-adv-x="964" 
d="M883 -184h-719v1724h719v-1724zM817 -123v1602h-590v-1602h590z" />
    <glyph glyph-name="f_f_j" unicode="ffj" horiz-adv-x="1976" 
d="M1102 0h-316l158 715h-164l62 274h162l12 53q37 156 139.5 250t257.5 94q144 0 234 -55l-105 -209q-36 25 -88 25q-100 0 -123 -105l-12 -53h203l-62 -274h-200zM1335 -401q-200 0 -295 82l127 225q43 -49 121 -49q111 0 146 151l219 981h315l-219 -981
q-41 -194 -139.5 -301.5t-274.5 -107.5zM1849 1077q-71 0 -117 46t-46 110q0 93 64 150t140 57q70 0 116 -45t46 -109q0 -93 -64 -151t-139 -58zM387 0h-315l157 717h-163l61 272h162l12 53q35 153 137 248.5t269 95.5q183 0 282 -102l-149 -178q-41 41 -107 41
q-94 0 -117 -111l-12 -47h203l-62 -272h-200z" />
    <glyph glyph-name="f_j" unicode="fj" horiz-adv-x="1259" 
d="M387 0h-315l157 715h-163l61 274h162l12 53q37 156 139.5 250t257.5 94q144 0 234 -55l-105 -209q-36 25 -88 25q-100 0 -123 -105l-12 -53h203l-62 -274h-200zM621 -401q-200 0 -295 82l127 225q43 -49 120 -49q111 0 146 151l219 981h315l-219 -981
q-41 -194 -139 -301.5t-274 -107.5zM1135 1077q-71 0 -117.5 46t-46.5 110q0 93 64.5 150t140.5 57q69 0 115 -45t46 -109q0 -93 -63.5 -151t-138.5 -58z" />
    <glyph glyph-name="f_f" unicode="ff" horiz-adv-x="1429" 
d="M387 0h-315l157 717h-163l61 272h162l12 53q35 153 137 248.5t269 95.5q183 0 282 -102l-149 -178q-41 41 -107 41q-94 0 -117 -111l-12 -47h203l-62 -272h-200zM1102 0h-316l158 717h-164l62 272h162l12 53q35 153 136.5 248.5t268.5 95.5q184 0 283 -102l-150 -178
q-41 41 -106 41q-94 0 -117 -111l-12 -47h203l-62 -272h-200z" />
    <glyph glyph-name="fi" unicode="fi" horiz-adv-x="1259" 
d="M387 0h-315l157 715h-163l61 274h162l12 53q37 156 139.5 250t257.5 94q144 0 234 -55l-105 -209q-36 25 -88 25q-100 0 -123 -105l-12 -53h203l-62 -274h-200zM1135 1077q-71 0 -117.5 46t-46.5 110q0 93 64.5 150t140.5 57q69 0 115 -45t46 -109q0 -93 -63.5 -151
t-138.5 -58zM1034 0h-315l219 989h315z" />
    <glyph glyph-name="fl" unicode="fl" horiz-adv-x="1259" 
d="M387 0h-315l157 715h-163l61 274h162l12 53q37 156 139.5 250t257.5 94q144 0 234 -55l-105 -209q-36 25 -88 25q-100 0 -123 -105l-12 -53h203l-62 -274h-200zM1034 0h-315l301 1366h315z" />
    <glyph glyph-name="f_f_i" unicode="ffi" horiz-adv-x="1976" 
d="M1102 0h-316l158 715h-164l62 274h162l12 53q37 156 139.5 250t257.5 94q144 0 234 -55l-105 -209q-36 25 -88 25q-100 0 -123 -105l-12 -53h203l-62 -274h-200zM1849 1077q-71 0 -117 46t-46 110q0 93 64 150t140 57q70 0 116 -45t46 -109q0 -93 -64 -151t-139 -58z
M1749 0h-315l219 989h315zM387 0h-315l157 717h-163l61 272h162l12 53q35 153 137 248.5t269 95.5q183 0 282 -102l-149 -178q-41 41 -107 41q-94 0 -117 -111l-12 -47h203l-62 -272h-200z" />
    <glyph glyph-name="f_f_l" unicode="ffl" horiz-adv-x="1976" 
d="M1102 0h-316l158 715h-164l62 274h162l12 53q37 156 139.5 250t257.5 94q144 0 234 -55l-105 -209q-36 25 -88 25q-100 0 -123 -105l-12 -53h203l-62 -274h-200zM1749 0h-315l301 1366h315zM387 0h-315l157 717h-163l61 272h162l12 53q35 153 137 248.5t269 95.5
q183 0 282 -102l-149 -178q-41 41 -107 41q-94 0 -117 -111l-12 -47h203l-62 -272h-200z" />
    <glyph glyph-name="f_b" unicode="fb" horiz-adv-x="1925" 
d="M387 0h-315l157 715h-163l61 274h162l12 53q37 156 139.5 250t257.5 94q144 0 234 -55l-105 -209q-36 25 -88 25q-100 0 -123 -105l-12 -53h203l-62 -274h-200zM1360 -25q-93 0 -172.5 37t-128.5 105l-25 -117h-315l301 1366h315l-108 -492q64 73 132 106.5t150 33.5
q170 0 271.5 -108.5t101.5 -303.5q0 -87 -21 -174.5t-64.5 -169t-104 -144.5t-146.5 -101t-186 -38zM1307 254q106 0 177.5 83t71.5 200q0 89 -55 143.5t-137 54.5q-103 0 -188 -92l-66 -299q32 -41 84 -65.5t113 -24.5z" />
    <glyph glyph-name="f_h" unicode="fh" horiz-adv-x="1931" 
d="M387 0h-315l157 715h-163l61 274h162l12 53q37 156 139.5 250t257.5 94q144 0 234 -55l-105 -209q-36 25 -88 25q-100 0 -123 -105l-12 -53h203l-62 -274h-200zM1706 0h-315l120 561q11 50 11 66q0 55 -41 81.5t-109 26.5q-100 0 -196 -96l-140 -639h-315l301 1366h315
l-112 -498q72 67 147 106.5t174 39.5q147 0 232.5 -71t85.5 -185q0 -27 -11 -82z" />
    <glyph glyph-name="f_k" unicode="fk" horiz-adv-x="1832" 
d="M387 0h-315l157 715h-163l61 274h162l12 53q37 156 139.5 250t257.5 94q144 0 234 -55l-105 -209q-36 25 -88 25q-100 0 -123 -105l-12 -53h203l-62 -274h-200zM1735 0h-379l-144 356l-127 -118l-51 -238h-315l301 1366h315l-168 -756l375 379h393l-465 -450z" />
    <glyph glyph-name=".notdef" horiz-adv-x="964" 
d="M883 -184h-719v1724h719v-1724zM817 -123v1602h-590v-1602h590z" />
    <glyph glyph-name=".null" horiz-adv-x="0" 
 />
    <glyph glyph-name=".null" horiz-adv-x="0" 
 />
    <glyph glyph-name="nonmarkingreturn" horiz-adv-x="682" 
 />
    <glyph glyph-name="CR" unicode="&#xd;" horiz-adv-x="0" 
 />
    <glyph glyph-name="space" unicode=" " horiz-adv-x="524" 
 />
    <glyph glyph-name="exclam" unicode="!" horiz-adv-x="552" 
d="M410 477h-283l149 889h377zM184 -25q-73 0 -123.5 52t-50.5 125q0 86 62 147t149 61q72 0 123 -52t51 -126q0 -84 -63 -145.5t-148 -61.5z" />
    <glyph glyph-name="quotedbl" unicode="&#x22;" horiz-adv-x="897" 
d="M360 731h-133q6 420 6 465q1 81 56.5 135.5t134.5 54.5q60 0 102.5 -43t42.5 -106q0 -36 -16 -68zM770 731h-131q4 420 6 465q0 81 55 135.5t134 54.5q60 0 102.5 -43t42.5 -106q0 -36 -16 -68z" />
    <glyph glyph-name="numbersign" unicode="#" horiz-adv-x="1294" 
d="M623 0h-228l187 336h-179l-184 -336h-225l186 336h-188l106 194h191l168 304h-191l105 192h192l189 340h225l-186 -340h176l186 340h227l-188 -340h190l-102 -192h-195l-170 -304h197l-104 -194h-201zM688 530l170 304h-176l-168 -304h174z" />
    <glyph glyph-name="dollar" unicode="$" horiz-adv-x="1280" 
d="M383 -205l45 205q-136 28 -246 89.5t-178 146.5l215 253q71 -94 198.5 -152t266.5 -58q78 0 118 33t40 75q0 30 -36.5 56t-94.5 47.5t-128.5 45t-141 56.5t-128.5 75t-94.5 107t-36.5 146q0 87 37 169.5t104.5 148.5t175 106.5t236.5 41.5l43 187h228l-50 -213
q219 -55 357 -199l-215 -246q-75 83 -189 126.5t-223 43.5q-59 0 -96 -27.5t-37 -68.5q0 -29 36.5 -53.5t94.5 -46t129 -45.5t141.5 -57.5t128.5 -76t94.5 -108t36.5 -145.5q0 -206 -153 -344t-406 -138h-6l-39 -180h-227z" />
    <glyph glyph-name="percent" unicode="%" horiz-adv-x="1579" 
d="M332 0h-176l1173 1366h178zM1110 -25q-140 0 -239 78.5t-99 208.5q0 174 113 285.5t272 111.5q141 0 240.5 -77.5t99.5 -208.5q0 -173 -113.5 -285.5t-273.5 -112.5zM1118 164q68 0 114 52t46 136q0 52 -35.5 85.5t-91.5 33.5q-68 0 -115 -51.5t-47 -136.5
q0 -52 35.5 -85.5t93.5 -33.5zM500 702q-140 0 -239 78.5t-99 208.5q0 174 113 285.5t272 111.5q141 0 240.5 -78t99.5 -208q0 -116 -53 -208t-141 -141t-193 -49zM508 891q68 0 114 51.5t46 136.5q0 52 -35.5 85.5t-91.5 33.5q-68 0 -115 -52t-47 -136q0 -53 36 -86t93 -33
z" />
    <glyph glyph-name="ampersand" unicode="&#x26;" horiz-adv-x="1329" 
d="M1190 0h-367q-22 25 -45 61q-162 -86 -321 -86q-100 0 -181 21t-144 64t-97.5 115.5t-34.5 168.5q0 76 21.5 140.5t56 110t86.5 84.5t104.5 65t118.5 49q-31 121 -31 204q0 167 125 278t310 111q104 0 189.5 -31.5t140.5 -99t55 -161.5q0 -51 -13.5 -94.5t-32.5 -75.5
t-54.5 -62t-65.5 -49.5t-80.5 -41t-83.5 -33.5t-90 -31l61 -115q74 -135 78 -141q101 104 168 225l221 -139q-137 -184 -260 -297q75 -115 166 -240zM510 219q63 0 135 35q-76 118 -96 160q-56 102 -86 174q-121 -77 -121 -205q0 -78 47.5 -121t120.5 -43zM670 999
q0 -50 16 -112q105 35 159 74.5t54 101.5q0 49 -26.5 74.5t-69.5 25.5q-54 0 -93.5 -43t-39.5 -121z" />
    <glyph glyph-name="quotesingle" unicode="'" horiz-adv-x="489" 
d="M360 731h-133q6 420 6 465q1 81 56.5 135.5t134.5 54.5q60 0 102.5 -43t42.5 -106q0 -36 -16 -68z" />
    <glyph glyph-name="parenleft" unicode="(" horiz-adv-x="659" 
d="M457 -276l-232 -132q-87 116 -132.5 288.5t-45.5 355.5q0 320 156 634.5t420 532.5l165 -168q-195 -225 -304 -505t-109 -574q0 -208 82 -432z" />
    <glyph glyph-name="parenright" unicode=")" horiz-adv-x="659" 
d="M201 1272l229 131q88 -116 134 -287.5t46 -355.5q0 -320 -156 -635t-419 -533l-166 168q195 224 303.5 504.5t108.5 573.5q0 205 -80 434z" />
    <glyph glyph-name="asterisk" unicode="*" horiz-adv-x="731" 
d="M489 727h-151l61 227l-213 -94l-41 133l215 78l-172 119l103 117l155 -136l39 215h152l-64 -229l211 96l45 -133l-213 -78l170 -118l-104 -117l-158 133z" />
    <glyph glyph-name="plus" unicode="+" horiz-adv-x="1038" 
d="M1001 596h-356l-90 -406h-209l90 406h-356l43 188h356l86 392h207l-86 -392h356z" />
    <glyph glyph-name="comma" unicode="," horiz-adv-x="552" 
d="M403 170q0 -127 -94 -253.5t-237 -195.5l-109 113q64 27 126 73.5t89 98.5q-6 -2 -24 -2q-62 0 -104 40t-42 114q0 82 65 142t146 60q77 0 130.5 -50.5t53.5 -139.5z" />
    <glyph glyph-name="hyphen" unicode="-" horiz-adv-x="614" 
d="M522 365h-491l59 264h492z" />
    <glyph glyph-name="period" unicode="." horiz-adv-x="552" 
d="M184 -25q-73 0 -123.5 52t-50.5 125q0 86 62 147t149 61q72 0 123 -52t51 -126q0 -84 -63 -145.5t-148 -61.5z" />
    <glyph glyph-name="slash" unicode="/" horiz-adv-x="708" 
d="M106 -41h-231l805 1448h233z" />
    <glyph glyph-name="zero" unicode="0" horiz-adv-x="1277" 
d="M588 -25q-232 0 -373 146.5t-141 413.5q0 171 52 326.5t143 271.5t221.5 184.5t279.5 68.5q232 0 372 -145t140 -412q0 -136 -33 -264.5t-95 -234.5t-146 -186t-192.5 -124.5t-227.5 -44.5zM621 287q72 0 132 53t97 137t57.5 180t20.5 189q0 106 -48 167.5t-145 61.5
q-72 0 -132.5 -53t-98 -136.5t-58 -179t-20.5 -186.5q0 -107 48.5 -170t146.5 -63z" />
    <glyph glyph-name="one" unicode="1" horiz-adv-x="915" 
d="M682 0h-352l200 915l-278 -231l-156 211l582 471h305z" />
    <glyph glyph-name="two" unicode="2" horiz-adv-x="1243" 
d="M1051 0h-1071l69 322q130 71 207.5 113.5t172.5 96.5t148 87.5t113.5 74.5t91.5 69.5t59.5 61t39 61t10.5 58.5q0 62 -61.5 98.5t-159.5 36.5q-182 0 -336 -118l-141 253q94 81 229 126.5t276 45.5q152 0 278 -47.5t205 -144t79 -225.5q0 -181 -160 -340.5t-482 -321.5
h502z" />
    <glyph glyph-name="three" unicode="3" horiz-adv-x="1232" 
d="M598 -25q-203 0 -376.5 74.5t-256.5 210.5l228 215q68 -91 181.5 -139.5t221.5 -48.5q100 0 150.5 39t50.5 102q0 107 -224 107q-152 0 -182 -3l72 314q23 -2 192 -2q114 0 175 26t61 88q0 57 -64.5 88t-181.5 31q-190 0 -326 -100l-120 237q89 79 214 125.5t267 46.5
q266 0 420.5 -96.5t154.5 -265.5q0 -82 -55.5 -155.5t-138.5 -118.5t-174 -58q117 -29 187.5 -102.5t70.5 -200.5q0 -119 -75 -214.5t-200 -147.5t-272 -52z" />
    <glyph glyph-name="four" unicode="4" horiz-adv-x="1261" 
d="M942 0h-354l55 250h-655l67 303l680 813h508l-180 -807h166l-68 -309h-166zM711 559l112 500l-426 -500h314z" />
    <glyph glyph-name="five" unicode="5" horiz-adv-x="1263" 
d="M623 -25q-202 0 -355.5 67t-247.5 191l246 226q57 -80 150.5 -126t210.5 -46q102 0 159.5 49t57.5 121q0 68 -64 106.5t-170 38.5q-77 0 -127.5 -17.5t-105.5 -58.5l-225 86l163 754h992l-68 -307h-639l-55 -258q57 45 117.5 65.5t146.5 20.5q174 0 287.5 -104
t113.5 -285q0 -106 -42.5 -201.5t-118 -167t-186 -113t-240.5 -41.5z" />
    <glyph glyph-name="six" unicode="6" horiz-adv-x="1263" 
d="M635 -25q-266 0 -417.5 143.5t-151.5 399.5q0 141 33 270.5t98 238t156 189t213.5 125.5t262.5 45q291 0 480 -176l-211 -249q-51 56 -128 85t-163 29q-118 0 -210.5 -71.5t-131.5 -174.5q-12 -22 -21 -61q56 57 146.5 93t189.5 36q188 0 314.5 -105.5t126.5 -279.5
q0 -146 -80 -270t-215 -195.5t-291 -71.5zM635 287q93 0 155 51.5t62 130.5q0 66 -70.5 106.5t-171.5 40.5q-112 0 -198 -69q-4 -28 -4 -58q0 -93 65.5 -147.5t161.5 -54.5z" />
    <glyph glyph-name="seven" unicode="7" horiz-adv-x="1146" 
d="M526 0h-403l690 1059h-647l67 307h1072l-56 -244z" />
    <glyph glyph-name="eight" unicode="8" horiz-adv-x="1265" 
d="M598 -25q-115 0 -216.5 22t-185.5 65.5t-133 117.5t-49 170q0 128 93.5 233t267.5 156q-84 40 -137.5 111.5t-53.5 157.5q0 78 33 142.5t88 107.5t129 72.5t152.5 42.5t161.5 13t162.5 -12.5t153 -41t128.5 -69t88 -101t33 -132.5q0 -130 -91.5 -226.5t-246.5 -131.5
q101 -56 157 -134.5t56 -168.5q0 -93 -50 -169t-133.5 -124.5t-188 -74.5t-218.5 -26zM709 840q101 6 164 40.5t63 86.5q0 55 -59.5 91t-149.5 36q-77 0 -132.5 -34.5t-55.5 -88.5q0 -44 51.5 -80t118.5 -51zM610 268q93 0 156 37t63 94q0 53 -52 91.5t-136 58.5
q-109 -5 -181.5 -44.5t-72.5 -105.5q0 -63 59 -97t164 -34z" />
    <glyph glyph-name="nine" unicode="9" horiz-adv-x="1263" 
d="M707 1389q266 0 417.5 -143.5t151.5 -399.5q0 -177 -53 -334.5t-149 -276.5t-241.5 -188.5t-320.5 -69.5q-292 0 -479 177l211 252q51 -57 128 -87t163 -30q118 0 209.5 71t132.5 175q15 33 18 59q-55 -57 -145 -92t-189 -35q-188 0 -315 105.5t-127 279.5
q0 146 80.5 270t216 195.5t291.5 71.5zM707 1077q-94 0 -157 -51.5t-63 -130.5q0 -66 70.5 -106.5t171.5 -40.5q112 0 201 69q2 14 2 57q0 92 -65.5 147.5t-159.5 55.5z" />
    <glyph glyph-name="colon" unicode=":" horiz-adv-x="552" 
d="M184 -25q-73 0 -123.5 52t-50.5 125q0 86 62 147t149 61q72 0 123 -52t51 -126q0 -84 -63 -145.5t-148 -61.5zM326 618q-73 0 -124.5 52.5t-51.5 126.5q0 85 62.5 147t147.5 62q73 0 125 -53t52 -126q0 -86 -63 -147.5t-148 -61.5z" />
    <glyph glyph-name="semicolon" unicode=";" horiz-adv-x="552" 
d="M403 170q0 -127 -94 -253.5t-237 -195.5l-109 113q64 27 126 73.5t89 98.5q-6 -2 -24 -2q-62 0 -104 40t-42 114q0 82 65 142t146 60q77 0 130.5 -50.5t53.5 -139.5zM326 618q-73 0 -124.5 52.5t-51.5 126.5q0 85 62.5 147t147.5 62q73 0 125 -53t52 -126
q0 -86 -63 -147.5t-148 -61.5z" />
    <glyph glyph-name="less" unicode="&#x3c;" horiz-adv-x="1038" 
d="M907 184l-833 387l51 228l1005 389l-51 -234l-768 -280l645 -275z" />
    <glyph glyph-name="equal" unicode="=" horiz-adv-x="1038" 
d="M1040 780h-919l41 189h919zM956 399h-919l41 189h919z" />
    <glyph glyph-name="greater" unicode="&#x3e;" horiz-adv-x="1038" 
d="M993 571l-1005 -387l53 234l768 274l-645 281l47 215l833 -389z" />
    <glyph glyph-name="question" unicode="?" horiz-adv-x="927" 
d="M614 508l-288 -70q-29 63 -29 144q0 61 19.5 111.5t50.5 83t69 59.5t76 46.5t69 37.5t50.5 39t19.5 45q0 75 -127 75q-54 0 -111.5 -21.5t-103.5 -60.5l-147 244q183 145 418 145q186 0 315 -81.5t129 -221.5q0 -74 -23.5 -132.5t-61 -96t-83 -68t-91 -55t-83 -48.5
t-61 -57t-23.5 -73q0 -27 16 -45zM373 -25q-72 0 -123 52.5t-51 124.5q0 86 62 147t149 61q72 0 123 -52t51 -126q0 -85 -62.5 -146t-148.5 -61z" />
    <glyph glyph-name="at" unicode="@" horiz-adv-x="1603" 
d="M762 -143q-183 0 -332 85t-233 232t-84 326q0 128 43 250.5t120.5 221.5t178.5 175t223 118t248 42q144 0 266.5 -49.5t204.5 -133.5t128 -196.5t46 -237.5q0 -126 -41.5 -228.5t-106.5 -163t-138 -92.5t-144 -32q-90 0 -141 40.5t-66 102.5l-2 15q-53 -75 -128.5 -116.5
t-152.5 -41.5q-147 0 -233 98.5t-86 251.5q0 130 64 244.5t169 182t221 67.5q87 0 152 -34t100 -91l21 98h278l-100 -471q-4 -20 -4 -53q0 -84 65 -84q68 0 123.5 81t55.5 226q0 241 -151 386t-408 145q-141 0 -274 -58.5t-230.5 -155.5t-156 -229t-58.5 -272
q0 -242 162.5 -403.5t410.5 -161.5q195 0 369 110l47 -65q-200 -129 -426 -129zM768 393q106 0 188 109l45 217q-18 33 -54 57.5t-89 24.5q-104 0 -172 -76.5t-68 -175.5q0 -71 40.5 -113.5t109.5 -42.5z" />
    <glyph glyph-name="A" unicode="A" horiz-adv-x="1427" 
d="M1339 0h-383l-24 197h-539l-108 -197h-418l815 1366h442zM905 504l-61 514l-287 -514h348z" />
    <glyph glyph-name="B" unicode="B" horiz-adv-x="1392" 
d="M813 0h-801l301 1366h713q93 0 167.5 -28t120.5 -75.5t70.5 -106.5t24.5 -124q0 -133 -92.5 -237t-216.5 -115q92 -25 143 -102t51 -170q0 -74 -26.5 -143t-81 -130t-151 -98t-222.5 -37zM889 842q75 0 109 38t34 91q0 42 -29.5 70t-76.5 28h-324l-51 -227h338zM782 297
q73 0 116.5 39.5t43.5 99.5q0 47 -30.5 77t-82.5 30h-344l-55 -246h352z" />
    <glyph glyph-name="C" unicode="C" horiz-adv-x="1417" 
d="M766 -25q-144 0 -270.5 44t-220 123t-147.5 196.5t-54 257.5q0 175 64.5 324.5t174.5 251.5t257.5 159.5t310.5 57.5q133 0 243 -35t185.5 -96t125.5 -133t78 -156l-339 -111q-29 102 -112 160.5t-198 58.5q-117 0 -214.5 -62t-153.5 -167.5t-56 -229.5q0 -142 95 -236.5
t251 -94.5q84 0 167.5 44t129.5 113l275 -180q-59 -80 -135 -138.5t-155.5 -90t-154 -46t-147.5 -14.5z" />
    <glyph glyph-name="D" unicode="D" horiz-adv-x="1488" 
d="M584 0h-572l301 1366h564q114 0 222.5 -42.5t194 -117.5t137.5 -187t52 -241q0 -111 -28.5 -216.5t-96.5 -209t-168.5 -180.5t-256.5 -124.5t-349 -47.5zM639 307h10q107 0 196.5 36t148.5 97t91.5 142t32.5 172q0 129 -86 217t-219 88h-215l-166 -752h207z" />
    <glyph glyph-name="E" unicode="E" 
d="M1014 0h-1002l301 1366h1002l-70 -307h-647l-47 -213h635l-68 -307h-635l-51 -232h649z" />
    <glyph glyph-name="F" unicode="F" horiz-adv-x="1191" 
d="M365 0h-353l301 1366h1002l-70 -307h-647l-47 -213h635l-68 -307h-635z" />
    <glyph glyph-name="G" unicode="G" horiz-adv-x="1480" 
d="M766 -25q-141 0 -266.5 43t-220 121t-150 196.5t-55.5 260.5q0 168 62 314.5t172 252t267 166t340 60.5q111 0 208.5 -31t168 -83.5t120 -114t79.5 -130.5l-324 -135q-27 76 -112 129t-191 53q-175 0 -299.5 -133.5t-124.5 -325.5q0 -139 93.5 -235t252.5 -96
q124 0 230 82l22 108h-307l70 307h657l-121 -544q-99 -126 -247 -195.5t-324 -69.5z" />
    <glyph glyph-name="H" unicode="H" horiz-adv-x="1517" 
d="M1284 0h-352l121 549h-568l-120 -549h-353l301 1366h353l-113 -510h567l113 510h352z" />
    <glyph glyph-name="I" unicode="I" horiz-adv-x="598" 
d="M365 0h-353l301 1366h353z" />
    <glyph glyph-name="J" unicode="J" horiz-adv-x="1007" 
d="M344 -25q-120 0 -231.5 37t-180.5 109l187 264q32 -43 85.5 -70.5t112.5 -27.5q84 0 137 48.5t72 137.5l197 893h352l-198 -897q-56 -255 -183 -374.5t-350 -119.5z" />
    <glyph glyph-name="K" unicode="K" horiz-adv-x="1339" 
d="M1247 0h-413l-254 526l-127 -127l-88 -399h-353l301 1366h353l-117 -535l518 535h453l-670 -639z" />
    <glyph glyph-name="L" unicode="L" horiz-adv-x="1083" 
d="M913 0h-901l301 1366h353l-234 -1059h549z" />
    <glyph glyph-name="M" unicode="M" horiz-adv-x="1796" 
d="M1563 0h-353l199 903l-545 -903h-155l-146 903l-198 -903h-353l301 1366h478l118 -756l453 756h502z" />
    <glyph glyph-name="N" unicode="N" horiz-adv-x="1515" 
d="M1282 0h-340l-397 815l-180 -815h-353l301 1366h363l381 -776l172 776h354z" />
    <glyph glyph-name="O" unicode="O" horiz-adv-x="1568" 
d="M766 -25q-195 0 -352 76t-248.5 218.5t-91.5 326.5q0 163 61.5 309t168 252.5t257 169t320.5 62.5q195 0 352 -76t248.5 -217.5t91.5 -323.5q0 -164 -61.5 -311t-168 -254t-257 -169.5t-320.5 -62.5zM786 287q178 0 299 133.5t121 324.5q0 149 -96.5 240.5t-249.5 91.5
q-178 0 -299 -134t-121 -325q0 -148 96.5 -239.5t249.5 -91.5z" />
    <glyph glyph-name="P" unicode="P" horiz-adv-x="1316" 
d="M365 0h-353l301 1366h662q177 0 289 -113t112 -278q0 -65 -16.5 -131.5t-59.5 -137t-106.5 -124.5t-167.5 -88.5t-233 -34.5h-328zM532 766h279q86 0 143.5 48t57.5 122q0 56 -39 89.5t-103 33.5h-272z" />
    <glyph glyph-name="Q" unicode="Q" horiz-adv-x="1568" 
d="M766 -25q-195 0 -352 76t-248.5 218.5t-91.5 326.5q0 163 61.5 309t168 252.5t257 169t320.5 62.5q195 0 352 -76t248.5 -217.5t91.5 -323.5q0 -191 -81 -356t-224 -275l63 -104l-280 -129l-60 96q-116 -29 -225 -29zM786 287h35l-96 159l283 132l86 -148
q112 131 112 315q0 149 -96.5 240.5t-249.5 91.5q-178 0 -299 -134t-121 -325q0 -148 96.5 -239.5t249.5 -91.5z" />
    <glyph glyph-name="R" unicode="R" horiz-adv-x="1353" 
d="M1178 0h-390l-126 459h-197l-100 -459h-353l301 1366h623q119 0 219 -47.5t161.5 -140t61.5 -211.5q0 -178 -104 -310.5t-260 -173.5zM807 766h6q90 0 144.5 44.5t54.5 119.5q0 56 -43 92.5t-103 36.5h-268l-66 -293h275z" />
    <glyph glyph-name="S" unicode="S" horiz-adv-x="1241" 
d="M631 -25q-206 0 -380 71t-271 190l215 253q71 -94 198 -152t266 -58q78 0 118 33t40 75q0 30 -36.5 56t-94.5 47.5t-128 45t-140.5 56.5t-128.5 75t-94.5 107t-36.5 146q0 70 23 137t70 126.5t112.5 105t157 71.5t196.5 26q168 0 318.5 -58.5t252.5 -166.5l-215 -246
q-75 83 -188.5 126.5t-222.5 43.5q-59 0 -96.5 -27.5t-37.5 -68.5q0 -29 36.5 -53.5t95 -46t129 -45.5t141 -57.5t129 -76t95 -108t36.5 -145.5q0 -206 -153 -344t-406 -138z" />
    <glyph glyph-name="T" unicode="T" 
d="M670 0h-353l232 1059h-383l70 307h1116l-68 -307h-383z" />
    <glyph glyph-name="U" unicode="U" horiz-adv-x="1536" 
d="M750 -25q-306 0 -466.5 132.5t-160.5 355.5q0 40 10 90l180 813h359l-178 -805q-7 -18 -7 -57q2 -91 70.5 -156t192.5 -65q134 0 212.5 75t106.5 203l178 805h357l-179 -811q-29 -131 -78 -232t-128 -181.5t-197 -123.5t-272 -43z" />
    <glyph glyph-name="V" unicode="V" horiz-adv-x="1427" 
d="M823 0h-442l-213 1366h381l121 -985l553 985h417z" />
    <glyph glyph-name="W" unicode="W" horiz-adv-x="1916" 
d="M1427 0h-372l-19 856l-395 -856h-373l-90 1366h387l6 -911l435 911h268l33 -911l407 911h406z" />
    <glyph glyph-name="X" unicode="X" horiz-adv-x="1384" 
d="M1294 0h-397l-211 438l-383 -438h-436l645 721l-313 645h397l188 -410l344 410h437l-604 -686z" />
    <glyph glyph-name="Y" unicode="Y" horiz-adv-x="1341" 
d="M737 0h-352l121 551l-338 815h379l186 -504l404 504h417l-696 -815z" />
    <glyph glyph-name="Z" unicode="Z" horiz-adv-x="1220" 
d="M1030 0h-1061l62 281l735 778h-563l67 307h1047l-62 -281l-737 -778h580z" />
    <glyph glyph-name="bracketleft" unicode="[" horiz-adv-x="610" 
d="M377 -389h-473l397 1778h471l-45 -203h-250l-303 -1372h248z" />
    <glyph glyph-name="backslash" unicode="\" horiz-adv-x="708" 
d="M365 -41l-164 1448h223l164 -1448h-223z" />
    <glyph glyph-name="bracketright" unicode="]" horiz-adv-x="610" 
d="M309 -389h-469l43 203h250l305 1372h-250l45 203h472z" />
    <glyph glyph-name="asciicircum" unicode="^" horiz-adv-x="911" 
d="M911 682h-213l-88 473l-295 -473h-237l457 684h227z" />
    <glyph glyph-name="underscore" unicode="_" horiz-adv-x="1155" 
d="M985 -285h-1165l47 203h1165z" />
    <glyph glyph-name="grave" unicode="`" horiz-adv-x="538" 
d="M680 1139h-213l-260 295h278z" />
    <glyph glyph-name="a" unicode="a" horiz-adv-x="1210" 
d="M561 1014q94 0 174.5 -37t126.5 -105l27 117h313l-219 -989h-313l24 115q-122 -140 -282 -140q-169 0 -270 108t-101 302q0 111 34 220t96.5 201.5t164 150t225.5 57.5zM616 735q-107 0 -178 -82.5t-71 -201.5q0 -88 54.5 -142.5t137.5 -54.5q107 0 186 92l68 299
q-32 41 -84 65.5t-113 24.5z" />
    <glyph glyph-name="b" unicode="b" horiz-adv-x="1210" 
d="M645 -25q-93 0 -172.5 37t-128.5 105l-25 -117h-315l301 1366h316l-109 -492q123 140 283 140q170 0 271 -108.5t101 -303.5q0 -87 -21 -174.5t-64.5 -169t-104 -144.5t-146.5 -101t-186 -38zM592 254q106 0 178 83t72 200q0 89 -55.5 143.5t-137.5 54.5q-103 0 -188 -92
l-66 -299q32 -41 84 -65.5t113 -24.5z" />
    <glyph glyph-name="c" unicode="c" horiz-adv-x="1024" 
d="M547 -25q-229 0 -366.5 126.5t-137.5 328.5q0 161 77 295t212 211.5t297 77.5q153 0 259 -55t161 -146l-236 -178q-28 45 -76 72.5t-110 27.5q-116 0 -190.5 -82.5t-74.5 -203.5q0 -90 62 -142.5t154 -52.5q54 0 103 24.5t83 63.5l170 -207q-61 -66 -161.5 -113
t-225.5 -47z" />
    <glyph glyph-name="d" unicode="d" horiz-adv-x="1210" 
d="M561 1014q94 0 174.5 -37t126.5 -105l111 494h313l-303 -1366h-313l24 115q-122 -140 -282 -140q-169 0 -270 108t-101 302q0 111 34 220t96.5 201.5t164 150t225.5 57.5zM616 735q-107 0 -178 -82.5t-71 -201.5q0 -88 54.5 -142.5t137.5 -54.5q107 0 186 92l68 299
q-32 41 -84 65.5t-113 24.5z" />
    <glyph glyph-name="e" unicode="e" horiz-adv-x="1122" 
d="M569 -25q-240 0 -383 119t-143 330q0 158 73.5 292.5t207.5 216t299 81.5q127 0 228.5 -50.5t163.5 -153.5t62 -243q0 -85 -20 -172h-701v-12q0 -49 64.5 -106.5t173.5 -57.5q63 0 127.5 17t103.5 45l97 -209q-69 -48 -163.5 -72.5t-189.5 -24.5zM387 600h410q2 2 2 14
q0 57 -49 106.5t-142 49.5q-83 0 -145.5 -53.5t-75.5 -116.5z" />
    <glyph glyph-name="f" unicode="f" horiz-adv-x="714" 
d="M387 0h-315l157 717h-163l61 272h162l12 53q35 153 137 248.5t269 95.5q183 0 282 -102l-149 -178q-41 41 -107 41q-94 0 -117 -111l-12 -47h203l-62 -272h-200z" />
    <glyph glyph-name="g" unicode="g" horiz-adv-x="1208" 
d="M434 -401q-321 0 -495 174l178 209q45 -59 132 -92t179 -33q205 0 258 231l16 72q-56 -69 -130 -106.5t-156 -37.5q-76 0 -141.5 22.5t-119 68.5t-84 125t-30.5 184q0 89 22 175.5t65.5 162.5t104 134t144 92t178.5 34q85 0 167.5 -38t135.5 -104l29 117h313l-201 -901
q-25 -116 -72.5 -204.5t-103 -141.5t-124.5 -86t-132.5 -45t-132.5 -12zM565 295q105 0 187 92l55 248q-65 100 -209 100q-100 0 -165.5 -71.5t-65.5 -186.5q0 -80 55.5 -131t142.5 -51z" />
    <glyph glyph-name="h" unicode="h" horiz-adv-x="1216" 
d="M991 0h-315l121 561q10 45 10 66q0 55 -41 81.5t-109 26.5q-100 0 -196 -96l-139 -639h-316l301 1366h316l-113 -498q72 67 147 106.5t174 39.5q147 0 232.5 -71t85.5 -185q0 -32 -10 -82z" />
    <glyph glyph-name="i" unicode="i" horiz-adv-x="544" 
d="M420 1077q-71 0 -117.5 46t-46.5 110q0 93 64.5 150t140.5 57q70 0 116 -45t46 -109q0 -93 -64 -151t-139 -58zM319 0h-315l219 989h316z" />
    <glyph glyph-name="j" unicode="j" horiz-adv-x="544" 
d="M-94 -401q-200 0 -295 82l127 225q43 -49 121 -49q110 0 145 151l219 981h316l-220 -981q-41 -194 -139 -301.5t-274 -107.5zM420 1077q-71 0 -117.5 46t-46.5 110q0 93 64.5 150t140.5 57q70 0 116 -45t46 -109q0 -93 -64 -151t-139 -58z" />
    <glyph glyph-name="k" unicode="k" horiz-adv-x="1118" 
d="M1020 0h-379l-143 356l-127 -118l-52 -238h-315l301 1366h316l-168 -756l374 379h394l-465 -450z" />
    <glyph glyph-name="l" unicode="l" horiz-adv-x="544" 
d="M319 0h-315l301 1366h316z" />
    <glyph glyph-name="m" unicode="m" horiz-adv-x="1792" 
d="M1565 0h-314l123 559l5 28q5 28 5 42q0 51 -36.5 78.5t-92.5 27.5q-92 0 -172 -96l-141 -639h-315l123 559q12 60 12 74q0 46 -34 74t-95 28q-89 0 -172 -96l-142 -639h-315l219 989h316l-29 -121q141 146 297 146q58 0 108 -16t82 -39t55 -49.5t32.5 -47.5t9.5 -33v-2
q33 40 64.5 69.5t73.5 58.5t92.5 44t107.5 15q122 0 208 -68.5t86 -187.5q0 -12 -10 -82z" />
    <glyph glyph-name="n" unicode="n" horiz-adv-x="1214" 
d="M989 0h-315l123 555q10 45 10 72q0 55 -38.5 81.5t-96.5 26.5q-115 0 -211 -96l-142 -639h-315l219 989h316l-29 -121q72 67 147 106.5t174 39.5q147 0 232.5 -71t85.5 -185q0 -32 -10 -82z" />
    <glyph glyph-name="o" unicode="o" horiz-adv-x="1179" 
d="M551 -25q-241 0 -375.5 128t-134.5 327q0 114 43.5 220t119 186.5t185 129t234.5 48.5q242 0 376 -128t134 -329q0 -114 -43.5 -219.5t-119 -186t-185 -128.5t-234.5 -48zM563 254q107 0 177.5 86.5t70.5 202.5q0 90 -53 141t-146 51q-109 0 -178 -86t-69 -203
q0 -90 52.5 -141t145.5 -51z" />
    <glyph glyph-name="p" unicode="p" 
d="M645 -25q-93 0 -172.5 37t-128.5 105l-108 -494h-316l303 1366h316l-27 -115q123 140 283 140q170 0 271 -108.5t101 -303.5q0 -87 -21 -174.5t-64.5 -169t-104 -144.5t-146.5 -101t-186 -38zM592 254q106 0 178 83t72 200q0 89 -55.5 143.5t-137.5 54.5q-103 0 -188 -92
l-66 -299q32 -41 84 -65.5t113 -24.5z" />
    <glyph glyph-name="q" unicode="q" 
d="M561 1014q94 0 174.5 -37t126.5 -105l27 117h313l-303 -1366h-313l108 492q-122 -140 -282 -140q-169 0 -270 108t-101 302q0 111 34 220t96.5 201.5t164 150t225.5 57.5zM616 735q-107 0 -178 -82.5t-71 -201.5q0 -88 54.5 -142.5t137.5 -54.5q107 0 186 92l68 299
q-32 41 -84 65.5t-113 24.5z" />
    <glyph glyph-name="r" unicode="r" horiz-adv-x="768" 
d="M319 0h-315l219 989h316l-27 -119q136 146 342 146l-70 -309q-56 14 -102 14q-63 0 -122.5 -27t-102.5 -71z" />
    <glyph glyph-name="s" unicode="s" horiz-adv-x="991" 
d="M461 -25q-139 0 -270 47.5t-220 133.5l166 202q52 -56 153.5 -104.5t198.5 -48.5q46 0 75.5 20.5t29.5 50.5q0 25 -27 45t-70.5 34.5t-96 30t-105 38t-96 52t-70.5 78.5t-27 112q0 68 28.5 130t80.5 111t134 78t181 29q125 0 242 -42.5t199 -117.5l-152 -195
q-43 47 -124.5 85t-164.5 38q-52 0 -81 -20.5t-29 -48.5q0 -21 27 -37.5t70.5 -30t96 -29t105.5 -39t96.5 -54t70.5 -80t27 -111.5q0 -154 -121.5 -255.5t-326.5 -101.5z" />
    <glyph glyph-name="t" unicode="t" horiz-adv-x="737" 
d="M453 -25q-151 0 -239.5 59t-88.5 175q0 31 6 72l96 436h-164l62 272h164l59 271h316l-60 -271h201l-62 -272h-200l-74 -336q-6 -24 -6 -45q0 -38 24 -60t70 -22q41 0 61 16l5 -252q-55 -43 -170 -43z" />
    <glyph glyph-name="u" unicode="u" horiz-adv-x="1212" 
d="M223 989h314l-125 -571q-9 -40 -9 -53q0 -57 40.5 -84t105.5 -27q101 0 203 98l139 637h315l-219 -989h-315l28 121q-72 -67 -147 -106.5t-174 -39.5q-147 0 -232.5 71t-85.5 185q0 27 11 82z" />
    <glyph glyph-name="v" unicode="v" horiz-adv-x="1073" 
d="M594 0h-336l-170 989h324l82 -627l366 627h342z" />
    <glyph glyph-name="w" unicode="w" horiz-adv-x="1611" 
d="M1221 0h-340l-52 612l-319 -612h-340l-74 989h316l22 -606l332 606h281l59 -606l293 606h334z" />
    <glyph glyph-name="x" unicode="x" horiz-adv-x="1048" 
d="M950 0h-336l-125 299l-258 -299h-354l449 508l-209 481h338l108 -268l228 268h356l-424 -481z" />
    <glyph glyph-name="y" unicode="y" horiz-adv-x="1073" 
d="M-98 -377l100 271q37 -15 102 -15q76 0 113 53l39 64l-168 993h324l82 -627l366 627h342l-698 -1130q-88 -144 -184.5 -202t-235.5 -58q-106 0 -182 24z" />
    <glyph glyph-name="z" unicode="z" horiz-adv-x="989" 
d="M801 0h-834l49 231l496 484h-387l61 274h826l-51 -223l-504 -494h403z" />
    <glyph glyph-name="braceleft" unicode="{" horiz-adv-x="618" 
d="M385 -389h-90q-128 0 -219.5 81.5t-91.5 203.5q0 34 8 65l71 320q5 30 5 36q0 44 -22 71.5t-60 27.5l39 168q55 0 88.5 37t46.5 98l71 317q39 178 149.5 265.5t276.5 87.5h123l-45 -203h-123q-124 0 -159 -150l-84 -374q-33 -158 -133 -185q59 -34 59 -117q0 -36 -8 -69
l-74 -328q-4 -24 -4 -37q0 -50 32.5 -81t80.5 -31h110z" />
    <glyph glyph-name="bar" unicode="|" horiz-adv-x="448" 
d="M367 -41h-203v1448h203v-1448z" />
    <glyph glyph-name="braceright" unicode="}" horiz-adv-x="618" 
d="M231 1389h91q128 0 219.5 -81.5t91.5 -203.5q0 -37 -8 -68l-72 -317q-4 -24 -4 -37q0 -45 22 -71.5t60 -26.5l-39 -168q-55 0 -88.5 -37t-46.5 -98l-70 -318q-40 -178 -151 -265t-277 -87h-123l45 203h123q125 0 160 147l84 377q33 157 133 184q-59 34 -59 117q0 37 8 70
l73 327q5 30 5 35q0 51 -32.5 83t-80.5 32h-111z" />
    <glyph glyph-name="asciitilde" unicode="~" horiz-adv-x="1052" 
d="M985 1366l201 -25q-18 -81 -38.5 -147.5t-54.5 -135.5t-75 -116.5t-100 -77.5t-130 -30q-62 0 -104.5 19t-63 49.5t-32 67.5t-15.5 74t-8 67.5t-15.5 49.5t-33.5 19q-52 0 -104.5 -108t-77.5 -241l-205 25q103 510 399 510q71 0 117.5 -26t64 -64.5t27.5 -83.5t12 -83.5
t14.5 -64.5t37.5 -26q52 0 106 109.5t78 238.5z" />
    <glyph glyph-name="nbspace" unicode="&#xa0;" horiz-adv-x="524" 
 />
    <glyph glyph-name="exclamdown" unicode="&#xa1;" horiz-adv-x="552" 
d="M135 512h283l-150 -889h-377zM360 1014q73 0 125 -52t52 -126q0 -84 -63 -145.5t-148 -61.5q-73 0 -124.5 52t-51.5 124q0 86 62.5 147.5t147.5 61.5z" />
    <glyph glyph-name="cent" unicode="&#xa2;" horiz-adv-x="1024" 
d="M324 -205l45 205q-153 43 -239.5 157t-86.5 273q0 235 158.5 402.5t392.5 179.5l33 145h223l-37 -170q157 -47 236 -174l-236 -178q-28 45 -76 72.5t-110 27.5q-116 0 -190.5 -82.5t-74.5 -203.5q0 -90 62 -142.5t154 -52.5q54 0 103 24.5t83 63.5l170 -207
q-57 -61 -146.5 -106t-201.5 -52l-39 -182h-223z" />
    <glyph glyph-name="sterling" unicode="&#xa3;" horiz-adv-x="1157" 
d="M59 551l45 197h125q-47 107 -47 194q0 123 76 225.5t204 160.5t277 58q192 0 329.5 -74.5t182.5 -213.5l-317 -129q-12 64 -60 98.5t-118 34.5q-83 0 -137 -57.5t-54 -145.5q0 -21 4 -43t8 -35t13 -38.5t12 -34.5h285l-45 -197h-230q-21 -72 -70 -133t-98 -86
q52 14 88 14q59 0 143 -29.5t136 -29.5q88 0 156 71l73 -278q-91 -105 -260 -105q-75 0 -166 22t-169.5 44t-122.5 22q-104 0 -226 -77l-65 235q114 51 185 136.5t71 181.5v12h-228z" />
    <glyph glyph-name="currency" unicode="&#xa4;" horiz-adv-x="1300" 
d="M653 174q-164 0 -291 68l-200 -162l-162 201l180 147q-41 87 -41 195q0 208 140 370l-113 148l207 166l123 -162q109 45 229 45q169 0 297 -74l192 156l160 -195l-180 -147q43 -94 43 -193q0 -210 -141 -370l112 -140l-207 -166l-122 154q-106 -41 -226 -41zM459 643
q0 -85 56.5 -138.5t154.5 -53.5q106 0 178 77t72 185q0 86 -55.5 142t-159.5 56q-109 0 -177.5 -78.5t-68.5 -189.5z" />
    <glyph glyph-name="yen" unicode="&#xa5;" horiz-adv-x="1341" 
d="M739 0h-352l49 227h-448l41 189h448l31 135h-449l43 188h328l-260 627h379l186 -504l404 504h417l-536 -627h328l-43 -188h-445l-31 -135h445l-41 -189h-445z" />
    <glyph glyph-name="brokenbar" unicode="&#xa6;" horiz-adv-x="448" 
d="M367 -41h-203v647h203v-647zM367 760h-203v647h203v-647z" />
    <glyph glyph-name="section" unicode="&#xa7;" horiz-adv-x="1007" 
d="M987 692q0 -101 -64.5 -185t-164.5 -120q58 -34 87 -87t29 -114q0 -153 -123.5 -252.5t-314.5 -99.5q-156 0 -290.5 45.5t-221.5 128.5l168 187q60 -66 154.5 -106t189.5 -40q56 0 90.5 26t34.5 62q0 26 -21 47t-54.5 35t-77 30t-89 31t-89 39t-77 52.5t-54.5 73.5
t-21 100q0 213 241 295q-62 31 -96.5 87t-34.5 126q0 149 120.5 241t305.5 92q298 0 453 -149l-158 -172q-44 47 -122 75.5t-160 28.5q-64 0 -95.5 -23.5t-31.5 -60.5q0 -31 36 -55t90 -39t117.5 -39t117.5 -52.5t90 -82t36 -125.5zM662 621q0 46 -33.5 75t-83.5 43
q-75 -12 -113.5 -47.5t-38.5 -85.5q0 -79 144 -123q61 16 93 55t32 83z" />
    <glyph glyph-name="dieresis" unicode="&#xa8;" horiz-adv-x="626" 
d="M862 1276q0 -70 -55.5 -124t-126.5 -54q-60 0 -100.5 41t-40.5 102q0 70 55.5 124t126.5 54q60 0 100.5 -41t40.5 -102zM426 1276q0 -70 -55.5 -124t-126.5 -54q-62 0 -103 41t-41 102q0 70 56 124t127 54q61 0 102 -40.5t41 -102.5z" />
    <glyph glyph-name="copyright" unicode="&#xa9;" horiz-adv-x="1593" 
d="M1544 684q0 -143 -56 -274t-151 -226t-226 -151t-275 -56q-191 0 -353.5 95t-257 258t-94.5 354q0 192 94.5 355t257 257.5t353.5 94.5q192 0 355 -94.5t258 -257.5t95 -355zM1464 684q0 169 -84.5 313.5t-229.5 229t-314 84.5t-313 -84.5t-228 -229t-84 -313.5
t84 -313.5t228 -229t313 -84.5t314 84.5t229.5 229t84.5 313.5zM1038 442l58 -75q-59 -50 -135 -81.5t-154 -31.5q-176 0 -283.5 105.5t-107.5 269.5q0 102 39.5 193t105 154.5t152 100.5t178.5 37q106 0 192 -42t138 -124l-86 -59q-75 137 -250 137q-66 0 -132 -30
t-118 -81t-84.5 -125.5t-32.5 -156.5q0 -121 79 -206t212 -85q63 0 123 28t106 72z" />
    <glyph glyph-name="ordfeminine" unicode="&#xaa;" horiz-adv-x="849" 
d="M553 1151q-72 0 -122 -60t-50 -141q0 -60 33.5 -90.5t87.5 -30.5q65 0 114 52l52 227q-40 43 -115 43zM713 1311h223l-141 -643h-226l15 71q-77 -88 -183 -88q-107 0 -179 71.5t-72 199.5q0 171 100.5 288t241.5 117q138 0 204 -88z" />
    <glyph glyph-name="guillemotleft" unicode="&#xab;" horiz-adv-x="1169" 
d="M582 129h-277l-246 369l410 362h293l-418 -373zM1016 129h-277l-245 369l409 362h293l-418 -373z" />
    <glyph glyph-name="logicalnot" unicode="&#xac;" horiz-adv-x="1067" 
d="M1081 969l-125 -570h-192l82 381h-725l41 189h919z" />
    <glyph glyph-name="uni00AD" unicode="&#xad;" horiz-adv-x="614" 
d="M522 365h-491l59 264h492z" />
    <glyph glyph-name="registered" unicode="&#xae;" horiz-adv-x="1011" 
d="M1040 952q0 -180 -127.5 -307t-308.5 -127q-180 0 -306 127t-126 307q0 181 127 307.5t307 126.5q119 0 219 -57.5t157.5 -157.5t57.5 -219zM971 952q0 153 -107 259t-260 106q-152 0 -258 -105.5t-106 -259.5q0 -151 106 -258.5t258 -107.5t259.5 107.5t107.5 258.5z
M758 702h-86l-86 197h-86l-43 -197h-74l109 498h192q66 0 106.5 -38t40.5 -93q0 -69 -50 -118.5t-113 -49.5zM754 1065q0 33 -21.5 53.5t-64.5 20.5h-115l-39 -176h129q51 0 81 29.5t30 72.5z" />
    <glyph glyph-name="macron" unicode="&#xaf;" horiz-adv-x="743" 
d="M883 1139h-742l39 174h742z" />
    <glyph glyph-name="degree" unicode="&#xb0;" horiz-adv-x="657" 
d="M752 1096q0 -121 -85.5 -206t-207.5 -85q-120 0 -204.5 85t-84.5 206q0 120 84.5 205t204.5 85q121 0 207 -85t86 -205zM588 1096q0 52 -38 90.5t-91 38.5q-52 0 -88.5 -38t-36.5 -91t35.5 -90t87.5 -37q53 0 92 37.5t39 89.5z" />
    <glyph glyph-name="plusminus" unicode="&#xb1;" horiz-adv-x="1038" 
d="M1016 670h-357l-90 -406h-207l91 406h-357l41 188h357l88 389h206l-88 -389h357zM868 0h-919l41 188h919z" />
    <glyph glyph-name="twosuperior" unicode="&#xb2;" horiz-adv-x="823" 
d="M838 862h-668l39 176q225 129 327.5 195.5t142.5 108t40 83.5q0 39 -33 61.5t-88 22.5q-65 0 -127.5 -25.5t-101.5 -62.5l-95 156q62 55 154 86t180 31q157 0 255 -67.5t98 -178.5q0 -100 -96.5 -191.5t-313.5 -209.5h328z" />
    <glyph glyph-name="threesuperior" unicode="&#xb3;" horiz-adv-x="823" 
d="M897 1090q0 -96 -91 -169t-243 -73q-129 0 -233.5 41t-151.5 110l141 144q40 -55 103.5 -83t128.5 -28q58 0 86.5 24t28.5 60q0 70 -172 70q-60 0 -72 -2l39 182q20 -2 137 -2q127 0 127 74q0 35 -43.5 53t-106.5 18q-122 0 -208 -69l-74 145q58 51 140.5 80t166.5 29
q168 0 265.5 -60t97.5 -164q0 -77 -58.5 -136t-167.5 -66q72 -18 116 -63t44 -115z" />
    <glyph glyph-name="acute" unicode="&#xb4;" horiz-adv-x="538" 
d="M745 1434l-391 -295h-217l326 295h282z" />
    <glyph glyph-name="mu" unicode="&#xb5;" horiz-adv-x="1241" 
d="M319 10l-88 -387h-313l309 1366h316l-129 -573q-20 -79 15.5 -120.5t109.5 -41.5q115 0 211 96l141 639h313l-143 -657q-9 -37 7.5 -57.5t49.5 -20.5q26 0 41 6l-39 -266q-62 -19 -145 -19q-231 0 -252 179q-59 -81 -137 -130t-162 -49q-34 0 -63.5 10t-41.5 25z" />
    <glyph glyph-name="paragraph" unicode="&#xb6;" horiz-adv-x="919" 
d="M692 -205h-145l315 1426h-149l-318 -1426h-145l192 867q-116 0 -198 91t-82 228q0 97 50.5 185t143 144t203.5 56h481z" />
    <glyph glyph-name="periodcentered" unicode="&#xb7;" horiz-adv-x="552" 
d="M258 309q-73 0 -124.5 52t-51.5 126q0 85 63 147t148 62q73 0 123.5 -52.5t50.5 -125.5q0 -86 -62 -147.5t-147 -61.5z" />
    <glyph glyph-name="cedilla" unicode="&#xb8;" horiz-adv-x="468" 
d="M72 -406q-80 0 -148 25.5t-106 63.5l80 110q81 -74 174 -74q41 0 65.5 16t24.5 46q0 18 -14 29.5t-39 11.5q-32 0 -56 -27l-94 62l100 166h146l-80 -123q33 20 61 20q53 0 88 -36t35 -95q0 -88 -68 -141.5t-169 -53.5z" />
    <glyph glyph-name="onesuperior" unicode="&#xb9;" horiz-adv-x="636" 
d="M594 862h-234l113 514l-168 -135l-104 141l372 299h201z" />
    <glyph glyph-name="ordmasculine" unicode="&#xba;" horiz-adv-x="829" 
d="M494 651q-157 0 -250.5 84.5t-93.5 216.5q0 160 118.5 267.5t278.5 107.5q157 0 250.5 -85t93.5 -218q0 -159 -119 -266t-278 -107zM500 829q78 0 118.5 61t40.5 138q0 55 -31 86t-87 31q-78 0 -119 -61t-41 -138q0 -55 31.5 -86t87.5 -31z" />
    <glyph glyph-name="guillemotright" unicode="&#xbb;" horiz-adv-x="1169" 
d="M158 860h276l246 -368l-410 -363h-293l418 373zM592 860h276l246 -368l-409 -363h-293l417 373z" />
    <glyph glyph-name="onequarter" unicode="&#xbc;" horiz-adv-x="1771" 
d="M524 547h-233l112 514l-167 -135l-105 141l373 299h201zM1657 160h-103l-32 -160h-232l33 160h-401l34 157l418 502h328l-107 -477h103zM1364 342l61 274l-233 -274h172zM1556 1366l-1177 -1366h-176l1173 1366h180z" />
    <glyph glyph-name="onehalf" unicode="&#xbd;" horiz-adv-x="1837" 
d="M524 547h-233l112 514l-167 -135l-105 141l373 299h201zM1659 0h-668l39 176q225 129 327.5 195.5t142.5 108t40 83.5q0 39 -33 61.5t-88 22.5q-65 0 -127.5 -25.5t-101.5 -62.5l-94 156q62 55 154 85.5t180 30.5q157 0 254.5 -67t97.5 -178q0 -100 -97 -192t-313 -210
h328zM1556 1366l-1177 -1366h-176l1173 1366h180z" />
    <glyph glyph-name="threequarters" unicode="&#xbe;" horiz-adv-x="1929" 
d="M1815 160h-103l-33 -160h-231l33 160h-402l35 157l418 502h328l-107 -477h102zM1522 342l61 274l-233 -274h172zM1714 1366l-1177 -1366h-177l1174 1366h180zM827 774q0 -96 -90.5 -169t-242.5 -73q-129 0 -233.5 41.5t-151.5 110.5l141 143q40 -55 103 -82.5t128 -27.5
q58 0 86.5 24t28.5 60q0 69 -172 69q-60 0 -72 -2l39 183q20 -2 137 -2q127 0 127 73q0 35 -43 53.5t-106 18.5q-122 0 -209 -70l-74 146q58 51 140.5 79.5t166.5 28.5q168 0 265.5 -59.5t97.5 -163.5q0 -77 -58 -136.5t-167 -66.5q72 -18 115.5 -63t43.5 -115z" />
    <glyph glyph-name="questiondown" unicode="&#xbf;" horiz-adv-x="817" 
d="M311 479l289 70q27 -59 27 -143q0 -61 -19.5 -111.5t-50.5 -83t-69 -59.5t-75.5 -46.5t-68.5 -37.5t-50.5 -39t-19.5 -45q0 -76 127 -76q54 0 111.5 21.5t103.5 60.5l148 -244q-183 -145 -418 -145q-121 0 -220.5 34.5t-161.5 104.5t-62 164q0 74 23.5 132.5t61 96t83 68
t91 55t83 48.5t61 57t23.5 73q0 25 -17 45zM551 1012q73 0 124.5 -52t51.5 -124q0 -86 -63 -147.5t-148 -61.5q-73 0 -123.5 52t-50.5 126q0 85 62 146t147 61z" />
    <glyph glyph-name="Agrave" unicode="&#xc0;" horiz-adv-x="1427" 
d="M1339 0h-383l-24 197h-539l-108 -197h-418l815 1366h442zM905 504l-61 514l-287 -514h348zM1067 1481h-213l-260 295h278z" />
    <glyph glyph-name="Aacute" unicode="&#xc1;" horiz-adv-x="1427" 
d="M1339 0h-383l-24 197h-539l-108 -197h-418l815 1366h442zM905 504l-61 514l-287 -514h348zM1399 1776l-391 -295h-217l325 295h283z" />
    <glyph glyph-name="Acircumflex" unicode="&#xc2;" horiz-adv-x="1427" 
d="M1257 1481h-184l-104 166l-172 -166h-191l250 295h277zM1339 0h-383l-24 197h-539l-108 -197h-418l815 1366h442zM905 504l-61 514l-287 -514h348z" />
    <glyph glyph-name="Atilde" unicode="&#xc3;" horiz-adv-x="1427" 
d="M1339 0h-383l-24 197h-539l-108 -197h-418l815 1366h442zM905 504l-61 514l-287 -514h348zM1075 1477q-48 0 -86.5 17.5t-59.5 38.5t-48.5 38.5t-55.5 17.5q-53 0 -73 -100h-162q27 141 85 207.5t169 66.5q48 0 86.5 -17.5t60 -38.5t49 -38.5t54.5 -17.5q52 0 75 100h162
q-31 -141 -88.5 -207.5t-167.5 -66.5z" />
    <glyph glyph-name="Adieresis" unicode="&#xc4;" horiz-adv-x="1427" 
d="M1337 1618q0 -70 -55.5 -124t-126.5 -54q-60 0 -100.5 41t-40.5 102q0 70 55.5 124t126.5 54q60 0 100.5 -41t40.5 -102zM901 1618q0 -70 -55.5 -124t-126.5 -54q-62 0 -103 41t-41 102q0 70 56 124t127 54q62 0 102.5 -40.5t40.5 -102.5zM1339 0h-383l-24 197h-539
l-108 -197h-418l815 1366h442zM905 504l-61 514l-287 -514h348z" />
    <glyph glyph-name="Aring" unicode="&#xc5;" horiz-adv-x="1427" 
d="M1339 0h-383l-24 197h-539l-108 -197h-418l815 1366h442zM905 504l-61 514l-287 -514h348zM940 1407q-91 0 -147 56t-56 147q0 98 72.5 169.5t171.5 71.5q91 0 147 -55.5t56 -146.5q0 -98 -73 -170t-171 -72zM954 1548q36 0 62 26t26 62q0 34 -20.5 55t-54.5 21
q-35 0 -61.5 -26.5t-26.5 -61.5q0 -34 20.5 -55t54.5 -21z" />
    <glyph glyph-name="AE" unicode="&#xc6;" horiz-adv-x="2004" 
d="M1821 0h-1002l43 197h-444l-152 -197h-411l1120 1366h1147l-70 -307h-647l-47 -213h635l-70 -307h-633l-51 -232h649zM930 504l108 497l-387 -497h279z" />
    <glyph glyph-name="Ccedilla" unicode="&#xc7;" horiz-adv-x="1417" 
d="M618 -406q-80 0 -147.5 25.5t-105.5 63.5l79 110q81 -74 174 -74q41 0 66 16t25 46q0 18 -14.5 29.5t-39.5 11.5q-31 0 -55 -27l-94 62l82 137q-229 47 -371.5 207t-142.5 395q0 175 64.5 324.5t174.5 251.5t257.5 159.5t310.5 57.5q133 0 243 -35t185.5 -96t125.5 -133
t78 -156l-339 -111q-29 102 -112 160.5t-198 58.5q-117 0 -214.5 -62t-153.5 -167.5t-56 -229.5q0 -142 95 -236.5t251 -94.5q84 0 167.5 44t129.5 113l275 -180q-59 -80 -135 -138.5t-155.5 -90t-154 -46t-147.5 -14.5q-31 0 -45 2l-49 -77q33 20 61 20q53 0 88 -36t35 -95
q0 -88 -68.5 -141.5t-169.5 -53.5z" />
    <glyph glyph-name="Egrave" unicode="&#xc8;" 
d="M1014 0h-1002l301 1366h1002l-70 -307h-647l-47 -213h635l-68 -307h-635l-51 -232h649zM975 1481h-213l-260 295h278z" />
    <glyph glyph-name="Eacute" unicode="&#xc9;" 
d="M1307 1776l-392 -295h-217l326 295h283zM1014 0h-1002l301 1366h1002l-70 -307h-647l-47 -213h635l-68 -307h-635l-51 -232h649z" />
    <glyph glyph-name="Ecircumflex" unicode="&#xca;" 
d="M1163 1481h-184l-105 166l-172 -166h-190l250 295h276zM1014 0h-1002l301 1366h1002l-70 -307h-647l-47 -213h635l-68 -307h-635l-51 -232h649z" />
    <glyph glyph-name="Edieresis" unicode="&#xcb;" 
d="M1247 1618q0 -70 -55.5 -124t-126.5 -54q-60 0 -100.5 41t-40.5 102q0 70 55.5 124t126.5 54q60 0 100.5 -41t40.5 -102zM811 1618q0 -70 -55.5 -124t-126.5 -54q-62 0 -103 41t-41 102q0 70 56 124t127 54q62 0 102.5 -40.5t40.5 -102.5zM1014 0h-1002l301 1366h1002
l-70 -307h-647l-47 -213h635l-68 -307h-635l-51 -232h649z" />
    <glyph glyph-name="Igrave" unicode="&#xcc;" horiz-adv-x="598" 
d="M365 0h-353l301 1366h353zM651 1481h-213l-260 295h279z" />
    <glyph glyph-name="Iacute" unicode="&#xcd;" horiz-adv-x="598" 
d="M365 0h-353l301 1366h353zM981 1776l-391 -295h-217l325 295h283z" />
    <glyph glyph-name="Icircumflex" unicode="&#xce;" horiz-adv-x="598" 
d="M840 1481h-185l-104 166l-172 -166h-191l250 295h277zM365 0h-353l301 1366h353z" />
    <glyph glyph-name="Idieresis" unicode="&#xcf;" horiz-adv-x="598" 
d="M922 1618q0 -70 -56 -124t-127 -54q-60 0 -100.5 41t-40.5 102q0 70 55.5 124t126.5 54q60 0 101 -41t41 -102zM485 1618q0 -70 -55.5 -124t-126.5 -54q-61 0 -102 41t-41 102q0 70 55.5 124t126.5 54q62 0 102.5 -40.5t40.5 -102.5zM365 0h-353l301 1366h353z" />
    <glyph glyph-name="Eth" unicode="&#xd0;" horiz-adv-x="1536" 
d="M631 0h-572l119 543h-153l61 280h154l120 543h564q114 0 222.5 -42.5t194 -117.5t137.5 -187t52 -241q0 -111 -28.5 -216.5t-96.5 -209t-168.5 -180.5t-256.5 -124.5t-349 -47.5zM702 307q140 1 247 63t161.5 162.5t54.5 221.5q0 129 -86 217t-219 88h-215l-53 -236h285
l-62 -280h-285l-51 -236h223z" />
    <glyph glyph-name="Ntilde" unicode="&#xd1;" horiz-adv-x="1515" 
d="M1118 1477q-48 0 -86.5 17.5t-59.5 38.5t-48.5 38.5t-55.5 17.5q-53 0 -73 -100h-162q27 141 85 207.5t169 66.5q48 0 86.5 -17.5t60 -38.5t49 -38.5t54.5 -17.5q52 0 75 100h162q-31 -141 -88.5 -207.5t-167.5 -66.5zM1282 0h-340l-397 815l-180 -815h-353l301 1366h363
l381 -776l172 776h354z" />
    <glyph glyph-name="Ograve" unicode="&#xd2;" horiz-adv-x="1568" 
d="M1139 1481h-213l-260 295h278zM766 -25q-195 0 -352 76t-248.5 218.5t-91.5 326.5q0 163 61.5 309t168 252.5t257 169t320.5 62.5q195 0 352 -76t248.5 -217.5t91.5 -323.5q0 -164 -61.5 -311t-168 -254t-257 -169.5t-320.5 -62.5zM786 287q178 0 299 133.5t121 324.5
q0 149 -96.5 240.5t-249.5 91.5q-178 0 -299 -134t-121 -325q0 -148 96.5 -239.5t249.5 -91.5z" />
    <glyph glyph-name="Oacute" unicode="&#xd3;" horiz-adv-x="1568" 
d="M1466 1776l-391 -295h-217l326 295h282zM766 -25q-195 0 -352 76t-248.5 218.5t-91.5 326.5q0 163 61.5 309t168 252.5t257 169t320.5 62.5q195 0 352 -76t248.5 -217.5t91.5 -323.5q0 -164 -61.5 -311t-168 -254t-257 -169.5t-320.5 -62.5zM786 287q178 0 299 133.5
t121 324.5q0 149 -96.5 240.5t-249.5 91.5q-178 0 -299 -134t-121 -325q0 -148 96.5 -239.5t249.5 -91.5z" />
    <glyph glyph-name="Ocircumflex" unicode="&#xd4;" horiz-adv-x="1568" 
d="M1327 1481h-184l-105 166l-172 -166h-190l250 295h276zM766 -25q-195 0 -352 76t-248.5 218.5t-91.5 326.5q0 163 61.5 309t168 252.5t257 169t320.5 62.5q195 0 352 -76t248.5 -217.5t91.5 -323.5q0 -164 -61.5 -311t-168 -254t-257 -169.5t-320.5 -62.5zM786 287
q178 0 299 133.5t121 324.5q0 149 -96.5 240.5t-249.5 91.5q-178 0 -299 -134t-121 -325q0 -148 96.5 -239.5t249.5 -91.5z" />
    <glyph glyph-name="Otilde" unicode="&#xd5;" horiz-adv-x="1568" 
d="M766 -25q-195 0 -352 76t-248.5 218.5t-91.5 326.5q0 163 61.5 309t168 252.5t257 169t320.5 62.5q195 0 352 -76t248.5 -217.5t91.5 -323.5q0 -164 -61.5 -311t-168 -254t-257 -169.5t-320.5 -62.5zM786 287q178 0 299 133.5t121 324.5q0 149 -96.5 240.5t-249.5 91.5
q-178 0 -299 -134t-121 -325q0 -148 96.5 -239.5t249.5 -91.5zM1147 1477q-48 0 -86.5 17.5t-59.5 38.5t-48.5 38.5t-55.5 17.5q-54 0 -74 -100h-161q27 142 85 208t168 66q48 0 86.5 -17.5t60 -38.5t49 -38.5t54.5 -17.5q53 0 76 100h162q-31 -141 -88.5 -207.5
t-167.5 -66.5z" />
    <glyph glyph-name="Odieresis" unicode="&#xd6;" horiz-adv-x="1568" 
d="M1407 1618q0 -70 -55.5 -124t-126.5 -54q-60 0 -101 41t-41 102q0 70 56 124t127 54q60 0 100.5 -41t40.5 -102zM971 1618q0 -70 -56 -124t-127 -54q-62 0 -102.5 41t-40.5 102q0 70 55.5 124t126.5 54q62 0 103 -41t41 -102zM766 -25q-195 0 -352 76t-248.5 218.5
t-91.5 326.5q0 163 61.5 309t168 252.5t257 169t320.5 62.5q195 0 352 -76t248.5 -217.5t91.5 -323.5q0 -164 -61.5 -311t-168 -254t-257 -169.5t-320.5 -62.5zM786 287q178 0 299 133.5t121 324.5q0 149 -96.5 240.5t-249.5 91.5q-178 0 -299 -134t-121 -325
q0 -148 96.5 -239.5t249.5 -91.5z" />
    <glyph glyph-name="multiply" unicode="&#xd7;" horiz-adv-x="1038" 
d="M756 274l-213 275l-350 -285l-117 144l354 288l-215 275l150 123l210 -275l351 285l116 -143l-350 -289l213 -275z" />
    <glyph glyph-name="Oslash" unicode="&#xd8;" horiz-adv-x="1568" 
d="M766 -25q-253 0 -436 125l-105 -100h-245l223 217q-129 157 -129 379q0 163 61.5 309t168 252.5t257 169t320.5 62.5q234 0 411 -111l90 88h246l-203 -199q148 -164 148 -395q0 -164 -61.5 -311t-168 -254t-257 -169.5t-320.5 -62.5zM786 287q178 0 299 133.5t121 324.5
q0 93 -43 168l-583 -569q85 -57 206 -57zM440 618q0 -75 29 -141l571 557q-81 43 -180 43q-178 0 -299 -134t-121 -325z" />
    <glyph glyph-name="Ugrave" unicode="&#xd9;" horiz-adv-x="1536" 
d="M750 -25q-306 0 -466.5 132.5t-160.5 355.5q0 40 10 90l180 813h359l-178 -805q-7 -18 -7 -57q2 -91 70.5 -156t192.5 -65q134 0 212.5 75t106.5 203l178 805h357l-179 -811q-29 -131 -78 -232t-128 -181.5t-197 -123.5t-272 -43zM1120 1481h-213l-260 295h279z" />
    <glyph glyph-name="Uacute" unicode="&#xda;" horiz-adv-x="1536" 
d="M1448 1776l-391 -295h-217l325 295h283zM750 -25q-306 0 -466.5 132.5t-160.5 355.5q0 40 10 90l180 813h359l-178 -805q-7 -18 -7 -57q2 -91 70.5 -156t192.5 -65q134 0 212.5 75t106.5 203l178 805h357l-179 -811q-29 -131 -78 -232t-128 -181.5t-197 -123.5t-272 -43z
" />
    <glyph glyph-name="Ucircumflex" unicode="&#xdb;" horiz-adv-x="1536" 
d="M1307 1481h-185l-104 166l-172 -166h-191l250 295h277zM750 -25q-306 0 -466.5 132.5t-160.5 355.5q0 40 10 90l180 813h359l-178 -805q-7 -18 -7 -57q2 -91 70.5 -156t192.5 -65q134 0 212.5 75t106.5 203l178 805h357l-179 -811q-29 -131 -78 -232t-128 -181.5
t-197 -123.5t-272 -43z" />
    <glyph glyph-name="Udieresis" unicode="&#xdc;" horiz-adv-x="1536" 
d="M1391 1618q0 -70 -56 -124t-127 -54q-60 0 -100.5 41t-40.5 102q0 70 55.5 124t126.5 54q60 0 101 -41t41 -102zM954 1618q0 -70 -55.5 -124t-126.5 -54q-62 0 -102.5 41t-40.5 102q0 70 55.5 124t126.5 54q61 0 102 -40.5t41 -102.5zM750 -25q-306 0 -466.5 132.5
t-160.5 355.5q0 40 10 90l180 813h359l-178 -805q-7 -18 -7 -57q2 -91 70.5 -156t192.5 -65q134 0 212.5 75t106.5 203l178 805h357l-179 -811q-29 -131 -78 -232t-128 -181.5t-197 -123.5t-272 -43z" />
    <glyph glyph-name="Yacute" unicode="&#xdd;" horiz-adv-x="1341" 
d="M737 0h-352l121 551l-338 815h379l186 -504l404 504h417l-696 -815zM1354 1776l-391 -295h-218l326 295h283z" />
    <glyph glyph-name="Thorn" unicode="&#xde;" horiz-adv-x="1316" 
d="M365 0h-353l301 1366h353l-45 -209h319q168 0 279.5 -115.5t111.5 -275.5q0 -72 -19 -142t-64 -138.5t-110 -120t-165.5 -83.5t-222.5 -32h-330zM766 559q89 0 144 49t55 119q0 56 -39 89.5t-103 33.5h-272l-64 -291h279z" />
    <glyph glyph-name="germandbls" unicode="&#xdf;" horiz-adv-x="1361" 
d="M1300 330q0 -145 -124 -250t-308 -105q-143 0 -252 42t-198 135l166 194q119 -133 290 -133q48 0 80.5 23t32.5 53q0 23 -23.5 40t-61 29.5t-82.5 25.5t-90 32.5t-82.5 45.5t-61 69.5t-23.5 99.5q0 67 23 121t57.5 86.5t75 61t75 46.5t57.5 41.5t23 48.5q0 40 -40.5 66
t-100.5 26q-162 0 -203 -180l-208 -948h-316l209 948q21 92 62 168.5t106 138.5t162.5 96.5t218.5 34.5q117 0 218 -36.5t164.5 -107.5t63.5 -161q0 -64 -25 -117t-62 -85.5t-81 -61t-81 -47.5t-62 -42.5t-25 -47.5q0 -17 23.5 -30.5t61 -25.5t83 -25.5t91 -35t83 -50.5
t61 -76t23.5 -107z" />
    <glyph glyph-name="agrave" unicode="&#xe0;" horiz-adv-x="1210" 
d="M561 1014q94 0 174.5 -37t126.5 -105l27 117h313l-219 -989h-313l24 115q-122 -140 -282 -140q-169 0 -270 108t-101 302q0 111 34 220t96.5 201.5t164 150t225.5 57.5zM616 735q-107 0 -178 -82.5t-71 -201.5q0 -88 54.5 -142.5t137.5 -54.5q107 0 186 92l68 299
q-32 41 -84 65.5t-113 24.5zM874 1139h-212l-261 295h279z" />
    <glyph glyph-name="aacute" unicode="&#xe1;" horiz-adv-x="1210" 
d="M561 1014q94 0 174.5 -37t126.5 -105l27 117h313l-219 -989h-313l24 115q-122 -140 -282 -140q-169 0 -270 108t-101 302q0 111 34 220t96.5 201.5t164 150t225.5 57.5zM616 735q-107 0 -178 -82.5t-71 -201.5q0 -88 54.5 -142.5t137.5 -54.5q107 0 186 92l68 299
q-32 41 -84 65.5t-113 24.5zM1202 1434l-391 -295h-217l326 295h282z" />
    <glyph glyph-name="acircumflex" unicode="&#xe2;" horiz-adv-x="1210" 
d="M561 1014q94 0 174.5 -37t126.5 -105l27 117h313l-219 -989h-313l24 115q-122 -140 -282 -140q-169 0 -270 108t-101 302q0 111 34 220t96.5 201.5t164 150t225.5 57.5zM616 735q-107 0 -178 -82.5t-71 -201.5q0 -88 54.5 -142.5t137.5 -54.5q107 0 186 92l68 299
q-32 41 -84 65.5t-113 24.5zM1061 1139h-184l-105 166l-172 -166h-190l249 295h277z" />
    <glyph glyph-name="atilde" unicode="&#xe3;" horiz-adv-x="1210" 
d="M561 1014q94 0 174.5 -37t126.5 -105l27 117h313l-219 -989h-313l24 115q-122 -140 -282 -140q-169 0 -270 108t-101 302q0 111 34 220t96.5 201.5t164 150t225.5 57.5zM616 735q-107 0 -178 -82.5t-71 -201.5q0 -88 54.5 -142.5t137.5 -54.5q107 0 186 92l68 299
q-32 41 -84 65.5t-113 24.5zM883 1135q-48 0 -86.5 17.5t-59.5 38.5t-48.5 38.5t-55.5 17.5q-54 0 -74 -100h-162q27 141 85 207.5t169 66.5q48 0 86.5 -17.5t60 -38.5t49 -38.5t54.5 -17.5q53 0 76 100h162q-31 -141 -88.5 -207.5t-167.5 -66.5z" />
    <glyph glyph-name="adieresis" unicode="&#xe4;" horiz-adv-x="1210" 
d="M561 1014q94 0 174.5 -37t126.5 -105l27 117h313l-219 -989h-313l24 115q-122 -140 -282 -140q-169 0 -270 108t-101 302q0 111 34 220t96.5 201.5t164 150t225.5 57.5zM616 735q-107 0 -178 -82.5t-71 -201.5q0 -88 54.5 -142.5t137.5 -54.5q107 0 186 92l68 299
q-32 41 -84 65.5t-113 24.5zM1141 1276q0 -70 -56 -124t-127 -54q-60 0 -100.5 41t-40.5 102q0 70 55.5 124t126.5 54q60 0 101 -41t41 -102zM705 1276q0 -70 -56 -124t-127 -54q-62 0 -102.5 41t-40.5 102q0 70 55.5 124t126.5 54q62 0 103 -41t41 -102z" />
    <glyph glyph-name="aring" unicode="&#xe5;" horiz-adv-x="1210" 
d="M561 1014q94 0 174.5 -37t126.5 -105l27 117h313l-219 -989h-313l24 115q-122 -140 -282 -140q-169 0 -270 108t-101 302q0 111 34 220t96.5 201.5t164 150t225.5 57.5zM616 735q-107 0 -178 -82.5t-71 -201.5q0 -88 54.5 -142.5t137.5 -54.5q107 0 186 92l68 299
q-32 41 -84 65.5t-113 24.5zM750 1065q-91 0 -147 56t-56 147q0 98 72.5 169.5t171.5 71.5q91 0 146.5 -55.5t55.5 -146.5q0 -98 -72.5 -170t-170.5 -72zM764 1206q36 0 62 26t26 62q0 34 -21 55t-55 21q-35 0 -61.5 -26.5t-26.5 -61.5q0 -34 21 -55t55 -21z" />
    <glyph glyph-name="ae" unicode="&#xe6;" horiz-adv-x="1847" 
d="M616 735q-107 0 -178 -82.5t-71 -201.5q0 -88 54.5 -142.5t137.5 -54.5q107 0 186 92l68 299q-32 41 -84 65.5t-113 24.5zM1014 135l-31 -135h-313l24 115q-122 -140 -282 -140q-169 0 -270 108t-101 302q0 111 34 220t96.5 201.5t164 150t225.5 57.5q94 0 174.5 -37
t126.5 -105l27 117h313l-20 -96q121 121 272 121q169 0 259.5 -104.5t90.5 -317.5q0 -101 -22 -197h-699v-12q0 -48 68.5 -103t183.5 -55q60 0 119 16.5t98 45.5l97 -215q-71 -46 -155 -71.5t-153 -25.5q-123 0 -205.5 44t-121.5 116zM1116 600h408v12q0 60 -47 109t-140 49
q-84 0 -145 -53t-76 -117z" />
    <glyph glyph-name="ccedilla" unicode="&#xe7;" horiz-adv-x="1024" 
d="M436 -406q-80 0 -148 25.5t-106 63.5l80 110q81 -74 174 -74q41 0 65.5 16t24.5 46q0 18 -14 29.5t-39 11.5q-31 0 -55 -27l-94 62l79 133q-168 37 -264 154.5t-96 285.5q0 161 77 295t212 211.5t297 77.5q153 0 259 -55t161 -146l-236 -178q-28 45 -76 72.5t-110 27.5
q-116 0 -190.5 -82.5t-74.5 -203.5q0 -90 62 -142.5t154 -52.5q54 0 103 24.5t83 63.5l170 -207q-61 -66 -161.5 -113t-225.5 -47h-8l-50 -75q33 20 62 20q53 0 88 -36t35 -95q0 -88 -68.5 -141.5t-169.5 -53.5z" />
    <glyph glyph-name="egrave" unicode="&#xe8;" horiz-adv-x="1122" 
d="M569 -25q-240 0 -383 119t-143 330q0 158 73.5 292.5t207.5 216t299 81.5q127 0 228.5 -50.5t163.5 -153.5t62 -243q0 -85 -20 -172h-701v-12q0 -49 64.5 -106.5t173.5 -57.5q63 0 127.5 17t103.5 45l97 -209q-69 -48 -163.5 -72.5t-189.5 -24.5zM387 600h410q2 2 2 14
q0 57 -49 106.5t-142 49.5q-83 0 -145.5 -53.5t-75.5 -116.5zM870 1139h-213l-260 295h279z" />
    <glyph glyph-name="eacute" unicode="&#xe9;" horiz-adv-x="1122" 
d="M1198 1434l-391 -295h-217l325 295h283zM569 -25q-240 0 -383 119t-143 330q0 158 73.5 292.5t207.5 216t299 81.5q127 0 228.5 -50.5t163.5 -153.5t62 -243q0 -85 -20 -172h-701v-12q0 -49 64.5 -106.5t173.5 -57.5q63 0 127.5 17t103.5 45l97 -209
q-69 -48 -163.5 -72.5t-189.5 -24.5zM387 600h410q2 2 2 14q0 57 -49 106.5t-142 49.5q-83 0 -145.5 -53.5t-75.5 -116.5z" />
    <glyph glyph-name="ecircumflex" unicode="&#xea;" horiz-adv-x="1122" 
d="M1057 1139h-185l-104 166l-172 -166h-190l249 295h277zM569 -25q-240 0 -383 119t-143 330q0 158 73.5 292.5t207.5 216t299 81.5q127 0 228.5 -50.5t163.5 -153.5t62 -243q0 -85 -20 -172h-701v-12q0 -49 64.5 -106.5t173.5 -57.5q63 0 127.5 17t103.5 45l97 -209
q-69 -48 -163.5 -72.5t-189.5 -24.5zM387 600h410q2 2 2 14q0 57 -49 106.5t-142 49.5q-83 0 -145.5 -53.5t-75.5 -116.5z" />
    <glyph glyph-name="edieresis" unicode="&#xeb;" horiz-adv-x="1122" 
d="M1139 1276q0 -70 -56 -124t-127 -54q-60 0 -100.5 41t-40.5 102q0 70 55.5 124t126.5 54q60 0 101 -41t41 -102zM702 1276q0 -70 -55.5 -124t-126.5 -54q-62 0 -102.5 41t-40.5 102q0 70 55.5 124t126.5 54q61 0 102 -40.5t41 -102.5zM569 -25q-240 0 -383 119t-143 330
q0 158 73.5 292.5t207.5 216t299 81.5q127 0 228.5 -50.5t163.5 -153.5t62 -243q0 -85 -20 -172h-701v-12q0 -49 64.5 -106.5t173.5 -57.5q63 0 127.5 17t103.5 45l97 -209q-69 -48 -163.5 -72.5t-189.5 -24.5zM387 600h410q2 2 2 14q0 57 -49 106.5t-142 49.5
q-83 0 -145.5 -53.5t-75.5 -116.5z" />
    <glyph glyph-name="igrave" unicode="&#xec;" horiz-adv-x="544" 
d="M319 0h-315l219 989h316zM553 1139h-213l-260 295h278z" />
    <glyph glyph-name="iacute" unicode="&#xed;" horiz-adv-x="544" 
d="M879 1434l-392 -295h-217l326 295h283zM319 0h-315l219 989h316z" />
    <glyph glyph-name="icircumflex" unicode="&#xee;" horiz-adv-x="544" 
d="M739 1139h-184l-104 166l-172 -166h-191l250 295h276zM319 0h-315l219 989h316z" />
    <glyph glyph-name="idieresis" unicode="&#xef;" horiz-adv-x="544" 
d="M821 1276q0 -70 -55.5 -124t-126.5 -54q-60 0 -100.5 41t-40.5 102q0 70 55.5 124t126.5 54q60 0 100.5 -41t40.5 -102zM385 1276q0 -70 -55.5 -124t-126.5 -54q-62 0 -103 41t-41 102q0 70 56 124t127 54q62 0 102.5 -40.5t40.5 -102.5zM319 0h-315l219 989h316z" />
    <glyph glyph-name="eth" unicode="&#xf0;" horiz-adv-x="1179" 
d="M289 965l-33 141l240 70q-19 17 -54.5 44t-42.5 33l219 228q141 -109 228 -203l219 65l35 -137l-152 -45q201 -255 201 -532q0 -132 -40.5 -250t-114.5 -208t-187 -143t-250 -53q-236 0 -379 118t-143 317q0 142 64 259.5t177 185t250 67.5q245 0 334 -224
q-25 158 -239 365zM563 254q102 0 168 64t66 161q0 71 -56 118.5t-155 47.5q-100 0 -164 -64.5t-64 -158.5q0 -80 53 -124t152 -44z" />
    <glyph glyph-name="ntilde" unicode="&#xf1;" horiz-adv-x="1214" 
d="M989 0h-315l123 555q10 45 10 72q0 55 -38.5 81.5t-96.5 26.5q-115 0 -211 -96l-142 -639h-315l219 989h316l-29 -121q72 67 147 106.5t174 39.5q147 0 232.5 -71t85.5 -185q0 -32 -10 -82zM893 1135q-48 0 -86.5 17.5t-59.5 38.5t-48.5 38.5t-55.5 17.5q-54 0 -74 -100
h-161q27 141 85 207.5t169 66.5q48 0 86.5 -17.5t59.5 -38.5t48.5 -38.5t54.5 -17.5q53 0 76 100h162q-31 -141 -88.5 -207.5t-167.5 -66.5z" />
    <glyph glyph-name="ograve" unicode="&#xf2;" horiz-adv-x="1179" 
d="M551 -25q-241 0 -375.5 128t-134.5 327q0 114 43.5 220t119 186.5t185 129t234.5 48.5q242 0 376 -128t134 -329q0 -114 -43.5 -219.5t-119 -186t-185 -128.5t-234.5 -48zM563 254q107 0 177.5 86.5t70.5 202.5q0 90 -53 141t-146 51q-109 0 -178 -86t-69 -203
q0 -90 52.5 -141t145.5 -51zM872 1139h-213l-260 295h279z" />
    <glyph glyph-name="oacute" unicode="&#xf3;" horiz-adv-x="1179" 
d="M1196 1434l-391 -295h-217l325 295h283zM551 -25q-241 0 -375.5 128t-134.5 327q0 114 43.5 220t119 186.5t185 129t234.5 48.5q242 0 376 -128t134 -329q0 -114 -43.5 -219.5t-119 -186t-185 -128.5t-234.5 -48zM563 254q107 0 177.5 86.5t70.5 202.5q0 90 -53 141
t-146 51q-109 0 -178 -86t-69 -203q0 -90 52.5 -141t145.5 -51z" />
    <glyph glyph-name="ocircumflex" unicode="&#xf4;" horiz-adv-x="1179" 
d="M1057 1139h-185l-104 166l-172 -166h-190l249 295h277zM551 -25q-241 0 -375.5 128t-134.5 327q0 114 43.5 220t119 186.5t185 129t234.5 48.5q242 0 376 -128t134 -329q0 -114 -43.5 -219.5t-119 -186t-185 -128.5t-234.5 -48zM563 254q107 0 177.5 86.5t70.5 202.5
q0 90 -53 141t-146 51q-109 0 -178 -86t-69 -203q0 -90 52.5 -141t145.5 -51z" />
    <glyph glyph-name="otilde" unicode="&#xf5;" horiz-adv-x="1179" 
d="M551 -25q-241 0 -375.5 128t-134.5 327q0 114 43.5 220t119 186.5t185 129t234.5 48.5q242 0 376 -128t134 -329q0 -114 -43.5 -219.5t-119 -186t-185 -128.5t-234.5 -48zM563 254q107 0 177.5 86.5t70.5 202.5q0 90 -53 141t-146 51q-109 0 -178 -86t-69 -203
q0 -90 52.5 -141t145.5 -51zM879 1135q-48 0 -86.5 17.5t-59.5 38.5t-48.5 38.5t-55.5 17.5q-54 0 -74 -100h-162q27 141 85 207.5t169 66.5q48 0 86.5 -17.5t60 -38.5t49 -38.5t54.5 -17.5q53 0 76 100h162q-31 -141 -88.5 -207.5t-167.5 -66.5z" />
    <glyph glyph-name="odieresis" unicode="&#xf6;" horiz-adv-x="1179" 
d="M1137 1276q0 -70 -56 -124t-127 -54q-60 0 -100.5 41t-40.5 102q0 70 55.5 124t126.5 54q60 0 101 -41t41 -102zM700 1276q0 -70 -55.5 -124t-126.5 -54q-62 0 -102.5 41t-40.5 102q0 70 55.5 124t126.5 54q61 0 102 -40.5t41 -102.5zM551 -25q-241 0 -375.5 128
t-134.5 327q0 114 43.5 220t119 186.5t185 129t234.5 48.5q242 0 376 -128t134 -329q0 -114 -43.5 -219.5t-119 -186t-185 -128.5t-234.5 -48zM563 254q107 0 177.5 86.5t70.5 202.5q0 90 -53 141t-146 51q-109 0 -178 -86t-69 -203q0 -90 52.5 -141t145.5 -51z" />
    <glyph glyph-name="divide" unicode="&#xf7;" horiz-adv-x="1046" 
d="M1008 596h-928l43 188h928zM471 195q-52 0 -89.5 38t-37.5 91q0 62 45.5 106.5t108.5 44.5q52 0 89.5 -38t37.5 -91q0 -62 -46 -106.5t-108 -44.5zM629 903q-52 0 -89.5 38t-37.5 91q0 62 45 107t108 45q52 0 89.5 -38t37.5 -91q0 -63 -45.5 -107.5t-107.5 -44.5z" />
    <glyph glyph-name="oslash" unicode="&#xf8;" horiz-adv-x="1179" 
d="M137 0h-194l178 164q-80 112 -80 266q0 114 43.5 220t119 186.5t185 129t234.5 48.5q199 0 331 -92l76 67h201l-180 -164q82 -110 82 -268q0 -114 -43.5 -219.5t-119 -186t-185 -128.5t-234.5 -48q-201 0 -336 95zM563 254q107 0 177.5 86.5t70.5 202.5q0 35 -8 59
l-354 -321q47 -27 114 -27zM365 446q0 -30 6 -57l352 320q-50 26 -111 26q-109 0 -178 -86t-69 -203z" />
    <glyph glyph-name="ugrave" unicode="&#xf9;" horiz-adv-x="1212" 
d="M223 989h314l-125 -571q-9 -40 -9 -53q0 -57 40.5 -84t105.5 -27q101 0 203 98l139 637h315l-219 -989h-315l28 121q-72 -67 -147 -106.5t-174 -39.5q-147 0 -232.5 71t-85.5 185q0 27 11 82zM885 1139h-213l-260 295h278z" />
    <glyph glyph-name="uacute" unicode="&#xfa;" horiz-adv-x="1212" 
d="M1214 1434l-391 -295h-217l326 295h282zM223 989h314l-125 -571q-9 -40 -9 -53q0 -57 40.5 -84t105.5 -27q101 0 203 98l139 637h315l-219 -989h-315l28 121q-72 -67 -147 -106.5t-174 -39.5q-147 0 -232.5 71t-85.5 185q0 27 11 82z" />
    <glyph glyph-name="ucircumflex" unicode="&#xfb;" horiz-adv-x="1212" 
d="M1071 1139h-184l-105 166l-172 -166h-190l250 295h276zM223 989h314l-125 -571q-9 -40 -9 -53q0 -57 40.5 -84t105.5 -27q101 0 203 98l139 637h315l-219 -989h-315l28 121q-72 -67 -147 -106.5t-174 -39.5q-147 0 -232.5 71t-85.5 185q0 27 11 82z" />
    <glyph glyph-name="udieresis" unicode="&#xfc;" horiz-adv-x="1212" 
d="M1155 1276q0 -70 -55.5 -124t-126.5 -54q-60 0 -101 41t-41 102q0 70 56 124t127 54q60 0 100.5 -41t40.5 -102zM719 1276q0 -70 -55.5 -124t-126.5 -54q-62 0 -103 41t-41 102q0 70 55.5 124t126.5 54q62 0 103 -41t41 -102zM223 989h314l-125 -571q-9 -40 -9 -53
q0 -57 40.5 -84t105.5 -27q101 0 203 98l139 637h315l-219 -989h-315l28 121q-72 -67 -147 -106.5t-174 -39.5q-147 0 -232.5 71t-85.5 185q0 27 11 82z" />
    <glyph glyph-name="yacute" unicode="&#xfd;" horiz-adv-x="1073" 
d="M-98 -377l100 271q37 -15 102 -15q76 0 113 53l39 64l-168 993h324l82 -627l366 627h342l-698 -1130q-88 -144 -184.5 -202t-235.5 -58q-106 0 -182 24zM1133 1434l-392 -295h-217l326 295h283z" />
    <glyph glyph-name="thorn" unicode="&#xfe;" 
d="M645 -25q-93 0 -172.5 37t-128.5 105l-108 -494h-316l385 1743h316l-109 -492q123 140 283 140q170 0 271 -108.5t101 -303.5q0 -87 -21 -174.5t-64.5 -169t-104 -144.5t-146.5 -101t-186 -38zM592 254q106 0 178 83t72 200q0 89 -55.5 143.5t-137.5 54.5
q-103 0 -188 -92l-66 -299q32 -41 84 -65.5t113 -24.5z" />
    <glyph glyph-name="ydieresis" unicode="&#xff;" horiz-adv-x="1073" 
d="M-98 -377l100 271q37 -15 102 -15q76 0 113 53l39 64l-168 993h324l82 -627l366 627h342l-698 -1130q-88 -144 -184.5 -202t-235.5 -58q-106 0 -182 24zM1075 1276q0 -70 -55.5 -124t-126.5 -54q-60 0 -100.5 41t-40.5 102q0 70 55.5 124t126.5 54q60 0 100.5 -41
t40.5 -102zM639 1276q0 -70 -55.5 -124t-126.5 -54q-62 0 -103 41t-41 102q0 70 56 124t127 54q62 0 102.5 -40.5t40.5 -102.5z" />
    <glyph glyph-name="Amacron" unicode="&#x100;" horiz-adv-x="1427" 
d="M1339 0h-383l-24 197h-539l-108 -197h-418l815 1366h442zM905 504l-61 514l-287 -514h348zM1307 1481h-742l39 174h742z" />
    <glyph glyph-name="amacron" unicode="&#x101;" horiz-adv-x="1210" 
d="M561 1014q94 0 174.5 -37t126.5 -105l27 117h313l-219 -989h-313l24 115q-122 -140 -282 -140q-169 0 -270 108t-101 302q0 111 34 220t96.5 201.5t164 150t225.5 57.5zM616 735q-107 0 -178 -82.5t-71 -201.5q0 -88 54.5 -142.5t137.5 -54.5q107 0 186 92l68 299
q-32 41 -84 65.5t-113 24.5zM1108 1139h-741l39 174h741z" />
    <glyph glyph-name="Abreve" unicode="&#x102;" horiz-adv-x="1427" 
d="M1339 0h-383l-24 197h-539l-108 -197h-418l815 1366h442zM905 504l-61 514l-287 -514h348zM1311 1604q-81 -85 -185 -133t-213 -48q-107 0 -191.5 48.5t-129.5 132.5l153 110q59 -119 199 -119t250 119z" />
    <glyph glyph-name="abreve" unicode="&#x103;" horiz-adv-x="1210" 
d="M561 1014q94 0 174.5 -37t126.5 -105l27 117h313l-219 -989h-313l24 115q-122 -140 -282 -140q-169 0 -270 108t-101 302q0 111 34 220t96.5 201.5t164 150t225.5 57.5zM616 735q-107 0 -178 -82.5t-71 -201.5q0 -88 54.5 -142.5t137.5 -54.5q107 0 186 92l68 299
q-32 41 -84 65.5t-113 24.5zM1116 1262q-81 -85 -184.5 -133t-212.5 -48q-108 0 -192.5 48.5t-129.5 132.5l154 110q59 -119 199 -119q139 0 249 119z" />
    <glyph glyph-name="Aogonek" unicode="&#x104;" horiz-adv-x="1427" 
d="M1307 -195l100 -88q-81 -98 -197 -98q-85 0 -143.5 42t-58.5 120q0 60 27.5 117.5t82.5 101.5h-162l-24 197h-539l-108 -197h-418l815 1366h442l215 -1366q-184 -81 -184 -197q0 -27 18 -43t46 -16q50 0 88 61zM905 504l-61 514l-287 -514h348z" />
    <glyph glyph-name="aogonek" unicode="&#x105;" horiz-adv-x="1210" 
d="M950 -195l101 -88q-81 -98 -197 -98q-85 0 -144 42t-59 120q0 59 28 117t83 102h-92l24 115q-122 -140 -282 -140q-169 0 -270 108t-101 302q0 111 34 220t96.5 201.5t164 150t225.5 57.5q94 0 174.5 -37t126.5 -105l27 117h313l-219 -989q-184 -81 -184 -197
q0 -27 17.5 -43t45.5 -16q50 0 88 61zM616 735q-107 0 -178 -82.5t-71 -201.5q0 -88 54.5 -142.5t137.5 -54.5q107 0 186 92l68 299q-32 41 -84 65.5t-113 24.5z" />
    <glyph glyph-name="Cacute" unicode="&#x106;" horiz-adv-x="1417" 
d="M1473 1786l-392 -295h-217l326 295h283zM766 -25q-144 0 -270.5 44t-220 123t-147.5 196.5t-54 257.5q0 175 64.5 324.5t174.5 251.5t257.5 159.5t310.5 57.5q133 0 243 -35t185.5 -96t125.5 -133t78 -156l-339 -111q-29 102 -112 160.5t-198 58.5q-117 0 -214.5 -62
t-153.5 -167.5t-56 -229.5q0 -142 95 -236.5t251 -94.5q84 0 167.5 44t129.5 113l275 -180q-59 -80 -135 -138.5t-155.5 -90t-154 -46t-147.5 -14.5z" />
    <glyph glyph-name="cacute" unicode="&#x107;" horiz-adv-x="1024" 
d="M1208 1434l-391 -295h-217l326 295h282zM547 -25q-229 0 -366.5 126.5t-137.5 328.5q0 161 77 295t212 211.5t297 77.5q153 0 259 -55t161 -146l-236 -178q-28 45 -76 72.5t-110 27.5q-116 0 -190.5 -82.5t-74.5 -203.5q0 -90 62 -142.5t154 -52.5q54 0 103 24.5t83 63.5
l170 -207q-61 -66 -161.5 -113t-225.5 -47z" />
    <glyph glyph-name="Ccircumflex" unicode="&#x108;" horiz-adv-x="1417" 
d="M1327 1481h-184l-105 166l-172 -166h-190l250 295h276zM766 -25q-144 0 -270.5 44t-220 123t-147.5 196.5t-54 257.5q0 175 64.5 324.5t174.5 251.5t257.5 159.5t310.5 57.5q133 0 243 -35t185.5 -96t125.5 -133t78 -156l-339 -111q-29 102 -112 160.5t-198 58.5
q-117 0 -214.5 -62t-153.5 -167.5t-56 -229.5q0 -142 95 -236.5t251 -94.5q84 0 167.5 44t129.5 113l275 -180q-59 -80 -135 -138.5t-155.5 -90t-154 -46t-147.5 -14.5z" />
    <glyph glyph-name="ccircumflex" unicode="&#x109;" horiz-adv-x="1024" 
d="M1069 1139h-184l-105 166l-172 -166h-190l250 295h276zM547 -25q-229 0 -366.5 126.5t-137.5 328.5q0 161 77 295t212 211.5t297 77.5q153 0 259 -55t161 -146l-236 -178q-28 45 -76 72.5t-110 27.5q-116 0 -190.5 -82.5t-74.5 -203.5q0 -90 62 -142.5t154 -52.5
q54 0 103 24.5t83 63.5l170 -207q-61 -66 -161.5 -113t-225.5 -47z" />
    <glyph glyph-name="Cdotaccent" unicode="&#x10a;" horiz-adv-x="1417" 
d="M766 -25q-144 0 -270.5 44t-220 123t-147.5 196.5t-54 257.5q0 175 64.5 324.5t174.5 251.5t257.5 159.5t310.5 57.5q133 0 243 -35t185.5 -96t125.5 -133t78 -156l-339 -111q-29 102 -112 160.5t-198 58.5q-117 0 -214.5 -62t-153.5 -167.5t-56 -229.5q0 -142 95 -236.5
t251 -94.5q84 0 167.5 44t129.5 113l275 -180q-59 -80 -135 -138.5t-155.5 -90t-154 -46t-147.5 -14.5zM1192 1618q0 -70 -55.5 -124t-126.5 -54q-62 0 -103 41t-41 102q0 70 56 124t127 54q61 0 102 -40.5t41 -102.5z" />
    <glyph glyph-name="cdotaccent" unicode="&#x10b;" horiz-adv-x="1024" 
d="M547 -25q-229 0 -366.5 126.5t-137.5 328.5q0 161 77 295t212 211.5t297 77.5q153 0 259 -55t161 -146l-236 -178q-28 45 -76 72.5t-110 27.5q-116 0 -190.5 -82.5t-74.5 -203.5q0 -90 62 -142.5t154 -52.5q54 0 103 24.5t83 63.5l170 -207q-61 -66 -161.5 -113
t-225.5 -47zM934 1276q0 -70 -55.5 -124t-126.5 -54q-62 0 -103 41t-41 102q0 70 56 124t127 54q61 0 102 -40.5t41 -102.5z" />
    <glyph glyph-name="Ccaron" unicode="&#x10c;" horiz-adv-x="1417" 
d="M1145 1481h-277l-125 295h183l104 -166l172 166h193zM766 -25q-144 0 -270.5 44t-220 123t-147.5 196.5t-54 257.5q0 175 64.5 324.5t174.5 251.5t257.5 159.5t310.5 57.5q133 0 243 -35t185.5 -96t125.5 -133t78 -156l-339 -111q-29 102 -112 160.5t-198 58.5
q-117 0 -214.5 -62t-153.5 -167.5t-56 -229.5q0 -142 95 -236.5t251 -94.5q84 0 167.5 44t129.5 113l275 -180q-59 -80 -135 -138.5t-155.5 -90t-154 -46t-147.5 -14.5z" />
    <glyph glyph-name="ccaron" unicode="&#x10d;" horiz-adv-x="1024" 
d="M887 1139h-277l-125 295h183l104 -166l172 166h193zM547 -25q-229 0 -366.5 126.5t-137.5 328.5q0 161 77 295t212 211.5t297 77.5q153 0 259 -55t161 -146l-236 -178q-28 45 -76 72.5t-110 27.5q-116 0 -190.5 -82.5t-74.5 -203.5q0 -90 62 -142.5t154 -52.5
q54 0 103 24.5t83 63.5l170 -207q-61 -66 -161.5 -113t-225.5 -47z" />
    <glyph glyph-name="Dcaron" unicode="&#x10e;" horiz-adv-x="1488" 
d="M1112 1481h-276l-125 295h182l104 -166l172 166h193zM584 0h-572l301 1366h564q114 0 222.5 -42.5t194 -117.5t137.5 -187t52 -241q0 -111 -28.5 -216.5t-96.5 -209t-168.5 -180.5t-256.5 -124.5t-349 -47.5zM639 307h10q107 0 196.5 36t148.5 97t91.5 142t32.5 172
q0 129 -86 217t-219 88h-215l-166 -752h207z" />
    <glyph glyph-name="dcaron" unicode="&#x10f;" horiz-adv-x="1460" 
d="M1630 1245q0 -99 -72.5 -196t-183.5 -152l-84 84q51 24 99.5 61t68.5 76q-4 -2 -18 -2q-47 0 -79 31.5t-32 87.5q0 62 50 109t112 47q58 0 98.5 -38.5t40.5 -107.5zM561 1014q94 0 174.5 -37t126.5 -105l111 494h313l-303 -1366h-313l24 115q-122 -140 -282 -140
q-169 0 -270 108t-101 302q0 111 34 220t96.5 201.5t164 150t225.5 57.5zM616 735q-107 0 -178 -82.5t-71 -201.5q0 -88 54.5 -142.5t137.5 -54.5q107 0 186 92l68 299q-32 41 -84 65.5t-113 24.5z" />
    <glyph glyph-name="Dcroat" unicode="&#x110;" horiz-adv-x="1536" 
d="M631 0h-572l119 543h-153l61 280h154l120 543h564q114 0 222.5 -42.5t194 -117.5t137.5 -187t52 -241q0 -111 -28.5 -216.5t-96.5 -209t-168.5 -180.5t-256.5 -124.5t-349 -47.5zM702 307q140 1 247 63t161.5 162.5t54.5 221.5q0 129 -86 217t-219 88h-215l-53 -236h285
l-62 -280h-285l-51 -236h223z" />
    <glyph glyph-name="dcroat" unicode="&#x111;" horiz-adv-x="1220" 
d="M561 1014q94 0 174.5 -37t126.5 -105l45 201h-291l37 174h293l27 119h313l-26 -119h102l-37 -174h-104l-238 -1073h-313l24 115q-122 -140 -282 -140q-169 0 -270 108t-101 302q0 111 34 220t96.5 201.5t164 150t225.5 57.5zM616 735q-107 0 -178 -82.5t-71 -201.5
q0 -88 54.5 -142.5t137.5 -54.5q107 0 186 92l68 299q-32 41 -84 65.5t-113 24.5z" />
    <glyph glyph-name="Emacron" unicode="&#x112;" 
d="M1014 0h-1002l301 1366h1002l-70 -307h-647l-47 -213h635l-68 -307h-635l-51 -232h649zM1210 1481h-741l39 174h741z" />
    <glyph glyph-name="emacron" unicode="&#x113;" horiz-adv-x="1122" 
d="M569 -25q-240 0 -383 119t-143 330q0 158 73.5 292.5t207.5 216t299 81.5q127 0 228.5 -50.5t163.5 -153.5t62 -243q0 -85 -20 -172h-701v-12q0 -49 64.5 -106.5t173.5 -57.5q63 0 127.5 17t103.5 45l97 -209q-69 -48 -163.5 -72.5t-189.5 -24.5zM387 600h410q2 2 2 14
q0 57 -49 106.5t-142 49.5q-83 0 -145.5 -53.5t-75.5 -116.5zM1102 1139h-742l39 174h742z" />
    <glyph glyph-name="Ebreve" unicode="&#x114;" 
d="M1014 0h-1002l301 1366h1002l-70 -307h-647l-47 -213h635l-68 -307h-635l-51 -232h649zM1221 1604q-81 -85 -185 -133t-213 -48q-107 0 -191.5 48.5t-129.5 132.5l153 110q59 -119 199 -119t250 119z" />
    <glyph glyph-name="ebreve" unicode="&#x115;" horiz-adv-x="1122" 
d="M569 -25q-240 0 -383 119t-143 330q0 158 73.5 292.5t207.5 216t299 81.5q127 0 228.5 -50.5t163.5 -153.5t62 -243q0 -85 -20 -172h-701v-12q0 -49 64.5 -106.5t173.5 -57.5q63 0 127.5 17t103.5 45l97 -209q-69 -48 -163.5 -72.5t-189.5 -24.5zM387 600h410q2 2 2 14
q0 57 -49 106.5t-142 49.5q-83 0 -145.5 -53.5t-75.5 -116.5zM1112 1262q-81 -85 -184.5 -133t-212.5 -48q-108 0 -192.5 48.5t-129.5 132.5l154 110q59 -119 198 -119q140 0 250 119z" />
    <glyph glyph-name="Edotaccent" unicode="&#x116;" 
d="M1014 0h-1002l301 1366h1002l-70 -307h-647l-47 -213h635l-68 -307h-635l-51 -232h649zM1032 1632q0 -70 -55.5 -124t-126.5 -54q-62 0 -102.5 41t-40.5 102q0 70 55.5 124.5t126.5 54.5q61 0 102 -41t41 -103z" />
    <glyph glyph-name="edotaccent" unicode="&#x117;" horiz-adv-x="1122" 
d="M569 -25q-240 0 -383 119t-143 330q0 158 73.5 292.5t207.5 216t299 81.5q127 0 228.5 -50.5t163.5 -153.5t62 -243q0 -85 -20 -172h-701v-12q0 -49 64.5 -106.5t173.5 -57.5q63 0 127.5 17t103.5 45l97 -209q-69 -48 -163.5 -72.5t-189.5 -24.5zM387 600h410q2 2 2 14
q0 57 -49 106.5t-142 49.5q-83 0 -145.5 -53.5t-75.5 -116.5zM924 1276q0 -70 -56 -124t-127 -54q-61 0 -102 41t-41 102q0 70 55.5 124t126.5 54q62 0 103 -41t41 -102z" />
    <glyph glyph-name="Eogonek" unicode="&#x118;" 
d="M1014 0q-90 -40 -137.5 -90.5t-47.5 -106.5q0 -27 18 -43t46 -16q50 0 88 61l100 -88q-81 -98 -196 -98q-85 0 -144 42t-59 120q0 59 28 117t83 102h-781l301 1366h1002l-70 -307h-647l-47 -213h635l-68 -307h-635l-51 -232h649z" />
    <glyph glyph-name="eogonek" unicode="&#x119;" horiz-adv-x="1122" 
d="M725 -195l100 -88q-81 -98 -196 -98q-85 0 -144 42t-59 120q0 107 86 196q-216 14 -342.5 131.5t-126.5 315.5q0 158 73.5 292.5t207.5 216t299 81.5q127 0 228.5 -50.5t163.5 -153.5t62 -243q0 -85 -20 -172h-701v-12q0 -49 64.5 -106.5t173.5 -57.5q63 0 127.5 17
t103.5 45l97 -209q-64 -45 -164 -72q-90 -40 -137.5 -90.5t-47.5 -106.5q0 -27 18 -43t46 -16q50 0 88 61zM387 600h410q2 2 2 14q0 57 -49 106.5t-142 49.5q-83 0 -145.5 -53.5t-75.5 -116.5z" />
    <glyph glyph-name="Ecaron" unicode="&#x11a;" 
d="M983 1481h-276l-125 295h182l104 -166l172 166h193zM1014 0h-1002l301 1366h1002l-70 -307h-647l-47 -213h635l-68 -307h-635l-51 -232h649z" />
    <glyph glyph-name="ecaron" unicode="&#x11b;" horiz-adv-x="1122" 
d="M872 1139h-276l-125 295h182l105 -166l172 166h192zM569 -25q-240 0 -383 119t-143 330q0 158 73.5 292.5t207.5 216t299 81.5q127 0 228.5 -50.5t163.5 -153.5t62 -243q0 -85 -20 -172h-701v-12q0 -49 64.5 -106.5t173.5 -57.5q63 0 127.5 17t103.5 45l97 -209
q-69 -48 -163.5 -72.5t-189.5 -24.5zM387 600h410q2 2 2 14q0 57 -49 106.5t-142 49.5q-83 0 -145.5 -53.5t-75.5 -116.5z" />
    <glyph glyph-name="Gcircumflex" unicode="&#x11c;" horiz-adv-x="1480" 
d="M1346 1481h-185l-104 166l-172 -166h-191l250 295h277zM766 -25q-141 0 -266.5 43t-220 121t-150 196.5t-55.5 260.5q0 168 62 314.5t172 252t267 166t340 60.5q111 0 208.5 -31t168 -83.5t120 -114t79.5 -130.5l-324 -135q-27 76 -112 129t-191 53q-175 0 -299.5 -133.5
t-124.5 -325.5q0 -139 93.5 -235t252.5 -96q124 0 230 82l22 108h-307l70 307h657l-121 -544q-99 -126 -247 -195.5t-324 -69.5z" />
    <glyph glyph-name="gcircumflex" unicode="&#x11d;" horiz-adv-x="1208" 
d="M1051 1120h-185l-104 166l-172 -166h-191l250 295h277zM434 -401q-321 0 -495 174l178 209q45 -59 132 -92t179 -33q205 0 258 231l16 72q-56 -69 -130 -106.5t-156 -37.5q-76 0 -141.5 22.5t-119 68.5t-84 125t-30.5 184q0 89 22 175.5t65.5 162.5t104 134t144 92
t178.5 34q85 0 167.5 -38t135.5 -104l29 117h313l-201 -901q-25 -116 -72.5 -204.5t-103 -141.5t-124.5 -86t-132.5 -45t-132.5 -12zM565 295q105 0 187 92l55 248q-65 100 -209 100q-100 0 -165.5 -71.5t-65.5 -186.5q0 -80 55.5 -131t142.5 -51z" />
    <glyph glyph-name="Gbreve" unicode="&#x11e;" horiz-adv-x="1480" 
d="M766 -25q-141 0 -266.5 43t-220 121t-150 196.5t-55.5 260.5q0 168 62 314.5t172 252t267 166t340 60.5q111 0 208.5 -31t168 -83.5t120 -114t79.5 -130.5l-324 -135q-27 76 -112 129t-191 53q-175 0 -299.5 -133.5t-124.5 -325.5q0 -139 93.5 -235t252.5 -96
q124 0 230 82l22 108h-307l70 307h657l-121 -544q-99 -126 -247 -195.5t-324 -69.5zM1401 1604q-81 -85 -184.5 -133t-212.5 -48q-108 0 -192.5 48.5t-129.5 132.5l154 110q60 -119 198 -119q140 0 250 119z" />
    <glyph glyph-name="gbreve" unicode="&#x11f;" horiz-adv-x="1208" 
d="M434 -401q-321 0 -495 174l178 209q45 -59 132 -92t179 -33q205 0 258 231l16 72q-56 -69 -130 -106.5t-156 -37.5q-76 0 -141.5 22.5t-119 68.5t-84 125t-30.5 184q0 89 22 175.5t65.5 162.5t104 134t144 92t178.5 34q85 0 167.5 -38t135.5 -104l29 117h313l-201 -901
q-25 -116 -72.5 -204.5t-103 -141.5t-124.5 -86t-132.5 -45t-132.5 -12zM565 295q105 0 187 92l55 248q-65 100 -209 100q-100 0 -165.5 -71.5t-65.5 -186.5q0 -80 55.5 -131t142.5 -51zM1108 1262q-81 -85 -184.5 -133t-212.5 -48q-108 0 -192.5 48.5t-129.5 132.5l154 110
q59 -119 198 -119q140 0 250 119z" />
    <glyph glyph-name="Gdotaccent" unicode="&#x120;" horiz-adv-x="1480" 
d="M766 -25q-141 0 -266.5 43t-220 121t-150 196.5t-55.5 260.5q0 168 62 314.5t172 252t267 166t340 60.5q111 0 208.5 -31t168 -83.5t120 -114t79.5 -130.5l-324 -135q-27 76 -112 129t-191 53q-175 0 -299.5 -133.5t-124.5 -325.5q0 -139 93.5 -235t252.5 -96
q124 0 230 82l22 108h-307l70 307h657l-121 -544q-99 -126 -247 -195.5t-324 -69.5zM1208 1618q0 -70 -55.5 -124t-126.5 -54q-62 0 -102.5 41t-40.5 102q0 70 55.5 124t126.5 54q61 0 102 -40.5t41 -102.5z" />
    <glyph glyph-name="gdotaccent" unicode="&#x121;" horiz-adv-x="1208" 
d="M434 -401q-321 0 -495 174l178 209q45 -59 132 -92t179 -33q205 0 258 231l16 72q-56 -69 -130 -106.5t-156 -37.5q-76 0 -141.5 22.5t-119 68.5t-84 125t-30.5 184q0 89 22 175.5t65.5 162.5t104 134t144 92t178.5 34q85 0 167.5 -38t135.5 -104l29 117h313l-201 -901
q-25 -116 -72.5 -204.5t-103 -141.5t-124.5 -86t-132.5 -45t-132.5 -12zM565 295q105 0 187 92l55 248q-65 100 -209 100q-100 0 -165.5 -71.5t-65.5 -186.5q0 -80 55.5 -131t142.5 -51zM918 1276q0 -70 -56 -124t-127 -54q-61 0 -102 41t-41 102q0 70 55.5 124t126.5 54
q62 0 103 -41t41 -102z" />
    <glyph glyph-name="Gcommaaccent" unicode="&#x122;" horiz-adv-x="1480" 
d="M780 -246q0 -99 -72.5 -196t-183.5 -152l-84 84q51 24 99.5 61t68.5 76q-4 -2 -18 -2q-47 0 -79 31.5t-32 87.5q0 62 50 109t112 47q58 0 98.5 -38.5t40.5 -107.5zM766 -25q-141 0 -266.5 43t-220 121t-150 196.5t-55.5 260.5q0 168 62 314.5t172 252t267 166t340 60.5
q111 0 208.5 -31t168 -83.5t120 -114t79.5 -130.5l-324 -135q-27 76 -112 129t-191 53q-175 0 -299.5 -133.5t-124.5 -325.5q0 -139 93.5 -235t252.5 -96q124 0 230 82l22 108h-307l70 307h657l-121 -544q-99 -126 -247 -195.5t-324 -69.5z" />
    <glyph glyph-name="gcommaaccent" unicode="&#x123;" horiz-adv-x="1208" 
d="M604 1247q0 101 74.5 201t187.5 154l84 -89q-51 -21 -101 -58.5t-71 -78.5h19q49 0 81.5 -31t32.5 -88q0 -65 -50 -112t-113 -47q-60 0 -102 40t-42 109zM434 -401q-321 0 -495 174l178 209q45 -59 132 -92t179 -33q205 0 258 231l16 72q-56 -69 -130 -106.5t-156 -37.5
q-76 0 -141.5 22.5t-119 68.5t-84 125t-30.5 184q0 89 22 175.5t65.5 162.5t104 134t144 92t178.5 34q85 0 167.5 -38t135.5 -104l29 117h313l-201 -901q-25 -116 -72.5 -204.5t-103 -141.5t-124.5 -86t-132.5 -45t-132.5 -12zM565 295q105 0 187 92l55 248
q-65 100 -209 100q-100 0 -165.5 -71.5t-65.5 -186.5q0 -80 55.5 -131t142.5 -51z" />
    <glyph glyph-name="Hcircumflex" unicode="&#x124;" horiz-adv-x="1517" 
d="M1300 1481h-184l-104 166l-172 -166h-191l250 295h277zM1284 0h-352l121 549h-568l-120 -549h-353l301 1366h353l-113 -510h567l113 510h352z" />
    <glyph glyph-name="hcircumflex" unicode="&#x125;" horiz-adv-x="1216" 
d="M1153 1481h-184l-105 166l-172 -166h-190l250 295h276zM991 0h-315l121 561q10 45 10 66q0 55 -41 81.5t-109 26.5q-100 0 -196 -96l-139 -639h-316l301 1366h316l-113 -498q72 67 147 106.5t174 39.5q147 0 232.5 -71t85.5 -185q0 -32 -10 -82z" />
    <glyph glyph-name="Hbar" unicode="&#x126;" horiz-adv-x="1531" 
d="M1290 0h-352l121 549h-567l-121 -549h-353l226 1026h-121l39 174h121l36 166h353l-37 -166h567l37 166h352l-37 -166h121l-39 -174h-120zM559 856h567l37 170h-567z" />
    <glyph glyph-name="hbar" unicode="&#x127;" horiz-adv-x="1222" 
d="M997 0h-315l121 561q10 45 10 66q0 56 -40.5 82t-108.5 26q-101 0 -197 -96l-139 -639h-316l236 1075h-107l39 172h107l26 119h316l-27 -119h287l-39 -172h-287l-47 -207q72 66 147.5 106t174.5 40q147 0 232 -71t85 -185q0 -32 -10 -82z" />
    <glyph glyph-name="Itilde" unicode="&#x128;" horiz-adv-x="598" 
d="M365 0h-353l301 1366h353zM662 1477q-48 0 -86.5 17.5t-59.5 38.5t-48.5 38.5t-55.5 17.5q-54 0 -74 -100h-162q27 141 85 207.5t169 66.5q48 0 86.5 -17.5t60 -38.5t49 -38.5t54.5 -17.5q53 0 76 100h162q-31 -141 -88.5 -207.5t-167.5 -66.5z" />
    <glyph glyph-name="itilde" unicode="&#x129;" horiz-adv-x="544" 
d="M319 0h-315l219 989h316zM561 1135q-48 0 -86.5 17.5t-59.5 38.5t-48.5 38.5t-55.5 17.5q-53 0 -73 -100h-162q27 141 85 207.5t169 66.5q48 0 86.5 -17.5t60 -38.5t49 -38.5t54.5 -17.5q52 0 75 100h162q-31 -141 -88.5 -207.5t-167.5 -66.5z" />
    <glyph glyph-name="Imacron" unicode="&#x12a;" horiz-adv-x="598" 
d="M365 0h-353l301 1366h353zM887 1481h-742l39 174h742z" />
    <glyph glyph-name="imacron" unicode="&#x12b;" horiz-adv-x="544" 
d="M319 0h-315l219 989h316zM784 1139h-741l39 174h741z" />
    <glyph glyph-name="Ibreve" unicode="&#x12c;" horiz-adv-x="598" 
d="M365 0h-353l301 1366h353zM895 1604q-81 -85 -184.5 -133t-212.5 -48q-108 0 -192.5 48.5t-129.5 132.5l154 110q60 -119 198 -119q140 0 250 119z" />
    <glyph glyph-name="ibreve" unicode="&#x12d;" horiz-adv-x="544" 
d="M319 0h-315l219 989h316zM797 1262q-81 -85 -185 -133t-213 -48q-107 0 -191.5 48.5t-129.5 132.5l153 110q59 -119 199 -119t250 119z" />
    <glyph glyph-name="Iogonek" unicode="&#x12e;" horiz-adv-x="598" 
d="M334 -195l100 -88q-81 -98 -196 -98q-85 0 -144 42t-59 120q0 60 27.5 117.5t82.5 101.5h-133l301 1366h353l-301 -1366h2q-90 -40 -137.5 -90.5t-47.5 -106.5q0 -27 18 -43t46 -16q50 0 88 61z" />
    <glyph glyph-name="iogonek" unicode="&#x12f;" horiz-adv-x="544" 
d="M287 -195l100 -88q-81 -98 -197 -98q-85 0 -143.5 42t-58.5 120q0 60 27.5 117.5t82.5 101.5h-94l219 989h316l-220 -989q-184 -81 -184 -197q0 -27 18 -43t46 -16q50 0 88 61zM420 1077q-71 0 -117.5 46t-46.5 110q0 93 64.5 150t140.5 57q70 0 116 -45t46 -109
q0 -93 -64 -151t-139 -58z" />
    <glyph glyph-name="Idotaccent" unicode="&#x130;" horiz-adv-x="598" 
d="M365 0h-353l301 1366h353zM705 1618q0 -70 -56 -124t-127 -54q-62 0 -102.5 41t-40.5 102q0 70 55.5 124t126.5 54q62 0 103 -41t41 -102z" />
    <glyph glyph-name="dotlessi" unicode="&#x131;" horiz-adv-x="544" 
d="M319 0h-315l219 989h316z" />
    <glyph glyph-name="IJ" unicode="&#x132;" horiz-adv-x="1605" 
d="M365 0h-353l301 1366h353zM942 -25q-120 0 -231.5 37t-180.5 109l187 264q32 -43 85.5 -70.5t112.5 -27.5q84 0 137 48.5t72 137.5l197 893h352l-198 -897q-56 -255 -183 -374.5t-350 -119.5z" />
    <glyph glyph-name="ij" unicode="&#x133;" horiz-adv-x="1091" 
d="M420 1077q-71 0 -117.5 46t-46.5 110q0 93 64.5 150t140.5 57q70 0 116 -45t46 -109q0 -93 -64 -151t-139 -58zM319 0h-315l219 989h316zM451 -401q-200 0 -295 82l127 225q43 -49 120 -49q111 0 146 151l219 981h315l-219 -981q-41 -194 -139 -301.5t-274 -107.5z
M965 1077q-71 0 -117.5 46t-46.5 110q0 93 64.5 150t140.5 57q69 0 115 -45t46 -109q0 -93 -63.5 -151t-138.5 -58z" />
    <glyph glyph-name="Jcircumflex" unicode="&#x134;" horiz-adv-x="1007" 
d="M1249 1481h-184l-104 166l-173 -166h-190l250 295h276zM344 -25q-120 0 -231.5 37t-180.5 109l187 264q32 -43 85.5 -70.5t112.5 -27.5q84 0 137 48.5t72 137.5l197 893h352l-198 -897q-56 -255 -183 -374.5t-350 -119.5z" />
    <glyph glyph-name="jcircumflex" unicode="&#x135;" horiz-adv-x="544" 
d="M741 1139h-184l-104 166l-172 -166h-191l250 295h276zM-94 -401q-200 0 -295 82l127 225q43 -49 121 -49q110 0 145 151l219 981h316l-220 -981q-41 -194 -139 -301.5t-274 -107.5z" />
    <glyph glyph-name="Kcommaaccent" unicode="&#x136;" horiz-adv-x="1339" 
d="M676 -246q0 -99 -72.5 -196t-183.5 -152l-84 84q51 24 99.5 61t68.5 76q-4 -2 -19 -2q-47 0 -78.5 31.5t-31.5 87.5q0 62 50 109t112 47q58 0 98.5 -38.5t40.5 -107.5zM1247 0h-413l-254 526l-127 -127l-88 -399h-353l301 1366h353l-117 -535l518 535h453l-670 -639z" />
    <glyph glyph-name="kcommaaccent" unicode="&#x137;" horiz-adv-x="1118" 
d="M557 -246q0 -99 -72.5 -196t-183.5 -152l-84 84q51 24 99.5 61t68.5 76q-4 -2 -18 -2q-47 0 -79 31.5t-32 87.5q0 62 50 109t112 47q58 0 98.5 -38.5t40.5 -107.5zM1020 0h-379l-143 356l-127 -118l-52 -238h-315l301 1366h316l-168 -756l374 379h394l-465 -450z" />
    <glyph glyph-name="kgreenlandic" unicode="&#x138;" horiz-adv-x="1118" 
d="M1020 0h-379l-143 356l-127 -118l-52 -238h-315l219 989h316l-86 -379l374 379h394l-465 -450z" />
    <glyph glyph-name="Lacute" unicode="&#x139;" horiz-adv-x="1083" 
d="M1255 1776l-391 -295h-217l326 295h282zM913 0h-901l301 1366h353l-234 -1059h549z" />
    <glyph glyph-name="lacute" unicode="&#x13a;" horiz-adv-x="544" 
d="M956 1776l-391 -295h-217l326 295h282zM319 0h-315l301 1366h316z" />
    <glyph glyph-name="Lcommaaccent" unicode="&#x13b;" horiz-adv-x="1083" 
d="M551 -246q0 -99 -72.5 -196t-183.5 -152l-84 84q51 24 99.5 61t68.5 76q-4 -2 -19 -2q-47 0 -78.5 31.5t-31.5 87.5q0 62 50 109t112 47q58 0 98.5 -38.5t40.5 -107.5zM913 0h-901l301 1366h353l-234 -1059h549z" />
    <glyph glyph-name="lcommaaccent" unicode="&#x13c;" horiz-adv-x="544" 
d="M254 -246q0 -99 -72.5 -196t-183.5 -152l-84 84q51 24 99.5 61t68.5 76q-4 -2 -19 -2q-47 0 -78.5 31.5t-31.5 87.5q0 62 50 109t112 47q58 0 98.5 -38.5t40.5 -107.5zM319 0h-315l301 1366h316z" />
    <glyph glyph-name="Lcaron" unicode="&#x13d;" horiz-adv-x="1083" 
d="M1087 1249q0 -99 -72.5 -196t-183.5 -152l-83 84q50 24 98.5 61t68.5 76q-4 -2 -18 -2q-47 0 -79 31.5t-32 87.5q0 62 50 109t112 47q58 0 98.5 -38.5t40.5 -107.5zM913 0h-901l301 1366h353l-234 -1059h549z" />
    <glyph glyph-name="lcaron" unicode="&#x13e;" horiz-adv-x="790" 
d="M985 1249q0 -99 -72.5 -196t-183.5 -152l-84 84q51 24 99.5 61t68.5 76q-4 -2 -18 -2q-47 0 -79 31.5t-32 87.5q0 62 50 109t112 47q58 0 98.5 -38.5t40.5 -107.5zM319 0h-315l301 1366h316z" />
    <glyph glyph-name="Ldot" unicode="&#x13f;" horiz-adv-x="1167" 
d="M913 0h-901l301 1366h353l-234 -1059h549zM911 510q-73 0 -124.5 52t-51.5 126q0 85 63 147t148 62q73 0 123.5 -52.5t50.5 -125.5q0 -86 -62 -147.5t-147 -61.5z" />
    <glyph glyph-name="ldot" unicode="&#x140;" horiz-adv-x="866" 
d="M319 0h-315l301 1366h316zM688 309q-73 0 -124.5 52t-51.5 126q0 85 63 147t148 62q73 0 123.5 -52.5t50.5 -125.5q0 -86 -62 -147.5t-147 -61.5z" />
    <glyph glyph-name="Lslash" unicode="&#x141;" horiz-adv-x="1114" 
d="M-8 362l61 283l146 76l143 645h352l-98 -440l154 78l-62 -285l-153 -80l-74 -332h549l-68 -307h-901l96 436z" />
    <glyph glyph-name="lslash" unicode="&#x142;" horiz-adv-x="653" 
d="M-10 393l51 223l172 89l145 661h316l-107 -481l176 90l-51 -223l-174 -88l-145 -664h-316l107 481z" />
    <glyph glyph-name="Nacute" unicode="&#x143;" horiz-adv-x="1515" 
d="M1442 1776l-391 -295h-217l325 295h283zM1282 0h-340l-397 815l-180 -815h-353l301 1366h363l381 -776l172 776h354z" />
    <glyph glyph-name="nacute" unicode="&#x144;" horiz-adv-x="1214" 
d="M1210 1434l-391 -295h-217l326 295h282zM989 0h-315l123 555q10 45 10 72q0 55 -38.5 81.5t-96.5 26.5q-115 0 -211 -96l-142 -639h-315l219 989h316l-29 -121q72 67 147 106.5t174 39.5q147 0 232.5 -71t85.5 -185q0 -32 -10 -82z" />
    <glyph glyph-name="Ncommaaccent" unicode="&#x145;" horiz-adv-x="1515" 
d="M741 -246q0 -99 -72.5 -196t-183.5 -152l-84 84q51 24 99.5 61t68.5 76q-4 -2 -18 -2q-47 0 -79 31.5t-32 87.5q0 62 50 109t112 47q58 0 98.5 -38.5t40.5 -107.5zM1282 0h-340l-397 815l-180 -815h-353l301 1366h363l381 -776l172 776h354z" />
    <glyph glyph-name="ncommaaccent" unicode="&#x146;" horiz-adv-x="1214" 
d="M586 -246q0 -99 -72.5 -196t-183.5 -152l-84 84q51 24 99.5 61t68.5 76q-4 -2 -19 -2q-47 0 -78.5 31.5t-31.5 87.5q0 62 49.5 109t111.5 47q58 0 99 -39t41 -107zM989 0h-315l123 555q10 45 10 72q0 55 -38.5 81.5t-96.5 26.5q-115 0 -211 -96l-142 -639h-315l219 989
h316l-29 -121q72 67 147 106.5t174 39.5q147 0 232.5 -71t85.5 -185q0 -32 -10 -82z" />
    <glyph glyph-name="Ncaron" unicode="&#x147;" horiz-adv-x="1515" 
d="M1118 1481h-276l-125 295h182l105 -166l172 166h192zM1282 0h-340l-397 815l-180 -815h-353l301 1366h363l381 -776l172 776h354z" />
    <glyph glyph-name="ncaron" unicode="&#x148;" horiz-adv-x="1214" 
d="M889 1139h-277l-125 295h183l104 -166l172 166h193zM989 0h-315l123 555q10 45 10 72q0 55 -38.5 81.5t-96.5 26.5q-115 0 -211 -96l-142 -639h-315l219 989h316l-29 -121q72 67 147 106.5t174 39.5q147 0 232.5 -71t85.5 -185q0 -32 -10 -82z" />
    <glyph glyph-name="napostrophe" unicode="&#x149;" horiz-adv-x="1214" 
d="M575 1442q0 -99 -72.5 -196t-183.5 -152l-83 84q50 24 98.5 61t68.5 76q-4 -2 -18 -2q-47 0 -79 31.5t-32 87.5q0 62 50 108.5t112 46.5q58 0 98.5 -38.5t40.5 -106.5zM989 0h-315l123 555q10 45 10 72q0 55 -38.5 81.5t-96.5 26.5q-115 0 -211 -96l-142 -639h-315
l219 989h316l-29 -121q72 67 147 106.5t174 39.5q147 0 232.5 -71t85.5 -185q0 -32 -10 -82z" />
    <glyph glyph-name="Eng" unicode="&#x14a;" horiz-adv-x="1515" 
d="M766 -401q-124 0 -233.5 37t-176.5 108l179 233q30 -43 84.5 -71.5t113.5 -28.5q70 0 121 38t76 108l-385 792l-180 -815h-353l301 1366h363l381 -776l172 776h354l-285 -1276q-57 -256 -186 -373.5t-346 -117.5z" />
    <glyph glyph-name="eng" unicode="&#x14b;" horiz-adv-x="1214" 
d="M1139 676l-150 -668q-20 -93 -52 -165t-80.5 -128t-119.5 -86t-162 -30q-199 0 -294 82l131 245q49 -49 120 -49q55 0 91.5 34.5t50.5 96.5l127 565q6 27 6 50q0 57 -34.5 84.5t-84.5 27.5q-131 0 -227 -96l-142 -639h-315l219 989h316l-29 -121q72 67 147 106.5
t174 39.5q141 0 229.5 -68.5t88.5 -187.5q0 -34 -10 -82z" />
    <glyph glyph-name="Omacron" unicode="&#x14c;" horiz-adv-x="1568" 
d="M1372 1481h-741l39 174h741zM766 -25q-195 0 -352 76t-248.5 218.5t-91.5 326.5q0 163 61.5 309t168 252.5t257 169t320.5 62.5q195 0 352 -76t248.5 -217.5t91.5 -323.5q0 -164 -61.5 -311t-168 -254t-257 -169.5t-320.5 -62.5zM786 287q178 0 299 133.5t121 324.5
q0 149 -96.5 240.5t-249.5 91.5q-178 0 -299 -134t-121 -325q0 -148 96.5 -239.5t249.5 -91.5z" />
    <glyph glyph-name="omacron" unicode="&#x14d;" horiz-adv-x="1179" 
d="M1102 1139h-742l39 174h742zM551 -25q-241 0 -375.5 128t-134.5 327q0 114 43.5 220t119 186.5t185 129t234.5 48.5q242 0 376 -128t134 -329q0 -114 -43.5 -219.5t-119 -186t-185 -128.5t-234.5 -48zM563 254q107 0 177.5 86.5t70.5 202.5q0 90 -53 141t-146 51
q-109 0 -178 -86t-69 -203q0 -90 52.5 -141t145.5 -51z" />
    <glyph glyph-name="Obreve" unicode="&#x14e;" horiz-adv-x="1568" 
d="M766 -25q-195 0 -352 76t-248.5 218.5t-91.5 326.5q0 163 61.5 309t168 252.5t257 169t320.5 62.5q195 0 352 -76t248.5 -217.5t91.5 -323.5q0 -164 -61.5 -311t-168 -254t-257 -169.5t-320.5 -62.5zM786 287q178 0 299 133.5t121 324.5q0 149 -96.5 240.5t-249.5 91.5
q-178 0 -299 -134t-121 -325q0 -148 96.5 -239.5t249.5 -91.5zM1380 1604q-81 -85 -184.5 -133t-212.5 -48q-107 0 -191.5 48.5t-129.5 132.5l153 110q59 -119 199 -119t250 119z" />
    <glyph glyph-name="obreve" unicode="&#x14f;" horiz-adv-x="1179" 
d="M551 -25q-241 0 -375.5 128t-134.5 327q0 114 43.5 220t119 186.5t185 129t234.5 48.5q242 0 376 -128t134 -329q0 -114 -43.5 -219.5t-119 -186t-185 -128.5t-234.5 -48zM563 254q107 0 177.5 86.5t70.5 202.5q0 90 -53 141t-146 51q-109 0 -178 -86t-69 -203
q0 -90 52.5 -141t145.5 -51zM1110 1262q-81 -85 -184.5 -133t-212.5 -48q-108 0 -192.5 48.5t-129.5 132.5l154 110q59 -119 198 -119q140 0 250 119z" />
    <glyph glyph-name="Ohungarumlaut" unicode="&#x150;" horiz-adv-x="1568" 
d="M1190 1776l-301 -295h-182l237 295h246zM1503 1776l-301 -295h-182l235 295h248zM766 -25q-195 0 -352 76t-248.5 218.5t-91.5 326.5q0 163 61.5 309t168 252.5t257 169t320.5 62.5q195 0 352 -76t248.5 -217.5t91.5 -323.5q0 -164 -61.5 -311t-168 -254t-257 -169.5
t-320.5 -62.5zM786 287q178 0 299 133.5t121 324.5q0 149 -96.5 240.5t-249.5 91.5q-178 0 -299 -134t-121 -325q0 -148 96.5 -239.5t249.5 -91.5z" />
    <glyph glyph-name="ohungarumlaut" unicode="&#x151;" horiz-adv-x="1179" 
d="M920 1434l-302 -295h-182l238 295h246zM1233 1434l-301 -295h-182l235 295h248zM551 -25q-241 0 -375.5 128t-134.5 327q0 114 43.5 220t119 186.5t185 129t234.5 48.5q242 0 376 -128t134 -329q0 -114 -43.5 -219.5t-119 -186t-185 -128.5t-234.5 -48zM563 254
q107 0 177.5 86.5t70.5 202.5q0 90 -53 141t-146 51q-109 0 -178 -86t-69 -203q0 -90 52.5 -141t145.5 -51z" />
    <glyph glyph-name="OE" unicode="&#x152;" horiz-adv-x="2197" 
d="M2013 0h-1001l26 127q-146 -152 -393 -152q-116 0 -220.5 46t-182 127t-123 197.5t-45.5 250.5q0 174 63 323.5t169 250.5t247.5 158.5t296.5 57.5q288 0 426 -192l37 172h1001l-67 -307h-650l-45 -213h633l-67 -307h-635l-51 -232h649zM1114 467l86 389
q-37 104 -122 161.5t-201 57.5q-127 0 -228.5 -63.5t-155 -167.5t-53.5 -226q0 -149 93.5 -240t236.5 -91q103 0 193 48t151 132z" />
    <glyph glyph-name="oe" unicode="&#x153;" horiz-adv-x="1875" 
d="M1815 395h-693v-12q0 -53 65 -108.5t169 -55.5q63 0 126.5 16.5t102.5 45.5l94 -209q-63 -44 -154 -70.5t-194 -26.5q-138 0 -242 56t-153 131q-47 -44 -76.5 -68t-80 -56.5t-108 -47.5t-124.5 -15q-228 0 -367 121t-139 334q0 109 41.5 214t114.5 187t183 132.5
t238 50.5q129 0 229 -56.5t152 -132.5q41 41 73.5 68t81.5 58t107.5 47t124.5 16q90 0 170 -28t143 -82t99.5 -141t36.5 -196q0 -69 -20 -172zM1153 600h401q2 4 2 12q0 61 -46.5 109.5t-137.5 48.5q-83 0 -145 -54t-74 -116zM803 543q0 95 -54 143.5t-141 48.5
q-102 0 -172.5 -82.5t-70.5 -206.5q0 -92 51.5 -142t142.5 -50q105 0 174.5 85t69.5 204z" />
    <glyph glyph-name="Racute" unicode="&#x154;" horiz-adv-x="1353" 
d="M1372 1776l-391 -295h-217l326 295h282zM1178 0h-390l-126 459h-197l-100 -459h-353l301 1366h623q119 0 219 -47.5t161.5 -140t61.5 -211.5q0 -178 -104 -310.5t-260 -173.5zM807 766h6q90 0 144.5 44.5t54.5 119.5q0 56 -43 92.5t-103 36.5h-268l-66 -293h275z" />
    <glyph glyph-name="racute" unicode="&#x155;" horiz-adv-x="768" 
d="M1057 1434l-391 -295h-217l325 295h283zM319 0h-315l219 989h316l-27 -119q136 146 342 146l-70 -309q-56 14 -102 14q-63 0 -122.5 -27t-102.5 -71z" />
    <glyph glyph-name="Rcommaaccent" unicode="&#x156;" horiz-adv-x="1353" 
d="M668 -246q0 -99 -72.5 -196t-183.5 -152l-84 84q51 24 99.5 61t68.5 76q-4 -2 -19 -2q-47 0 -78.5 31.5t-31.5 87.5q0 62 49.5 109t111.5 47q58 0 99 -39t41 -107zM1178 0h-390l-126 459h-197l-100 -459h-353l301 1366h623q119 0 219 -47.5t161.5 -140t61.5 -211.5
q0 -178 -104 -310.5t-260 -173.5zM807 766h6q90 0 144.5 44.5t54.5 119.5q0 56 -43 92.5t-103 36.5h-268l-66 -293h275z" />
    <glyph glyph-name="rcommaaccent" unicode="&#x157;" horiz-adv-x="768" 
d="M432 -246q0 -99 -72.5 -196t-183.5 -152l-84 84q51 24 99.5 61t68.5 76q-4 -2 -18 -2q-47 0 -79 31.5t-32 87.5q0 62 50 109t112 47q58 0 98.5 -38.5t40.5 -107.5zM319 0h-315l219 989h316l-27 -119q136 146 342 146l-70 -309q-56 14 -102 14q-63 0 -122.5 -27
t-102.5 -71z" />
    <glyph glyph-name="Rcaron" unicode="&#x158;" horiz-adv-x="1353" 
d="M1044 1481h-276l-125 295h182l105 -166l172 166h192zM1178 0h-390l-126 459h-197l-100 -459h-353l301 1366h623q119 0 219 -47.5t161.5 -140t61.5 -211.5q0 -178 -104 -310.5t-260 -173.5zM807 766h6q90 0 144.5 44.5t54.5 119.5q0 56 -43 92.5t-103 36.5h-268l-66 -293
h275z" />
    <glyph glyph-name="rcaron" unicode="&#x159;" horiz-adv-x="768" 
d="M735 1139h-276l-125 295h182l105 -166l172 166h192zM319 0h-315l219 989h316l-27 -119q136 146 342 146l-70 -309q-56 14 -102 14q-63 0 -122.5 -27t-102.5 -71z" />
    <glyph glyph-name="Sacute" unicode="&#x15a;" horiz-adv-x="1241" 
d="M1319 1776l-391 -295h-217l325 295h283zM631 -25q-206 0 -380 71t-271 190l215 253q71 -94 198 -152t266 -58q78 0 118 33t40 75q0 30 -36.5 56t-94.5 47.5t-128 45t-140.5 56.5t-128.5 75t-94.5 107t-36.5 146q0 70 23 137t70 126.5t112.5 105t157 71.5t196.5 26
q168 0 318.5 -58.5t252.5 -166.5l-215 -246q-75 83 -188.5 126.5t-222.5 43.5q-59 0 -96.5 -27.5t-37.5 -68.5q0 -29 36.5 -53.5t95 -46t129 -45.5t141 -57.5t129 -76t95 -108t36.5 -145.5q0 -206 -153 -344t-406 -138z" />
    <glyph glyph-name="sacute" unicode="&#x15b;" horiz-adv-x="991" 
d="M1118 1434l-391 -295h-217l326 295h282zM461 -25q-139 0 -270 47.5t-220 133.5l166 202q52 -56 153.5 -104.5t198.5 -48.5q46 0 75.5 20.5t29.5 50.5q0 25 -27 45t-70.5 34.5t-96 30t-105 38t-96 52t-70.5 78.5t-27 112q0 68 28.5 130t80.5 111t134 78t181 29
q125 0 242 -42.5t199 -117.5l-152 -195q-43 47 -124.5 85t-164.5 38q-52 0 -81 -20.5t-29 -48.5q0 -21 27 -37.5t70.5 -30t96 -29t105.5 -39t96.5 -54t70.5 -80t27 -111.5q0 -154 -121.5 -255.5t-326.5 -101.5z" />
    <glyph glyph-name="Scircumflex" unicode="&#x15c;" horiz-adv-x="1241" 
d="M1178 1481h-185l-104 166l-172 -166h-191l250 295h277zM631 -25q-206 0 -380 71t-271 190l215 253q71 -94 198 -152t266 -58q78 0 118 33t40 75q0 30 -36.5 56t-94.5 47.5t-128 45t-140.5 56.5t-128.5 75t-94.5 107t-36.5 146q0 70 23 137t70 126.5t112.5 105t157 71.5
t196.5 26q168 0 318.5 -58.5t252.5 -166.5l-215 -246q-75 83 -188.5 126.5t-222.5 43.5q-59 0 -96.5 -27.5t-37.5 -68.5q0 -29 36.5 -53.5t95 -46t129 -45.5t141 -57.5t129 -76t95 -108t36.5 -145.5q0 -206 -153 -344t-406 -138z" />
    <glyph glyph-name="scircumflex" unicode="&#x15d;" horiz-adv-x="991" 
d="M975 1139h-184l-105 166l-172 -166h-190l249 295h277zM461 -25q-139 0 -270 47.5t-220 133.5l166 202q52 -56 153.5 -104.5t198.5 -48.5q46 0 75.5 20.5t29.5 50.5q0 25 -27 45t-70.5 34.5t-96 30t-105 38t-96 52t-70.5 78.5t-27 112q0 68 28.5 130t80.5 111t134 78
t181 29q125 0 242 -42.5t199 -117.5l-152 -195q-43 47 -124.5 85t-164.5 38q-52 0 -81 -20.5t-29 -48.5q0 -21 27 -37.5t70.5 -30t96 -29t105.5 -39t96.5 -54t70.5 -80t27 -111.5q0 -154 -121.5 -255.5t-326.5 -101.5z" />
    <glyph glyph-name="Scedilla" unicode="&#x15e;" horiz-adv-x="1241" 
d="M477 -406q-80 0 -148 25.5t-106 63.5l80 110q81 -74 174 -74q41 0 65.5 16t24.5 46q0 18 -14 29.5t-39 11.5q-31 0 -55 -27l-94 62l79 135q-148 25 -269 89t-195 155l215 253q71 -94 198 -152t266 -58q78 0 118 33t40 75q0 30 -36.5 56t-94.5 47.5t-128 45t-140.5 56.5
t-128.5 75t-94.5 107t-36.5 146q0 70 23 137t70 126.5t112.5 105t157 71.5t196.5 26q168 0 318.5 -58.5t252.5 -166.5l-215 -246q-75 83 -188.5 126.5t-222.5 43.5q-59 0 -96.5 -27.5t-37.5 -68.5q0 -29 36.5 -53.5t95 -46t129 -45.5t141 -57.5t129 -76t95 -108t36.5 -145.5
q0 -206 -153 -344t-406 -138q-35 0 -51 2l-50 -77q33 20 62 20q53 0 88 -36t35 -95q0 -88 -68.5 -141.5t-169.5 -53.5z" />
    <glyph glyph-name="scedilla" unicode="&#x15f;" horiz-adv-x="991" 
d="M346 -406q-80 0 -148 25.5t-106 63.5l80 110q81 -74 174 -74q41 0 65.5 16t24.5 46q0 18 -14 29.5t-39 11.5q-31 0 -55 -27l-95 62l80 133q-210 37 -342 166l166 202q52 -56 153.5 -104.5t198.5 -48.5q46 0 75.5 20.5t29.5 50.5q0 25 -27 45t-70.5 34.5t-96 30t-105 38
t-96 52t-70.5 78.5t-27 112q0 68 28.5 130t80.5 111t134 78t181 29q125 0 242 -42.5t199 -117.5l-152 -195q-43 47 -124.5 85t-164.5 38q-52 0 -81 -20.5t-29 -48.5q0 -21 27 -37.5t70.5 -30t96 -29t105.5 -39t96.5 -54t70.5 -80t27 -111.5q0 -154 -121.5 -255.5
t-326.5 -101.5h-12l-50 -75q33 20 62 20q53 0 88 -36t35 -95q0 -88 -68.5 -141.5t-169.5 -53.5z" />
    <glyph glyph-name="Scaron" unicode="&#x160;" horiz-adv-x="1241" 
d="M993 1481h-276l-125 295h182l105 -166l172 166h192zM631 -25q-206 0 -380 71t-271 190l215 253q71 -94 198 -152t266 -58q78 0 118 33t40 75q0 30 -36.5 56t-94.5 47.5t-128 45t-140.5 56.5t-128.5 75t-94.5 107t-36.5 146q0 70 23 137t70 126.5t112.5 105t157 71.5
t196.5 26q168 0 318.5 -58.5t252.5 -166.5l-215 -246q-75 83 -188.5 126.5t-222.5 43.5q-59 0 -96.5 -27.5t-37.5 -68.5q0 -29 36.5 -53.5t95 -46t129 -45.5t141 -57.5t129 -76t95 -108t36.5 -145.5q0 -206 -153 -344t-406 -138z" />
    <glyph glyph-name="scaron" unicode="&#x161;" horiz-adv-x="991" 
d="M793 1139h-277l-125 295h182l105 -166l172 166h192zM461 -25q-139 0 -270 47.5t-220 133.5l166 202q52 -56 153.5 -104.5t198.5 -48.5q46 0 75.5 20.5t29.5 50.5q0 25 -27 45t-70.5 34.5t-96 30t-105 38t-96 52t-70.5 78.5t-27 112q0 68 28.5 130t80.5 111t134 78t181 29
q125 0 242 -42.5t199 -117.5l-152 -195q-43 47 -124.5 85t-164.5 38q-52 0 -81 -20.5t-29 -48.5q0 -21 27 -37.5t70.5 -30t96 -29t105.5 -39t96.5 -54t70.5 -80t27 -111.5q0 -154 -121.5 -255.5t-326.5 -101.5z" />
    <glyph glyph-name="Tcommaaccent" unicode="&#x162;" 
d="M590 -246q0 -99 -72.5 -196t-183.5 -152l-84 84q51 24 99.5 61t68.5 76q-4 -2 -19 -2q-47 0 -78.5 31.5t-31.5 87.5q0 62 50 109t112 47q58 0 98.5 -38.5t40.5 -107.5zM670 0h-353l232 1059h-383l70 307h1116l-68 -307h-383z" />
    <glyph glyph-name="tcommaaccent" unicode="&#x163;" horiz-adv-x="737" 
d="M330 -246q0 -99 -72.5 -196t-183.5 -152l-84 84q51 24 99.5 61t68.5 76q-4 -2 -19 -2q-47 0 -78.5 31.5t-31.5 87.5q0 62 49.5 109t111.5 47q58 0 99 -39t41 -107zM453 -25q-151 0 -239.5 59t-88.5 175q0 31 6 72l96 436h-164l62 272h164l59 271h316l-60 -271h201
l-62 -272h-200l-74 -336q-6 -24 -6 -45q0 -38 24 -60t70 -22q41 0 61 16l5 -252q-55 -43 -170 -43z" />
    <glyph glyph-name="Tcaron" unicode="&#x164;" 
d="M952 1481h-276l-125 295h182l105 -166l172 166h192zM670 0h-353l232 1059h-383l70 307h1116l-68 -307h-383z" />
    <glyph glyph-name="tcaron" unicode="&#x165;" horiz-adv-x="800" 
d="M1061 1442q0 -99 -72.5 -196t-183.5 -152l-84 84q51 24 99.5 61t68.5 76q-4 -2 -19 -2q-47 0 -78.5 31.5t-31.5 87.5q0 62 50 108.5t112 46.5q58 0 98.5 -38.5t40.5 -106.5zM453 -25q-151 0 -239.5 59t-88.5 175q0 31 6 72l96 436h-164l62 272h164l59 271h316l-60 -271
h201l-62 -272h-200l-74 -336q-6 -24 -6 -45q0 -38 24 -60t70 -22q41 0 61 16l5 -252q-55 -43 -170 -43z" />
    <glyph glyph-name="Tbar" unicode="&#x166;" 
d="M670 0h-353l111 506h-256l39 174h254l84 379h-383l70 307h1116l-68 -307h-383l-84 -379h256l-37 -174h-256z" />
    <glyph glyph-name="tbar" unicode="&#x167;" horiz-adv-x="737" 
d="M453 -25q-151 0 -239.5 59t-88.5 175q0 31 6 72l29 129h-164l37 174h164l30 133h-164l62 272h164l59 271h316l-60 -271h201l-62 -272h-200l-31 -133h137l-37 -174h-137l-6 -29q-6 -24 -6 -45q0 -38 24 -60t70 -22q41 0 61 16l5 -252q-55 -43 -170 -43z" />
    <glyph glyph-name="Utilde" unicode="&#x168;" horiz-adv-x="1536" 
d="M750 -25q-306 0 -466.5 132.5t-160.5 355.5q0 40 10 90l180 813h359l-178 -805q-7 -18 -7 -57q2 -91 70.5 -156t192.5 -65q134 0 212.5 75t106.5 203l178 805h357l-179 -811q-29 -131 -78 -232t-128 -181.5t-197 -123.5t-272 -43zM1130 1477q-48 0 -86.5 17.5t-59 38.5
t-48 38.5t-55.5 17.5q-54 0 -74 -100h-162q27 141 85 207.5t169 66.5q48 0 86.5 -17.5t60 -38.5t49 -38.5t54.5 -17.5q53 0 76 100h161q-31 -141 -88.5 -207.5t-167.5 -66.5z" />
    <glyph glyph-name="utilde" unicode="&#x169;" horiz-adv-x="1212" 
d="M223 989h314l-125 -571q-9 -40 -9 -53q0 -57 40.5 -84t105.5 -27q101 0 203 98l139 637h315l-219 -989h-315l28 121q-72 -67 -147 -106.5t-174 -39.5q-147 0 -232.5 71t-85.5 185q0 27 11 82zM893 1135q-48 0 -86.5 17.5t-59.5 38.5t-48.5 38.5t-55.5 17.5
q-54 0 -74 -100h-161q27 141 85 207.5t169 66.5q48 0 86.5 -17.5t59.5 -38.5t48.5 -38.5t54.5 -17.5q53 0 76 100h162q-31 -141 -88.5 -207.5t-167.5 -66.5z" />
    <glyph glyph-name="Umacron" unicode="&#x16a;" horiz-adv-x="1536" 
d="M750 -25q-306 0 -466.5 132.5t-160.5 355.5q0 40 10 90l180 813h359l-178 -805q-7 -18 -7 -57q2 -91 70.5 -156t192.5 -65q134 0 212.5 75t106.5 203l178 805h357l-179 -811q-29 -131 -78 -232t-128 -181.5t-197 -123.5t-272 -43zM1356 1481h-742l39 174h742z" />
    <glyph glyph-name="umacron" unicode="&#x16b;" horiz-adv-x="1212" 
d="M223 989h314l-125 -571q-9 -40 -9 -53q0 -57 40.5 -84t105.5 -27q101 0 203 98l139 637h315l-219 -989h-315l28 121q-72 -67 -147 -106.5t-174 -39.5q-147 0 -232.5 71t-85.5 185q0 27 11 82zM1118 1139h-741l39 174h741z" />
    <glyph glyph-name="Ubreve" unicode="&#x16c;" horiz-adv-x="1536" 
d="M750 -25q-306 0 -466.5 132.5t-160.5 355.5q0 40 10 90l180 813h359l-178 -805q-7 -18 -7 -57q2 -91 70.5 -156t192.5 -65q134 0 212.5 75t106.5 203l178 805h357l-179 -811q-29 -131 -78 -232t-128 -181.5t-197 -123.5t-272 -43zM1364 1604q-81 -85 -184.5 -133
t-212.5 -48q-108 0 -192.5 48.5t-129.5 132.5l154 110q59 -119 198 -119q140 0 250 119z" />
    <glyph glyph-name="ubreve" unicode="&#x16d;" horiz-adv-x="1212" 
d="M223 989h314l-125 -571q-9 -40 -9 -53q0 -57 40.5 -84t105.5 -27q101 0 203 98l139 637h315l-219 -989h-315l28 121q-72 -67 -147 -106.5t-174 -39.5q-147 0 -232.5 71t-85.5 185q0 27 11 82zM1126 1262q-81 -85 -184.5 -133t-212.5 -48q-107 0 -191.5 48.5t-129.5 132.5
l153 110q59 -119 199 -119t250 119z" />
    <glyph glyph-name="Uring" unicode="&#x16e;" horiz-adv-x="1536" 
d="M995 1407q-91 0 -146.5 56t-55.5 147q0 98 72.5 169.5t170.5 71.5q91 0 147 -55.5t56 -146.5q0 -98 -73 -170t-171 -72zM1010 1548q36 0 62 26t26 62q0 34 -21 55t-55 21q-35 0 -61.5 -26.5t-26.5 -61.5q0 -34 21 -55t55 -21zM750 -25q-306 0 -466.5 132.5t-160.5 355.5
q0 40 10 90l180 813h359l-178 -805q-7 -18 -7 -57q2 -91 70.5 -156t192.5 -65q134 0 212.5 75t106.5 203l178 805h357l-179 -811q-29 -131 -78 -232t-128 -181.5t-197 -123.5t-272 -43z" />
    <glyph glyph-name="uring" unicode="&#x16f;" horiz-adv-x="1212" 
d="M762 1075q-91 0 -147 56t-56 147q0 98 73 170t171 72q91 0 147 -56t56 -147q0 -98 -73 -170t-171 -72zM776 1217q36 0 62 26t26 62q0 34 -21 54.5t-55 20.5q-35 0 -61.5 -26.5t-26.5 -61.5q0 -34 21 -54.5t55 -20.5zM223 989h314l-125 -571q-9 -40 -9 -53q0 -57 40.5 -84
t105.5 -27q101 0 203 98l139 637h315l-219 -989h-315l28 121q-72 -67 -147 -106.5t-174 -39.5q-147 0 -232.5 71t-85.5 185q0 27 11 82z" />
    <glyph glyph-name="Uhungarumlaut" unicode="&#x170;" horiz-adv-x="1536" 
d="M750 -25q-306 0 -466.5 132.5t-160.5 355.5q0 40 10 90l180 813h359l-178 -805q-7 -18 -7 -57q2 -91 70.5 -156t192.5 -65q134 0 212.5 75t106.5 203l178 805h357l-179 -811q-29 -131 -78 -232t-128 -181.5t-197 -123.5t-272 -43zM1176 1776l-302 -295h-182l238 295h246z
M1489 1776l-301 -295h-182l235 295h248z" />
    <glyph glyph-name="uhungarumlaut" unicode="&#x171;" horiz-adv-x="1212" 
d="M223 989h314l-125 -571q-9 -40 -9 -53q0 -57 40.5 -84t105.5 -27q101 0 203 98l139 637h315l-219 -989h-315l28 121q-72 -67 -147 -106.5t-174 -39.5q-147 0 -232.5 71t-85.5 185q0 27 11 82zM936 1434l-301 -295h-182l237 295h246zM1249 1434l-301 -295h-182l235 295
h248z" />
    <glyph glyph-name="Uogonek" unicode="&#x172;" horiz-adv-x="1536" 
d="M926 -195l100 -88q-81 -98 -197 -98q-85 0 -143.5 42t-58.5 120q0 110 84 194q-287 9 -437.5 140.5t-150.5 347.5q0 40 10 90l180 813h359l-178 -805q-7 -18 -7 -57q2 -91 70.5 -156t192.5 -65q134 0 212.5 75t106.5 203l178 805h357l-179 -811q-24 -107 -61 -193
t-92.5 -160t-135.5 -125.5t-182 -76.5q-88 -39 -134 -90t-46 -107q0 -27 18 -43t46 -16q50 0 88 61z" />
    <glyph glyph-name="uogonek" unicode="&#x173;" horiz-adv-x="1212" 
d="M223 989h314l-125 -571q-9 -40 -9 -53q0 -57 40.5 -84t105.5 -27q101 0 203 98l139 637h315l-219 -989q-184 -81 -184 -197q0 -27 17.5 -43t45.5 -16q50 0 88 61l101 -88q-81 -98 -197 -98q-85 0 -144 42t-59 120q0 59 28 117t83 102h-94l28 121q-72 -67 -147 -106.5
t-174 -39.5q-147 0 -232.5 71t-85.5 185q0 27 11 82z" />
    <glyph glyph-name="Wcircumflex" unicode="&#x174;" horiz-adv-x="1916" 
d="M1493 1481h-184l-105 166l-172 -166h-190l250 295h276zM1427 0h-372l-19 856l-395 -856h-373l-90 1366h387l6 -911l435 911h268l33 -911l407 911h406z" />
    <glyph glyph-name="wcircumflex" unicode="&#x175;" horiz-adv-x="1611" 
d="M1266 1139h-185l-104 166l-172 -166h-191l250 295h277zM1221 0h-340l-52 612l-319 -612h-340l-74 989h316l22 -606l332 606h281l59 -606l293 606h334z" />
    <glyph glyph-name="Ycircumflex" unicode="&#x176;" horiz-adv-x="1341" 
d="M1217 1481h-185l-104 166l-172 -166h-191l250 295h277zM737 0h-352l121 551l-338 815h379l186 -504l404 504h417l-696 -815z" />
    <glyph glyph-name="ycircumflex" unicode="&#x177;" horiz-adv-x="1073" 
d="M-98 -377l100 271q37 -15 102 -15q76 0 113 53l39 64l-168 993h324l82 -627l366 627h342l-698 -1130q-88 -144 -184.5 -202t-235.5 -58q-106 0 -182 24zM995 1139h-184l-104 166l-172 -166h-191l250 295h276z" />
    <glyph glyph-name="Ydieresis" unicode="&#x178;" horiz-adv-x="1341" 
d="M1296 1618q0 -70 -55.5 -124t-126.5 -54q-60 0 -100.5 41t-40.5 102q0 70 55.5 124t126.5 54q60 0 100.5 -41t40.5 -102zM860 1618q0 -70 -55.5 -124t-126.5 -54q-62 0 -102.5 41t-40.5 102q0 70 55.5 124t126.5 54q61 0 102 -40.5t41 -102.5zM737 0h-352l121 551
l-338 815h379l186 -504l404 504h417l-696 -815z" />
    <glyph glyph-name="Zacute" unicode="&#x179;" horiz-adv-x="1220" 
d="M1284 1776l-391 -295h-217l325 295h283zM1030 0h-1061l62 281l735 778h-563l67 307h1047l-62 -281l-737 -778h580z" />
    <glyph glyph-name="zacute" unicode="&#x17a;" horiz-adv-x="989" 
d="M1094 1434l-392 -295h-217l326 295h283zM801 0h-834l49 231l496 484h-387l61 274h826l-51 -223l-504 -494h403z" />
    <glyph glyph-name="Zdotaccent" unicode="&#x17b;" horiz-adv-x="1220" 
d="M1030 0h-1061l62 281l735 778h-563l67 307h1047l-62 -281l-737 -778h580zM1008 1618q0 -70 -56 -124t-127 -54q-61 0 -102 41t-41 102q0 70 55.5 124t126.5 54q62 0 103 -41t41 -102z" />
    <glyph glyph-name="zdotaccent" unicode="&#x17c;" horiz-adv-x="989" 
d="M801 0h-834l49 231l496 484h-387l61 274h826l-51 -223l-504 -494h403zM819 1276q0 -70 -55.5 -124t-126.5 -54q-61 0 -102 41t-41 102q0 70 55.5 124t126.5 54q62 0 102.5 -40.5t40.5 -102.5z" />
    <glyph glyph-name="Zcaron" unicode="&#x17d;" horiz-adv-x="1220" 
d="M963 1481h-277l-125 295h182l105 -166l172 166h192zM1030 0h-1061l62 281l735 778h-563l67 307h1047l-62 -281l-737 -778h580z" />
    <glyph glyph-name="zcaron" unicode="&#x17e;" horiz-adv-x="989" 
d="M770 1139h-276l-125 295h182l104 -166l172 166h193zM801 0h-834l49 231l496 484h-387l61 274h826l-51 -223l-504 -494h403z" />
    <glyph glyph-name="longs" unicode="&#x17f;" horiz-adv-x="714" 
d="M387 0h-315l157 717h-163l61 272h162l12 53q37 153 138 248.5t268 95.5q183 0 282 -102l-149 -178q-41 41 -107 41q-93 0 -117 -105z" />
    <glyph glyph-name="florin" unicode="&#x192;" horiz-adv-x="952" 
d="M246 -330h-359l179 803h-99v275h158l65 299q34 157 132.5 248t255.5 91q192 0 307 -104l-127 -248q-33 45 -99 45q-46 0 -78.5 -29t-45.5 -83l-50 -219h205v-275h-264z" />
    <glyph glyph-name="Ohorn" unicode="&#x1a0;" horiz-adv-x="1568" 
d="M766 -25q-195 0 -352 76t-248.5 218.5t-91.5 326.5q0 163 61.5 309t168 252.5t257 169t320.5 62.5q164 0 303.5 -56.5t234.5 -158.5q41 22 76 51.5t49 60.5q-4 -2 -16 -2q-42 0 -70 28t-28 77q0 57 43 98t98 41q52 0 88.5 -35.5t36.5 -95.5q0 -85 -60 -169t-155 -134
q92 -140 92 -322q0 -164 -61.5 -311t-168 -254t-257 -169.5t-320.5 -62.5zM786 287q178 0 299 133.5t121 324.5q0 149 -96.5 240.5t-249.5 91.5q-178 0 -299 -134t-121 -325q0 -148 96.5 -239.5t249.5 -91.5z" />
    <glyph glyph-name="ohorn" unicode="&#x1a1;" horiz-adv-x="1179" 
d="M1255 1124q0 -84 -57 -165.5t-147 -131.5q82 -118 82 -270q0 -114 -43.5 -219.5t-119 -186t-185 -128.5t-234.5 -48q-241 0 -375.5 128t-134.5 327q0 114 43.5 220t119 186.5t185 129t234.5 48.5q223 0 356 -111q96 51 123 111q-2 -2 -15 -2q-42 0 -70 27t-28 77
q0 57 43 97t98 40q52 0 88.5 -34.5t36.5 -94.5zM563 254q107 0 177.5 86.5t70.5 202.5q0 90 -53 141t-146 51q-109 0 -178 -86t-69 -203q0 -90 52.5 -141t145.5 -51z" />
    <glyph glyph-name="Uhorn" unicode="&#x1af;" horiz-adv-x="1536" 
d="M1847 1520q0 -108 -80 -198t-204 -140l-138 -627q-29 -131 -78 -232t-128 -181.5t-197 -123.5t-272 -43q-306 0 -466.5 132.5t-160.5 355.5q0 40 10 90l180 813h359l-178 -805q-7 -18 -7 -57q2 -91 70.5 -156t192.5 -65q134 0 212.5 75t106.5 203l178 805h357l-15 -59
q83 47 105 102q-2 -2 -15 -2q-42 0 -70 27t-28 77q0 56 43 97t98 41q52 0 88.5 -34.5t36.5 -94.5z" />
    <glyph glyph-name="uhorn" unicode="&#x1b0;" horiz-adv-x="1212" 
d="M1395 1157q0 -91 -60 -170.5t-159 -134.5l-189 -852h-315l28 121q-70 -67 -145.5 -106.5t-175.5 -39.5q-147 0 -232.5 71t-85.5 185q0 27 11 82l149 676h316l-127 -573q-7 -31 -7 -51q0 -57 41.5 -84t110.5 -27q95 0 195 96l141 639h305q27 21 45 58q-6 -3 -16 -3
q-41 0 -70 28.5t-29 78.5q0 56 43.5 96.5t100.5 40.5q51 0 88 -35t37 -96z" />
    <glyph glyph-name="AEacute" unicode="&#x1fc;" horiz-adv-x="2004" 
d="M1794 1776l-391 -295h-217l325 295h283zM1821 0h-1002l43 197h-444l-152 -197h-411l1120 1366h1147l-70 -307h-647l-47 -213h635l-70 -307h-633l-51 -232h649zM930 504l108 497l-387 -497h279z" />
    <glyph glyph-name="aeacute" unicode="&#x1fd;" horiz-adv-x="1847" 
d="M1552 1434l-391 -295h-217l326 295h282zM616 735q-107 0 -178 -82.5t-71 -201.5q0 -88 54.5 -142.5t137.5 -54.5q107 0 186 92l68 299q-32 41 -84 65.5t-113 24.5zM1014 135l-31 -135h-313l24 115q-122 -140 -282 -140q-169 0 -270 108t-101 302q0 111 34 220t96.5 201.5
t164 150t225.5 57.5q94 0 174.5 -37t126.5 -105l27 117h313l-20 -96q121 121 272 121q169 0 259.5 -104.5t90.5 -317.5q0 -101 -22 -197h-699v-12q0 -48 68.5 -103t183.5 -55q60 0 119 16.5t98 45.5l97 -215q-71 -46 -155 -71.5t-153 -25.5q-123 0 -205.5 44t-121.5 116z
M1116 600h408v12q0 60 -47 109t-140 49q-84 0 -145 -53t-76 -117z" />
    <glyph glyph-name="Oslashacute" unicode="&#x1fe;" horiz-adv-x="1568" 
d="M1468 1776l-391 -295h-217l326 295h282zM766 -25q-253 0 -436 125l-105 -100h-245l223 217q-129 157 -129 379q0 163 61.5 309t168 252.5t257 169t320.5 62.5q234 0 411 -111l90 88h246l-203 -199q148 -164 148 -395q0 -164 -61.5 -311t-168 -254t-257 -169.5
t-320.5 -62.5zM786 287q178 0 299 133.5t121 324.5q0 93 -43 168l-583 -569q85 -57 206 -57zM440 618q0 -75 29 -141l571 557q-81 43 -180 43q-178 0 -299 -134t-121 -325z" />
    <glyph glyph-name="oslashacute" unicode="&#x1ff;" horiz-adv-x="1179" 
d="M1198 1434l-391 -295h-217l325 295h283zM137 0h-194l178 164q-80 112 -80 266q0 114 43.5 220t119 186.5t185 129t234.5 48.5q199 0 331 -92l76 67h201l-180 -164q82 -110 82 -268q0 -114 -43.5 -219.5t-119 -186t-185 -128.5t-234.5 -48q-201 0 -336 95zM563 254
q107 0 177.5 86.5t70.5 202.5q0 35 -8 59l-354 -321q47 -27 114 -27zM365 446q0 -30 6 -57l352 320q-50 26 -111 26q-109 0 -178 -86t-69 -203z" />
    <glyph glyph-name="Scommaaccent" unicode="&#x218;" horiz-adv-x="1241" 
d="M596 -246q0 -99 -72.5 -196t-183.5 -152l-84 84q51 24 99.5 61t68.5 76q-4 -2 -18 -2q-47 0 -79 31.5t-32 87.5q0 62 50 109t112 47q58 0 98.5 -38.5t40.5 -107.5zM631 -25q-206 0 -380 71t-271 190l215 253q71 -94 198 -152t266 -58q78 0 118 33t40 75q0 30 -36.5 56
t-94.5 47.5t-128 45t-140.5 56.5t-128.5 75t-94.5 107t-36.5 146q0 70 23 137t70 126.5t112.5 105t157 71.5t196.5 26q168 0 318.5 -58.5t252.5 -166.5l-215 -246q-75 83 -188.5 126.5t-222.5 43.5q-59 0 -96.5 -27.5t-37.5 -68.5q0 -29 36.5 -53.5t95 -46t129 -45.5
t141 -57.5t129 -76t95 -108t36.5 -145.5q0 -206 -153 -344t-406 -138z" />
    <glyph glyph-name="scommaaccent" unicode="&#x219;" horiz-adv-x="991" 
d="M489 -246q0 -99 -72.5 -196t-183.5 -152l-83 84q50 24 98.5 61t68.5 76q-4 -2 -18 -2q-47 0 -79 31.5t-32 87.5q0 62 50 109t112 47q58 0 98.5 -38.5t40.5 -107.5zM461 -25q-139 0 -270 47.5t-220 133.5l166 202q52 -56 153.5 -104.5t198.5 -48.5q46 0 75.5 20.5
t29.5 50.5q0 25 -27 45t-70.5 34.5t-96 30t-105 38t-96 52t-70.5 78.5t-27 112q0 68 28.5 130t80.5 111t134 78t181 29q125 0 242 -42.5t199 -117.5l-152 -195q-43 47 -124.5 85t-164.5 38q-52 0 -81 -20.5t-29 -48.5q0 -21 27 -37.5t70.5 -30t96 -29t105.5 -39t96.5 -54
t70.5 -80t27 -111.5q0 -154 -121.5 -255.5t-326.5 -101.5z" />
    <glyph glyph-name="uni021A" unicode="&#x21a;" 
d="M590 -246q0 -99 -72.5 -196t-183.5 -152l-84 84q51 24 99.5 61t68.5 76q-4 -2 -19 -2q-47 0 -78.5 31.5t-31.5 87.5q0 62 50 109t112 47q58 0 98.5 -38.5t40.5 -107.5zM670 0h-353l232 1059h-383l70 307h1116l-68 -307h-383z" />
    <glyph glyph-name="uni021B" unicode="&#x21b;" horiz-adv-x="737" 
d="M328 -246q0 -99 -72.5 -196t-183.5 -152l-84 84q51 24 99.5 61t68.5 76q-4 -2 -19 -2q-47 0 -78.5 31.5t-31.5 87.5q0 62 49.5 109t111.5 47q58 0 99 -39t41 -107zM453 -25q-151 0 -239.5 59t-88.5 175q0 31 6 72l96 436h-164l62 272h164l59 271h316l-60 -271h201
l-62 -272h-200l-74 -336q-6 -24 -6 -45q0 -38 24 -60t70 -22q41 0 61 16l5 -252q-55 -43 -170 -43z" />
    <glyph glyph-name="uni0237" unicode="&#x237;" horiz-adv-x="544" 
d="M-94 -401q-200 0 -295 82l127 225q43 -49 121 -49q110 0 145 151l219 981h316l-220 -981q-41 -194 -139 -301.5t-274 -107.5z" />
    <glyph glyph-name="hsuperior" unicode="&#x2b0;" horiz-adv-x="854" 
d="M797 668h-224l80 366q4 24 4 35q0 34 -24.5 52t-67.5 18q-61 0 -127 -66l-88 -405h-225l197 888h225l-72 -321q92 92 207 92q102 0 159.5 -45.5t57.5 -128.5q0 -23 -8 -59z" />
    <glyph glyph-name="uni02BC" unicode="&#x2bc;" horiz-adv-x="548" 
d="M631 1196q0 -127 -94.5 -254.5t-239.5 -196.5l-107 113q63 27 126 74t90 98q-8 -2 -25 -2q-62 0 -105 40.5t-43 113.5q0 83 65.5 143.5t147.5 60.5q76 0 130.5 -50.5t54.5 -139.5z" />
    <glyph glyph-name="circumflex" unicode="&#x2c6;" horiz-adv-x="651" 
d="M793 1139h-185l-104 166l-172 -166h-191l250 295h277z" />
    <glyph glyph-name="caron" unicode="&#x2c7;" horiz-adv-x="651" 
d="M608 1139h-276l-125 295h182l105 -166l172 166h192z" />
    <glyph glyph-name="uni02C9" unicode="&#x2c9;" horiz-adv-x="743" 
d="M899 1210h-741l37 174h741z" />
    <glyph glyph-name="uni02CB" unicode="&#x2cb;" horiz-adv-x="538" 
d="M680 1139h-213l-260 295h278z" />
    <glyph glyph-name="breve" unicode="&#x2d8;" horiz-adv-x="718" 
d="M885 1262q-81 -85 -185 -133t-213 -48q-107 0 -191.5 48.5t-129.5 132.5l153 110q59 -119 199 -119t250 119z" />
    <glyph glyph-name="dotaccent" unicode="&#x2d9;" horiz-adv-x="421" 
d="M543 1276q0 -70 -56 -124t-127 -54q-62 0 -102.5 41t-40.5 102q0 70 55.5 124t126.5 54q62 0 103 -41t41 -102z" />
    <glyph glyph-name="ring" unicode="&#x2da;" horiz-adv-x="440" 
d="M375 1075q-91 0 -147 56t-56 147q0 98 73 170t171 72q91 0 146.5 -56t55.5 -147q0 -98 -72.5 -170t-170.5 -72zM389 1217q36 0 62 26t26 62q0 34 -21 54.5t-55 20.5q-35 0 -61.5 -26.5t-26.5 -61.5q0 -34 21 -54.5t55 -20.5z" />
    <glyph glyph-name="ogonek" unicode="&#x2db;" horiz-adv-x="415" 
d="M143 -195l101 -88q-81 -98 -197 -98q-85 0 -144 42t-59 120q0 86 58.5 165t169.5 124l104 -70q-184 -81 -184 -197q0 -27 17.5 -43t45.5 -16q50 0 88 61z" />
    <glyph glyph-name="tilde" unicode="&#x2dc;" horiz-adv-x="684" 
d="M629 1135q-48 0 -86.5 17.5t-59.5 38.5t-48.5 38.5t-55.5 17.5q-54 0 -74 -100h-162q27 141 85 207.5t169 66.5q48 0 86.5 -17.5t60 -38.5t49 -38.5t54.5 -17.5q53 0 76 100h162q-31 -141 -88.5 -207.5t-167.5 -66.5z" />
    <glyph glyph-name="hungarumlaut" unicode="&#x2dd;" horiz-adv-x="727" 
d="M621 1434l-302 -295h-182l238 295h246zM934 1434l-301 -295h-182l235 295h248z" />
    <glyph glyph-name="hookabovecomb" unicode="&#x309;" horiz-adv-x="415" 
d="M467 1475l-94 45q58 98 176 98q62 0 110 -34t48 -97q0 -62 -45 -121h-132q56 53 56 104q0 22 -14.5 36t-36.5 14q-40 0 -68 -45z" />
    <glyph glyph-name="uni037E" unicode="&#x37e;" horiz-adv-x="552" 
d="M403 170q0 -127 -94 -253.5t-237 -195.5l-109 113q64 27 126 73.5t89 98.5q-6 -2 -24 -2q-62 0 -104 40t-42 114q0 82 65 142t146 60q77 0 130.5 -50.5t53.5 -139.5zM326 618q-73 0 -124.5 52.5t-51.5 126.5q0 85 62.5 147t147.5 62q73 0 125 -53t52 -126
q0 -86 -63 -147.5t-148 -61.5z" />
    <glyph glyph-name="tonos" unicode="&#x384;" horiz-adv-x="1214" 
d="M508 1120h-131l143 447h246z" />
    <glyph glyph-name="dieresistonos" unicode="&#x385;" horiz-adv-x="1214" 
d="M776 1120h-135l145 447h246zM1266 1276q0 -70 -56 -124t-127 -54q-61 0 -102 41t-41 102q0 70 55.5 124t126.5 54q62 0 103 -41t41 -102zM621 1276q0 -70 -56.5 -124t-126.5 -54q-62 0 -102.5 41t-40.5 102q0 70 55.5 124t126.5 54q60 0 102 -41t42 -102z" />
    <glyph glyph-name="Alphatonos" unicode="&#x386;" horiz-adv-x="1427" 
d="M373 1120h-131l143 447h246zM1339 0h-383l-24 197h-539l-108 -197h-418l815 1366h442zM905 504l-61 514l-287 -514h348z" />
    <glyph glyph-name="Epsilontonos" unicode="&#x388;" horiz-adv-x="1302" 
d="M233 1120h-131l144 447h246zM1108 0h-1002l302 1366h1001l-70 -307h-647l-47 -213h635l-68 -307h-634l-52 -232h650z" />
    <glyph glyph-name="Etatonos" unicode="&#x389;" horiz-adv-x="1611" 
d="M233 1120h-131l144 447h246zM1378 0h-352l121 549h-567l-121 -549h-353l302 1366h352l-113 -510h567l113 510h352z" />
    <glyph glyph-name="Iotatonos" unicode="&#x38a;" horiz-adv-x="692" 
d="M233 1120h-131l144 447h246zM459 0h-353l302 1366h352z" />
    <glyph glyph-name="Omicrontonos" unicode="&#x38c;" horiz-adv-x="1568" 
d="M244 1120h-131l143 447h246zM766 -25q-195 0 -352 76t-248.5 218.5t-91.5 326.5q0 163 61.5 309t168 252.5t257 169t320.5 62.5q195 0 352 -76t248.5 -217.5t91.5 -323.5q0 -164 -61.5 -311t-168 -254t-257 -169.5t-320.5 -62.5zM786 287q178 0 299 133.5t121 324.5
q0 149 -96.5 240.5t-249.5 91.5q-178 0 -299 -134t-121 -325q0 -148 96.5 -239.5t249.5 -91.5z" />
    <glyph glyph-name="Upsilontonos" unicode="&#x38e;" horiz-adv-x="1540" 
d="M233 1120h-131l144 447h246zM938 0h-352l121 551l-338 815h379l186 -504l403 504h418l-696 -815z" />
    <glyph glyph-name="Omegatonos" unicode="&#x38f;" horiz-adv-x="1591" 
d="M244 1120h-131l143 447h246zM72 307h264q-91 72 -150 182t-59 248q0 91 30 182t94 176t153.5 150t218.5 104.5t280 39.5q146 0 273.5 -38.5t224 -108.5t152 -177.5t55.5 -237.5q0 -77 -22.5 -149.5t-57 -127t-81.5 -103.5t-91 -81.5t-90 -58.5h194l-67 -307h-580l68 307
q162 39 255 162.5t93 282.5q0 146 -90.5 234.5t-251.5 88.5q-96 0 -176.5 -39t-133 -103t-81.5 -144t-29 -164q0 -218 184 -318l-67 -307h-582z" />
    <glyph glyph-name="iotadieresistonos" unicode="&#x390;" horiz-adv-x="573" 
d="M459 1120h-135l145 447h246zM948 1276q0 -70 -55.5 -124t-126.5 -54q-62 0 -102.5 41t-40.5 102q0 70 55.5 124t126.5 54q61 0 102 -40.5t41 -102.5zM303 1276q0 -70 -56 -124t-126 -54q-62 0 -103 41t-41 102q0 70 56 124t127 54q60 0 101.5 -41t41.5 -102zM307 -25
q-151 0 -213.5 74.5t-30.5 216.5l166 723h314l-150 -657q-9 -37 7.5 -57.5t50.5 -20.5q26 0 41 6l-39 -266q-62 -19 -146 -19z" />
    <glyph glyph-name="Alpha" unicode="&#x391;" horiz-adv-x="1427" 
d="M1339 0h-383l-24 197h-539l-108 -197h-418l815 1366h442zM905 504l-61 514l-287 -514h348z" />
    <glyph glyph-name="Beta" unicode="&#x392;" horiz-adv-x="1392" 
d="M813 0h-801l301 1366h713q93 0 167.5 -28t120.5 -75.5t70.5 -106.5t24.5 -124q0 -133 -92.5 -237t-216.5 -115q92 -25 143 -102t51 -170q0 -74 -26.5 -143t-81 -130t-151 -98t-222.5 -37zM889 842q75 0 109 38t34 91q0 42 -29.5 70t-76.5 28h-324l-51 -227h338zM782 297
q73 0 116.5 39.5t43.5 99.5q0 47 -30.5 77t-82.5 30h-344l-55 -246h352z" />
    <glyph glyph-name="Gamma" unicode="&#x393;" horiz-adv-x="1191" 
d="M365 0h-353l301 1366h1002l-70 -307h-647z" />
    <glyph glyph-name="uni0394" unicode="&#x394;" horiz-adv-x="1427" 
d="M1339 0h-1472l815 1366h442zM930 307l-86 711l-395 -711h481z" />
    <glyph glyph-name="Epsilon" unicode="&#x395;" 
d="M1014 0h-1002l301 1366h1002l-70 -307h-647l-47 -213h635l-68 -307h-635l-51 -232h649z" />
    <glyph glyph-name="Zeta" unicode="&#x396;" horiz-adv-x="1220" 
d="M1030 0h-1061l62 281l735 778h-563l67 307h1047l-62 -281l-737 -778h580z" />
    <glyph glyph-name="Eta" unicode="&#x397;" horiz-adv-x="1517" 
d="M1284 0h-352l121 549h-568l-120 -549h-353l301 1366h353l-113 -510h567l113 510h352z" />
    <glyph glyph-name="Theta" unicode="&#x398;" horiz-adv-x="1568" 
d="M1061 539h-551l70 307h548zM766 -25q-195 0 -352 76t-248.5 218.5t-91.5 326.5q0 163 61.5 309t168 252.5t257 169t320.5 62.5q195 0 352 -76t248.5 -217.5t91.5 -323.5q0 -164 -61.5 -311t-168 -254t-257 -169.5t-320.5 -62.5zM786 287q178 0 299 133.5t121 324.5
q0 149 -96.5 240.5t-249.5 91.5q-178 0 -299 -134t-121 -325q0 -148 96.5 -239.5t249.5 -91.5z" />
    <glyph glyph-name="Iota" unicode="&#x399;" horiz-adv-x="598" 
d="M365 0h-353l301 1366h353z" />
    <glyph glyph-name="Kappa" unicode="&#x39a;" horiz-adv-x="1339" 
d="M1247 0h-413l-254 526l-127 -127l-88 -399h-353l301 1366h353l-117 -535l518 535h453l-670 -639z" />
    <glyph glyph-name="Lambda" unicode="&#x39b;" horiz-adv-x="1427" 
d="M1339 0h-383l-112 1018l-559 -1018h-418l815 1366h442z" />
    <glyph glyph-name="Mu" unicode="&#x39c;" horiz-adv-x="1796" 
d="M1563 0h-353l199 903l-545 -903h-155l-146 903l-198 -903h-353l301 1366h478l118 -756l453 756h502z" />
    <glyph glyph-name="Nu" unicode="&#x39d;" horiz-adv-x="1515" 
d="M1282 0h-340l-397 815l-180 -815h-353l301 1366h363l381 -776l172 776h354z" />
    <glyph glyph-name="Xi" unicode="&#x39e;" horiz-adv-x="1292" 
d="M1331 1059h-1118l70 307h1116zM1100 0h-1118l69 307h1116zM1202 539h-1089l67 307h1092z" />
    <glyph glyph-name="Omicron" unicode="&#x39f;" horiz-adv-x="1568" 
d="M766 -25q-195 0 -352 76t-248.5 218.5t-91.5 326.5q0 163 61.5 309t168 252.5t257 169t320.5 62.5q195 0 352 -76t248.5 -217.5t91.5 -323.5q0 -164 -61.5 -311t-168 -254t-257 -169.5t-320.5 -62.5zM786 287q178 0 299 133.5t121 324.5q0 149 -96.5 240.5t-249.5 91.5
q-178 0 -299 -134t-121 -325q0 -148 96.5 -239.5t249.5 -91.5z" />
    <glyph glyph-name="Pi" unicode="&#x3a0;" horiz-adv-x="1517" 
d="M1284 0h-352l233 1059h-567l-233 -1059h-353l301 1366h1272z" />
    <glyph glyph-name="Rho" unicode="&#x3a1;" horiz-adv-x="1316" 
d="M365 0h-353l301 1366h662q177 0 289 -113t112 -278q0 -65 -16.5 -131.5t-59.5 -137t-106.5 -124.5t-167.5 -88.5t-233 -34.5h-328zM532 766h279q86 0 143.5 48t57.5 122q0 56 -39 89.5t-103 33.5h-272z" />
    <glyph glyph-name="Sigma" unicode="&#x3a3;" horiz-adv-x="1196" 
d="M672 1059l305 -373l-469 -379h565l-67 -307h-1004l76 342l473 387l-305 365l59 272h1002l-68 -307h-567z" />
    <glyph glyph-name="Tau" unicode="&#x3a4;" 
d="M670 0h-353l232 1059h-383l70 307h1116l-68 -307h-383z" />
    <glyph glyph-name="Upsilon" unicode="&#x3a5;" horiz-adv-x="1341" 
d="M737 0h-352l121 551l-338 815h379l186 -504l404 504h417l-696 -815z" />
    <glyph glyph-name="Phi" unicode="&#x3a6;" horiz-adv-x="1802" 
d="M967 0h-355l33 143q-283 34 -422 156.5t-139 343.5q0 163 102.5 292t285 204.5t421.5 89.5l31 137h354l-33 -147q283 -34 422 -156.5t139 -343.5q0 -163 -102.5 -292t-285.5 -204.5t-421 -89.5zM1440 719q0 154 -266 192l-105 -460q182 22 276.5 90.5t94.5 177.5z
M453 643q0 -156 262 -190l104 458q-182 -22 -274 -90t-92 -178z" />
    <glyph glyph-name="Chi" unicode="&#x3a7;" horiz-adv-x="1384" 
d="M1294 0h-397l-211 438l-383 -438h-436l645 721l-313 645h397l188 -410l344 410h437l-604 -686z" />
    <glyph glyph-name="Psi" unicode="&#x3a8;" horiz-adv-x="1847" 
d="M989 0h-352l61 268q-503 70 -503 455q0 84 20 168l109 475h358l-121 -522q-8 -36 -8 -66q0 -154 215 -198l180 786h352l-180 -786q275 53 326 264l119 522h360l-133 -588q-48 -206 -246 -351t-499 -169z" />
    <glyph glyph-name="uni03A9" unicode="&#x3a9;" horiz-adv-x="1568" 
d="M47 307h264q-91 72 -150 182t-59 248q0 91 30 182t94 176t154 150t219 104.5t280 39.5q146 0 273.5 -38.5t223.5 -108.5t151.5 -177.5t55.5 -237.5q0 -77 -22.5 -149.5t-57 -127t-81.5 -103.5t-91 -81.5t-90 -58.5h195l-68 -307h-580l68 307q162 39 255 162.5t93 282.5
q0 146 -90.5 234.5t-251.5 88.5q-96 0 -176.5 -39t-133 -103t-81.5 -144t-29 -164q0 -217 185 -318l-68 -307h-582z" />
    <glyph glyph-name="Iotadieresis" unicode="&#x3aa;" horiz-adv-x="598" 
d="M365 0h-353l301 1366h353zM930 1653q0 -70 -55.5 -124t-126.5 -54q-60 0 -101 41t-41 102q0 70 55.5 124t126.5 54q60 0 101 -41t41 -102zM494 1653q0 -70 -56 -124t-127 -54q-61 0 -102 40.5t-41 102.5q0 70 55.5 124t126.5 54q62 0 103 -41t41 -102z" />
    <glyph glyph-name="Upsilondieresis" unicode="&#x3ab;" horiz-adv-x="1341" 
d="M737 0h-352l121 551l-338 815h379l186 -504l404 504h417l-696 -815zM1305 1653q0 -70 -56 -124t-127 -54q-60 0 -100.5 41t-40.5 102q0 70 55.5 124t126.5 54q60 0 101 -41t41 -102zM868 1653q0 -70 -55.5 -124t-126.5 -54q-62 0 -102.5 40.5t-40.5 102.5q0 70 55.5 124
t126.5 54q61 0 102 -41t41 -102z" />
    <glyph glyph-name="alphatonos" unicode="&#x3ac;" horiz-adv-x="1239" 
d="M799 1120h-131l143 447h246zM1157 260l-39 -266q-62 -19 -145 -19q-229 0 -250 172q-83 -95 -154.5 -133.5t-156.5 -38.5q-169 0 -270 108t-101 302q0 111 34 220t96.5 201.5t164 150t225.5 57.5q94 0 174.5 -37t126.5 -105l27 117h313l-143 -657q-9 -37 7.5 -57.5
t49.5 -20.5q26 0 41 6zM559 254q104 0 186 92l68 299q-32 41 -84 65.5t-113 24.5q-107 0 -178 -82.5t-71 -201.5q0 -88 54.5 -142.5t137.5 -54.5z" />
    <glyph glyph-name="epsilontonos" unicode="&#x3ad;" horiz-adv-x="1019" 
d="M721 1120h-131l143 447h246zM453 -25q-232 0 -344.5 73t-112.5 194q0 59 34 110t85.5 83t107.5 51t105 22q-95 17 -150 70.5t-55 123.5q0 135 145 223.5t375 88.5q277 0 434 -168l-186 -172q-95 98 -256 98q-88 0 -141.5 -24.5t-53.5 -61.5q0 -32 35 -51t109 -19h192
l-53 -235h-193q-95 0 -146.5 -25t-51.5 -69q0 -70 147 -70q82 0 176 26t172 76l105 -194q-95 -68 -220.5 -109t-258.5 -41z" />
    <glyph glyph-name="etatonos" unicode="&#x3ae;" horiz-adv-x="1214" 
d="M803 1120h-131l143 447h246zM903 -377h-315l213 950q6 27 6 54q0 55 -41 81.5t-109 26.5q-100 0 -196 -96l-142 -639h-315l219 989h316l-29 -121q72 67 147 106.5t174 39.5q147 0 232.5 -71t85.5 -185q0 -32 -10 -82z" />
    <glyph glyph-name="iotatonos" unicode="&#x3af;" horiz-adv-x="573" 
d="M477 1120h-131l143 447h246zM307 -25q-151 0 -213.5 74.5t-30.5 216.5l166 723h314l-150 -657q-9 -37 7.5 -57.5t50.5 -20.5q26 0 41 6l-39 -266q-62 -19 -146 -19z" />
    <glyph glyph-name="upsilondieresistonos" unicode="&#x3b0;" horiz-adv-x="1196" 
d="M795 1120h-136l146 447h246zM1284 1276q0 -70 -55.5 -124t-126.5 -54q-62 0 -103 41t-41 102q0 70 56 124t127 54q61 0 102 -40.5t41 -102.5zM639 1276q0 -70 -56 -124t-126 -54q-62 0 -103 41t-41 102q0 70 56 124t127 54q60 0 101.5 -41t41.5 -102zM535 -25
q-127 0 -221.5 37t-145 102.5t-67.5 154.5t10 194l118 526h316l-121 -530q-21 -92 14 -148.5t123 -56.5q133 0 214 117t81 295q0 142 -43 235l311 113q29 -57 43.5 -143t14.5 -166q0 -206 -78.5 -371.5t-227 -262t-341.5 -96.5z" />
    <glyph glyph-name="alpha" unicode="&#x3b1;" horiz-adv-x="1239" 
d="M1157 260l-39 -266q-62 -19 -145 -19q-229 0 -250 172q-83 -95 -154.5 -133.5t-156.5 -38.5q-169 0 -270 108t-101 302q0 111 34 220t96.5 201.5t164 150t225.5 57.5q94 0 174.5 -37t126.5 -105l27 117h313l-143 -657q-9 -37 7.5 -57.5t49.5 -20.5q26 0 41 6zM559 254
q104 0 186 92l68 299q-32 41 -84 65.5t-113 24.5q-107 0 -178 -82.5t-71 -201.5q0 -88 54.5 -142.5t137.5 -54.5z" />
    <glyph glyph-name="beta" unicode="&#x3b2;" horiz-adv-x="1210" 
d="M666 -25q-210 0 -322 136l-111 -488h-315l293 1288q29 125 95.5 220.5t153.5 149t178 79.5t183 26q209 0 322.5 -84.5t113.5 -238.5q0 -132 -109 -233t-259 -125q51 -11 93 -31.5t78 -53.5t56.5 -84.5t20.5 -117.5q0 -126 -72.5 -230t-180 -158.5t-218.5 -54.5zM526 911
l-131 -571q62 -86 201 -86q101 0 163 51t62 125q0 56 -42.5 87.5t-121.5 31.5h-86l64 280h76q97 0 152 46.5t55 117.5q0 54 -39.5 83.5t-112.5 29.5q-85 0 -152.5 -54t-87.5 -141z" />
    <glyph glyph-name="gamma" unicode="&#x3b3;" horiz-adv-x="1073" 
d="M496 -377h-314l43 191q52 230 46.5 448t-57 404.5t-140.5 322.5h352q67 -118 101.5 -304t19.5 -329q82 101 171 288.5t126 344.5h313q-55 -242 -217.5 -517t-355.5 -462z" />
    <glyph glyph-name="delta" unicode="&#x3b4;" horiz-adv-x="1179" 
d="M530 -25q-125 0 -221 33.5t-154.5 92.5t-88 136t-29.5 169q0 154 93 276t230 186q-71 68 -71 179q0 140 138.5 242t358.5 102q242 0 390 -131l-168 -220q-41 44 -113.5 74.5t-155.5 30.5q-60 0 -100.5 -21.5t-40.5 -52.5q0 -22 30 -39.5t78 -33t106 -35t115.5 -52.5
t105.5 -78t78 -119.5t30 -168.5q0 -103 -45.5 -205t-123.5 -183t-194.5 -131.5t-247.5 -50.5zM829 508q0 48 -17.5 85t-53 64.5t-70 45t-88.5 38.5q-109 -44 -171 -125.5t-62 -166.5q0 -88 52.5 -141.5t149.5 -53.5q107 0 183.5 77.5t76.5 176.5z" />
    <glyph glyph-name="epsilon" unicode="&#x3b5;" horiz-adv-x="1019" 
d="M453 -25q-232 0 -344.5 73t-112.5 194q0 59 34 110t85.5 83t107.5 51t105 22q-95 17 -150 70.5t-55 123.5q0 135 145 223.5t375 88.5q277 0 434 -168l-186 -172q-95 98 -256 98q-88 0 -141.5 -24.5t-53.5 -61.5q0 -32 35 -51t109 -19h192l-53 -235h-193q-95 0 -146.5 -25
t-51.5 -69q0 -70 147 -70q82 0 176 26t172 76l105 -194q-95 -68 -220.5 -109t-258.5 -41z" />
    <glyph glyph-name="zeta" unicode="&#x3b6;" horiz-adv-x="991" 
d="M500 -47q0 22 -37 22q-208 0 -323 97.5t-115 267.5q0 217 171 418.5t453 333.5h-428l62 274h835l-51 -223q-130 -61 -253 -143.5t-226.5 -178.5t-166.5 -205t-63 -208q0 -154 207 -154q148 0 214.5 -44t66.5 -132q0 -81 -50 -175t-155 -225h-340q70 69 134.5 153
t64.5 122z" />
    <glyph glyph-name="eta" unicode="&#x3b7;" horiz-adv-x="1214" 
d="M903 -377h-315l213 950q6 27 6 54q0 55 -41 81.5t-109 26.5q-100 0 -196 -96l-142 -639h-315l219 989h316l-29 -121q72 67 147 106.5t174 39.5q147 0 232.5 -71t85.5 -185q0 -32 -10 -82z" />
    <glyph glyph-name="theta" unicode="&#x3b8;" horiz-adv-x="1179" 
d="M551 -25q-218 0 -349.5 146.5t-131.5 413.5q0 170 49.5 327t134.5 273.5t207.5 186t261.5 69.5q217 0 347 -147t130 -415q0 -136 -30.5 -264.5t-89 -234.5t-137 -186t-180 -124.5t-212.5 -44.5zM569 254q78 0 143.5 82t110.5 213h-436q-2 -23 -2 -62q0 -107 46 -170
t138 -63zM700 1112q-78 0 -143.5 -80.5t-110.5 -208.5h435q0 10 1 29.5t1 28.5q0 107 -45.5 169t-137.5 62z" />
    <glyph glyph-name="iota" unicode="&#x3b9;" horiz-adv-x="573" 
d="M307 -25q-151 0 -213.5 74.5t-30.5 216.5l166 723h314l-150 -657q-9 -37 7.5 -57.5t50.5 -20.5q26 0 41 6l-39 -266q-62 -19 -146 -19z" />
    <glyph glyph-name="kappa" unicode="&#x3ba;" horiz-adv-x="1118" 
d="M1020 0h-379l-143 356l-127 -118l-52 -238h-315l219 989h316l-86 -379l374 379h394l-465 -450z" />
    <glyph glyph-name="lambda" unicode="&#x3bb;" horiz-adv-x="1073" 
d="M276 1094l19 280q63 17 139 17q76 -2 131.5 -14t105 -40t80 -79.5t42.5 -127.5l190 -1130h-324l-84 627l-364 -627h-342l623 1004l-11 53q-13 55 -121 55q-46 0 -84 -18z" />
    <glyph glyph-name="uni03BC" unicode="&#x3bc;" horiz-adv-x="1241" 
d="M319 10l-88 -387h-313l309 1366h316l-129 -573q-20 -79 15.5 -120.5t109.5 -41.5q115 0 211 96l141 639h313l-143 -657q-9 -37 7.5 -57.5t49.5 -20.5q26 0 41 6l-39 -266q-62 -19 -145 -19q-231 0 -252 179q-59 -81 -137 -130t-162 -49q-34 0 -63.5 10t-41.5 25z" />
    <glyph glyph-name="nu" unicode="&#x3bd;" horiz-adv-x="1073" 
d="M573 0h-315l-164 989h332l86 -676q113 132 202 318.5t130 357.5h313q-54 -244 -221 -523t-363 -466z" />
    <glyph glyph-name="xi" unicode="&#x3be;" horiz-adv-x="991" 
d="M465 -25q-227 0 -343 83t-116 231q0 129 86.5 217.5t222.5 128.5q-73 13 -119 60.5t-46 129.5q0 79 70.5 155t172.5 112h-162l64 274h819l-63 -274h-392q-70 -18 -115.5 -61.5t-45.5 -100.5q0 -51 47.5 -78t134.5 -27h303l-61 -270h-301q-129 0 -200 -47t-71 -133
q0 -59 55.5 -90t159.5 -31q148 0 214.5 -44t66.5 -132q0 -81 -50 -175t-155 -225h-330q63 69 126 154t63 121q0 22 -35 22z" />
    <glyph glyph-name="omicron" unicode="&#x3bf;" horiz-adv-x="1179" 
d="M551 -25q-241 0 -375.5 128t-134.5 327q0 114 43.5 220t119 186.5t185 129t234.5 48.5q242 0 376 -128t134 -329q0 -114 -43.5 -219.5t-119 -186t-185 -128.5t-234.5 -48zM563 254q107 0 177.5 86.5t70.5 202.5q0 90 -53 141t-146 51q-109 0 -178 -86t-69 -203
q0 -90 52.5 -141t145.5 -51z" />
    <glyph glyph-name="pi" unicode="&#x3c0;" horiz-adv-x="1343" 
d="M1053 0h-314l162 715h-354l-164 -715h-313l161 715h-163l63 274h1311l-62 -274h-163z" />
    <glyph glyph-name="rho" unicode="&#x3c1;" 
d="M645 -25q-88 0 -170.5 37.5t-128.5 104.5l-113 -494h-315l197 873q54 239 210 378.5t392 139.5q210 0 330 -123t120 -322q0 -77 -21 -158.5t-64.5 -159.5t-103.5 -139.5t-147 -99t-186 -37.5zM592 254q106 0 178 83t72 200q0 87 -48.5 142.5t-125.5 55.5
q-92 0 -153.5 -66t-86.5 -173l-33 -152q32 -41 84 -65.5t113 -24.5z" />
    <glyph glyph-name="sigma1" unicode="&#x3c2;" horiz-adv-x="1017" 
d="M487 -25q-113 0 -213.5 54.5t-165.5 160.5t-65 240q0 161 77 295t212 211.5t297 77.5q153 0 259 -55t161 -146l-236 -178q-28 45 -76 72.5t-110 27.5q-116 0 -190.5 -82.5t-74.5 -203.5q0 -96 63 -145.5t206 -49.5q108 0 171.5 -48.5t63.5 -137.5q0 -74 -50.5 -167.5
t-153.5 -222.5h-338q65 60 131.5 148t66.5 125q0 24 -35 24z" />
    <glyph glyph-name="sigma" unicode="&#x3c3;" horiz-adv-x="1179" 
d="M1102 514q0 -102 -40.5 -199t-111.5 -172.5t-175.5 -121.5t-223.5 -46q-122 0 -219 35t-160 96.5t-96 144t-33 179.5q0 156 81.5 284t227 201.5t324.5 73.5h581l-63 -278h-158q66 -75 66 -197zM811 539q0 118 -66 172h-100q-127 0 -203.5 -76t-76.5 -189q0 -90 52.5 -141
t145.5 -51q107 0 177.5 86t70.5 199z" />
    <glyph glyph-name="tau" unicode="&#x3c4;" horiz-adv-x="999" 
d="M561 -25q-156 0 -227.5 74t-38.5 221l100 445h-307l64 274h927l-63 -274h-307l-80 -365q-10 -43 11 -69.5t62 -26.5q23 0 46.5 6t31.5 14l8 -239q-75 -60 -227 -60z" />
    <glyph glyph-name="upsilon" unicode="&#x3c5;" horiz-adv-x="1196" 
d="M535 -25q-127 0 -221.5 37t-145 102.5t-67.5 154.5t10 194l118 526h316l-121 -530q-21 -92 14 -148.5t123 -56.5q133 0 214 117t81 295q0 142 -43 235l311 113q29 -57 43.5 -143t14.5 -166q0 -206 -78.5 -371.5t-227 -262t-341.5 -96.5z" />
    <glyph glyph-name="phi" unicode="&#x3c6;" horiz-adv-x="1679" 
d="M1647 551q0 -239 -202 -396t-564 -175l-80 -357h-316l82 365q-266 31 -396 147.5t-130 319.5q0 188 135.5 327.5t380.5 231.5l76 -246q-122 -41 -190 -119.5t-68 -165.5q0 -94 61.5 -148t194.5 -73l170 752h155q341 0 516 -117.5t175 -345.5zM1051 727l-107 -467
q191 21 280 90.5t89 173.5q0 95 -70.5 146t-191.5 57z" />
    <glyph glyph-name="chi" unicode="&#x3c7;" horiz-adv-x="1048" 
d="M864 -377h-336l-96 410l-289 -410h-352l498 703l-166 663h336l86 -368l254 368h354l-467 -663z" />
    <glyph glyph-name="psi" unicode="&#x3c8;" horiz-adv-x="1679" 
d="M801 -377h-316l82 367q-456 62 -456 411q0 71 18 144l100 444h316l-109 -479q-8 -36 -8 -57q0 -145 203 -187l252 1100h315l-252 -1100q126 24 206 85t103 159l109 479h315l-118 -520q-47 -205 -222.5 -337t-457.5 -152z" />
    <glyph glyph-name="omega" unicode="&#x3c9;" horiz-adv-x="1792" 
d="M1761 637q0 -173 -71.5 -324t-202.5 -244.5t-291 -93.5q-151 0 -237.5 71t-112.5 200q-89 -137 -184 -204t-236 -67q-177 0 -284 118t-107 294q0 178 99 344t255 283l205 -178q-232 -197 -232 -408q0 -77 36.5 -125.5t105.5 -48.5q86 0 148.5 68t86.5 174l56 247h315
l-55 -247q-24 -105 9 -173.5t122 -68.5q111 0 180.5 101.5t69.5 242.5q0 144 -72 248l274 168q56 -64 89.5 -163t33.5 -214z" />
    <glyph glyph-name="iotadieresis" unicode="&#x3ca;" horiz-adv-x="573" 
d="M827 1276q0 -70 -55.5 -124t-126.5 -54q-60 0 -100.5 41t-40.5 102q0 70 55.5 124t126.5 54q60 0 100.5 -41t40.5 -102zM391 1276q0 -70 -55.5 -124t-126.5 -54q-61 0 -102 41t-41 102q0 70 55.5 124t126.5 54q62 0 102.5 -40.5t40.5 -102.5zM307 -25q-151 0 -213.5 74.5
t-30.5 216.5l166 723h314l-150 -657q-9 -37 7.5 -57.5t50.5 -20.5q26 0 41 6l-39 -266q-62 -19 -146 -19z" />
    <glyph glyph-name="upsilondieresis" unicode="&#x3cb;" horiz-adv-x="1196" 
d="M1163 1276q0 -70 -55.5 -124t-126.5 -54q-60 0 -100.5 41t-40.5 102q0 70 55.5 124t126.5 54q60 0 100.5 -41t40.5 -102zM727 1276q0 -70 -55.5 -124t-126.5 -54q-62 0 -103 41t-41 102q0 70 56 124t127 54q62 0 102.5 -40.5t40.5 -102.5zM535 -25q-127 0 -221.5 37
t-145 102.5t-67.5 154.5t10 194l118 526h316l-121 -530q-21 -92 14 -148.5t123 -56.5q133 0 214 117t81 295q0 142 -43 235l311 113q29 -57 43.5 -143t14.5 -166q0 -206 -78.5 -371.5t-227 -262t-341.5 -96.5z" />
    <glyph glyph-name="omicrontonos" unicode="&#x3cc;" horiz-adv-x="1179" 
d="M784 1120h-131l144 447h245zM551 -25q-241 0 -375.5 128t-134.5 327q0 114 43.5 220t119 186.5t185 129t234.5 48.5q242 0 376 -128t134 -329q0 -114 -43.5 -219.5t-119 -186t-185 -128.5t-234.5 -48zM563 254q107 0 177.5 86.5t70.5 202.5q0 90 -53 141t-146 51
q-109 0 -178 -86t-69 -203q0 -90 52.5 -141t145.5 -51z" />
    <glyph glyph-name="upsilontonos" unicode="&#x3cd;" horiz-adv-x="1196" 
d="M809 1120h-131l143 447h246zM535 -25q-127 0 -221.5 37t-145 102.5t-67.5 154.5t10 194l118 526h316l-121 -530q-21 -92 14 -148.5t123 -56.5q133 0 214 117t81 295q0 142 -43 235l311 113q29 -57 43.5 -143t14.5 -166q0 -206 -78.5 -371.5t-227 -262t-341.5 -96.5z" />
    <glyph glyph-name="omegatonos" unicode="&#x3ce;" horiz-adv-x="1792" 
d="M1094 1120h-131l143 447h246zM1761 637q0 -173 -71.5 -324t-202.5 -244.5t-291 -93.5q-151 0 -237.5 71t-112.5 200q-89 -137 -184 -204t-236 -67q-177 0 -284 118t-107 294q0 178 99 344t255 283l205 -178q-232 -197 -232 -408q0 -77 36.5 -125.5t105.5 -48.5
q86 0 148.5 68t86.5 174l56 247h315l-55 -247q-24 -105 9 -173.5t122 -68.5q111 0 180.5 101.5t69.5 242.5q0 144 -72 248l274 168q56 -64 89.5 -163t33.5 -214z" />
    <glyph glyph-name="afii10023" unicode="&#x401;" 
d="M1253 1618q0 -70 -55.5 -124t-126.5 -54q-60 0 -100.5 41t-40.5 102q0 70 55.5 124t126.5 54q60 0 100.5 -41t40.5 -102zM817 1618q0 -70 -55.5 -124t-126.5 -54q-61 0 -102 41t-41 102q0 70 55.5 124t126.5 54q62 0 102.5 -40.5t40.5 -102.5zM1014 0h-1002l301 1366
h1002l-70 -307h-647l-47 -213h635l-68 -307h-635l-51 -232h649z" />
    <glyph glyph-name="afii10051" unicode="&#x402;" horiz-adv-x="1619" 
d="M958 -25l66 295q72 0 121 36.5t61 96.5l2 15q15 74 -34.5 112.5t-151.5 38.5q-129 0 -238 -39l-114 -530h-353l232 1059h-385l69 307h1117l-68 -307h-381l-47 -219q161 37 285 37q132 0 226 -35t142 -96.5t64.5 -145.5t-6.5 -182l-4 -15q-26 -128 -112.5 -225.5
t-214 -150t-276.5 -52.5z" />
    <glyph glyph-name="afii10052" unicode="&#x403;" horiz-adv-x="1191" 
d="M1321 1776l-391 -295h-217l325 295h283zM365 0h-353l301 1366h1002l-70 -307h-647z" />
    <glyph glyph-name="afii10053" unicode="&#x404;" horiz-adv-x="1417" 
d="M766 -25q-144 0 -270.5 44t-220 123t-147.5 196.5t-54 257.5q0 175 64.5 324.5t174.5 251.5t257.5 159.5t310.5 57.5q133 0 243 -35t185.5 -96t125.5 -133t78 -156l-339 -111q-29 102 -112 160.5t-198 58.5q-118 0 -215.5 -63t-152.5 -168h571l-70 -307h-548
q26 -112 115 -182t222 -70q84 0 167.5 44t129.5 113l275 -180q-59 -80 -135 -138.5t-155.5 -90t-154 -46t-147.5 -14.5z" />
    <glyph glyph-name="afii10054" unicode="&#x405;" horiz-adv-x="1241" 
d="M631 -25q-206 0 -380 71t-271 190l215 253q71 -94 198 -152t266 -58q78 0 118 33t40 75q0 30 -36.5 56t-94.5 47.5t-128 45t-140.5 56.5t-128.5 75t-94.5 107t-36.5 146q0 70 23 137t70 126.5t112.5 105t157 71.5t196.5 26q168 0 318.5 -58.5t252.5 -166.5l-215 -246
q-75 83 -188.5 126.5t-222.5 43.5q-59 0 -96.5 -27.5t-37.5 -68.5q0 -29 36.5 -53.5t95 -46t129 -45.5t141 -57.5t129 -76t95 -108t36.5 -145.5q0 -206 -153 -344t-406 -138z" />
    <glyph glyph-name="afii10055" unicode="&#x406;" horiz-adv-x="598" 
d="M365 0h-353l301 1366h353z" />
    <glyph glyph-name="afii10056" unicode="&#x407;" horiz-adv-x="598" 
d="M922 1618q0 -70 -56 -124t-127 -54q-60 0 -100.5 41t-40.5 102q0 70 55.5 124t126.5 54q60 0 101 -41t41 -102zM485 1618q0 -70 -55.5 -124t-126.5 -54q-61 0 -102 41t-41 102q0 70 55.5 124t126.5 54q62 0 102.5 -40.5t40.5 -102.5zM365 0h-353l301 1366h353z" />
    <glyph glyph-name="afii10057" unicode="&#x408;" horiz-adv-x="1007" 
d="M344 -25q-120 0 -231.5 37t-180.5 109l187 264q32 -43 85.5 -70.5t112.5 -27.5q84 0 137 48.5t72 137.5l197 893h352l-198 -897q-56 -255 -183 -374.5t-350 -119.5z" />
    <glyph glyph-name="afii10058" unicode="&#x409;" horiz-adv-x="2236" 
d="M-70 -25l68 312q68 0 120 31t106 118t106 238l235 692h1018l-100 -459h309q177 0 290 -113.5t113 -277.5q0 -65 -17 -131.5t-60 -137t-107 -124.5t-168 -88.5t-233 -34.5h-678l231 1059h-348l-139 -412q-54 -162 -120.5 -282t-135.5 -194t-152.5 -118.5t-162.5 -61
t-175 -16.5zM1688 600h-273l-63 -293h276q86 0 143.5 48t57.5 124q0 55 -38 88t-103 33z" />
    <glyph glyph-name="afii10059" unicode="&#x40a;" horiz-adv-x="2236" 
d="M1620 0h-688l127 584h-567l-127 -584h-353l299 1366h353l-105 -475h565l107 475h352l-104 -475h319q174 0 283.5 -111t109.5 -274q0 -64 -16.5 -129t-58 -134t-104 -122t-164 -87t-228.5 -34zM1694 584h-283l-59 -277h286q81 0 136 45.5t55 116.5q0 52 -36.5 83.5
t-98.5 31.5z" />
    <glyph glyph-name="afii10060" unicode="&#x40b;" horiz-adv-x="1693" 
d="M1118 0l78 360q24 112 -22 160.5t-152 48.5q-129 0 -238 -39l-114 -530h-353l232 1059h-385l69 307h1117l-68 -307h-381l-47 -219q161 37 285 37q262 0 364 -138.5t49 -378.5l-77 -360h-357z" />
    <glyph glyph-name="afii10061" unicode="&#x40c;" horiz-adv-x="1339" 
d="M1376 1776l-391 -295h-217l326 295h282zM1247 0h-413l-254 526l-127 -127l-88 -399h-353l301 1366h353l-117 -535l518 535h453l-670 -639z" />
    <glyph glyph-name="afii10062" unicode="&#x40e;" horiz-adv-x="1341" 
d="M217 -25q-100 0 -185.5 27.5t-135.5 77.5l198 274q71 -67 162 -67q61 0 102 24.5t84 81.5l-276 973h391l156 -641l438 641h401l-796 -1098q-101 -138 -231.5 -215.5t-307.5 -77.5zM1262 1604q-81 -85 -185 -133t-213 -48q-107 0 -191.5 48.5t-129.5 132.5l153 110
q60 -119 199 -119q140 0 250 119z" />
    <glyph glyph-name="afii10145" unicode="&#x40f;" horiz-adv-x="1517" 
d="M414 -256l55 256h-457l299 1366h353l-232 -1059h565l234 1059h352l-299 -1366h-461l-55 -256h-354z" />
    <glyph glyph-name="afii10017" unicode="&#x410;" horiz-adv-x="1427" 
d="M1339 0h-383l-24 197h-539l-108 -197h-418l815 1366h442zM905 504l-61 514l-287 -514h348z" />
    <glyph glyph-name="afii10018" unicode="&#x411;" horiz-adv-x="1316" 
d="M311 1366h1067l-67 -307h-715l-39 -176h264q109 0 196.5 -30t143 -82.5t84.5 -121t29 -147.5q0 -63 -17 -127.5t-59.5 -133t-106 -121t-167 -86.5t-232.5 -34h-680zM786 575h-297l-57 -268h289q86 0 137 44t51 112q0 51 -33.5 81.5t-89.5 30.5z" />
    <glyph glyph-name="afii10019" unicode="&#x412;" horiz-adv-x="1392" 
d="M813 0h-801l301 1366h713q93 0 167.5 -28t120.5 -75.5t70.5 -106.5t24.5 -124q0 -133 -92.5 -237t-216.5 -115q92 -25 143 -102t51 -170q0 -74 -26.5 -143t-81 -130t-151 -98t-222.5 -37zM889 842q75 0 109 38t34 91q0 42 -29.5 70t-76.5 28h-324l-51 -227h338zM782 297
q73 0 116.5 39.5t43.5 99.5q0 47 -30.5 77t-82.5 30h-344l-55 -246h352z" />
    <glyph glyph-name="afii10020" unicode="&#x413;" horiz-adv-x="1191" 
d="M365 0h-353l301 1366h1002l-70 -307h-647z" />
    <glyph glyph-name="afii10021" unicode="&#x414;" horiz-adv-x="1546" 
d="M-119 -252l117 539q56 10 95 27t81 57.5t79.5 114.5t76.5 188l235 692h1018l-231 -1059h121l-123 -559h-355l56 252h-764l-56 -252h-350zM815 1059l-139 -412q-71 -214 -223 -340h544l166 752h-348z" />
    <glyph glyph-name="afii10022" unicode="&#x415;" 
d="M1014 0h-1002l301 1366h1002l-70 -307h-647l-47 -213h635l-68 -307h-635l-51 -232h649z" />
    <glyph glyph-name="afii10024" unicode="&#x416;" horiz-adv-x="1988" 
d="M322 0h-451l717 727l-389 639h411l281 -532l117 532h352l-105 -473l459 473h453l-670 -639l401 -727h-411l-254 528l-72 -71l-100 -457h-352l98 453l-27 47z" />
    <glyph glyph-name="afii10025" unicode="&#x417;" horiz-adv-x="1277" 
d="M627 -25q-208 0 -388.5 74.5t-263.5 210.5l230 215q66 -90 186.5 -139t231.5 -49q105 0 162 39.5t57 101.5q0 107 -240 107h-278l69 309h291q252 0 252 114q0 57 -70 88t-194 31q-91 0 -184 -26t-158 -74l-121 237q88 78 222 125t276 47q268 0 430.5 -97t162.5 -265
q0 -82 -55.5 -155.5t-138.5 -118.5t-174 -58q256 -63 256 -303q0 -118 -79 -214t-206.5 -148t-275.5 -52z" />
    <glyph glyph-name="afii10026" unicode="&#x418;" horiz-adv-x="1515" 
d="M352 0h-340l301 1366h353l-170 -776l723 776h364l-301 -1366h-354l180 815z" />
    <glyph glyph-name="afii10027" unicode="&#x419;" horiz-adv-x="1515" 
d="M352 0h-340l301 1366h353l-170 -776l723 776h364l-301 -1366h-354l180 815zM1354 1604q-81 -85 -185 -133t-213 -48q-107 0 -191.5 48.5t-129.5 132.5l153 110q60 -119 199 -119q140 0 250 119z" />
    <glyph glyph-name="afii10028" unicode="&#x41a;" horiz-adv-x="1339" 
d="M1247 0h-413l-254 526l-127 -127l-88 -399h-353l301 1366h353l-117 -535l518 535h453l-670 -639z" />
    <glyph glyph-name="afii10029" unicode="&#x41b;" horiz-adv-x="1517" 
d="M-70 -25l68 312q68 0 120 31t106 118t106 238l235 692h1018l-299 -1366h-352l231 1059h-348l-139 -412q-54 -162 -120.5 -282t-135.5 -194t-152.5 -118.5t-162.5 -61t-175 -16.5z" />
    <glyph glyph-name="afii10030" unicode="&#x41c;" horiz-adv-x="1796" 
d="M1563 0h-353l199 903l-545 -903h-155l-146 903l-198 -903h-353l301 1366h478l118 -756l453 756h502z" />
    <glyph glyph-name="afii10031" unicode="&#x41d;" horiz-adv-x="1517" 
d="M1284 0h-352l121 549h-568l-120 -549h-353l301 1366h353l-113 -510h567l113 510h352z" />
    <glyph glyph-name="afii10032" unicode="&#x41e;" horiz-adv-x="1568" 
d="M766 -25q-195 0 -352 76t-248.5 218.5t-91.5 326.5q0 163 61.5 309t168 252.5t257 169t320.5 62.5q195 0 352 -76t248.5 -217.5t91.5 -323.5q0 -164 -61.5 -311t-168 -254t-257 -169.5t-320.5 -62.5zM786 287q178 0 299 133.5t121 324.5q0 149 -96.5 240.5t-249.5 91.5
q-178 0 -299 -134t-121 -325q0 -148 96.5 -239.5t249.5 -91.5z" />
    <glyph glyph-name="afii10033" unicode="&#x41f;" horiz-adv-x="1517" 
d="M1284 0h-352l233 1059h-567l-233 -1059h-353l301 1366h1272z" />
    <glyph glyph-name="afii10034" unicode="&#x420;" horiz-adv-x="1316" 
d="M365 0h-353l301 1366h662q177 0 289 -113t112 -278q0 -65 -16.5 -131.5t-59.5 -137t-106.5 -124.5t-167.5 -88.5t-233 -34.5h-328zM532 766h279q86 0 143.5 48t57.5 122q0 56 -39 89.5t-103 33.5h-272z" />
    <glyph glyph-name="afii10035" unicode="&#x421;" horiz-adv-x="1417" 
d="M766 -25q-144 0 -270.5 44t-220 123t-147.5 196.5t-54 257.5q0 175 64.5 324.5t174.5 251.5t257.5 159.5t310.5 57.5q133 0 243 -35t185.5 -96t125.5 -133t78 -156l-339 -111q-29 102 -112 160.5t-198 58.5q-117 0 -214.5 -62t-153.5 -167.5t-56 -229.5q0 -142 95 -236.5
t251 -94.5q84 0 167.5 44t129.5 113l275 -180q-59 -80 -135 -138.5t-155.5 -90t-154 -46t-147.5 -14.5z" />
    <glyph glyph-name="afii10036" unicode="&#x422;" 
d="M670 0h-353l232 1059h-383l70 307h1116l-68 -307h-383z" />
    <glyph glyph-name="afii10037" unicode="&#x423;" horiz-adv-x="1341" 
d="M217 -25q-100 0 -185.5 27.5t-135.5 77.5l198 274q71 -67 162 -67q61 0 102 24.5t84 81.5l-276 973h391l156 -641l438 641h401l-796 -1098q-101 -138 -231.5 -215.5t-307.5 -77.5z" />
    <glyph glyph-name="afii10038" unicode="&#x424;" horiz-adv-x="1802" 
d="M967 0h-355l33 143q-283 34 -422 156.5t-139 343.5q0 163 102.5 292t285 204.5t421.5 89.5l31 137h354l-33 -147q283 -34 422 -156.5t139 -343.5q0 -163 -102.5 -292t-285.5 -204.5t-421 -89.5zM1440 719q0 154 -266 192l-105 -460q182 22 276.5 90.5t94.5 177.5z
M453 643q0 -156 262 -190l104 458q-182 -22 -274 -90t-92 -178z" />
    <glyph glyph-name="afii10039" unicode="&#x425;" horiz-adv-x="1384" 
d="M1294 0h-397l-211 438l-383 -438h-436l645 721l-313 645h397l188 -410l344 410h437l-604 -686z" />
    <glyph glyph-name="afii10040" unicode="&#x426;" horiz-adv-x="1546" 
d="M995 -252l56 252h-1039l299 1366h353l-232 -1059h565l234 1059h352l-231 -1059h121l-123 -559h-355z" />
    <glyph glyph-name="afii10041" unicode="&#x427;" horiz-adv-x="1372" 
d="M637 1366l-88 -408q-26 -111 20 -159.5t152 -48.5q134 0 237 38l127 578h353l-299 -1366h-353l105 479q-161 -37 -287 -37q-262 0 -364.5 138t-49.5 378l91 408h356z" />
    <glyph glyph-name="afii10042" unicode="&#x428;" horiz-adv-x="2082" 
d="M1796 1366h352l-299 -1366h-1837l299 1366h353l-232 -1059h389l234 1059h352l-233 -1059h391z" />
    <glyph glyph-name="afii10043" unicode="&#x429;" horiz-adv-x="2113" 
d="M1796 1366h352l-231 -1059h121l-123 -559h-352l55 252h-1606l299 1366h353l-232 -1059h389l234 1059h352l-233 -1059h391z" />
    <glyph glyph-name="afii10044" unicode="&#x42a;" horiz-adv-x="1622" 
d="M995 0h-678l232 1059h-385l69 307h736l-101 -459h308q178 0 290.5 -113t112.5 -278q0 -45 -8.5 -92t-28.5 -98t-50.5 -97.5t-77.5 -88.5t-105.5 -73t-139 -49t-174.5 -18zM1073 600h-272l-66 -293h277q86 0 144 48.5t58 123.5q0 55 -39 88t-102 33z" />
    <glyph glyph-name="afii10045" unicode="&#x42b;" horiz-adv-x="1857" 
d="M1624 0h-352l299 1366h352zM311 1366h353l-101 -459h309q177 0 289.5 -113t112.5 -278q0 -45 -8.5 -92t-28.5 -98t-50.5 -97.5t-77.5 -88.5t-105.5 -73t-139 -49t-174.5 -18h-678zM768 600h-272l-64 -293h277q86 0 143 48t57 124q0 55 -38 88t-103 33z" />
    <glyph glyph-name="afii10046" unicode="&#x42c;" horiz-adv-x="1316" 
d="M311 1366h353l-101 -459h309q177 0 289.5 -113t112.5 -278q0 -45 -8.5 -92t-28.5 -98t-50.5 -97.5t-77.5 -88.5t-105.5 -73t-139 -49t-174.5 -18h-678zM768 600h-272l-64 -293h277q86 0 143 48t57 124q0 55 -38 88t-103 33z" />
    <glyph glyph-name="afii10047" unicode="&#x42d;" horiz-adv-x="1417" 
d="M729 1389q192 0 348.5 -74.5t250 -217t93.5 -327.5q0 -141 -41.5 -266.5t-116.5 -221t-175.5 -165.5t-222.5 -106t-253 -36q-132 0 -242 35t-185 96t-125 133t-78 156l340 111q29 -102 111.5 -160.5t195.5 -58.5q124 0 224.5 68.5t154.5 183.5h-574l68 307h538
q-30 104 -117.5 167.5t-213.5 63.5q-83 0 -167.5 -44t-131.5 -113l-273 180q58 80 134 138.5t156 90t154.5 46t147.5 14.5z" />
    <glyph glyph-name="afii10048" unicode="&#x42e;" horiz-adv-x="2201" 
d="M1399 -25q-187 0 -339 70t-245 201.5t-104 302.5h-226l-120 -549h-353l299 1366h353l-113 -510h201q79 237 286 385t478 148q195 0 351.5 -76t247.5 -217.5t91 -323.5q0 -164 -61.5 -311t-168 -254t-257 -169.5t-320.5 -62.5zM1419 287q179 0 300.5 134t121.5 324
q0 148 -97 240t-249 92q-118 0 -215.5 -62t-152 -167t-54.5 -230q0 -148 96.5 -239.5t249.5 -91.5z" />
    <glyph glyph-name="afii10049" unicode="&#x42f;" horiz-adv-x="1353" 
d="M389 0h-434l399 512q-82 42 -139 131t-57 207q0 65 16.5 131.5t59.5 137t106.5 124.5t167.5 88.5t233 34.5h680l-301 -1366h-354l102 459h-147zM666 766h272l63 293h-278q-84 0 -141.5 -48t-57.5 -122q0 -57 38.5 -90t103.5 -33z" />
    <glyph glyph-name="afii10065" unicode="&#x430;" horiz-adv-x="1210" 
d="M561 1014q94 0 174.5 -37t126.5 -105l27 117h313l-219 -989h-313l24 115q-122 -140 -282 -140q-169 0 -270 108t-101 302q0 111 34 220t96.5 201.5t164 150t225.5 57.5zM616 735q-107 0 -178 -82.5t-71 -201.5q0 -88 54.5 -142.5t137.5 -54.5q107 0 186 92l68 299
q-32 41 -84 65.5t-113 24.5z" />
    <glyph glyph-name="afii10066" unicode="&#x431;" horiz-adv-x="1181" 
d="M563 254q107 0 177.5 86.5t70.5 202.5q0 90 -53 141t-146 51q-109 0 -178 -86t-69 -203q0 -90 52.5 -141t145.5 -51zM551 -25q-243 0 -370.5 133.5t-127.5 362.5q0 79 28 189t73 194q101 182 247.5 291t368.5 149q159 28 170 72h340q-48 -214 -463 -272
q-166 -23 -258.5 -81t-134.5 -145q136 136 330 136q174 0 276.5 -125t102.5 -322q0 -114 -43 -219.5t-118.5 -186t-185 -128.5t-235.5 -48z" />
    <glyph glyph-name="afii10067" unicode="&#x432;" horiz-adv-x="1232" 
d="M729 0h-725l217 989h629q139 0 219 -63t80 -162q0 -96 -63 -170t-162 -94q69 -25 107 -75.5t38 -117.5q0 -129 -92.5 -218t-247.5 -89zM373 244h305q36 0 59 22t23 56q0 26 -19 42.5t-51 16.5h-287zM457 623h284q35 0 56.5 20.5t21.5 50.5q0 24 -16 37.5t-45 13.5h-277z
" />
    <glyph glyph-name="afii10068" unicode="&#x433;" horiz-adv-x="931" 
d="M1006 989l-62 -274h-469l-156 -715h-315l217 989h785z" />
    <glyph glyph-name="afii10069" unicode="&#x434;" horiz-adv-x="1239" 
d="M-129 -252l111 514q33 6 54 15.5t47.5 34.5t52.5 74.5t54 127.5l170 475h846l-157 -715h108l-117 -526h-313l55 252h-542l-56 -252h-313zM571 715l-71 -211q-52 -150 -148 -230h381l96 441h-258z" />
    <glyph glyph-name="afii10070" unicode="&#x435;" horiz-adv-x="1122" 
d="M569 -25q-240 0 -383 119t-143 330q0 158 73.5 292.5t207.5 216t299 81.5q127 0 228.5 -50.5t163.5 -153.5t62 -243q0 -85 -20 -172h-701v-12q0 -49 64.5 -106.5t173.5 -57.5q63 0 127.5 17t103.5 45l97 -209q-69 -48 -163.5 -72.5t-189.5 -24.5zM387 600h410q2 2 2 14
q0 57 -49 106.5t-142 49.5q-83 0 -145.5 -53.5t-75.5 -116.5z" />
    <glyph glyph-name="afii10072" unicode="&#x436;" horiz-adv-x="1581" 
d="M285 0h-408l500 539l-264 450h362l187 -348l77 348h316l-66 -297l293 297h399l-464 -450l266 -539h-371l-145 365l-62 -60l-67 -305h-316l66 301l-21 35z" />
    <glyph glyph-name="afii10073" unicode="&#x437;" horiz-adv-x="1019" 
d="M580 1014q232 0 339 -69.5t107 -190.5q0 -59 -32.5 -110.5t-82.5 -84t-104.5 -52t-104.5 -22.5q99 -17 158.5 -69.5t59.5 -122.5q0 -135 -144.5 -226.5t-367.5 -91.5q-146 0 -264 46t-189 122l186 174q106 -100 258 -100q90 0 143.5 26.5t53.5 67.5q0 30 -32.5 50
t-104.5 20h-203l53 235h193q194 0 194 89q0 67 -145 67q-81 0 -173.5 -26t-170.5 -76l-107 194q95 68 221 109t259 41z" />
    <glyph glyph-name="afii10074" unicode="&#x438;" horiz-adv-x="1214" 
d="M305 0h-301l217 989h316l-115 -518l467 518h317l-217 -989h-315l119 545z" />
    <glyph glyph-name="afii10075" unicode="&#x439;" horiz-adv-x="1214" 
d="M305 0h-301l217 989h316l-115 -518l467 518h317l-217 -989h-315l119 545zM1130 1262q-81 -85 -184.5 -133t-212.5 -48q-107 0 -191.5 48.5t-129.5 132.5l153 110q59 -119 199 -119t250 119z" />
    <glyph glyph-name="afii10076" unicode="&#x43a;" horiz-adv-x="1118" 
d="M1020 0h-379l-143 356l-127 -118l-52 -238h-315l219 989h316l-86 -379l374 379h394l-465 -450z" />
    <glyph glyph-name="afii10077" unicode="&#x43b;" horiz-adv-x="1214" 
d="M-78 -25l55 258q57 0 107 63t106 218l170 475h846l-217 -989h-315l155 715h-258l-84 -242q-88 -252 -221.5 -375t-343.5 -123z" />
    <glyph glyph-name="afii10078" unicode="&#x43c;" horiz-adv-x="1474" 
d="M1249 0h-313l127 592l-354 -592h-162l-98 592l-130 -592h-315l217 989h406l88 -534l325 534h426z" />
    <glyph glyph-name="afii10079" unicode="&#x43d;" horiz-adv-x="1214" 
d="M319 0h-315l225 989h316l-76 -336h354l76 336h315l-225 -989h-315l86 379h-354z" />
    <glyph glyph-name="afii10080" unicode="&#x43e;" horiz-adv-x="1179" 
d="M551 -25q-241 0 -375.5 128t-134.5 327q0 114 43.5 220t119 186.5t185 129t234.5 48.5q242 0 376 -128t134 -329q0 -114 -43.5 -219.5t-119 -186t-185 -128.5t-234.5 -48zM563 254q107 0 177.5 86.5t70.5 202.5q0 90 -53 141t-146 51q-109 0 -178 -86t-69 -203
q0 -90 52.5 -141t145.5 -51z" />
    <glyph glyph-name="afii10081" unicode="&#x43f;" horiz-adv-x="1214" 
d="M989 0h-315l164 715h-357l-162 -715h-315l225 989h985z" />
    <glyph glyph-name="afii10082" unicode="&#x440;" 
d="M645 -25q-93 0 -172.5 37t-128.5 105l-108 -494h-316l303 1366h316l-27 -115q123 140 283 140q170 0 271 -108.5t101 -303.5q0 -87 -21 -174.5t-64.5 -169t-104 -144.5t-146.5 -101t-186 -38zM592 254q106 0 178 83t72 200q0 89 -55.5 143.5t-137.5 54.5q-103 0 -188 -92
l-66 -299q32 -41 84 -65.5t113 -24.5z" />
    <glyph glyph-name="afii10083" unicode="&#x441;" horiz-adv-x="1024" 
d="M547 -25q-229 0 -366.5 126.5t-137.5 328.5q0 161 77 295t212 211.5t297 77.5q153 0 259 -55t161 -146l-236 -178q-28 45 -76 72.5t-110 27.5q-116 0 -190.5 -82.5t-74.5 -203.5q0 -90 62 -142.5t154 -52.5q54 0 103 24.5t83 63.5l170 -207q-61 -66 -161.5 -113
t-225.5 -47z" />
    <glyph glyph-name="afii10084" unicode="&#x442;" horiz-adv-x="919" 
d="M508 0h-315l155 715h-270l61 274h854l-61 -274h-268z" />
    <glyph glyph-name="afii10085" unicode="&#x443;" horiz-adv-x="1073" 
d="M-98 -377l100 271q37 -15 102 -15q76 0 113 53l39 64l-168 993h324l82 -627l366 627h342l-698 -1130q-88 -144 -184.5 -202t-235.5 -58q-106 0 -182 24z" />
    <glyph glyph-name="afii10086" unicode="&#x444;" horiz-adv-x="1738" 
d="M512 1014q82 0 161 -37t120 -105l108 494h316l-111 -492q110 140 268 140q79 0 142.5 -33.5t102 -89t59 -123.5t20.5 -141q0 -93 -21 -186.5t-62.5 -177t-98 -148t-133 -102.5t-162.5 -38q-82 0 -161 37t-118 105l-111 -494h-313l109 492q-59 -76 -123.5 -108t-143.5 -32
q-80 0 -143.5 33.5t-101.5 89t-58 123.5t-20 141q0 117 33.5 232.5t93 209t151 152t197.5 58.5zM582 735q-92 0 -156 -95t-64 -210q0 -77 38.5 -126.5t105.5 -49.5q94 0 170 90l67 301q-19 40 -62.5 65t-98.5 25zM1151 254q61 0 112.5 46t79 115.5t27.5 143.5
q0 77 -38 126.5t-105 49.5q-94 0 -170 -90l-66 -301q18 -39 61 -64.5t99 -25.5z" />
    <glyph glyph-name="afii10087" unicode="&#x445;" horiz-adv-x="1048" 
d="M950 0h-336l-125 299l-258 -299h-354l449 508l-209 481h338l108 -268l228 268h356l-424 -481z" />
    <glyph glyph-name="afii10088" unicode="&#x446;" horiz-adv-x="1239" 
d="M727 -252l55 252h-778l217 989h316l-158 -715h354l158 715h315l-157 -715h108l-117 -526h-313z" />
    <glyph glyph-name="afii10089" unicode="&#x447;" horiz-adv-x="1189" 
d="M197 989h315l-61 -272q-20 -88 16 -125t125 -37q109 0 186 41l88 393h314l-217 -989h-314l74 346q-129 -70 -311 -70q-195 0 -264.5 87t-32.5 251z" />
    <glyph glyph-name="afii10090" unicode="&#x448;" horiz-adv-x="1759" 
d="M1436 989h315l-217 -989h-1530l217 989h316l-158 -715h293l157 715h316l-158 -715h291z" />
    <glyph glyph-name="afii10091" unicode="&#x449;" horiz-adv-x="1789" 
d="M1436 989h315l-158 -715h109l-117 -526h-313l55 252h-1323l217 989h316l-158 -715h293l157 715h316l-158 -715h291z" />
    <glyph glyph-name="afii10092" unicode="&#x44a;" horiz-adv-x="1353" 
d="M877 0h-684l155 715h-270l61 274h586l-70 -317h256q165 0 262 -81.5t97 -215.5q0 -96 -46 -180.5t-137.5 -139.5t-209.5 -55zM862 418h-264l-35 -164h281q45 0 74.5 27t29.5 67q0 32 -23 51t-63 19z" />
    <glyph glyph-name="afii10093" unicode="&#x44b;" horiz-adv-x="1652" 
d="M1427 0h-315l217 989h316zM221 989h316l-70 -317h256q165 0 261.5 -81.5t96.5 -215.5q0 -96 -46 -180.5t-137.5 -139.5t-209.5 -55h-684zM674 418h-264l-35 -164h282q44 0 73.5 27t29.5 67q0 32 -23 51t-63 19z" />
    <glyph glyph-name="afii10094" unicode="&#x44c;" horiz-adv-x="1165" 
d="M221 989h316l-70 -317h256q165 0 261.5 -81.5t96.5 -215.5q0 -96 -46 -180.5t-137.5 -139.5t-209.5 -55h-684zM674 418h-264l-35 -164h282q44 0 73.5 27t29.5 67q0 32 -23 51t-63 19z" />
    <glyph glyph-name="afii10095" unicode="&#x44d;" horiz-adv-x="1024" 
d="M477 1014q229 0 365.5 -126.5t136.5 -328.5q0 -161 -77 -295t-212 -211.5t-297 -77.5q-153 0 -258 55t-160 146l224 170q30 -44 81.5 -71t112.5 -27q77 0 137.5 37.5t94.5 103.5h-351l48 217h325q-21 62 -76 97.5t-125 35.5q-115 0 -194 -82l-162 197q61 67 161 113.5
t226 46.5z" />
    <glyph glyph-name="afii10096" unicode="&#x44e;" horiz-adv-x="1701" 
d="M1075 -25q-224 0 -356 110.5t-152 289.5h-166l-82 -375h-315l217 989h316l-76 -340h147q64 161 207.5 263t331.5 102q242 0 376 -128t134 -329q0 -114 -43.5 -219.5t-119 -186t-185 -128.5t-234.5 -48zM1085 254q109 0 178.5 86t69.5 203q0 91 -52 141.5t-146 50.5
q-107 0 -176.5 -86t-69.5 -203q0 -91 52 -141.5t144 -50.5z" />
    <glyph glyph-name="afii10097" unicode="&#x44f;" horiz-adv-x="1204" 
d="M340 0h-363l302 362q-66 29 -111 95t-45 157q0 97 46 181.5t138 139t211 54.5h684l-217 -989h-315l67 317h-164zM532 571h261l36 164h-280q-45 0 -75 -27t-30 -67q0 -32 24 -51t64 -19z" />
    <glyph glyph-name="afii10071" unicode="&#x451;" horiz-adv-x="1122" 
d="M1133 1276q0 -70 -56 -124t-127 -54q-60 0 -100.5 41t-40.5 102q0 70 55.5 124t126.5 54q60 0 101 -41t41 -102zM696 1276q0 -70 -55.5 -124t-126.5 -54q-62 0 -102.5 41t-40.5 102q0 70 55.5 124t126.5 54q61 0 102 -40.5t41 -102.5zM569 -25q-240 0 -383 119t-143 330
q0 158 73.5 292.5t207.5 216t299 81.5q127 0 228.5 -50.5t163.5 -153.5t62 -243q0 -85 -20 -172h-701v-12q0 -49 64.5 -106.5t173.5 -57.5q63 0 127.5 17t103.5 45l97 -209q-69 -48 -163.5 -72.5t-189.5 -24.5zM387 600h410q2 2 2 14q0 57 -49 106.5t-142 49.5
q-83 0 -145.5 -53.5t-75.5 -116.5z" />
    <glyph glyph-name="afii10099" unicode="&#x452;" horiz-adv-x="1224" 
d="M850 1075h-285l-45 -207q67 61 163.5 103.5t211.5 42.5q162 0 226 -83.5t32 -225.5l-154 -697q-40 -187 -161.5 -298t-311.5 -111q-97 0 -144.5 14.5t-98.5 54.5l129 232q28 -24 51.5 -33.5t66.5 -9.5q57 0 98 38.5t56 112.5l127 567q19 86 -15.5 123t-113.5 37
q-108 0 -213 -96l-139 -639h-316l236 1075h-109l37 172h109l26 119h316l-27 -119h285z" />
    <glyph glyph-name="afii10100" unicode="&#x453;" horiz-adv-x="931" 
d="M1135 1434l-392 -295h-217l326 295h283zM1006 989l-62 -274h-469l-156 -715h-315l217 989h785z" />
    <glyph glyph-name="afii10101" unicode="&#x454;" horiz-adv-x="1024" 
d="M547 -25q-229 0 -366.5 126.5t-137.5 328.5q0 161 77 295t212 211.5t297 77.5q153 0 259 -55t161 -146l-226 -170q-28 44 -80 71t-114 27q-75 0 -135 -36.5t-95 -98.5h353l-50 -217h-331q20 -65 75.5 -102t128.5 -37q115 0 197 82l162 -197q-61 -66 -161.5 -113
t-225.5 -47z" />
    <glyph glyph-name="afii10102" unicode="&#x455;" horiz-adv-x="991" 
d="M461 -25q-139 0 -270 47.5t-220 133.5l166 202q52 -56 153.5 -104.5t198.5 -48.5q46 0 75.5 20.5t29.5 50.5q0 25 -27 45t-70.5 34.5t-96 30t-105 38t-96 52t-70.5 78.5t-27 112q0 68 28.5 130t80.5 111t134 78t181 29q125 0 242 -42.5t199 -117.5l-152 -195
q-43 47 -124.5 85t-164.5 38q-52 0 -81 -20.5t-29 -48.5q0 -21 27 -37.5t70.5 -30t96 -29t105.5 -39t96.5 -54t70.5 -80t27 -111.5q0 -154 -121.5 -255.5t-326.5 -101.5z" />
    <glyph glyph-name="afii10103" unicode="&#x456;" horiz-adv-x="544" 
d="M420 1077q-71 0 -117.5 46t-46.5 110q0 93 64.5 150t140.5 57q70 0 116 -45t46 -109q0 -93 -64 -151t-139 -58zM319 0h-315l219 989h316z" />
    <glyph glyph-name="afii10104" unicode="&#x457;" horiz-adv-x="544" 
d="M821 1276q0 -70 -55.5 -124t-126.5 -54q-60 0 -100.5 41t-40.5 102q0 70 55.5 124t126.5 54q60 0 100.5 -41t40.5 -102zM385 1276q0 -70 -55.5 -124t-126.5 -54q-62 0 -103 41t-41 102q0 70 56 124t127 54q62 0 102.5 -40.5t40.5 -102.5zM319 0h-315l219 989h316z" />
    <glyph glyph-name="afii10105" unicode="&#x458;" horiz-adv-x="544" 
d="M-94 -401q-200 0 -295 82l127 225q43 -49 121 -49q110 0 145 151l219 981h316l-220 -981q-41 -194 -139 -301.5t-274 -107.5zM420 1077q-71 0 -117.5 46t-46.5 110q0 93 64.5 150t140.5 57q70 0 116 -45t46 -109q0 -93 -64 -151t-139 -58z" />
    <glyph glyph-name="afii10106" unicode="&#x459;" horiz-adv-x="1835" 
d="M-80 -25l55 258q58 0 108.5 63t106.5 218l170 475h846l-69 -317h256q165 0 261.5 -81.5t96.5 -215.5q0 -96 -46 -180.5t-137.5 -139.5t-209.5 -55h-684l155 715h-258l-84 -242q-88 -252 -221.5 -375t-345.5 -123zM1343 418h-264l-35 -164h283q43 0 73 28t30 66
q0 32 -23.5 51t-63.5 19z" />
    <glyph glyph-name="afii10107" unicode="&#x45a;" horiz-adv-x="1835" 
d="M319 0h-315l217 989h316l-72 -327h354l72 327h315l-71 -327h264q162 0 257 -81t95 -212q0 -70 -27 -136t-75.5 -118t-122.5 -83.5t-162 -31.5h-690l86 387h-357zM1348 408h-271l-33 -154h287q42 0 69 25.5t27 64.5q0 29 -21 46.5t-58 17.5z" />
    <glyph glyph-name="afii10108" unicode="&#x45b;" horiz-adv-x="1222" 
d="M997 0h-315l121 561q10 45 10 66q0 56 -40.5 82t-108.5 26q-101 0 -197 -96l-139 -639h-316l236 1075h-107l39 172h107l26 119h316l-27 -119h287l-39 -172h-287l-47 -207q72 66 147.5 106t174.5 40q147 0 232 -71t85 -185q0 -32 -10 -82z" />
    <glyph glyph-name="afii10109" unicode="&#x45c;" horiz-adv-x="1118" 
d="M1190 1434l-391 -295h-217l325 295h283zM1020 0h-379l-143 356l-127 -118l-52 -238h-315l219 989h316l-86 -379l374 379h394l-465 -450z" />
    <glyph glyph-name="afii10110" unicode="&#x45e;" horiz-adv-x="1073" 
d="M-98 -377l100 271q37 -15 102 -15q76 0 113 53l39 64l-168 993h324l82 -627l366 627h342l-698 -1130q-88 -144 -184.5 -202t-235.5 -58q-106 0 -182 24zM1053 1262q-81 -85 -185 -133t-213 -48q-107 0 -191.5 48.5t-129.5 132.5l153 110q59 -119 199 -119t250 119z" />
    <glyph glyph-name="afii10193" unicode="&#x45f;" horiz-adv-x="1214" 
d="M283 -254l55 254h-334l217 989h316l-158 -715h354l158 715h315l-217 -989h-336l-57 -254h-313z" />
    <glyph glyph-name="afii10050" unicode="&#x490;" horiz-adv-x="1191" 
d="M365 0h-353l299 1366h650l55 252h352l-123 -559h-649z" />
    <glyph glyph-name="afii10098" unicode="&#x491;" horiz-adv-x="931" 
d="M475 715l-156 -715h-315l217 989h469l58 254h315l-119 -528h-469z" />
    <glyph glyph-name="uni1E02" unicode="&#x1e02;" horiz-adv-x="1392" 
d="M813 0h-801l301 1366h713q93 0 167.5 -28t120.5 -75.5t70.5 -106.5t24.5 -124q0 -133 -92.5 -237t-216.5 -115q92 -25 143 -102t51 -170q0 -74 -26.5 -143t-81 -130t-151 -98t-222.5 -37zM889 842q75 0 109 38t34 91q0 42 -29.5 70t-76.5 28h-324l-51 -227h338zM782 297
q73 0 116.5 39.5t43.5 99.5q0 47 -30.5 77t-82.5 30h-344l-55 -246h352zM1100 1618q0 -70 -55.5 -124t-126.5 -54q-62 0 -103 41t-41 102q0 70 55.5 124t126.5 54q62 0 103 -41t41 -102z" />
    <glyph glyph-name="uni1E03" unicode="&#x1e03;" horiz-adv-x="1210" 
d="M645 -25q-93 0 -172.5 37t-128.5 105l-25 -117h-315l301 1366h316l-109 -492q123 140 283 140q170 0 271 -108.5t101 -303.5q0 -87 -21 -174.5t-64.5 -169t-104 -144.5t-146.5 -101t-186 -38zM592 254q106 0 178 83t72 200q0 89 -55.5 143.5t-137.5 54.5q-103 0 -188 -92
l-66 -299q32 -41 84 -65.5t113 -24.5zM1030 1618q0 -70 -55.5 -124t-126.5 -54q-62 0 -102.5 41t-40.5 102q0 70 55.5 124t126.5 54q61 0 102 -40.5t41 -102.5z" />
    <glyph glyph-name="uni1E0A" unicode="&#x1e0a;" horiz-adv-x="1488" 
d="M584 0h-572l301 1366h564q114 0 222.5 -42.5t194 -117.5t137.5 -187t52 -241q0 -111 -28.5 -216.5t-96.5 -209t-168.5 -180.5t-256.5 -124.5t-349 -47.5zM639 307h10q107 0 196.5 36t148.5 97t91.5 142t32.5 172q0 129 -86 217t-219 88h-215l-166 -752h207zM1159 1618
q0 -70 -55.5 -124t-126.5 -54q-61 0 -102 41t-41 102q0 70 55.5 124t126.5 54q62 0 102.5 -40.5t40.5 -102.5z" />
    <glyph glyph-name="uni1E0B" unicode="&#x1e0b;" horiz-adv-x="1210" 
d="M561 1014q94 0 174.5 -37t126.5 -105l111 494h313l-303 -1366h-313l24 115q-122 -140 -282 -140q-169 0 -270 108t-101 302q0 111 34 220t96.5 201.5t164 150t225.5 57.5zM616 735q-107 0 -178 -82.5t-71 -201.5q0 -88 54.5 -142.5t137.5 -54.5q107 0 186 92l68 299
q-32 41 -84 65.5t-113 24.5zM999 1618q0 -70 -55.5 -124t-126.5 -54q-61 0 -102 41t-41 102q0 70 55.5 124t126.5 54q62 0 102.5 -40.5t40.5 -102.5z" />
    <glyph glyph-name="uni1E1E" unicode="&#x1e1e;" horiz-adv-x="1191" 
d="M1028 1618q0 -70 -55.5 -124t-126.5 -54q-62 0 -103 41t-41 102q0 70 56 124t127 54q61 0 102 -40.5t41 -102.5zM365 0h-353l301 1366h1002l-70 -307h-647l-47 -213h635l-68 -307h-635z" />
    <glyph glyph-name="uni1E1F" unicode="&#x1e1f;" horiz-adv-x="714" 
d="M909 1618q0 -70 -55.5 -124t-126.5 -54q-61 0 -102 41t-41 102q0 70 55.5 124t126.5 54q62 0 102.5 -40.5t40.5 -102.5zM387 0h-315l157 717h-163l61 272h162l12 53q35 153 137 248.5t269 95.5q183 0 282 -102l-149 -178q-41 41 -107 41q-94 0 -117 -111l-12 -47h203
l-62 -272h-200z" />
    <glyph glyph-name="uni1E22" unicode="&#x1e22;" horiz-adv-x="1517" 
d="M1284 0h-352l121 549h-568l-120 -549h-353l301 1366h353l-113 -510h567l113 510h352zM1165 1618q0 -70 -55.5 -124t-126.5 -54q-61 0 -102 41t-41 102q0 70 55.5 124t126.5 54q62 0 102.5 -40.5t40.5 -102.5z" />
    <glyph glyph-name="uni1E23" unicode="&#x1e23;" horiz-adv-x="1216" 
d="M991 0h-315l121 561q10 45 10 66q0 55 -41 81.5t-109 26.5q-100 0 -196 -96l-139 -639h-316l301 1366h316l-113 -498q72 67 147 106.5t174 39.5q147 0 232.5 -71t85.5 -185q0 -32 -10 -82zM1018 1618q0 -70 -55.5 -124t-126.5 -54q-62 0 -103 41t-41 102q0 70 55.5 124
t126.5 54q62 0 103 -41t41 -102z" />
    <glyph glyph-name="uni1E56" unicode="&#x1e56;" horiz-adv-x="1316" 
d="M365 0h-353l301 1366h662q177 0 289 -113t112 -278q0 -65 -16.5 -131.5t-59.5 -137t-106.5 -124.5t-167.5 -88.5t-233 -34.5h-328zM532 766h279q86 0 143.5 48t57.5 122q0 56 -39 89.5t-103 33.5h-272zM1096 1618q0 -70 -56 -124t-127 -54q-61 0 -102 41t-41 102
q0 70 55.5 124t126.5 54q62 0 103 -41t41 -102z" />
    <glyph glyph-name="uni1E57" unicode="&#x1e57;" 
d="M645 -25q-93 0 -172.5 37t-128.5 105l-108 -494h-316l303 1366h316l-27 -115q123 140 283 140q170 0 271 -108.5t101 -303.5q0 -87 -21 -174.5t-64.5 -169t-104 -144.5t-146.5 -101t-186 -38zM592 254q106 0 178 83t72 200q0 89 -55.5 143.5t-137.5 54.5q-103 0 -188 -92
l-66 -299q32 -41 84 -65.5t113 -24.5zM954 1276q0 -70 -55.5 -124t-126.5 -54q-62 0 -102.5 41t-40.5 102q0 70 55.5 124t126.5 54q61 0 102 -40.5t41 -102.5z" />
    <glyph glyph-name="uni1E60" unicode="&#x1e60;" horiz-adv-x="1241" 
d="M631 -25q-206 0 -380 71t-271 190l215 253q71 -94 198 -152t266 -58q78 0 118 33t40 75q0 30 -36.5 56t-94.5 47.5t-128 45t-140.5 56.5t-128.5 75t-94.5 107t-36.5 146q0 70 23 137t70 126.5t112.5 105t157 71.5t196.5 26q168 0 318.5 -58.5t252.5 -166.5l-215 -246
q-75 83 -188.5 126.5t-222.5 43.5q-59 0 -96.5 -27.5t-37.5 -68.5q0 -29 36.5 -53.5t95 -46t129 -45.5t141 -57.5t129 -76t95 -108t36.5 -145.5q0 -206 -153 -344t-406 -138zM1044 1618q0 -70 -55.5 -124t-126.5 -54q-62 0 -102.5 41t-40.5 102q0 70 55.5 124t126.5 54
q61 0 102 -40.5t41 -102.5z" />
    <glyph glyph-name="uni1E61" unicode="&#x1e61;" horiz-adv-x="991" 
d="M461 -25q-139 0 -270 47.5t-220 133.5l166 202q52 -56 153.5 -104.5t198.5 -48.5q46 0 75.5 20.5t29.5 50.5q0 25 -27 45t-70.5 34.5t-96 30t-105 38t-96 52t-70.5 78.5t-27 112q0 68 28.5 130t80.5 111t134 78t181 29q125 0 242 -42.5t199 -117.5l-152 -195
q-43 47 -124.5 85t-164.5 38q-52 0 -81 -20.5t-29 -48.5q0 -21 27 -37.5t70.5 -30t96 -29t105.5 -39t96.5 -54t70.5 -80t27 -111.5q0 -154 -121.5 -255.5t-326.5 -101.5zM840 1276q0 -70 -56 -124t-127 -54q-61 0 -102 41t-41 102q0 70 55.5 124t126.5 54q62 0 103 -41
t41 -102z" />
    <glyph glyph-name="uni1E6A" unicode="&#x1e6a;" 
d="M670 0h-353l232 1059h-383l70 307h1116l-68 -307h-383zM1012 1618q0 -70 -56 -124t-127 -54q-61 0 -102 41t-41 102q0 70 55.5 124t126.5 54q62 0 103 -41t41 -102z" />
    <glyph glyph-name="uni1E6B" unicode="&#x1e6b;" horiz-adv-x="737" 
d="M453 -25q-151 0 -239.5 59t-88.5 175q0 31 6 72l96 436h-164l62 272h164l59 271h316l-60 -271h201l-62 -272h-200l-74 -336q-6 -24 -6 -45q0 -38 24 -60t70 -22q41 0 61 16l5 -252q-55 -43 -170 -43zM748 1618q0 -70 -56 -124t-127 -54q-61 0 -102 41t-41 102
q0 70 55.5 124t126.5 54q62 0 103 -41t41 -102z" />
    <glyph glyph-name="Wgrave" unicode="&#x1e80;" horiz-adv-x="1916" 
d="M1427 0h-372l-19 856l-395 -856h-373l-90 1366h387l6 -911l435 911h268l33 -911l407 911h406zM1300 1481h-213l-260 295h279z" />
    <glyph glyph-name="wgrave" unicode="&#x1e81;" horiz-adv-x="1611" 
d="M1221 0h-340l-52 612l-319 -612h-340l-74 989h316l22 -606l332 606h281l59 -606l293 606h334zM1077 1139h-213l-260 295h279z" />
    <glyph glyph-name="Wacute" unicode="&#x1e82;" horiz-adv-x="1916" 
d="M1628 1776l-391 -295h-217l326 295h282zM1427 0h-372l-19 856l-395 -856h-373l-90 1366h387l6 -911l435 911h268l33 -911l407 911h406z" />
    <glyph glyph-name="wacute" unicode="&#x1e83;" horiz-adv-x="1611" 
d="M1405 1434l-391 -295h-217l325 295h283zM1221 0h-340l-52 612l-319 -612h-340l-74 989h316l22 -606l332 606h281l59 -606l293 606h334z" />
    <glyph glyph-name="Wdieresis" unicode="&#x1e84;" horiz-adv-x="1916" 
d="M1569 1618q0 -70 -56 -124t-127 -54q-60 0 -100.5 41t-40.5 102q0 70 55.5 124t126.5 54q60 0 101 -41t41 -102zM1133 1618q0 -70 -56 -124t-127 -54q-62 0 -102.5 41t-40.5 102q0 70 55.5 124t126.5 54q62 0 103 -41t41 -102zM1427 0h-372l-19 856l-395 -856h-373
l-90 1366h387l6 -911l435 911h268l33 -911l407 911h406z" />
    <glyph glyph-name="wdieresis" unicode="&#x1e85;" horiz-adv-x="1611" 
d="M1346 1276q0 -70 -56 -124t-127 -54q-60 0 -100.5 41t-40.5 102q0 70 55.5 124t126.5 54q60 0 101 -41t41 -102zM909 1276q0 -70 -55.5 -124t-126.5 -54q-61 0 -102 41t-41 102q0 70 55.5 124t126.5 54q62 0 102.5 -40.5t40.5 -102.5zM1221 0h-340l-52 612l-319 -612
h-340l-74 989h316l22 -606l332 606h281l59 -606l293 606h334z" />
    <glyph glyph-name="uni1EA0" unicode="&#x1ea0;" horiz-adv-x="1427" 
d="M1339 0h-383l-24 197h-539l-108 -197h-418l815 1366h442zM905 504l-61 514l-287 -514h348zM719 -238q0 -70 -55.5 -124t-126.5 -54q-61 0 -102.5 41t-41.5 103q0 70 55.5 124t126.5 54q61 0 102.5 -41t41.5 -103z" />
    <glyph glyph-name="uni1EA1" unicode="&#x1ea1;" horiz-adv-x="1210" 
d="M561 1014q94 0 174.5 -37t126.5 -105l27 117h313l-219 -989h-313l24 115q-122 -140 -282 -140q-169 0 -270 108t-101 302q0 111 34 220t96.5 201.5t164 150t225.5 57.5zM616 735q-107 0 -178 -82.5t-71 -201.5q0 -88 54.5 -142.5t137.5 -54.5q107 0 186 92l68 299
q-32 41 -84 65.5t-113 24.5zM590 -238q0 -70 -55.5 -124t-126.5 -54q-62 0 -103 41t-41 103q0 70 55.5 124t126.5 54q62 0 103 -41t41 -103z" />
    <glyph glyph-name="uni1EA2" unicode="&#x1ea2;" horiz-adv-x="1427" 
d="M1339 0h-383l-24 197h-539l-108 -197h-418l815 1366h442zM905 504l-61 514l-287 -514h348zM877 1536l-95 45q58 98 176 98q62 0 110 -34t48 -97q0 -62 -45 -121h-131q55 52 55 105q0 22 -14.5 35.5t-36.5 13.5q-39 0 -67 -45z" />
    <glyph glyph-name="uni1EA3" unicode="&#x1ea3;" horiz-adv-x="1210" 
d="M561 1014q94 0 174.5 -37t126.5 -105l27 117h313l-219 -989h-313l24 115q-122 -140 -282 -140q-169 0 -270 108t-101 302q0 111 34 220t96.5 201.5t164 150t225.5 57.5zM616 735q-107 0 -178 -82.5t-71 -201.5q0 -88 54.5 -142.5t137.5 -54.5q107 0 186 92l68 299
q-32 41 -84 65.5t-113 24.5zM678 1188l-94 45q58 98 176 98q62 0 110 -34t48 -97q0 -60 -46 -121h-131q56 53 56 105q0 21 -15 35t-37 14q-39 0 -67 -45z" />
    <glyph glyph-name="uni1EA4" unicode="&#x1ea4;" horiz-adv-x="1427" 
d="M1229 1397h-185l-104 125l-172 -125h-190l249 221h277zM1339 0h-383l-24 197h-539l-108 -197h-418l815 1366h442zM905 504l-61 514l-287 -514h348zM1790 1726l-391 -221h-217l325 221h283z" />
    <glyph glyph-name="uni1EA5" unicode="&#x1ea5;" horiz-adv-x="1210" 
d="M561 1014q94 0 174.5 -37t126.5 -105l27 117h313l-219 -989h-313l24 115q-122 -140 -282 -140q-169 0 -270 108t-101 302q0 111 34 220t96.5 201.5t164 150t225.5 57.5zM616 735q-107 0 -178 -82.5t-71 -201.5q0 -88 54.5 -142.5t137.5 -54.5q107 0 186 92l68 299
q-32 41 -84 65.5t-113 24.5zM1063 1139h-184l-105 166l-172 -166h-190l250 295h276zM1620 1577l-391 -295h-217l325 295h283z" />
    <glyph glyph-name="uni1EA6" unicode="&#x1ea6;" horiz-adv-x="1427" 
d="M1231 1397h-184l-105 125l-172 -125h-190l249 221h277zM1339 0h-383l-24 197h-539l-108 -197h-418l815 1366h442zM905 504l-61 514l-287 -514h348zM686 1505h-213l-260 221h279z" />
    <glyph glyph-name="uni1EA7" unicode="&#x1ea7;" horiz-adv-x="1210" 
d="M561 1014q94 0 174.5 -37t126.5 -105l27 117h313l-219 -989h-313l24 115q-122 -140 -282 -140q-169 0 -270 108t-101 302q0 111 34 220t96.5 201.5t164 150t225.5 57.5zM616 735q-107 0 -178 -82.5t-71 -201.5q0 -88 54.5 -142.5t137.5 -54.5q107 0 186 92l68 299
q-32 41 -84 65.5t-113 24.5zM1063 1139h-184l-105 166l-172 -166h-190l250 295h276zM520 1282h-213l-260 295h279z" />
    <glyph glyph-name="uni1EA8" unicode="&#x1ea8;" horiz-adv-x="1427" 
d="M1231 1397h-184l-105 125l-172 -125h-190l249 221h277zM1339 0h-383l-24 197h-539l-108 -197h-418l815 1366h442zM905 504l-61 514l-287 -514h348zM1135 1630l-95 33q56 74 177 74q62 0 109.5 -25.5t47.5 -73.5q0 -45 -45 -90h-131q55 39 55 78q0 17 -14.5 27t-36.5 10
q-37 0 -67 -33z" />
    <glyph glyph-name="uni1EA9" unicode="&#x1ea9;" horiz-adv-x="1210" 
d="M561 1014q94 0 174.5 -37t126.5 -105l27 117h313l-219 -989h-313l24 115q-122 -140 -282 -140q-169 0 -270 108t-101 302q0 111 34 220t96.5 201.5t164 150t225.5 57.5zM616 735q-107 0 -178 -82.5t-71 -201.5q0 -88 54.5 -142.5t137.5 -54.5q107 0 186 92l68 299
q-32 41 -84 65.5t-113 24.5zM1063 1139h-184l-105 166l-172 -166h-190l250 295h276zM940 1475l-94 45q58 98 176 98q62 0 110 -34t48 -97q0 -62 -45 -121h-131q55 52 55 104q0 22 -14.5 36t-36.5 14q-40 0 -68 -45z" />
    <glyph glyph-name="uni1EAA" unicode="&#x1eaa;" horiz-adv-x="1427" 
d="M1229 1391h-185l-104 82l-172 -82h-190l249 147h277zM1339 0h-383l-24 197h-539l-108 -197h-418l815 1366h442zM905 504l-61 514l-287 -514h348zM1087 1552q-60 0 -104 14t-77.5 28t-67.5 14q-54 0 -74 -49h-162q27 70 85.5 103.5t168.5 33.5q60 0 105 -14.5t78.5 -29
t66.5 -14.5q52 0 76 52h161q-31 -71 -88.5 -104.5t-167.5 -33.5z" />
    <glyph glyph-name="uni1EAB" unicode="&#x1eab;" horiz-adv-x="1210" 
d="M561 1014q94 0 174.5 -37t126.5 -105l27 117h313l-219 -989h-313l24 115q-122 -140 -282 -140q-169 0 -270 108t-101 302q0 111 34 220t96.5 201.5t164 150t225.5 57.5zM616 735q-107 0 -178 -82.5t-71 -201.5q0 -88 54.5 -142.5t137.5 -54.5q107 0 186 92l68 299
q-32 41 -84 65.5t-113 24.5zM1047 1071h-185l-104 166l-172 -166h-191l250 295h277zM940 1397q-48 0 -86.5 17.5t-59.5 38.5t-48.5 38.5t-55.5 17.5q-54 0 -74 -100h-161q27 141 85 207.5t169 66.5q48 0 86.5 -17.5t59.5 -38.5t48.5 -38.5t54.5 -17.5q53 0 76 100h162
q-31 -141 -88.5 -207.5t-167.5 -66.5z" />
    <glyph glyph-name="uni1EAC" unicode="&#x1eac;" horiz-adv-x="1427" 
d="M1339 0h-383l-24 197h-539l-108 -197h-418l815 1366h442zM905 504l-61 514l-287 -514h348zM1257 1481h-184l-104 166l-172 -166h-191l250 295h277zM711 -238q0 -70 -56 -124t-127 -54q-61 0 -102 41t-41 103q0 70 55.5 124t126.5 54q61 0 102.5 -41t41.5 -103z" />
    <glyph glyph-name="uni1EAD" unicode="&#x1ead;" horiz-adv-x="1210" 
d="M561 1014q94 0 174.5 -37t126.5 -105l27 117h313l-219 -989h-313l24 115q-122 -140 -282 -140q-169 0 -270 108t-101 302q0 111 34 220t96.5 201.5t164 150t225.5 57.5zM616 735q-107 0 -178 -82.5t-71 -201.5q0 -88 54.5 -142.5t137.5 -54.5q107 0 186 92l68 299
q-32 41 -84 65.5t-113 24.5zM1063 1139h-184l-105 166l-172 -166h-190l250 295h276zM590 -238q0 -70 -55.5 -124t-126.5 -54q-62 0 -103 41t-41 103q0 70 55.5 124t126.5 54q62 0 103 -41t41 -103z" />
    <glyph glyph-name="uni1EAE" unicode="&#x1eae;" horiz-adv-x="1427" 
d="M1339 0h-383l-24 197h-539l-108 -197h-418l815 1366h442zM905 504l-61 514l-287 -514h348zM1389 1700l-392 -162h-217l326 162h283zM1286 1497q-170 -106 -397 -106q-108 0 -192.5 28t-129.5 78l154 66q60 -70 199 -70q140 0 249 70z" />
    <glyph glyph-name="uni1EAF" unicode="&#x1eaf;" horiz-adv-x="1210" 
d="M561 1014q94 0 174.5 -37t126.5 -105l27 117h313l-219 -989h-313l24 115q-122 -140 -282 -140q-169 0 -270 108t-101 302q0 111 34 220t96.5 201.5t164 150t225.5 57.5zM616 735q-107 0 -178 -82.5t-71 -201.5q0 -88 54.5 -142.5t137.5 -54.5q107 0 186 92l68 299
q-32 41 -84 65.5t-113 24.5zM1225 1606l-391 -295h-218l326 295h283zM1110 1231q-81 -84 -184.5 -132t-212.5 -48q-108 0 -192.5 48t-129.5 132l154 110q59 -118 198 -118q141 0 250 118z" />
    <glyph glyph-name="uni1EB0" unicode="&#x1eb0;" horiz-adv-x="1427" 
d="M1339 0h-383l-24 197h-539l-108 -197h-418l815 1366h442zM905 504l-61 514l-287 -514h348zM1112 1542h-213l-260 162h279zM1305 1497q-80 -50 -184.5 -78t-213.5 -28q-108 0 -192 28t-129 78l153 66q60 -70 199 -70q141 0 250 70z" />
    <glyph glyph-name="uni1EB1" unicode="&#x1eb1;" horiz-adv-x="1210" 
d="M561 1014q94 0 174.5 -37t126.5 -105l27 117h313l-219 -989h-313l24 115q-122 -140 -282 -140q-169 0 -270 108t-101 302q0 111 34 220t96.5 201.5t164 150t225.5 57.5zM616 735q-107 0 -178 -82.5t-71 -201.5q0 -88 54.5 -142.5t137.5 -54.5q107 0 186 92l68 299
q-32 41 -84 65.5t-113 24.5zM918 1317h-213l-261 295h279zM1110 1235q-81 -84 -184.5 -132t-212.5 -48q-108 0 -192.5 48t-129.5 132l154 111q59 -119 198 -119q140 0 250 119z" />
    <glyph glyph-name="uni1EB2" unicode="&#x1eb2;" horiz-adv-x="1427" 
d="M1339 0h-383l-24 197h-539l-108 -197h-418l815 1366h442zM905 504l-61 514l-287 -514h348zM895 1597l-94 25q58 55 176 55q62 0 110 -18.5t48 -52.5q0 -37 -45 -66h-132q56 26 56 55q0 12 -14.5 19.5t-36.5 7.5q-40 0 -68 -25zM1303 1497q-80 -50 -184.5 -78t-213.5 -28
q-108 0 -192 28t-129 78l153 66q60 -70 199 -70q141 0 250 70z" />
    <glyph glyph-name="uni1EB3" unicode="&#x1eb3;" horiz-adv-x="1210" 
d="M561 1014q94 0 174.5 -37t126.5 -105l27 117h313l-219 -989h-313l24 115q-122 -140 -282 -140q-169 0 -270 108t-101 302q0 111 34 220t96.5 201.5t164 150t225.5 57.5zM616 735q-107 0 -178 -82.5t-71 -201.5q0 -88 54.5 -142.5t137.5 -54.5q107 0 186 92l68 299
q-32 41 -84 65.5t-113 24.5zM713 1446l-95 45q58 98 177 98q62 0 109.5 -34t47.5 -97q0 -62 -45 -121h-131q55 52 55 105q0 22 -14.5 35.5t-36.5 13.5q-39 0 -67 -45zM1110 1235q-81 -84 -184.5 -132t-212.5 -48q-108 0 -192.5 48t-129.5 132l154 111q59 -119 198 -119
q140 0 250 119z" />
    <glyph glyph-name="uni1EB4" unicode="&#x1eb4;" horiz-adv-x="1427" 
d="M1339 0h-383l-24 197h-539l-108 -197h-418l815 1366h442zM905 504l-61 514l-287 -514h348zM1296 1487q-175 -94 -397 -94q-107 0 -191.5 25.5t-129.5 68.5l153 59q60 -63 199 -63q142 0 250 63zM1085 1559q-60 0 -104 13.5t-77.5 27.5t-67.5 14q-54 0 -74 -49h-162
q27 70 85.5 103.5t168.5 33.5q48 0 86.5 -9t60 -19.5t49 -19.5t54.5 -9q53 0 76 51h161q-31 -71 -88.5 -104t-167.5 -33z" />
    <glyph glyph-name="uni1EB5" unicode="&#x1eb5;" horiz-adv-x="1210" 
d="M561 1014q94 0 174.5 -37t126.5 -105l27 117h313l-219 -989h-313l24 115q-122 -140 -282 -140q-169 0 -270 108t-101 302q0 111 34 220t96.5 201.5t164 150t225.5 57.5zM616 735q-107 0 -178 -82.5t-71 -201.5q0 -88 54.5 -142.5t137.5 -54.5q107 0 186 92l68 299
q-32 41 -84 65.5t-113 24.5zM1110 1235q-81 -84 -184.5 -132t-212.5 -48q-108 0 -192.5 48t-129.5 132l154 111q59 -119 198 -119q140 0 250 119zM938 1386q-39 0 -71 11.5t-53.5 28t-40.5 33.5t-40.5 28.5t-44.5 11.5q-54 0 -74 -100h-161q27 141 85 207.5t169 66.5
q48 0 86.5 -17.5t59.5 -38.5t48.5 -38.5t54.5 -17.5q53 0 76 100h162q-31 -142 -88.5 -208.5t-167.5 -66.5z" />
    <glyph glyph-name="uni1EB6" unicode="&#x1eb6;" horiz-adv-x="1427" 
d="M1339 0h-383l-24 197h-539l-108 -197h-418l815 1366h442zM905 504l-61 514l-287 -514h348zM719 -238q0 -70 -55.5 -124t-126.5 -54q-61 0 -102.5 41t-41.5 103q0 70 55.5 124t126.5 54q61 0 102.5 -41t41.5 -103zM1307 1604q-81 -85 -185 -133t-213 -48
q-107 0 -191.5 48.5t-129.5 132.5l153 110q59 -119 199 -119t250 119z" />
    <glyph glyph-name="uni1EB7" unicode="&#x1eb7;" horiz-adv-x="1210" 
d="M561 1014q94 0 174.5 -37t126.5 -105l27 117h313l-219 -989h-313l24 115q-122 -140 -282 -140q-169 0 -270 108t-101 302q0 111 34 220t96.5 201.5t164 150t225.5 57.5zM616 735q-107 0 -178 -82.5t-71 -201.5q0 -88 54.5 -142.5t137.5 -54.5q107 0 186 92l68 299
q-32 41 -84 65.5t-113 24.5zM590 -238q0 -70 -55.5 -124t-126.5 -54q-62 0 -103 41t-41 103q0 70 55.5 124t126.5 54q62 0 103 -41t41 -103zM1116 1262q-81 -85 -184.5 -133t-212.5 -48q-108 0 -192.5 48.5t-129.5 132.5l154 110q59 -119 199 -119q139 0 249 119z" />
    <glyph glyph-name="uni1EB8" unicode="&#x1eb8;" 
d="M1014 0h-1002l301 1366h1002l-70 -307h-647l-47 -213h635l-68 -307h-635l-51 -232h649zM616 -238q0 -70 -55.5 -124t-126.5 -54q-61 0 -102 41t-41 103q0 70 55.5 124t126.5 54q61 0 102 -41t41 -103z" />
    <glyph glyph-name="uni1EB9" unicode="&#x1eb9;" horiz-adv-x="1122" 
d="M569 -25q-240 0 -383 119t-143 330q0 158 73.5 292.5t207.5 216t299 81.5q127 0 228.5 -50.5t163.5 -153.5t62 -243q0 -85 -20 -172h-701v-12q0 -49 64.5 -106.5t173.5 -57.5q63 0 127.5 17t103.5 45l97 -209q-69 -48 -163.5 -72.5t-189.5 -24.5zM387 600h410q2 2 2 14
q0 57 -49 106.5t-142 49.5q-83 0 -145.5 -53.5t-75.5 -116.5zM584 -238q0 -70 -56 -124t-127 -54q-61 0 -102 41t-41 103q0 70 55.5 124t126.5 54q62 0 103 -41t41 -103z" />
    <glyph glyph-name="uni1EBA" unicode="&#x1eba;" 
d="M1014 0h-1002l301 1366h1002l-70 -307h-647l-47 -213h635l-68 -307h-635l-51 -232h649zM782 1536l-94 45q58 98 176 98q62 0 110 -34t48 -97q0 -62 -45 -121h-131q55 52 55 105q0 22 -14.5 35.5t-36.5 13.5q-40 0 -68 -45z" />
    <glyph glyph-name="uni1EBB" unicode="&#x1ebb;" horiz-adv-x="1122" 
d="M569 -25q-240 0 -383 119t-143 330q0 158 73.5 292.5t207.5 216t299 81.5q127 0 228.5 -50.5t163.5 -153.5t62 -243q0 -85 -20 -172h-701v-12q0 -49 64.5 -106.5t173.5 -57.5q63 0 127.5 17t103.5 45l97 -209q-69 -48 -163.5 -72.5t-189.5 -24.5zM387 600h410q2 2 2 14
q0 57 -49 106.5t-142 49.5q-83 0 -145.5 -53.5t-75.5 -116.5zM674 1188l-94 45q58 98 176 98q62 0 109.5 -34t47.5 -97q0 -62 -45 -121h-131q56 53 56 105q0 21 -15 35t-37 14q-39 0 -67 -45z" />
    <glyph glyph-name="uni1EBC" unicode="&#x1ebc;" 
d="M1014 0h-1002l301 1366h1002l-70 -307h-647l-47 -213h635l-68 -307h-635l-51 -232h649zM987 1477q-48 0 -86.5 17.5t-59.5 38.5t-48.5 38.5t-55.5 17.5q-53 0 -73 -100h-162q27 141 85 207.5t169 66.5q48 0 86.5 -17.5t60 -38.5t49 -38.5t54.5 -17.5q52 0 75 100h162
q-31 -141 -88.5 -207.5t-167.5 -66.5z" />
    <glyph glyph-name="uni1EBD" unicode="&#x1ebd;" horiz-adv-x="1122" 
d="M569 -25q-240 0 -383 119t-143 330q0 158 73.5 292.5t207.5 216t299 81.5q127 0 228.5 -50.5t163.5 -153.5t62 -243q0 -85 -20 -172h-701v-12q0 -49 64.5 -106.5t173.5 -57.5q63 0 127.5 17t103.5 45l97 -209q-69 -48 -163.5 -72.5t-189.5 -24.5zM387 600h410q2 2 2 14
q0 57 -49 106.5t-142 49.5q-83 0 -145.5 -53.5t-75.5 -116.5zM879 1135q-48 0 -86.5 17.5t-59.5 38.5t-48.5 38.5t-55.5 17.5q-54 0 -74 -100h-162q27 141 85 207.5t169 66.5q48 0 86.5 -17.5t60 -38.5t49 -38.5t54.5 -17.5q53 0 76 100h162q-31 -141 -88.5 -207.5
t-167.5 -66.5z" />
    <glyph glyph-name="uni1EBE" unicode="&#x1ebe;" 
d="M1139 1397h-185l-104 125l-172 -125h-191l250 221h277zM1698 1726l-391 -221h-217l325 221h283zM1014 0h-1002l301 1366h1002l-70 -307h-647l-47 -213h635l-68 -307h-635l-51 -232h649z" />
    <glyph glyph-name="uni1EBF" unicode="&#x1ebf;" horiz-adv-x="1122" 
d="M1055 1139h-185l-104 166l-172 -166h-191l250 295h277zM1612 1577l-391 -295h-217l325 295h283zM569 -25q-240 0 -383 119t-143 330q0 158 73.5 292.5t207.5 216t299 81.5q127 0 228.5 -50.5t163.5 -153.5t62 -243q0 -85 -20 -172h-701v-12q0 -49 64.5 -106.5
t173.5 -57.5q63 0 127.5 17t103.5 45l97 -209q-69 -48 -163.5 -72.5t-189.5 -24.5zM387 600h410q2 2 2 14q0 57 -49 106.5t-142 49.5q-83 0 -145.5 -53.5t-75.5 -116.5z" />
    <glyph glyph-name="uni1EC0" unicode="&#x1ec0;" 
d="M1139 1397h-185l-104 125l-172 -125h-191l250 221h277zM1014 0h-1002l301 1366h1002l-70 -307h-647l-47 -213h635l-68 -307h-635l-51 -232h649zM592 1505h-213l-260 221h278z" />
    <glyph glyph-name="uni1EC1" unicode="&#x1ec1;" horiz-adv-x="1122" 
d="M1057 1139h-185l-104 166l-172 -166h-190l249 295h277zM569 -25q-240 0 -383 119t-143 330q0 158 73.5 292.5t207.5 216t299 81.5q127 0 228.5 -50.5t163.5 -153.5t62 -243q0 -85 -20 -172h-701v-12q0 -49 64.5 -106.5t173.5 -57.5q63 0 127.5 17t103.5 45l97 -209
q-69 -48 -163.5 -72.5t-189.5 -24.5zM387 600h410q2 2 2 14q0 57 -49 106.5t-142 49.5q-83 0 -145.5 -53.5t-75.5 -116.5zM516 1282h-213l-260 295h279z" />
    <glyph glyph-name="uni1EC2" unicode="&#x1ec2;" 
d="M1137 1397h-185l-104 125l-172 -125h-191l250 221h277zM1014 0h-1002l301 1366h1002l-70 -307h-647l-47 -213h635l-68 -307h-635l-51 -232h649zM1038 1630l-94 33q56 74 176 74q62 0 110 -26t48 -73q0 -45 -45 -90h-131q55 39 55 78q0 17 -14.5 27t-36.5 10
q-38 0 -68 -33z" />
    <glyph glyph-name="uni1EC3" unicode="&#x1ec3;" horiz-adv-x="1122" 
d="M1057 1139h-185l-104 166l-172 -166h-190l249 295h277zM569 -25q-240 0 -383 119t-143 330q0 158 73.5 292.5t207.5 216t299 81.5q127 0 228.5 -50.5t163.5 -153.5t62 -243q0 -85 -20 -172h-701v-12q0 -49 64.5 -106.5t173.5 -57.5q63 0 127.5 17t103.5 45l97 -209
q-69 -48 -163.5 -72.5t-189.5 -24.5zM387 600h410q2 2 2 14q0 57 -49 106.5t-142 49.5q-83 0 -145.5 -53.5t-75.5 -116.5zM936 1475l-94 45q58 98 176 98q62 0 110 -34t48 -97q0 -60 -46 -121h-131q56 53 56 104q0 22 -14.5 36t-36.5 14q-40 0 -68 -45z" />
    <glyph glyph-name="uni1EC4" unicode="&#x1ec4;" 
d="M1135 1389h-185l-104 81l-172 -81h-191l250 147h277zM1014 0h-1002l301 1366h1002l-70 -307h-647l-47 -213h635l-68 -307h-635l-51 -232h649zM987 1550q-60 0 -104.5 14t-78 28t-67.5 14q-53 0 -73 -50h-162q27 70 85.5 104t168.5 34q60 0 105 -14.5t78.5 -29t66.5 -14.5
q51 0 75 52h162q-31 -71 -88.5 -104.5t-167.5 -33.5z" />
    <glyph glyph-name="uni1EC5" unicode="&#x1ec5;" horiz-adv-x="1122" 
d="M1044 1071h-184l-104 166l-172 -166h-191l250 295h277zM569 -25q-240 0 -383 119t-143 330q0 158 73.5 292.5t207.5 216t299 81.5q127 0 228.5 -50.5t163.5 -153.5t62 -243q0 -85 -20 -172h-701v-12q0 -49 64.5 -106.5t173.5 -57.5q63 0 127.5 17t103.5 45l97 -209
q-69 -48 -163.5 -72.5t-189.5 -24.5zM387 600h410q2 2 2 14q0 57 -49 106.5t-142 49.5q-83 0 -145.5 -53.5t-75.5 -116.5zM936 1397q-48 0 -86.5 17.5t-59.5 38.5t-48.5 38.5t-55.5 17.5q-54 0 -74 -100h-161q27 141 85 207.5t169 66.5q48 0 86.5 -17.5t59.5 -38.5
t48.5 -38.5t54.5 -17.5q53 0 76 100h162q-31 -141 -88.5 -207.5t-167.5 -66.5z" />
    <glyph glyph-name="uni1EC6" unicode="&#x1ec6;" 
d="M1163 1481h-184l-105 166l-172 -166h-190l250 295h276zM1014 0h-1002l301 1366h1002l-70 -307h-647l-47 -213h635l-68 -307h-635l-51 -232h649zM616 -238q0 -70 -55.5 -124t-126.5 -54q-61 0 -102 41t-41 103q0 70 55.5 124t126.5 54q61 0 102 -41t41 -103z" />
    <glyph glyph-name="uni1EC7" unicode="&#x1ec7;" horiz-adv-x="1122" 
d="M1057 1139h-185l-104 166l-172 -166h-190l249 295h277zM569 -25q-240 0 -383 119t-143 330q0 158 73.5 292.5t207.5 216t299 81.5q127 0 228.5 -50.5t163.5 -153.5t62 -243q0 -85 -20 -172h-701v-12q0 -49 64.5 -106.5t173.5 -57.5q63 0 127.5 17t103.5 45l97 -209
q-69 -48 -163.5 -72.5t-189.5 -24.5zM387 600h410q2 2 2 14q0 57 -49 106.5t-142 49.5q-83 0 -145.5 -53.5t-75.5 -116.5zM584 -238q0 -70 -56 -124t-127 -54q-61 0 -102 41t-41 103q0 70 55.5 124t126.5 54q62 0 103 -41t41 -103z" />
    <glyph glyph-name="uni1EC8" unicode="&#x1ec8;" horiz-adv-x="598" 
d="M365 0h-353l301 1366h353zM457 1536l-95 45q58 98 177 98q62 0 109.5 -34t47.5 -97q0 -62 -45 -121h-131q55 52 55 105q0 22 -14.5 35.5t-36.5 13.5q-39 0 -67 -45z" />
    <glyph glyph-name="uni1EC9" unicode="&#x1ec9;" horiz-adv-x="544" 
d="M319 0h-315l219 989h316zM356 1188l-94 45q58 98 176 98q62 0 110 -34t48 -97q0 -62 -45 -121h-131q55 52 55 105q0 22 -14.5 35.5t-36.5 13.5q-40 0 -68 -45z" />
    <glyph glyph-name="uni1ECA" unicode="&#x1eca;" horiz-adv-x="598" 
d="M365 0h-353l301 1366h353zM293 -238q0 -70 -55.5 -124t-126.5 -54q-61 0 -102.5 41t-41.5 103q0 70 56 124t127 54q61 0 102 -41t41 -103z" />
    <glyph glyph-name="uni1ECB" unicode="&#x1ecb;" horiz-adv-x="544" 
d="M420 1077q-71 0 -117.5 46t-46.5 110q0 93 64.5 150t140.5 57q70 0 116 -45t46 -109q0 -93 -64 -151t-139 -58zM319 0h-315l219 989h316zM268 -238q0 -70 -55.5 -124t-126.5 -54q-61 0 -102 41t-41 103q0 70 55.5 124t126.5 54q61 0 102 -41t41 -103z" />
    <glyph glyph-name="uni1ECC" unicode="&#x1ecc;" horiz-adv-x="1568" 
d="M766 -25q-195 0 -352 76t-248.5 218.5t-91.5 326.5q0 163 61.5 309t168 252.5t257 169t320.5 62.5q195 0 352 -76t248.5 -217.5t91.5 -323.5q0 -164 -61.5 -311t-168 -254t-257 -169.5t-320.5 -62.5zM786 287q178 0 299 133.5t121 324.5q0 149 -96.5 240.5t-249.5 91.5
q-178 0 -299 -134t-121 -325q0 -148 96.5 -239.5t249.5 -91.5zM778 -238q0 -70 -55.5 -124t-126.5 -54q-61 0 -102 41t-41 103q0 70 55.5 124t126.5 54q61 0 102 -41t41 -103z" />
    <glyph glyph-name="uni1ECD" unicode="&#x1ecd;" horiz-adv-x="1179" 
d="M551 -25q-241 0 -375.5 128t-134.5 327q0 114 43.5 220t119 186.5t185 129t234.5 48.5q242 0 376 -128t134 -329q0 -114 -43.5 -219.5t-119 -186t-185 -128.5t-234.5 -48zM563 254q107 0 177.5 86.5t70.5 202.5q0 90 -53 141t-146 51q-109 0 -178 -86t-69 -203
q0 -90 52.5 -141t145.5 -51zM586 -238q0 -70 -56 -124t-127 -54q-61 0 -102 41t-41 103q0 70 55.5 124t126.5 54q62 0 103 -41t41 -103z" />
    <glyph glyph-name="uni1ECE" unicode="&#x1ece;" horiz-adv-x="1568" 
d="M766 -25q-195 0 -352 76t-248.5 218.5t-91.5 326.5q0 163 61.5 309t168 252.5t257 169t320.5 62.5q195 0 352 -76t248.5 -217.5t91.5 -323.5q0 -164 -61.5 -311t-168 -254t-257 -169.5t-320.5 -62.5zM786 287q178 0 299 133.5t121 324.5q0 149 -96.5 240.5t-249.5 91.5
q-178 0 -299 -134t-121 -325q0 -148 96.5 -239.5t249.5 -91.5zM946 1536l-94 45q58 98 176 98q62 0 110 -34t48 -97q0 -62 -45 -121h-131q55 52 55 105q0 22 -14.5 35.5t-36.5 13.5q-40 0 -68 -45z" />
    <glyph glyph-name="uni1ECF" unicode="&#x1ecf;" horiz-adv-x="1179" 
d="M551 -25q-241 0 -375.5 128t-134.5 327q0 114 43.5 220t119 186.5t185 129t234.5 48.5q242 0 376 -128t134 -329q0 -114 -43.5 -219.5t-119 -186t-185 -128.5t-234.5 -48zM563 254q107 0 177.5 86.5t70.5 202.5q0 90 -53 141t-146 51q-109 0 -178 -86t-69 -203
q0 -90 52.5 -141t145.5 -51zM674 1188l-94 45q58 98 176 98q62 0 109.5 -34t47.5 -97q0 -62 -45 -121h-131q56 53 56 105q0 21 -15 35t-37 14q-39 0 -67 -45z" />
    <glyph glyph-name="uni1ED0" unicode="&#x1ed0;" horiz-adv-x="1568" 
d="M1298 1397h-184l-104 125l-172 -125h-191l250 221h277zM1860 1726l-392 -221h-217l326 221h283zM766 -25q-195 0 -352 76t-248.5 218.5t-91.5 326.5q0 163 61.5 309t168 252.5t257 169t320.5 62.5q195 0 352 -76t248.5 -217.5t91.5 -323.5q0 -164 -61.5 -311t-168 -254
t-257 -169.5t-320.5 -62.5zM786 287q178 0 299 133.5t121 324.5q0 149 -96.5 240.5t-249.5 91.5q-178 0 -299 -134t-121 -325q0 -148 96.5 -239.5t249.5 -91.5z" />
    <glyph glyph-name="uni1ED1" unicode="&#x1ed1;" horiz-adv-x="1179" 
d="M1057 1139h-185l-104 166l-172 -166h-190l249 295h277zM1614 1577l-391 -295h-217l325 295h283zM551 -25q-241 0 -375.5 128t-134.5 327q0 114 43.5 220t119 186.5t185 129t234.5 48.5q242 0 376 -128t134 -329q0 -114 -43.5 -219.5t-119 -186t-185 -128.5t-234.5 -48z
M563 254q107 0 177.5 86.5t70.5 202.5q0 90 -53 141t-146 51q-109 0 -178 -86t-69 -203q0 -90 52.5 -141t145.5 -51z" />
    <glyph glyph-name="uni1ED2" unicode="&#x1ed2;" horiz-adv-x="1568" 
d="M1298 1397h-184l-104 125l-172 -125h-191l250 221h277zM766 -25q-195 0 -352 76t-248.5 218.5t-91.5 326.5q0 163 61.5 309t168 252.5t257 169t320.5 62.5q195 0 352 -76t248.5 -217.5t91.5 -323.5q0 -164 -61.5 -311t-168 -254t-257 -169.5t-320.5 -62.5zM786 287
q178 0 299 133.5t121 324.5q0 149 -96.5 240.5t-249.5 91.5q-178 0 -299 -134t-121 -325q0 -148 96.5 -239.5t249.5 -91.5zM754 1505h-213l-260 221h278z" />
    <glyph glyph-name="uni1ED3" unicode="&#x1ed3;" horiz-adv-x="1179" 
d="M1057 1139h-185l-104 166l-172 -166h-190l249 295h277zM551 -25q-241 0 -375.5 128t-134.5 327q0 114 43.5 220t119 186.5t185 129t234.5 48.5q242 0 376 -128t134 -329q0 -114 -43.5 -219.5t-119 -186t-185 -128.5t-234.5 -48zM563 254q107 0 177.5 86.5t70.5 202.5
q0 90 -53 141t-146 51q-109 0 -178 -86t-69 -203q0 -90 52.5 -141t145.5 -51zM516 1282h-213l-260 295h279z" />
    <glyph glyph-name="uni1ED4" unicode="&#x1ed4;" horiz-adv-x="1568" 
d="M1298 1397h-184l-104 125l-172 -125h-191l250 221h277zM766 -25q-195 0 -352 76t-248.5 218.5t-91.5 326.5q0 163 61.5 309t168 252.5t257 169t320.5 62.5q195 0 352 -76t248.5 -217.5t91.5 -323.5q0 -164 -61.5 -311t-168 -254t-257 -169.5t-320.5 -62.5zM786 287
q178 0 299 133.5t121 324.5q0 149 -96.5 240.5t-249.5 91.5q-178 0 -299 -134t-121 -325q0 -148 96.5 -239.5t249.5 -91.5zM1202 1630l-94 33q56 74 176 74q62 0 110 -26t48 -73q0 -45 -45 -90h-131q55 39 55 78q0 17 -14.5 27t-36.5 10q-38 0 -68 -33z" />
    <glyph glyph-name="uni1ED5" unicode="&#x1ed5;" horiz-adv-x="1179" 
d="M1057 1139h-185l-104 166l-172 -166h-190l249 295h277zM551 -25q-241 0 -375.5 128t-134.5 327q0 114 43.5 220t119 186.5t185 129t234.5 48.5q242 0 376 -128t134 -329q0 -114 -43.5 -219.5t-119 -186t-185 -128.5t-234.5 -48zM563 254q107 0 177.5 86.5t70.5 202.5
q0 90 -53 141t-146 51q-109 0 -178 -86t-69 -203q0 -90 52.5 -141t145.5 -51zM934 1475l-94 45q58 98 176 98q62 0 110 -34t48 -97q0 -60 -46 -121h-131q56 53 56 104q0 22 -15 36t-37 14q-39 0 -67 -45z" />
    <glyph glyph-name="uni1ED6" unicode="&#x1ed6;" horiz-adv-x="1568" 
d="M1284 1389h-184l-105 81l-172 -81h-190l250 147h276zM766 -25q-195 0 -352 76t-248.5 218.5t-91.5 326.5q0 163 61.5 309t168 252.5t257 169t320.5 62.5q195 0 352 -76t248.5 -217.5t91.5 -323.5q0 -164 -61.5 -311t-168 -254t-257 -169.5t-320.5 -62.5zM786 287
q178 0 299 133.5t121 324.5q0 149 -96.5 240.5t-249.5 91.5q-178 0 -299 -134t-121 -325q0 -148 96.5 -239.5t249.5 -91.5zM1143 1550q-60 0 -104.5 14t-78 28t-67.5 14q-54 0 -74 -50h-162q27 70 85.5 104t168.5 34q60 0 105 -14.5t78.5 -29t66.5 -14.5q52 0 76 52h162
q-31 -71 -88.5 -104.5t-167.5 -33.5z" />
    <glyph glyph-name="uni1ED7" unicode="&#x1ed7;" horiz-adv-x="1179" 
d="M1044 1071h-184l-104 166l-172 -166h-191l250 295h277zM551 -25q-241 0 -375.5 128t-134.5 327q0 114 43.5 220t119 186.5t185 129t234.5 48.5q242 0 376 -128t134 -329q0 -114 -43.5 -219.5t-119 -186t-185 -128.5t-234.5 -48zM563 254q107 0 177.5 86.5t70.5 202.5
q0 90 -53 141t-146 51q-109 0 -178 -86t-69 -203q0 -90 52.5 -141t145.5 -51zM936 1397q-48 0 -86.5 17.5t-59.5 38.5t-48.5 38.5t-55.5 17.5q-54 0 -74 -100h-161q27 141 85 207.5t169 66.5q48 0 86.5 -17.5t59.5 -38.5t48.5 -38.5t54.5 -17.5q53 0 76 100h162
q-31 -141 -88.5 -207.5t-167.5 -66.5z" />
    <glyph glyph-name="uni1ED8" unicode="&#x1ed8;" horiz-adv-x="1568" 
d="M1325 1481h-184l-105 166l-172 -166h-190l250 295h276zM766 -25q-195 0 -352 76t-248.5 218.5t-91.5 326.5q0 163 61.5 309t168 252.5t257 169t320.5 62.5q195 0 352 -76t248.5 -217.5t91.5 -323.5q0 -164 -61.5 -311t-168 -254t-257 -169.5t-320.5 -62.5zM786 287
q178 0 299 133.5t121 324.5q0 149 -96.5 240.5t-249.5 91.5q-178 0 -299 -134t-121 -325q0 -148 96.5 -239.5t249.5 -91.5zM780 -238q0 -70 -55.5 -124t-126.5 -54q-61 0 -102 41t-41 103q0 70 55.5 124t126.5 54q61 0 102 -41t41 -103z" />
    <glyph glyph-name="uni1ED9" unicode="&#x1ed9;" horiz-adv-x="1179" 
d="M1057 1139h-185l-104 166l-172 -166h-190l249 295h277zM551 -25q-241 0 -375.5 128t-134.5 327q0 114 43.5 220t119 186.5t185 129t234.5 48.5q242 0 376 -128t134 -329q0 -114 -43.5 -219.5t-119 -186t-185 -128.5t-234.5 -48zM563 254q107 0 177.5 86.5t70.5 202.5
q0 90 -53 141t-146 51q-109 0 -178 -86t-69 -203q0 -90 52.5 -141t145.5 -51zM586 -238q0 -70 -56 -124t-127 -54q-61 0 -102 41t-41 103q0 70 55.5 124t126.5 54q62 0 103 -41t41 -103z" />
    <glyph glyph-name="uni1EDA" unicode="&#x1eda;" horiz-adv-x="1568" 
d="M1466 1776l-391 -295h-217l326 295h282zM766 -25q-195 0 -352 76t-248.5 218.5t-91.5 326.5q0 163 61.5 309t168 252.5t257 169t320.5 62.5q164 0 303.5 -56.5t234.5 -158.5q41 22 76 51.5t49 60.5q-4 -2 -16 -2q-42 0 -70 28t-28 77q0 57 43 98t98 41q52 0 88.5 -35.5
t36.5 -95.5q0 -85 -60 -169t-155 -134q92 -140 92 -322q0 -164 -61.5 -311t-168 -254t-257 -169.5t-320.5 -62.5zM786 287q178 0 299 133.5t121 324.5q0 149 -96.5 240.5t-249.5 91.5q-178 0 -299 -134t-121 -325q0 -148 96.5 -239.5t249.5 -91.5z" />
    <glyph glyph-name="uni1EDB" unicode="&#x1edb;" horiz-adv-x="1179" 
d="M1196 1434l-391 -295h-217l325 295h283zM1255 1124q0 -84 -57 -165.5t-147 -131.5q82 -118 82 -270q0 -114 -43.5 -219.5t-119 -186t-185 -128.5t-234.5 -48q-241 0 -375.5 128t-134.5 327q0 114 43.5 220t119 186.5t185 129t234.5 48.5q223 0 356 -111q96 51 123 111
q-2 -2 -15 -2q-42 0 -70 27t-28 77q0 57 43 97t98 40q52 0 88.5 -34.5t36.5 -94.5zM563 254q107 0 177.5 86.5t70.5 202.5q0 90 -53 141t-146 51q-109 0 -178 -86t-69 -203q0 -90 52.5 -141t145.5 -51z" />
    <glyph glyph-name="uni1EDC" unicode="&#x1edc;" horiz-adv-x="1568" 
d="M766 -25q-195 0 -352 76t-248.5 218.5t-91.5 326.5q0 163 61.5 309t168 252.5t257 169t320.5 62.5q164 0 303.5 -56.5t234.5 -158.5q41 22 76 51.5t49 60.5q-4 -2 -16 -2q-42 0 -70 28t-28 77q0 57 43 98t98 41q52 0 88.5 -35.5t36.5 -95.5q0 -85 -60 -169t-155 -134
q92 -140 92 -322q0 -164 -61.5 -311t-168 -254t-257 -169.5t-320.5 -62.5zM786 287q178 0 299 133.5t121 324.5q0 149 -96.5 240.5t-249.5 91.5q-178 0 -299 -134t-121 -325q0 -148 96.5 -239.5t249.5 -91.5zM1139 1481h-213l-260 295h278z" />
    <glyph glyph-name="uni1EDD" unicode="&#x1edd;" horiz-adv-x="1179" 
d="M1255 1124q0 -84 -57 -165.5t-147 -131.5q82 -118 82 -270q0 -114 -43.5 -219.5t-119 -186t-185 -128.5t-234.5 -48q-241 0 -375.5 128t-134.5 327q0 114 43.5 220t119 186.5t185 129t234.5 48.5q223 0 356 -111q96 51 123 111q-2 -2 -15 -2q-42 0 -70 27t-28 77
q0 57 43 97t98 40q52 0 88.5 -34.5t36.5 -94.5zM563 254q107 0 177.5 86.5t70.5 202.5q0 90 -53 141t-146 51q-109 0 -178 -86t-69 -203q0 -90 52.5 -141t145.5 -51zM872 1139h-213l-260 295h279z" />
    <glyph glyph-name="uni1EDE" unicode="&#x1ede;" horiz-adv-x="1568" 
d="M766 -25q-195 0 -352 76t-248.5 218.5t-91.5 326.5q0 163 61.5 309t168 252.5t257 169t320.5 62.5q164 0 303.5 -56.5t234.5 -158.5q41 22 76 51.5t49 60.5q-4 -2 -16 -2q-42 0 -70 28t-28 77q0 57 43 98t98 41q52 0 88.5 -35.5t36.5 -95.5q0 -85 -60 -169t-155 -134
q92 -140 92 -322q0 -164 -61.5 -311t-168 -254t-257 -169.5t-320.5 -62.5zM786 287q178 0 299 133.5t121 324.5q0 149 -96.5 240.5t-249.5 91.5q-178 0 -299 -134t-121 -325q0 -148 96.5 -239.5t249.5 -91.5zM946 1536l-94 45q58 98 176 98q62 0 110 -34t48 -97
q0 -62 -45 -121h-131q55 52 55 105q0 22 -14.5 35.5t-36.5 13.5q-40 0 -68 -45z" />
    <glyph glyph-name="uni1EDF" unicode="&#x1edf;" horiz-adv-x="1179" 
d="M1255 1124q0 -84 -57 -165.5t-147 -131.5q82 -118 82 -270q0 -114 -43.5 -219.5t-119 -186t-185 -128.5t-234.5 -48q-241 0 -375.5 128t-134.5 327q0 114 43.5 220t119 186.5t185 129t234.5 48.5q223 0 356 -111q96 51 123 111q-2 -2 -15 -2q-42 0 -70 27t-28 77
q0 57 43 97t98 40q52 0 88.5 -34.5t36.5 -94.5zM563 254q107 0 177.5 86.5t70.5 202.5q0 90 -53 141t-146 51q-109 0 -178 -86t-69 -203q0 -90 52.5 -141t145.5 -51zM674 1188l-94 45q58 98 176 98q62 0 109.5 -34t47.5 -97q0 -62 -45 -121h-131q56 53 56 105q0 21 -15 35
t-37 14q-39 0 -67 -45z" />
    <glyph glyph-name="uni1EE0" unicode="&#x1ee0;" horiz-adv-x="1568" 
d="M766 -25q-195 0 -352 76t-248.5 218.5t-91.5 326.5q0 163 61.5 309t168 252.5t257 169t320.5 62.5q164 0 303.5 -56.5t234.5 -158.5q41 22 76 51.5t49 60.5q-4 -2 -16 -2q-42 0 -70 28t-28 77q0 57 43 98t98 41q52 0 88.5 -35.5t36.5 -95.5q0 -85 -60 -169t-155 -134
q92 -140 92 -322q0 -164 -61.5 -311t-168 -254t-257 -169.5t-320.5 -62.5zM786 287q178 0 299 133.5t121 324.5q0 149 -96.5 240.5t-249.5 91.5q-178 0 -299 -134t-121 -325q0 -148 96.5 -239.5t249.5 -91.5zM1149 1477q-48 0 -86.5 17.5t-59.5 38.5t-48.5 38.5t-55.5 17.5
q-54 0 -74 -100h-161q27 141 85 207.5t169 66.5q48 0 86.5 -17.5t59.5 -38.5t48.5 -38.5t54.5 -17.5q53 0 76 100h162q-31 -141 -88.5 -207.5t-167.5 -66.5z" />
    <glyph glyph-name="uni1EE1" unicode="&#x1ee1;" horiz-adv-x="1179" 
d="M1255 1124q0 -84 -57 -165.5t-147 -131.5q82 -118 82 -270q0 -114 -43.5 -219.5t-119 -186t-185 -128.5t-234.5 -48q-241 0 -375.5 128t-134.5 327q0 114 43.5 220t119 186.5t185 129t234.5 48.5q223 0 356 -111q96 51 123 111q-2 -2 -15 -2q-42 0 -70 27t-28 77
q0 57 43 97t98 40q52 0 88.5 -34.5t36.5 -94.5zM563 254q107 0 177.5 86.5t70.5 202.5q0 90 -53 141t-146 51q-109 0 -178 -86t-69 -203q0 -90 52.5 -141t145.5 -51zM807 1135q-48 0 -86.5 17.5t-59.5 38.5t-48.5 38.5t-55.5 17.5q-54 0 -74 -100h-161q27 142 85 208t168 66
q48 0 86.5 -17.5t60 -38.5t49 -38.5t54.5 -17.5q53 0 76 100h162q-31 -141 -88.5 -207.5t-167.5 -66.5z" />
    <glyph glyph-name="uni1EE2" unicode="&#x1ee2;" horiz-adv-x="1568" 
d="M766 -25q-195 0 -352 76t-248.5 218.5t-91.5 326.5q0 163 61.5 309t168 252.5t257 169t320.5 62.5q164 0 303.5 -56.5t234.5 -158.5q41 22 76 51.5t49 60.5q-4 -2 -16 -2q-42 0 -70 28t-28 77q0 57 43 98t98 41q52 0 88.5 -35.5t36.5 -95.5q0 -85 -60 -169t-155 -134
q92 -140 92 -322q0 -164 -61.5 -311t-168 -254t-257 -169.5t-320.5 -62.5zM786 287q178 0 299 133.5t121 324.5q0 149 -96.5 240.5t-249.5 91.5q-178 0 -299 -134t-121 -325q0 -148 96.5 -239.5t249.5 -91.5zM778 -238q0 -70 -55.5 -124t-126.5 -54q-61 0 -102 41t-41 103
q0 70 55.5 124t126.5 54q61 0 102 -41t41 -103z" />
    </font>
</defs>
</svg>
