<?xml version="1.0" standalone="no"?>
<!DOCTYPE svg PUBLIC "-//W3C//DTD SVG 1.1//EN" "http://www.w3.org/Graphics/SVG/1.1/DTD/svg11.dtd" >
<svg xmlns="http://www.w3.org/2000/svg">
<metadata></metadata>
<defs>
<font id="djb_gonna_share_my_storyRg" horiz-adv-x="1774" >
<font-face units-per-em="2048" ascent="1638" descent="-410" />
<missing-glyph horiz-adv-x="786" />
<glyph unicode="&#xd;" horiz-adv-x="508" />
<glyph horiz-adv-x="0" />
<glyph horiz-adv-x="0" />
<glyph unicode=" "  horiz-adv-x="786" />
<glyph unicode="&#x09;" horiz-adv-x="786" />
<glyph unicode="&#xa0;" horiz-adv-x="786" />
<glyph unicode="!" horiz-adv-x="672" d="M236 2120q0 72 103.5 54.5t184.5 -1414.5v-272q-71 -73 -160 -24q-16 67 -48 944q-80 625 -80 712zM342 80q0 47 30.5 80t73.5 33q44 0 74.5 -33t30.5 -80t-30.5 -80.5t-74.5 -33.5q-43 0 -73.5 33.5t-30.5 80.5z" />
<glyph unicode="&#x22;" horiz-adv-x="907" d="M106 1530q6 189 162 446q93 24 136 -48v-24q0 -21 -40 -96q-80 -195 -80 -280v-16q0 -54 168 -152l8 -8v-8q0 -37 -160 -64q-200 61 -194 250zM489 1538q6 189 162 446q93 24 136 -48v-24q0 -21 -40 -96q-80 -195 -80 -280v-16q0 -54 168 -152l8 -8v-8q0 -37 -160 -64 q-200 61 -194 250z" />
<glyph unicode="#" horiz-adv-x="1520" d="M77 1087q19 59 168 160l251 108q-4 70 2 376q27 120 72 120q88 -30 88 -128v-24l-12 -287l208 16q11 283 92 451q34 32 64 32h16q57 0 88 -80q-76 -174 -94 -329v-32q0 -16 224 -8q104 -10 104 -32v-24q0 -43 -126 -66l-192 -56l-8 -232q5 -48 24 -48q181 75 326 75h24 q48 -5 48 -24v-16q-45 -73 -150 -131q-102 -40 -240 -64q24 -116 24 -216q0 -116 -72 -152h-16q-64 0 -64 144l-29 145l-239 -113l-4 -120l24 -200q-30 -128 -104 -128q-96 0 -96 160q-6 240 -24 240h-16l-141 -23q-34 0 -88 80v40q26 104 232 96l53 7v24l-8 336h-8 q-201 -68 -222.5 -124.5t-50.5 -56.5h-16q-112 21 -112 104zM646 1108q10 -232 24 -232l184 64v320l-204 -51z" />
<glyph unicode="$" horiz-adv-x="1178" d="M52 727v24q41 138 96 141.5t72 -197.5q89 -156 336 -248q24 57 24 200v56q0 55 -272 344q-66 122 -72 208q0 184 208 296q128 25 128 80l8 104q-13 291 57 291q128 0 123.5 -201.5t35.5 -201.5q284 -82 306 -215q-13 -80 -72 -80q-82 0 -130 87q-93 40 -144 40v-8 l-8 -352v-236q107 -131 177.5 -216.5t70.5 -187.5q-32 -208 -192 -208q-20 -160 -56 -216l-56 -16q-26 12 -120 232l-8 8q-180 27 -384 208q-128 138 -128 264zM436 1255q25 -140 120 -240h16l32 384h-8q-160 -37 -160 -120v-24zM756 487q0 -59 24 -64h8q32 13 32 56 q0 49 -56 88h-8v-80z" />
<glyph unicode="%" horiz-adv-x="1311" d="M0 1256q58 351 331.5 407t260.5 -119q-21 -165 -168 -328q-199 -120 -320 -120h-24q-80 0 -80 160zM115 17q-78 30 169 506l680 1294q41 67 135 67l14 -8q50 -31 -616 -1343l-208 -416l-9 -14q-74 -121 -165 -86zM158 1329l12 -35q242 97 288 196l-35 23 q-137 22 -265 -184zM587 234q58 351 331.5 407t260.5 -119q-21 -165 -168 -328q-199 -120 -320 -120h-24q-80 0 -80 160zM745 307l12 -35q242 97 288 196l-35 23q-163 0 -265 -184z" />
<glyph unicode="&#x26;" horiz-adv-x="1307" d="M64 968q17 98 280 161q166 60 198 59q11 241 -2 627l11 63q10 55 81 42l16 -3q126 -22 80 -274q33 -410 22 -563l-5 -31q-19 -30 -213 -52l-117 -19l-3 -16q-5 -29 143 -66q47 -9 225 33q98 -18 95 -148l-4 -23q-11 -65 -259 -133q-166 -107 -190 -242l-6 -31 q0 -82 49 -90q152 -28 525 344q69 37 119 28q71 -13 47 -147l-161 -808l-8 -177l-4 -24q-22 -37 -127 -26q-78 14 -61 108l21 167l99 551q-88 -68 -178 -130q-177 -90 -289 -70l-15 3q-276 49 -210 282t199 337l3 16q4 26 -301 135q-71 58 -60 117z" />
<glyph unicode="'" horiz-adv-x="645" d="M119 1358v8l8 8q168 98 168 152v16q0 85 -80 280q-40 75 -40 96v24q43 72 136 48q156 -257 162 -446t-194 -250q-160 27 -160 64z" />
<glyph unicode="(" horiz-adv-x="919" d="M9 721q-35 359 171 931.5t309 572.5h56q43 0 56 -32v-16q0 -38 -120 -208q-232 -503 -304 -1184v-72q0 -491 464 -672q208 -18 208 -48q0 -112 -128 -112q-322 0 -517 240.5t-195 599.5z" />
<glyph unicode=")" horiz-adv-x="957" d="M43 -74q0 30 208 48q464 181 464 672v72q-72 681 -304 1184q-120 170 -120 208v16q13 32 56 32h56q103 0 312 -592q168 -402 168 -912q0 -359 -195 -599.5t-517 -240.5q-128 0 -128 112z" />
<glyph unicode="*" horiz-adv-x="1259" d="M14 1197v16q0 80 120 80l160 -16q-256 255 -256 368q16 104 96 104h16q71 -4 160 -192q58 -93 88 -112h8l16 16v32q0 195 -56 360q24 144 112 144q92 0 128 -456l16 -48h8q164 270 220 270q140 59 136 -88q0 -76 -268 -358q458 95 480 -56q5 -100 -432 -104 q122 -169 279 -231l16 -16q66 -127 -64 -136q-83 0 -375 263q40 -224 40 -328q0 -72 -72 -72q-120 0 -120 240l-8 8q-5 56 -24 56q-169 -249 -296 -249q-33 11 -48 40v24q0 80 216 313v8q-296 -32 -296 120z" />
<glyph unicode="+" horiz-adv-x="1102" d="M85 713l5 40q98 110 267 77q90 13 95 20q11 122 -2 344l2 88q13 71 73 64q73 44 131 -88l-4 -32q-20 -158 -18 -373l169 -16q171 23 195 -64.5t-180 -63.5l-180 -18q-39 -578 4 -583l3 -41q-50 -82 -114 -75l-32 4q-111 14 -72 332q28 337 7 340q-258 -28 -290.5 -15.5 t-58.5 60.5z" />
<glyph unicode="," horiz-adv-x="569" d="M124 -412l8 8q168 98 168 152v16q0 85 -80 280q-40 75 -40 96v24q43 72 136 48q156 -257 162 -446t-194 -250q-160 27 -160 64v8z" />
<glyph unicode="-" horiz-adv-x="1258" d="M139 949v8q-4 40 108 50l23 2l562 31q46 4 164 28t124 -40l3 -31q25 -116 -241.5 -118t-585.5 -31q-143 -17 -157 101z" />
<glyph unicode="." horiz-adv-x="510" d="M160 111q0 43 30.5 73.5t73.5 30.5q44 0 74.5 -30.5t30.5 -73.5t-30.5 -74t-74.5 -31q-43 0 -73.5 31t-30.5 74z" />
<glyph unicode="/" horiz-adv-x="831" d="M29 148q130 199 552 1651l28 100q32 116 116 93l24 -7q64 -17 56 -98q-104 -227 -499 -1516q-127 -363 -209 -341q-84 59 -68 118z" />
<glyph unicode="0" horiz-adv-x="1314" d="M41 1166q0 245 96 480q34 56 120 56q195 160 392 160h24q276 0 434 -247t149.5 -697t-222 -617t-402.5 -189q-261 0 -440 272q-168 317 -151 782zM217 1222q-17 -705 367 -926l32 -8h40q137 0 297.5 156.5t144 524t-118 542.5t-314.5 175h-40q-189 0 -344 -232 q0 -18 -48 -56z" />
<glyph unicode="1" horiz-adv-x="619" d="M93 1639q0 51 64 96h32q32 0 96 -384q64 -280 178 -1235v-8q0 -104 -88 -104h-24q-96 0 -96 264q-40 663 -162 1371z" />
<glyph unicode="2" horiz-adv-x="1522" d="M-37 1423q0 96 138 165t238 75h56q427 0 621 -711l8 -120v-88l-24 -216q496 -28 496 -128q-13 -64 -96 -64h-88l-320 24q-113 0 -152 -120q-94 -166 -343 -201t-345 80t-96 185v24q0 159 304 232l104 8l280 -16q128 0 128 168v48q-37 552 -381 703l-88 8 q-182 0 -199 -69.5t-161 -98.5q-80 35 -80 112zM272 264q-9 -101 136 -88q160 16 320 168v16q-59 24 -128 24h-88q-240 0 -240 -120z" />
<glyph unicode="3" horiz-adv-x="1404" d="M0 1385q63 136 206.5 228t321.5 92q351 -23 424 -208l16 -136q0 -224 -200 -512l8 -8q376 -71 493.5 -223.5t59.5 -378.5t-553 -239h-40q-214 0 -318.5 83t-177.5 221v8q29 91 91 114t93 -130q125 -152 384 -152q374 33 400 192v24q0 246 -464 305h-40q-107 0 -264 -40 q-88 26 -88 120v24q0 97 120 112q90 0 248 224q72 135 72 224v8q0 165 -288 192q-152 0 -344 -200q-43 -32 -72 -32h-40q-27 0 -48 88z" />
<glyph unicode="4" horiz-adv-x="1332" d="M17 786q72 141 72 424v160q0 176 72 176q112 -25 112 -168l8 -152l-26 -368l202 -24l216 8v8q24 524 24 912v112q0 168 96 168h24q72 -48 72 -136q-24 -215 -44 -627.5t20 -412.5l416 40h64l24 -24q0 -123 -528 -200q-29 -767 -83 -848q-136 -48 -136 128q0 159 19 432 l8 200v32l8 8v8h-8q-600 0 -600 48z" />
<glyph unicode="5" horiz-adv-x="1463" d="M0 736q0 98 248 768q49 184 376 184q382 24 616 64h16q96 0 106 -108t-106 -108q-864 -22 -864 -168q-80 -161 -152 -440l-8 -8l8 -8q380 88 552 88q294 0 488 -224q32 -48 32 -96v-40q0 -320 -464 -576q-163 -64 -368 -64h-32q-101 0 -120 144v16q28 136 120 136 q38 0 72 -80q29 -24 56 -24h32q229 0 496 304l16 56v24q0 176 -88 176q-107 64 -264 64h-24q-192 0 -632 -160l-56 -8q-46 0 -56 88z" />
<glyph unicode="6" horiz-adv-x="1227" d="M-36 465v56q0 209 277 639.5t680 563.5q160 -19 160 -112v-32q-154 -45 -296 -80q-221 -124 -410 -466t-227 -521h16q218 200 416 200h32q287 0 504 -216q24 -37 40 -120q0 -237 -518.5 -325t-665.5 341zM252 273q112 -64 272 -64q297 0 424 152q0 100 -360 152 q-226 0 -336 -240z" />
<glyph unicode="7" horiz-adv-x="1249" d="M21 1547q0 137 192 152q778 50 867.5 49.5t94.5 -87.5l-56 -712q-112 -539 -176 -1032q-47 -121 -88 -136q-120 50 -120 128q40 269 216 1104l24 336q0 184 -80 184l-112 8q-239 14 -650 -114q-89 0 -112 120z" />
<glyph unicode="8" horiz-adv-x="1269" d="M0 424q0 118 264 360l16 56q-216 288 -216 464q0 243 640 344l88 8l296 8q89 0 128 -152q-20 -210 -168.5 -375.5t-431.5 -344.5v-8q382 -440 383 -612t-183 -172h-8q-89 0 -344 56q-456 185 -456 312zM200 408q103 -100 512 -264q121 -26 120.5 104t-376.5 408l-24 8 q-97 0 -232 -232v-24zM264 1256q16 -116 192 -336h8q160 66 528 408q48 41 39.5 108t-319.5 20q-448 -74 -448 -200z" />
<glyph unicode="9" horiz-adv-x="1475" d="M25 1263v29q11 75 377 225q228 109 442.5 153t320.5 44q167 -24 167 -58q67 -46 87 -131q0 -111 -116 -268q-58 -103 -249 -990v-29l7 -174q-38 -102 -138 -102q-43 0 -50 87q0 191 234 1106v80q0 38 -22 44l-152 -80q-269 -132 -603 -132h-15q-209 0 -261 72 q-29 73 -29 124zM272 1234h72q134 0 567 153q122 55 145 88v21l-36 8q-232 -15 -494 -104q-217 -100 -254 -152v-14z" />
<glyph unicode=":" horiz-adv-x="493" d="M182 875q0 43 30.5 73.5t73.5 30.5q44 0 74.5 -30.5t30.5 -73.5t-30.5 -74t-74.5 -31q-43 0 -73.5 31t-30.5 74zM204 244q0 43 30.5 73.5t73.5 30.5q44 0 74.5 -30.5t30.5 -73.5t-30.5 -74t-74.5 -31q-43 0 -73.5 31t-30.5 74z" />
<glyph unicode=";" horiz-adv-x="557" d="M101 -377l8 8q168 98 168 152v16q0 85 -80 280q-40 75 -40 96v24q43 72 136 48q156 -257 162 -446t-194 -250q-160 27 -160 64v8zM183 875q0 43 30.5 73.5t73.5 30.5t73.5 -30.5t30.5 -73.5t-30.5 -74t-73.5 -31t-73.5 31t-30.5 74z" />
<glyph unicode="&#x3c;" horiz-adv-x="1391" d="M0 824v24q0 118 120 144l80 -8q219 0 912 224q140 80 192 80h32q24 0 32 -72q0 -157 -408 -256q-133 -48 -624 -152q-57 -35 -64 -64q41 -168 383.5 -350t399.5 -182h48q40 -18 40 -80q17 -103 -103 -132q-66 0 -387.5 176.5t-500.5 375.5q-108 188 -144 224z" />
<glyph unicode="=" horiz-adv-x="1239" d="M90 607v8q-4 40 108 50l23 2l562 31q46 4 164 28t124 -40l3 -31q25 -116 -241.5 -118t-585.5 -31q-143 -17 -157 101zM175 904v8q-4 40 108 50l23 2l562 31q46 4 164 28t124 -40l3 -31q25 -116 -241.5 -118t-585.5 -31q-143 -17 -157 101z" />
<glyph unicode="&#x3e;" horiz-adv-x="1491" d="M57 1207q8 72 32 72h32q52 0 192 -80q693 -224 912 -224l80 8q120 -26 120 -144v-24l-8 -48q-36 -36 -144 -224q-179 -199 -500.5 -375.5t-387.5 -176.5q-120 29 -103 132q0 62 40 80h48q57 0 399.5 182t383.5 350q-7 29 -64 64q-491 104 -624 152q-408 99 -408 256z" />
<glyph unicode="?" horiz-adv-x="1210" d="M135 1683v32q0 56 124 140t461.5 84t430.5 -184l16 -64q0 -377 -456 -840l-64 -96v-24q15 -27 240 -192q39 -127 -90 -88q-173 40 -350 160q-32 48 -32 88v32q0 32 40 104q95 72 320 344q224 235 224 472q-38 128 -338 102.5t-366 -126.5l-72 -16q-88 0 -88 72zM583 156 q0 56 33.5 96t81.5 40t82 -40t34 -96t-34 -95.5t-82 -39.5t-81.5 39.5t-33.5 95.5z" />
<glyph unicode="@" horiz-adv-x="1848" d="M43.5 428q10.5 374 216.5 702t463.5 394t458 10.5t391.5 -298t220 -663t-305 -696.5t-710.5 -251.5t-560.5 226.5t-173.5 576zM218.5 524.5q-55.5 -361.5 113 -554.5t453.5 -204.5t568 216t283 396.5v8l-16 16q-127 -120 -152 -120l-72 -16h-40q-184 132 -184 296 q-225 -315 -608 -368q-184 84 -184 240v48q0 173 392 688q94 72 176 72q180 -53 269 -192.5t131 -471.5q41 -71 56 -72h32q144 115 144 264v40q0 230 -210 419t-456 166.5t-443 -266t-252.5 -605zM572 458q0 -48 48 -48h16q136 0 262.5 97t193.5 231q-38 182 -104 264 l-48 40q-107 -73 -240 -256q-128 -177 -128 -304v-24z" />
<glyph unicode="A" d="M-3 3v16q0 129 212 716q-103 13 -107 92q0 74 177 111l446 915q62 112 128 112q72 0 250 -308t263 -531l150 17l58 10q16 3 29 3q59 0 71 -54q1 -3 0 -7q0 -64 -230 -152q282 -712 282 -828v-48q-10 -72 -72 -72q-68 0 -416 890l-822 -135q-173 -408 -243 -746 q-57 -37 -102 -37q-43 0 -74 36zM491 955l687 102l-326 621l-361 -699v-24z" />
<glyph unicode="B" horiz-adv-x="2000" d="M44 1707l2 16l129 119q177 144 333 148h25q149 0 341 -50q208 -54 292 -276q16 -42 17 -89q0 -201 -295 -491q927 -100 989 -375q10 -46 10 -89q0 -211 -255 -334q-216 -88 -1029 -254q-47 -24 -158 -156l-9 -7l-24 3q-67 9 -68 155q-34 1652 -77 1658q-53 -97 -114 -97 q-6 0 -12 1l-8 1q-90 20 -90 96q0 10 1 21zM461 1747q-1 -56 -1 -107q0 -538 58 -546l281 107q198 202 198 391q0 188 -316 231q-20 1 -38 1q-172 0 -182 -77zM530 826q-2 -43 -2 -91q0 -176 23 -430l13 -96l124 37l8 -1q1022 143 1046 382l1 8v6q0 169 -809 243l-95 13 q-65 9 -119 9q-125 0 -185 -49z" />
<glyph unicode="C" horiz-adv-x="1838" d="M79 682q6 676 787 1106q119 40 192 40h64q116 0 202 -36t86 -124q-26 -144 -128 -144q-35 0 -152 104l-80 16q-228 -36 -497.5 -316.5t-297.5 -610.5q-4 -49 -4 -92q0 -251 138 -335q135 -81 423 -82q58 0 121 4q382 20 600 186q100 104 144 104h16q75 0 88 -112v-40 q-27 -56 -265 -168q-239 -112 -841 -144q-27 -1 -52 -2q-544 0 -544 632v14z" />
<glyph unicode="D" horiz-adv-x="1915" d="M-3 1725q10 117 147 124q18 16 18 89v8q39 47 73 47q55 0 97 -125q79 -49 186 -57q554 -131 912 -395q359 -265 359 -632q-1 -366 -445 -546q-446 -182 -893 -189l-18 -23v-96q-36 -80 -96 -80h-7l-40 4q-34 19 -34 69q0 7 1 14l8 95q2 24 -95.5 25.5t-106.5 79.5v7 q0 73 189 106l-11 81q-64 586 -75 1300q-24 -3 -45 -3q-122 0 -124 97zM337 1657q-4 -44 -4 -113q0 -345 93 -1308q56 -6 115 -6q295 0 673 149q417 164 417 412q1 23 -3 45q-40 278 -352 486t-725 301z" />
<glyph unicode="E" horiz-adv-x="1962" d="M-19 1023q7 114 352 123l-71 586v8q6 114 202 114q22 0 45 -1q632 6 1087 73l16 -1q106 -6 112 -135q-6 -104 -737 -117q-152 9 -257 9q-231 0 -234 -44l-11 -64l42 -373q368 51 565 54q93 -13 93 -73q0 -10 -2 -20q-17 -78 -650 -155l-3 -392l2 -385q10 -1 22 -1 q233 0 1151 228q60 43 104 43q9 0 17 -2q45 -10 45 -79q-1 -6 -1 -13q-4 -82 -185 -156q-986 -221 -1255 -221q-16 0 -30 1l-24 1q-62 3 -62 136q0 20 1 44l31 399q0 343 -40 346l-219 -36q-64 4 -106 103z" />
<glyph unicode="F" horiz-adv-x="1653" d="M-2 782l5 45q10 96 294 104l-16 921q6 66 60 66q5 0 11 -1l32 -4q50 -5 99 -123q285 67 697 104q341 49 489 49q32 0 55 -2q120 -13 120 -74q0 -7 -2 -15q-15 -74 -459 -93q-764 -107 -898 -185l11 -589l921 111q86 14 144 14q103 0 119 -46q3 -10 4 -19q0 -57 -120 -91 q-140 -38 -1076 -186l88 -881q-24 -83 -84 -83q-24 0 -55 14q-104 47 -104 767v14l-25 138q-106 -15 -176 -15q-140 0 -134 60z" />
<glyph unicode="G" horiz-adv-x="1799" d="M18 916q-3 47 -3 93q0 331 193 609q220 316 580 368q91 13 168 13q231 0 346 -117q138 -139 138 -231q0 -10 -2 -20q-17 -96 -92 -96h-24q-117 305 -402 305h-17q-299 -9 -527 -302q-187 -240 -187 -542q0 -68 9 -140q52 -387 254 -566q132 -115 321 -115q104 0 224 34 q342 97 495 487q48 148 48 192q0 80 -152 80l-808 -64q-92 34 -92 96q0 29 20 64q151 39 552 48q488 53 521 90.5t110 37.5q52 0 52 -134q0 -67 -13 -166q-38 -299 -338 -660q-268 -280 -617 -280t-537.5 264.5t-219.5 651.5z" />
<glyph unicode="H" horiz-adv-x="1579" d="M-13 990l1 16q6 88 193 115l12 55l-7 620q6 81 94 81q8 0 16 -1l16 -1q54 -4 54 -366q0 -96 -4 -217q3 -136 22 -138l734 60l-27 578l6 80q9 136 103 136h11q72 -5 72 -336q0 -78 -4 -174q1 -272 32 -274l8 -1l313 -6q80 -6 107 -64l-2 -32q-6 -79 -192 -79q-39 0 -86 3 q-170 -15 -171 -36q39 -401 38 -749q0 -92 -2 -180q-24 -150 -79 -150q-15 0 -31 10q-66 42 -66 389q0 70 3 152q-18 273 -46 557q-198 -2 -742 -59q-6 -169 -6 -320q0 -310 26 -544q14 -47 14 -88q0 -35 -10 -67q-21 -66 -50 -66h-2q-129 9 -135 242q-7 485 -10 773l-32 5 l-42 -21l-48 3q-65 5 -81 94z" />
<glyph unicode="I" horiz-adv-x="555" d="M103 1872q25 144 114 144h8h8q72 -5 152 -1715l19 -202q-70 -111 -132 -111h-4q-57 4 -62 156q1 10 1 28q0 223 -104 1700z" />
<glyph unicode="J" horiz-adv-x="1349" d="M39 1084q-1 13 -1 24q0 70 55 70h10q75 -8 114 -205q166 -784 441 -805q14 -1 28 -1q251 0 342 345q40 147 40 373q0 331 -84 829q-48 125 -48 160v16q0 106 144 120q67 0 112 -568q25 -294 25 -560q0 -103 -3 -202q-14 -354 -170 -533q-133 -153 -370 -153q-41 0 -85 5 q-299 31 -419 508t-131 577z" />
<glyph unicode="K" horiz-adv-x="1533" d="M-64 909v8q4 76 170 132v8q-38 632 -86 897l1 8q12 33 42 47l8 -1q152 -5 152 -368q0 -37 -2 -78q37 -479 45 -467q662 389 862 578q93 112 175 112h6q73 -41 73 -91q0 -19 -10 -40q-38 -75 -302.5 -262t-621.5 -405l-1 -24q201 -30 949 -86q115 -22 115 -118v-7v-16 q-23 -62 -126 -62q-79 0 -204 36q-357 46 -894 68l7 -25l90 -548l-2 -56q-31 -130 -127 -130h-6q-76 3 -97 396q-25 153 -34 337q-183 128 -182 157z" />
<glyph unicode="L" horiz-adv-x="1631" d="M73 1889q5 80 102 107q116 -32 116 -193q0 -15 -1 -32q-11 -634 -11 -1025q0 -426 13 -563q8 -105 65 -109q25 -2 51 -2q264 0 616 166q370 174 496 174h10q47 -12 47 -118q0 -17 -1 -37q-4 -62 -1242 -422l-91 -34q-128 8 -128 226q0 26 2 55q-18 270 -18 710 q0 360 12 834q-8 115 -38 263z" />
<glyph unicode="M" horiz-adv-x="2177" d="M9 106q115 1192 119 1299q13 366 76 366h1l89 21q93 -28 572 -566q234 -306 314 -371l8 -1q48 -1 257 888l50 270q49 45 81 45h1l32 -1q79 -3 98 -156q41 -191 131 -555q91 -363 209 -775q116 -405 116 -453q0 -133 -117 -133h-8q-102 4 -164 565q-159 791 -267 1027 l-8 8h-8q-16 1 -148 -547q-121 -460 -177 -458l-56 -6q-126 5 -446 505q-349 413 -425 416h-16q-26 -54 -129 -1363q-50 -109 -83 -109h-1l-64 3q-37 18 -37 75v6z" />
<glyph unicode="N" horiz-adv-x="1920" d="M66 1877l2 32q14 105 118 105q12 0 24 -1q221 -162 770.5 -941.5t582.5 -781.5h8q28 73 32 134l3 64q17 644 17 1046q0 151 -2 267q4 69 62 101l72 -4l63 -19l-56 -1624q-9 -164 -133 -233q-28 3 -220 173.5t-1045 1408.5q101 -1334 182 -1660l-1 -24q-7 -116 -143 -120 q-100 5 -104 150v8q-114 1810 -232 1919z" />
<glyph unicode="O" horiz-adv-x="1399" d="M83 1024q0 245 96 480q34 56 120 56q195 160 392 160h24q276 0 434 -247q159 -247 161 -664v-10q0 -409 -212 -574q-214 -167 -402 -189q-261 0 -434.5 294.5t-178.5 693.5zM259 1080q94 -782 389 -860l32 -8h40q138 0 298 156q137 134 137 397q-1 45 -5 95 q-28 334 -129 509t-314 175h-40q-189 0 -344 -232q0 -18 -48 -56z" />
<glyph unicode="P" horiz-adv-x="1311" d="M-82 1081q61 87 191 87q19 0 40 -2l7 124l3 32q7 76 7 140q0 188 -63 276l-3 48q17 39 35.5 88.5t492.5 52.5q416 -41 747 -258q64 -49 64 -149q0 -16 -2 -34q-28 -282 -487 -378q-131 -52 -624 -132q18 -233 87 -856l-6 -56q-35 -56 -84 -56q-5 0 -10 1 q-127 12 -155 895q-13 58 -26 59l-56 6h-88q-70 8 -70 99v13zM326 1174l270 17q656 130 672 288l1 16q7 70 -311 183q-120 44 -260 58q-61 6 -112 6q-233 0 -245 -124l-1 -8z" />
<glyph unicode="Q" horiz-adv-x="1880" d="M40 926q34 316 218 546t485 314h8q40 0 72 -104q-181 -91 -395.5 -277.5t-225.5 -574.5v-37q0 -358 194 -505q187 -142 373 -142q18 0 36 1q204 15 377.5 124.5t181.5 139.5q0 62 -192 312q-240 396 -240 464q35 56 104 56h24q70 0 200 -288q191 -323 256 -376 q122 120 122 357q0 28 -2 58q-16 280 -293.5 568t-535.5 288l-296 -8q-13 6 -13 19q0 24 42 73q66 76 251 76q458 -26 733 -405q264 -364 264 -690v-27q-11 -337 -168 -469q0 -66 116 -228t196 -292q-33 -96 -112 -96q-59 7 -181 235t-147 237q-186 -140 -454 -226 q-136 -43 -270 -43q-132 0 -264 42q-264 85 -380 324q-91 185 -91 417q0 66 7 137z" />
<glyph unicode="R" horiz-adv-x="1577" d="M50 916q-9 48 -9 164t9 302q18 370 109 423q209 207 420 208q39 0 79 -8q250 -46 363 -248q100 -179 100 -327q1 -19 -1 -38q-14 -163 -98 -288.5t-437 -220.5l-105 -25q-5 -75 717 -367l158 -33l144 -1q20 -29 20 -66v-7q-6 -104 -137 -104q-11 0 -22 1l-48 -5 q-240 15 -1059 478q50 -246 50 -522q0 -95 -6 -194q-19 -124 -74 -124h-3q-57 4 -66 100q-10 281 -104 902zM218 1435l48 -472q116 1 392 94t321 315v25q0 253 -177 377q-108 75 -214 75q-78 0 -154 -40q-182 -94 -202 -265z" />
<glyph unicode="S" horiz-adv-x="1170" d="M14 1426q24 356 400 436q61 13 121 14q302 0 545 -340q56 -112 56 -160q-28 -144 -120 -144h-16q-96 0 -96 104q0 193 -96 256q-109 117 -304 117q-6 -1 -14 -1q-206 -4 -298 -268l-8 -96q0 -289 392 -544q416 -333 416 -528q0 -172 -264 -272h-40q-176 0 -416 104 q-216 185 -216 400q0 116 60 150q7 4 14 4q51 0 86 -218q136 -256 488 -256q68 0 112 112q-4 98 -536 528q-267 226 -267 547q-1 27 1 55z" />
<glyph unicode="T" horiz-adv-x="1653" d="M-53 1722q14 111 114 111q90 0 403 64l584 80l695 39q112 0 112 -72v-24q0 -62 -416 -88q-53 1 -101 1q-378 0 -378 -64v-16q80 -543 144 -1027.5t64 -668.5q-11 -80 -72 -80q-144 32 -144 80l8 280q-88 1030 -136 1424l-8 8h-16q-244 0 -667 -136q-33 -4 -60 -4 q-127 0 -127 79q0 7 1 14z" />
<glyph unicode="U" horiz-adv-x="1600" d="M-9 1840q44 54 88 54l88 -54q-1 -175 -1 -330q0 -1031 58 -1183q54 -143 249 -143q43 0 93 7q276 39 394 215l8 40v232q20 1248 159 1248h24q80 0 114 -36t55 -645q3 -79 3 -152q0 -489 -123 -703l-8 -40q78 -160 312 -160l144 8q48 -8 48 -24v-16q-32 -128 -240 -128 q-207 0 -392 184h-8q-246 -200 -614 -207h-12q-357 0 -398 433zM1128 598h8q68 137 68 495q0 233 -29 561h-8q-50 -479 -50 -794q0 -149 11 -262z" />
<glyph unicode="V" horiz-adv-x="1391" d="M0 1536q26 112 104 112q96 -5 96 -96q310 -414 473.5 -689t334.5 -479h8q60 0 136 808l56 696v72q8 162 104 177q17 3 32 3q69 0 88 -60q-80 -292 -208 -1696q-44 -352 -104 -352q0 -26 -88 -32q-79 0 -112 168q-520 878 -816 1168q-104 130 -104 200z" />
<glyph unicode="W" horiz-adv-x="2177" d="M0 1640q0 136 120 136q102 0 144 -280q187 -785 304 -1016l8 -8h8q16 0 128 552q104 464 216 472q126 0 464 -488q364 -400 440 -400h16q24 55 120 1088q46 112 80 112h64q40 -18 40 -80q-112 -916 -112 -1024q0 -368 -64 -368l-88 -24q-94 24 -592 544 q-245 298 -336 360q-48 0 -224 -896l-40 -272q-48 -48 -80 -48h-32q-80 0 -104 152q-48 190 -172 612t-216 627.5t-92 248.5z" />
<glyph unicode="X" horiz-adv-x="1444" d="M82 1728q77 0 307 -328t251 -328l416 760l40 8q96 0 128 -56v-32q0 -38 -128 -200q-304 -473 -308 -636q343 -461 492.5 -585.5t158.5 -198.5q1 -7 1 -14q0 -61 -76 -61q-84 0 -284 232l-392 487q-98 -76 -328 -656q-38 -120 -72 -120h-32q-64 54 -64 112v64 q0 48 360 720q-550 681 -550 757q0 75 80 75z" />
<glyph unicode="Y" horiz-adv-x="1791" d="M-44 1856q0 104 96 104q23 0 360.5 -206t592.5 -313q611 452 743 527q46 27 78 27q57 0 63 -87q1 -10 1 -19q0 -117 -120 -123q-128 -5 -354.5 -193.5t-316.5 -321.5l40 -591v-352q0 -344 -72 -344q-116 6 -116 289q0 90 12 207v168l-39 605q-89 123 -405 273t-531 238 q-32 37 -32 112z" />
<glyph unicode="Z" horiz-adv-x="2017" d="M0 1864q0 69 224 88q332 27 578 27q700 0 702 -219q-52 -265 -464 -768q-208 -264 -576 -784h8q602 32 1040 32h80q270 0 378 7q10 1 19 1q92 0 123 -64q0 -108 -118 -108q-11 0 -23 1q-141 11 -475 11q-590 0 -1072 -72l-160 -16q-72 0 -72 56v48q0 84 200 296l768 1024 q120 211 120 272v16q0 112 -298 112q-86 0 -194 -9q-492 -41 -640 -64q-21 -3 -39 -3q-109 0 -109 116z" />
<glyph unicode="[" horiz-adv-x="2581" d="M-41 1279v7q0 95 190 134q149 66 415 112q154 0 507 563l70 190q77 71 127 71q90 0 306 -694q7 -17 827 32h35q99 -28 99 -98v-22q0 -83 -352 -429q-162 -174 -162 -288q0 -92 225 -556q29 -71 29 -120q0 -79 -120 -106l-42 -7q-46 0 -141 106l-795 310h-21 q-57 0 -359 -324q-226 -236 -226 -275q-73 -56 -140 -56q-85 23 -85 99v28q0 23 70 133q99 374 99 669q0 74 -42 127q0 58 -423 260q-91 58 -91 134zM205 1258q85 -66 409 -176q140 -59 21 -697v-155h7q177 166 295 324q0 97 162 183h21q133 -111 493 -238.5t401 -127.5v7 q-10 119 -239 443v7q0 97 141 233q37 74 169 211l197 197q-732 -28 -783.5 -49t-131.5 352q-91 267 -148 267l-444 -633l-225 -29q-345 -83 -345 -119z" />
<glyph unicode="\" horiz-adv-x="893" d="M28 1887q-9 81 56 98l23 7q85 23 116 -93l28 -100q423 -1452 552 -1651q16 -59 -67 -118q-83 -22 -210 341q-395 1289 -498 1516z" />
<glyph unicode="]" horiz-adv-x="764" d="M43 2033q-6 55 153 72l325 24q96 10 108 -102q35 -110 -361 -110q-48 -129 71 -1846l110 7q197 11 204 -53q12 -99 -49 -138l-410 -8q-84 43 -78.5 166t-7 763.5t-65.5 1224.5z" />
<glyph unicode="^" horiz-adv-x="2108" d="M0 1224v40q5 157 176 112q37 -24 176 -360q184 -413 456 -744q55 -56 152 -56q333 0 704 640q72 167 72 312v72q0 41 -48 104q0 92 144 120h24q88 0 88 -144q0 -488 -496 -1024q-317 -296 -536 -296q-286 0 -752 992zM577 1800q0 55 37.5 93t89.5 38q53 0 90 -38t37 -93 q0 -54 -37 -92.5t-90 -38.5q-52 0 -89.5 38.5t-37.5 92.5zM1008 1889q0 55 37.5 93t89.5 38q53 0 90 -38t37 -93q0 -54 -37 -92.5t-90 -38.5q-52 0 -89.5 38.5t-37.5 92.5z" />
<glyph unicode="_" horiz-adv-x="875" d="M148 1984q-12 99 49 138l410 8q84 -43 78.5 -166t7 -763.5t65.5 -1224.5q6 -55 -153 -72l-325 -24q-96 -10 -108 102q-35 110 361 110q48 129 -71 1846l-110 -7q-197 -11 -204 53z" />
<glyph unicode="`" horiz-adv-x="1928" d="M93 926q2 159 58 159q586 1 965.5 1.5t501.5 17t172 -62.5l30 -409q-33 -65 -133 -62q-64 1 -71 198l-3 110q-1202 53 -1326 -7q37 -394 -76 -369q-113 1 -112 98zM604 1485q0 55 37 93t89 38q53 0 90 -38t37 -93q0 -54 -37 -92.5t-90 -38.5q-52 0 -89 38.5t-37 92.5z M1057 1499q0 55 37 93t89 38q53 0 90 -38t37 -93q0 -54 -37 -92.5t-90 -38.5q-52 0 -89 38.5t-37 92.5z" />
<glyph unicode="a" horiz-adv-x="1484" d="M22 237v48q0 290 528 622q223 144 480 224q37 35 74 107q18 36 54 35q38 -1 92 -37q47 -31 46 -114q0 -110 -82 -311q-24 -91 -24 -256q0 -356 224 -432q33 -47 33 -86q-1 -20 -9 -37q-22 -47 -96 -47q-10 0 -21 1q-93 7 -187 172t-143 228l-193 -181 q-250 -168 -408 -168h-64q-238 0 -304 232zM228 306q-1 -9 0 -17q0 -108 114 -116h40q184 0 456 224q176 276 176 462l-8 32v32h-16v8q-120 0 -560 -342q-192 -159 -202 -283z" />
<glyph unicode="b" horiz-adv-x="1358" d="M59 1976q0 42 38 66q15 10 32 10q24 0 52 -21q82 0 85 -1098l-4 -321q127 246 344.5 425t389.5 205q195 0 237.5 -84t42.5 -140v-32q0 -353 -577 -834q-196 -138 -320 -152h-16q-25 0 -96 56q-152 0 -152 48q-24 432 -56 1872zM315 344q0 -15 112 -64l8 -48 q248 69 459 352t214 346v56q0 64 -88 64q-160 0 -408.5 -257.5t-248.5 -400.5z" />
<glyph unicode="c" horiz-adv-x="1191" d="M94 726q95 164 296.5 295t371.5 152l8 1q67 8 119 8q178 0 189 -92l6 -48q1 -5 1 -10q0 -62 -101 -62q-56 0 -143 19l-98 12l-48 -6q-302 -157 -396 -291q-48 -68 -48 -133q1 -62 45 -121q90 -120 320 -182q142 -38 254 -38q70 0 126 15q41 11 73 11q83 0 103 -71 q-13 -110 -220 -118q-558 1 -756 247q-133 166 -133 296q0 63 31 116z" />
<glyph unicode="d" horiz-adv-x="1444" d="M38 202q-7 50 -6 96q0 166 88 280q114 144 344 210q91 26 197 27q160 0 354 -61q-129 364 -129 621q0 129 33 233q99 306 183 318q200 -58 237 -372q13 -114 13 -222q0 -192 -42 -366q-66 -274 -82 -324q6 -110 95 -336q44 -111 44 -186q0 -78 -48 -117q-12 -10 -25 -10 q-81 0 -165 427l-45 63q-198 -301 -454 -456q-194 -118 -328 -118q-44 0 -80 12q-152 49 -184 281zM192 343q-1 -20 -2 -38q0 -164 109 -218l5 -8q138 29 304.5 125t288.5 389q-134 66 -266 66q-98 0 -196 -36q-229 -84 -243 -280zM1059 1254q19 -223 73 -358q79 239 79 432 q0 48 -5 94q-25 226 -72 226h-1l-16 -1q-62 -136 -61 -307q-1 -42 3 -86z" />
<glyph unicode="e" horiz-adv-x="1315" d="M-12 426q0 54 67 89l87 67q-1 17 -1 34q-1 216 163 382q176 180 410 202q35 3 64 3q174 0 213 -110q9 -26 9 -55q0 -111 -139 -253l-507 -309q50 -274 242 -291q21 -2 42 -2q173 0 356 125q164 144 214 144q4 0 8 -1q42 -16 46 -67v-3q0 -49 -78 -127 q-80 -80 -241 -156.5t-377 -79.5q-263 0 -400 366q-72 -38 -113 -38q-11 0 -21 3q-44 17 -44 77zM328 652q418 215 476 330q0 32 -32 48h-16q-199 -14 -300 -108t-128 -270z" />
<glyph unicode="f" horiz-adv-x="1057" d="M-57 876q1 50 39 94l278 47l-1 497q39 415 363 528l81 8q239 -22 335 -131q90 -102 90 -165v-9q-18 -59 -73 -59q-16 0 -36 5q-37 3 -61 78q-93 73 -153 79l-48 4q-18 2 -35 2q-182 0 -281 -197l-27 -206l11 -391h29q289 0 458 19q30 3 53 3q102 0 102 -60q0 -11 -3 -23 q0 -77 -143 -77h-11q-16 1 -39 1q-118 0 -415 -38q94 -527 94 -793q0 -56 -4 -101h-10q-26 0 -94 6l-25 -6l-8 1q-32 3 -32 113q0 49 6 119q-52 462 -100 613q-64 -10 -228 -27q-40 -19 -66 -19q-47 0 -47 64q0 10 1 21z" />
<glyph unicode="g" horiz-adv-x="1330" d="M25 275q-1 10 -1 21q0 137 191 334q206 213 672 425q-1 21 -1 40q0 185 103 185q13 0 28 -4q143 -29 191 -307q10 -55 10 -107q0 -205 -155 -343q80 -582 80 -854q0 -166 -30 -217q-79 -133 -187 -145q-26 -3 -53 -3q-192 0 -423 158q-263 179 -277 298l-4 40l21 27l8 1 q397 -341 663 -341q23 0 44 2q72 9 72 255q0 218 -56 621q-239 -165 -477 -197q-118 -16 -199 -16t-125 16q-86 32 -95 111zM234 348q10 -42 83 -42q68 0 190 36q254 74 324.5 141t71.5 63l-23 301q-420 -128 -646 -492v-7zM1025 922l14 -188q60 86 60 156q0 15 -3 30 q-8 40 -26 40t-45 -38z" />
<glyph unicode="h" horiz-adv-x="1204" d="M30 442q0 7 -1 15q0 188 136 425l90 127q-25 462 -82 971v10q0 126 77 128h2q102 0 106 -190l58 -776q117 70 313 93q254 0 309 -422l41 -751q-9 -70 -83 -75h-8q-67 0 -85 75q-9 959 -137 959q0 16 -48 16q-172 -4 -284 -141l12 -158q-3 -667 -164 -748q-14 -6 -30 -6 q-7 0 -14 1h-24q-80 0 -129 126.5t-55 320.5zM222 178h8q39 112 39 270q0 118 -22 262q-65 -194 -65 -338q0 -112 40 -194z" />
<glyph unicode="i" horiz-adv-x="463" d="M36 1699q0 50 37 85.5t90 35.5q52 0 89.5 -35.5t37.5 -85.5t-37.5 -85t-89.5 -35q-53 0 -90 35t-37 85zM93 1150q13 80 80 80h24q88 0 88 -120v-104q5 -695 77 -921q0 -62 -96 -96q-86 0 -112 384q-21 531 -61 777z" />
<glyph unicode="j" horiz-adv-x="626" d="M-556 -41q0 173 61 185h6q57 0 85 -193q167 -306 260 -396t170 -93q199 42 272 568q21 165 21 325q0 152 -19 299q-38 306 -110 564q14 116 71 116q18 0 41 -12q103 0 196 -860v-88q0 -536 -240 -976q-125 -160 -240 -160q-220 0 -470 441q-80 148 -104 280zM61 1672 q0 50 37.5 85.5t89.5 35.5q53 0 90 -35.5t37 -85.5t-37 -85t-90 -35q-52 0 -89.5 35t-37.5 85z" />
<glyph unicode="k" horiz-adv-x="1070" d="M7 1479q0 62 104 120q87 0 120 -432q30 -139 56 -408l24 -8q345 152 520 456l48 16h16q112 -45 112 -120v-8q-117 -160 -408 -392q-153 -107 -224 -120v-8q302 -160 552 -160q96 -26 96 -72q0 -62 -256 -96q-97 0 -432 112l-8 -80v-40l8 -328q0 -160 -88 -160h-16 q-72 0 -72 576q-11 59 -56 104q-88 46 -88 96q0 76 96 200l8 40q0 272 -112 712z" />
<glyph unicode="l" horiz-adv-x="542" d="M100 1951q13 80 80 80h24q88 0 88 -120v-104q23 -1512 95 -1738q0 -62 -96 -96q-86 0 -112 384q-39 1348 -79 1594z" />
<glyph unicode="m" horiz-adv-x="1888" d="M75 1154q14 68 64 68q9 0 19 -2q6 3 14 3q56 0 218 -160h8q55 59 193 141q88 52 162 53q43 1 82 -17q106 -48 201 -155h8q241 195 419 195h9q254 0 319 -614l23 -564q0 -92 -61 -92q-9 0 -17 1q-78 13 -81 87q-13 768 -88 869t-123 101h-2q-186 0 -302 -175l-8 -40 l9 -319q-29 -512 -168 -512h-24q-57 0 -57 117q0 49 10 115q16 113 15 272q0 166 -17 383l7 33q-69 137 -157 137q-16 0 -32 -4q-108 -28 -224 -204l-8 -40l9 -319q-29 -512 -168 -512h-24q-80 0 -127.5 85t-55.5 321v23q0 224 134 458l8 40q-55 115 -129 131q-61 13 -61 70 q0 12 3 26zM288 206h8q39 103 39 306l-9 167h-8q-62 -180 -62 -311q0 -94 32 -162z" />
<glyph unicode="n" horiz-adv-x="1238" d="M44 1136q14 68 64 68q9 0 19 -2q132 -22 214 -144h8q114 151 420 187q254 0 309 -422l41 -751q-9 -70 -83 -75h-8q-67 0 -85 75q-9 959 -137 959q0 16 -48 16q-196 -5 -313 -181l-8 -40q5 -130 5 -239q0 -593 -149 -593q-7 0 -15 1h-24q-80 0 -130 127q-48 126 -54 320 q0 7 -1 15q0 188 136 425l8 40q-62 128 -111 128q-12 0 -23 -8l-3 6q-36 6 -36 52q0 16 4 36zM262 178h8q39 112 39 270q0 118 -22 262q-65 -194 -65 -338q0 -112 40 -194z" />
<glyph unicode="o" horiz-adv-x="898" d="M23 550q-1 23 -1 45q0 216 79 404q87 207 278 229q13 2 25 3q122 0 264 -198q157 -217 157 -483q-1 -268 -115 -412q-114 -142 -277 -144q-3 0 -5 -1q-162 1 -278 157q-118 158 -127 400zM175 514q35 -304 208 -327l32 -5q11 -1 22 -1q153 0 206 147q35 96 35 200 q0 66 -14 136q-36 180 -168 326q-59 65 -110 65q-64 0 -118 -100q-93 -171 -93 -385v-22v-34z" />
<glyph unicode="p" horiz-adv-x="1475" d="M62 1100q15 12 30 12q80 0 178 -352l47 -63q183 234 413 385q185 122 354 122q40 0 80 -8q204 -36 212 -264q1 -17 1 -33q0 -207 -102 -343q-110 -148 -355 -211q-74 -19 -151 -19q-180 0 -377 103q95 -324 95 -604q0 -357 -155 -641l-39 -12q-202 54 -226 408 q-7 103 -7 199q0 235 42 431q58 275 74 325q-9 110 -107 298q-51 97 -51 165q0 64 44 102zM197 -286q9 -264 56 -264h1l16 1q70 164 70 412v23q-4 264 -61 398q-83 -275 -83 -521q0 -25 1 -49zM506 593q129 -108 282 -108q75 0 156 26q245 80 256 301q1 17 1 33 q0 180 -115 180h-10q-134 -8 -298 -108.5t-272 -323.5z" />
<glyph unicode="q" horiz-adv-x="1453" d="M9 446v16q34 121 336 384q298 226 616 392q0 24 88 24h24q101 0 120 -152v-8q0 -91 -88 -128q-112 -309 -112 -580q0 -21 1 -41q247 -115 440 -424q128 -222 128 -422q0 -36 -4 -71q-28 -231 -252 -339h-24q-143 0 -312 224q-176 360 -176 874q-58 33 -68 92q-1 7 -1 14 q0 48 61 68q40 0 40 128q0 24 -1 53h-8q-360 -336 -608 -336q-200 0 -200 232zM217 414l8 -24h32q104 0 384 216q93 0 224 376h-8q-182 -55 -496 -352q-144 -144 -144 -216zM954 17q0 -493 296 -736l32 -8q160 58 160 184l-8 8v32q0 323 -416 632h-16q-40 0 -48 -112z" />
<glyph unicode="r" horiz-adv-x="1062" d="M-6 1102q-1 6 -1 11q-1 37 47 61q10 5 23 5q55 0 155 -100l101 -168q379 296 438 307l31 6q36 7 69 7q118 0 199 -87l7 -40q-4 -98 -69 -110l-16 -3q-19 0 -51 55l-58 6l-70 -14q-420 -275 -408 -342q-9 -82 -9 -168q0 -236 69 -511q-15 -29 -67 -39q-11 -2 -20 -1 q-37 0 -59 29q-38 56 -66.5 233.5t-50.5 540.5q-9 49 -194 322z" />
<glyph unicode="s" horiz-adv-x="906" d="M67 898v24q0 201 376 263q115 19 195 19q181 0 181 -97v-12q2 -7 2 -13q0 -61 -201 -61h-6l-139 -4q-192 -9 -192 -126q-1 -107 223 -300q193 -167 193 -329q-1 -26 -5 -51q-33 -174 -168 -174q-10 1 -20 1q-154 14 -392 289l-12 93q4 61 38 61q44 1 140 -101 q170 -180 237 -181l47 11q3 7 3 17q1 77 -235 291q-264 240 -265 380z" />
<glyph unicode="t" horiz-adv-x="911" d="M-18 992q-1 7 -1 14q0 60 68 104l321 44q1 64 1 124q0 401 -35 615q13 80 80 80h24q88 0 88 -120v-104l29 -564l136 -4q143 0 219.5 -25t76.5 -84t-360 -71l-101 -14q23 -750 95 -976q0 -62 -96 -96q-86 0 -112 384l-50 662q-208 -33 -295 -33h-8q-80 0 -80 64z" />
<glyph unicode="u" horiz-adv-x="1253" d="M22 1117q21 87 82 87h5q65 -4 89 -87q0 -872 126 -913q52 -17 104 -17q73 -1 144 33q122 58 164 158l-1 54v232q29 512 168 512h24q80 0 114 -36q35 -36 51 -277q2 -25 1 -51q0 -216 -126 -436l-8 -40q76 -155 173 -155h6l144 8q48 -8 48 -24v-16q-32 -128 -240 -128h-4 q-75 0 -255 179h-8q-232 -188 -445 -188q-14 0 -28 1q-254 0 -296 440zM895 584h8q72 107 72 208l-24 112h-8q-48 -134 -48 -240v-80z" />
<glyph unicode="v" horiz-adv-x="1049" d="M-4 1178q9 56 95 56q84 0 241 -338q273 -477 296 -480l141 525q66 299 143.5 299t77.5 -122q0 -35 -109 -306q-92 -305 -92 -539q0 -63 7 -121q-39 -152 -136 -152q-88 0 -151 148t-129.5 280.5t-368.5 653.5q-17 30 -17 67q0 14 2 29z" />
<glyph unicode="w" horiz-adv-x="1431" d="M13 1048q4 100 82 100t96 -74t217 -723q42 32 112 256q99 231 150 237l1 1q53 0 359 -561q26 9 173 900q44 97 97 97q41 0 87 -57v-24q-223 -1168 -292 -1168h-3q-6 -2 -13 -2q-106 0 -390 503q-2 1 -3 1q-43 0 -182 -437q-54 -109 -124 -109h-4q-72 3 -72 95.5 t-148 478.5q-144 376 -143 481v5z" />
<glyph unicode="x" horiz-adv-x="1138" d="M91 1143q8 80 72 80h24q140 -144 369 -460q37 0 235 328q73 102 116 104h2q42 0 60 -98q0 -31 -237 -422l-56 -64l227 -285q184 -186 184 -272q0 -43 -32 -64q-71 0 -459 445l-32 24h-8q-75 -105 -248 -416q-44 -50 -83 -50q-23 0 -45 18q32 184 256 584 q0 37 -172.5 245.5t-172.5 302.5z" />
<glyph unicode="y" horiz-adv-x="1195" d="M9 804q5 74 109 92h16q25 0 432 -197q256 -97 368 -97l8 24v28q0 172 -44 461q44 112 128 112q98 0 98 -410q1 -11 1 -23q0 -394 -17 -642q-18 -255 -87 -584.5t-403 -351.5h-48q-150 34 -264 224q-96 205 -96 344q0 71 40 104q54 0 94 -124t113 -240t153 -116h24 q176 0 240 258.5t64 696.5q0 40 -40 40q-889 271 -889 401z" />
<glyph unicode="z" horiz-adv-x="1089" d="M69 143v24q0 75 176 224q499 539 569 597q-239 -3 -648 -22q-72 22 -72 72q0 57 136 96q350 37 546 37q234 0 246 -53q4 -19 4 -38q0 -80 -74 -170q0 -28 -289.5 -327.5t-333.5 -363.5q120 11 222 11q242 0 390 -60q100 -49 100 -91q0 -7 -3 -15q-18 -42 -103 -42 q-12 0 -26 1h-24l-280 24h-224l-192 -8q-120 0 -120 104z" />
<glyph unicode="{" horiz-adv-x="1014" d="M159 1088q19 108 237 132l24 32q0 286 -97.5 418.5t-64.5 326.5t263 301t311.5 96t77.5 -101q-27 -61 -229 -120.5t-233 -196.5t52 -249t109.5 -353t-93.5 -370q153 -177 119.5 -380t-115 -284t-101 -241t52 -245t231 -98.5t168.5 -87.5v-32q0 -95 -164.5 -68.5t-301 111 t-160.5 328t111.5 399.5t119.5 366q-118 136 -227 172t-90 144z" />
<glyph unicode="|" horiz-adv-x="1770" d="M36 1666q0 251 109 258.5t299 -148.5l368 -320h16q463 440 640 440h32q253 9 232 -312q22 -409 -648 -1304l-189 -271q-48 10 -161.5 203.5t-405.5 698t-292 755.5zM228 1656q0 -263 616 -1296q11 -33 40 -48q688 907 688 1312q0 88 -112 88q-205 0 -520 -384l-24 -72 q88 -271 -24 -262.5t-152 182.5q-86 239 -296 400q-222 174 -216 80z" />
<glyph unicode="}" horiz-adv-x="1037" d="M156 2293q-4 90 77.5 101t311.5 -96t263 -301t-64.5 -326.5t-97.5 -418.5l24 -32q218 -24 237 -132t-90 -144t-227 -172q-16 -210 119.5 -366t111.5 -399.5t-160.5 -328t-301 -111t-164.5 68.5v32q9 74 168.5 87.5t231 98.5t52 245t-101 241t-115 284t119.5 380 q-120 129 -93.5 370t109.5 353t52 249t-233 196.5t-229 120.5z" />
<glyph unicode="~" horiz-adv-x="1506" d="M161 895q5 82 112.5 202.5t309 34t481.5 -142.5l37 17q117 81 167.5 100t98 -52t-90 -185.5t-368.5 -41.5t-359 132.5t-183.5 -43t-120.5 -116.5q-89 13 -84 95z" />
<glyph unicode="&#xa1;" horiz-adv-x="672" d="M236 2065q0 47 30.5 80t73.5 33q44 0 74.5 -33t30.5 -80t-30.5 -80.5t-74.5 -33.5q-43 0 -73.5 33.5t-30.5 80.5zM263 1384v272q71 73 160 24q16 -67 48 -944q80 -625 80 -712q0 -72 -103.5 -54.5t-184.5 1414.5z" />
<glyph unicode="&#xa2;" horiz-adv-x="1138" d="M56 1311q-23 181 232 390q96 49 160 75q-6 96 -7 118v125q73 79 160 24q9 -40 19 -230q323 -5 381 -112v-48q-45 -74 -367 -27q2 -115 10 -300q14 -109 22 -193q69 -2 215 -4.5t130.5 -76.5t-249.5 -100q-37 5 -73 10q35 -291 -42 -297.5t-121 326.5q-465 100 -470 320z M225 1353.5q-7 -79.5 156 -161.5q70 -35 134 -58q-33 202 -54 462q-22 -14 -47 -32q-182 -131 -189 -210.5z" />
<glyph unicode="&#xa3;" horiz-adv-x="1364" d="M-21 948q8 104 38 94q235 37 255 56l13 493q33 415 355 533l81 10q239 -19 419 -178q146 -88 137 -195v-8q-58 -60 -109 -56q-37 3 -188 160q-95 71 -154 76l-48 4q-209 16 -284.5 -158.5t-57.5 -630.5q110 -14 288 44t205 -120q-52 -72 -206 -72q-99 8 -231 -36 q105 -536 107 -802q139 22 314 26q45 4 159 46.5t120 -20.5l2 -33q20 -102 -214 -134t-363 -42t-147 5.5t-41 291.5q-59 461 -110 612l-227 -30q-123 -63 -113 64z" />
<glyph unicode="&#xa4;" horiz-adv-x="1014" />
<glyph unicode="&#xa5;" horiz-adv-x="2112" d="M0 1976q0 104 96 104q23 0 216 -136q651 -360 893 -414q-7 14 308.5 206.5t447 268t141.5 -60.5t-118.5 -141.5t-342 -165t-329.5 -349.5v-32l40 -560v-352q0 -344 -72 -344q-152 8 -104 496v168q-25 616 -39 605q-89 123 -481 291q-409 216 -624 304q-32 37 -32 112z M758 998v32q31 85 143 84.5t432 1.5q337 -20 337 -125v-8q1 -40 -111 -41h-24q-283 -2 -664 -23l-32 -1q-80 16 -81 80zM785 719v32q31 85 143 84.5t432 1.5q337 -20 337 -125v-8q1 -40 -111 -41h-24q-283 -2 -664 -23l-32 -1q-80 16 -81 80z" />
<glyph unicode="&#xa6;" horiz-adv-x="754" d="M320 574q20 336 125 336l8 1q40 0 41 -112v-24q3 -283 23 -664l1 -32q-16 -80 -80 -81h-32q-85 31 -84.5 143.5t-1.5 432.5zM343 1544q20 336 125 336l8 1q40 0 41 -112v-24q3 -283 23 -664l1 -32q-16 -80 -80 -81h-32q-85 31 -84.5 143.5t-1.5 432.5z" />
<glyph unicode="&#xa7;" horiz-adv-x="1171" d="M67 898v24q0 146 155.5 199t220.5 64q29 5 56 8l-10 10q-265 240 -265 380v24q0 201 376 263t376 -78v-12q22 -75 -205 -74l-139 -4q-192 -9 -192 -126q0 -107 224 -300q50 -43 87 -86q119 -199 101 -294q-36 -187 -189 -173q-141 12 -351 243q-29 -30 -29 -75 q0 -107 223.5 -300t188 -380t-189 -173.5t-391.5 289.5l-12 93q9 140 178.5 -40.5t236.5 -180.5l47 11q32 68 -232.5 308t-264.5 380zM483 1017q133 -133 191 -133l47 11q18 37 -55 127q-24 -1 -52 -1z" />
<glyph unicode="&#xa8;" horiz-adv-x="1024" d="M170 2146q0 43 30.5 73.5t73.5 30.5q44 0 74.5 -30.5t30.5 -73.5t-30.5 -74t-74.5 -31q-43 0 -73.5 31t-30.5 74zM631 2142q0 43 30.5 73.5t73.5 30.5q44 0 74.5 -30.5t30.5 -73.5t-30.5 -74t-74.5 -31q-43 0 -73.5 31t-30.5 74z" />
<glyph unicode="&#xa9;" horiz-adv-x="1674" />
<glyph unicode="&#xaa;" horiz-adv-x="648" />
<glyph unicode="&#xab;" horiz-adv-x="1916" d="M59 892v24q0 118 120 144l80 -8q219 0 546 155q140 80 192 80h32q24 0 32 -72q0 -157 -408 -256q-133 -48 -258 -83q-57 -35 -64 -64q41 -168 130 -192l144 -72q255 -64 312 -64h48q40 -18 40 -80q0 -179 -120 -208q-66 0 -456 224q-39 1 -218 200q-108 188 -144 224z M836 828v24q0 118 120 144l80 -8q219 0 546 155q140 80 192 80h32q24 0 32 -72q0 -157 -408 -256q-133 -48 -258 -83q-57 -35 -64 -64q41 -168 130 -192l144 -72q255 -64 312 -64h48q40 -18 40 -80q0 -179 -120 -208q-66 0 -456 224q-39 1 -218 200q-108 188 -144 224z" />
<glyph unicode="&#xac;" horiz-adv-x="1014" />
<glyph unicode="&#xad;" horiz-adv-x="1258" d="M139 949v8q-4 40 108 50l23 2l562 31q46 4 164 28t124 -40l3 -31q25 -116 -241.5 -118t-585.5 -31q-143 -17 -157 101z" />
<glyph unicode="&#xae;" horiz-adv-x="1674" />
<glyph unicode="&#xaf;" horiz-adv-x="1061" d="M79 2293v8q0 40 112 40h24q283 0 506.5 10.5t223.5 -53.5v-32q18 -44 -96 -72.5t-442 -17t-328 116.5z" />
<glyph unicode="&#xb0;" horiz-adv-x="674" d="M100.5 1339.5q-49.5 164.5 156 276t314.5 -64.5l16 -80q0 -141 -218.5 -218.5t-268 87zM264 1412.5q17 -56.5 92 -30t75 74.5l-6 28q-37 60 -107.5 22t-53.5 -94.5z" />
<glyph unicode="&#xb1;" horiz-adv-x="1304" d="M0 680v40q174 121 368 144q88 24 88 80q0 74 -68 224l-8 88q4 72 64 72q168 -32 168 -147.5t28 -260.5q144 23 370 63q105 -71 9 -169l-355 -54q24 -366 67 -366l8 -40q-39 -88 -104 -88h-32q-112 0 -112 320q-6 126 -27 126q-103 0 -272 -76t-192 44zM120 37 q-8 39 101 62l24 5q84 45 657 126q45 10 148 113l32 6q81 1 94 -62l7 -31q28 -132 -279 -181.5t-620 -114.5q-141 -33 -162 69z" />
<glyph unicode="&#xb2;" horiz-adv-x="1014" />
<glyph unicode="&#xb3;" horiz-adv-x="1014" />
<glyph unicode="&#xb4;" horiz-adv-x="557" d="M206 2036.5q79 56.5 303 297.5h29q53 -33 -5 -120l-9 -14q-218 -342 -307.5 -281t-10.5 117.5z" />
<glyph unicode="&#xb5;" horiz-adv-x="1180" />
<glyph unicode="&#xb6;" horiz-adv-x="1024" />
<glyph unicode="&#xb7;" horiz-adv-x="510" d="M156 964q0 43 30.5 73.5t73.5 30.5q44 0 74.5 -30.5t30.5 -73.5t-30.5 -74t-74.5 -31q-43 0 -73.5 31t-30.5 74z" />
<glyph unicode="&#xb8;" horiz-adv-x="896" d="M187 -221q11 4 50 -67q138 -74 180 -53t21.5 191t-7 213.5t64 9t51.5 -299.5q32 -197 -93 -243t-265 74q-130 137 -2 175z" />
<glyph unicode="&#xb9;" horiz-adv-x="1014" />
<glyph unicode="&#xba;" horiz-adv-x="718" />
<glyph unicode="&#xbb;" horiz-adv-x="1916" d="M59 1151q8 72 32 72h32q52 0 192 -80q327 -155 546 -155l80 8q120 -26 120 -144v-24l-8 -48q-36 -36 -394 -342t-424 -306q-120 29 -120 208q145 80 674 408q-7 29 -64 64q-125 35 -258 83q-408 99 -408 256zM850 1179q8 72 32 72h32q52 0 192 -80q327 -155 546 -155 l80 8q120 -26 120 -144v-24l-8 -48q-36 -36 -394 -342t-424 -306q-120 29 -120 208q145 80 674 408q-7 29 -64 64q-125 35 -258 83q-408 99 -408 256z" />
<glyph unicode="&#xbc;" horiz-adv-x="1708" />
<glyph unicode="&#xbd;" horiz-adv-x="1964" />
<glyph unicode="&#xbe;" horiz-adv-x="1708" />
<glyph unicode="&#xbf;" horiz-adv-x="1210" d="M122 248q0 377 456 840l64 96v24q-15 27 -240 192l-8 24l80 24q191 0 368 -120q32 -48 32 -88v-32q0 -32 -40 -104q-95 -72 -320 -344q-224 -235 -224 -472q38 -128 232 -128q406 51 472 152l72 16q88 0 88 -72v-32q0 -56 -124 -140t-532 -84h-8q-259 0 -352 184z M450 1888v24q22 200 168 200h32q39 -57 40 -112v-48q0 -115 -160 -152h-16q-64 0 -64 88z" />
<glyph unicode="&#xc0;" d="M-3 3v16q0 129 190 694q10 -4 -85 66v48q0 74 128 120q117 264 495 906q62 112 128 112q72 0 250 -308t253 -514l32 -8l128 8l138 28q72 -16 28 -82.5t-238 -145.5q282 -712 282 -828v-48q-10 -72 -72 -72q-68 0 -233 429t-219 449q-36 28 -786 -123q-173 -408 -243 -746 l-112 -65q-64 0 -64 64zM490 2359l29 7q276 -178 366.5 -213t19 -116.5t-367.5 196.5l-12 11q-78 69 -35 115zM491 955q686 88 687 102q-251 480 -326 621q-17 -49 -345 -619l-16 -80v-24z" />
<glyph unicode="&#xc1;" d="M-3 3v16q0 129 190 694q10 -4 -85 66v48q0 74 128 120q117 264 495 906q62 112 128 112q72 0 250 -308t253 -514l32 -8l128 8l138 28q72 -16 28 -82.5t-238 -145.5q282 -712 282 -828v-48q-10 -72 -72 -72q-68 0 -233 429t-219 449q-36 28 -786 -123q-173 -408 -243 -746 l-112 -65q-64 0 -64 64zM491 955q686 88 687 102q-251 480 -326 621q-17 -49 -345 -619l-16 -80v-24zM835.5 2072.5q-71.5 81.5 19 116.5t367.5 213l28 -7q43 -46 -35 -115l-11 -11q-297 -278 -368.5 -196.5z" />
<glyph unicode="&#xc2;" d="M-3 3v16q0 129 190 694q10 -4 -85 66v48q0 74 128 120q117 264 495 906q62 112 128 112q72 0 250 -308t253 -514l32 -8l128 8l138 28q72 -16 28 -82.5t-238 -145.5q282 -712 282 -828v-48q-10 -72 -72 -72q-68 0 -233 429t-219 449q-36 28 -786 -123q-173 -408 -243 -746 l-112 -65q-64 0 -64 64zM491 955q686 88 687 102q-251 480 -326 621q-17 -49 -345 -619l-16 -80v-24zM550 2125v22q-1 25 14 53q11 -9 100 149t147 159q64 1 92 -98q113 -220 113 -243q2 -80 -57.5 -97.5t-154.5 224.5q-15 -2 -110 -134q-20 -58 -75 -59l-16 -1 q-40 -1 -53 25z" />
<glyph unicode="&#xc3;" d="M-3 3v16q0 129 190 694q10 -4 -85 66v48q0 74 128 120q117 264 495 906q62 112 128 112q72 0 250 -308t253 -514l32 -8l128 8l138 28q72 -16 28 -82.5t-238 -145.5q282 -712 282 -828v-48q-10 -72 -72 -72q-68 0 -233 429t-219 449q-36 28 -786 -123q-173 -408 -243 -746 l-112 -65q-64 0 -64 64zM415 2121v19q29 117 118.5 169.5t193 52.5t162 -82t226.5 8q24 28 84 49t111 -72q-353 -275 -509 -106.5t-311 -62.5h-50zM491 955q686 88 687 102q-251 480 -326 621q-17 -49 -345 -619l-16 -80v-24z" />
<glyph unicode="&#xc4;" d="M-3 3v16q0 129 190 694q10 -4 -85 66v48q0 74 128 120q117 264 495 906q62 112 128 112q72 0 250 -308t253 -514l32 -8l128 8l138 28q72 -16 28 -82.5t-238 -145.5q282 -712 282 -828v-48q-10 -72 -72 -72q-68 0 -233 429t-219 449q-36 28 -786 -123q-173 -408 -243 -746 l-112 -65q-64 0 -64 64zM491 955q686 88 687 102q-251 480 -326 621q-17 -49 -345 -619l-16 -80v-24zM547 2142.5q-64 101.5 77 146.5q128 -50 87 -149q-100 -99 -164 2.5zM937 2146.5q-64 101.5 77 146.5q128 -50 87 -149q-100 -99 -164 2.5z" />
<glyph unicode="&#xc5;" d="M-3 3v16q0 129 190 694q10 -4 -85 66v48q0 74 128 120q117 264 495 906q62 112 128 112q72 0 250 -308t253 -514l32 -8l128 8l138 28q72 -16 28 -82.5t-238 -145.5q282 -712 282 -828v-48q-10 -72 -72 -72q-68 0 -233 429t-219 449q-36 28 -786 -123q-173 -408 -243 -746 l-112 -65q-64 0 -64 64zM491 955q686 88 687 102q-251 480 -326 621q-17 -49 -345 -619l-16 -80v-24zM637 2176v29q0 92 223 251h17q54 0 132 -125l11 -57q0 -101 -177 -172l-75 -40h-5q-55 0 -126 114zM782 2188h38q57 33 57 86v28h-19q-76 -51 -76 -114z" />
<glyph unicode="&#xc6;" horiz-adv-x="3187" d="M-3 3v16q0 129 190 694q10 -4 -85 66v48q0 74 128 120q117 264 495 906q62 112 128 112q72 0 250 -308t253 -514l32 -8l128 8l17 3q-15 129 -88 510v8q0 128 240 128q631 42 1081 135h16q106 0 120 -128q0 -104 -88 -104l-641 -55q-488 0 -488 -64l-8 -64 q21 -333 59 -333h48q307 58 504 72q157 -8 176 -56q0 -78 -584 -168q-136 -43 -136 -56l6 -279q0 -384 24 -384q209 0 1158 294q69 56 104 56h24q40 -15 40 -88q0 -91 -176 -176q-902 -257 -1198 -289v-38q-10 -72 -72 -72q-68 0 -233 429t-219 449q-36 28 -786 -123 q-173 -408 -243 -746l-112 -65q-64 0 -64 64zM491 955q686 88 687 102q-251 480 -326 621q-17 -49 -345 -619l-16 -80v-24zM1463 894q57 -145 102 -264l1 46q-6 231 -46 231z" />
<glyph unicode="&#xc7;" horiz-adv-x="1838" d="M21 827q0 359 760 808q119 40 192 40h64q116 0 202 -36t86 -124q-26 -144 -128 -144q-35 0 -152 104l-80 16q-237 0 -648 -400q-98 -141 -112 -216q22 -139 160 -264q115 -48 256 -48h16q549 0 896 184q100 104 144 104h16q75 0 88 -112v-40q0 -105 -424 -184 q-382 -120 -752 -120q-399 0 -560 320q-16 28 -24 112zM594 191q11 4 50 -67q138 -74 180 -53t21.5 191t-7 213.5t64 9t51.5 -299.5q32 -197 -93 -243t-265 74q-130 137 -2 175z" />
<glyph unicode="&#xc8;" horiz-adv-x="1962" d="M-6 855q0 115 344 144q0 83 -91 557v8q0 128 240 128q631 42 1081 135h16q106 0 120 -128q0 -104 -88 -104l-641 -55q-488 0 -488 -64l-8 -64q21 -333 59 -333h48q307 58 504 72q157 -8 176 -56q0 -78 -584 -168q-136 -43 -136 -56l6 -279q0 -384 24 -384q209 0 1158 294 q69 56 104 56h24q40 -15 40 -88q0 -91 -176 -176q-1030 -294 -1270 -294h-24q-72 0 -72 176l8 400q-6 231 -46 231l-216 -48q-64 0 -112 96zM490 2359l29 7q276 -178 366.5 -213t19 -116.5t-367.5 196.5l-12 11q-78 69 -35 115zM490 2359l29 7q276 -178 366.5 -213 t19 -116.5t-367.5 196.5l-12 11q-78 69 -35 115z" />
<glyph unicode="&#xc9;" horiz-adv-x="1962" d="M-6 855q0 115 344 144q0 83 -91 557v8q0 128 240 128q631 42 1081 135h16q106 0 120 -128q0 -104 -88 -104l-641 -55q-488 0 -488 -64l-8 -64q21 -333 59 -333h48q307 58 504 72q157 -8 176 -56q0 -78 -584 -168q-136 -43 -136 -56l6 -279q0 -384 24 -384q209 0 1158 294 q69 56 104 56h24q40 -15 40 -88q0 -91 -176 -176q-1030 -294 -1270 -294h-24q-72 0 -72 176l8 400q-6 231 -46 231l-216 -48q-64 0 -112 96zM776.5 2004.5q-71.5 81.5 19 116.5t367.5 213l28 -7q43 -46 -35 -115l-11 -11q-297 -278 -368.5 -196.5z" />
<glyph unicode="&#xca;" horiz-adv-x="1962" d="M-6 855q0 115 344 144q0 83 -91 557v8q0 128 240 128q631 42 1081 135h16q106 0 120 -128q0 -104 -88 -104l-641 -55q-488 0 -488 -64l-8 -64q21 -333 59 -333h48q307 58 504 72q157 -8 176 -56q0 -78 -584 -168q-136 -43 -136 -56l6 -279q0 -384 24 -384q209 0 1158 294 q69 56 104 56h24q40 -15 40 -88q0 -91 -176 -176q-1030 -294 -1270 -294h-24q-72 0 -72 176l8 400q-6 231 -46 231l-216 -48q-64 0 -112 96zM682 1975v22q-1 25 14 53q11 -9 100 149t147 159q64 1 92 -98q113 -220 113 -243q2 -80 -57.5 -97.5t-154.5 224.5 q-15 -2 -110 -134q-20 -58 -75 -59l-16 -1q-40 -1 -53 25z" />
<glyph unicode="&#xcb;" horiz-adv-x="1962" d="M-6 855q0 115 344 144q0 83 -91 557v8q0 128 240 128q631 42 1081 135h16q106 0 120 -128q0 -104 -88 -104l-641 -55q-488 0 -488 -64l-8 -64q21 -333 59 -333h48q307 58 504 72q157 -8 176 -56q0 -78 -584 -168q-136 -43 -136 -56l6 -279q0 -384 24 -384q209 0 1158 294 q69 56 104 56h24q40 -15 40 -88q0 -91 -176 -176q-1030 -294 -1270 -294h-24q-72 0 -72 176l8 400q-6 231 -46 231l-216 -48q-64 0 -112 96zM547 2142.5q-64 101.5 77 146.5q128 -50 87 -149q-100 -99 -164 2.5zM937 2146.5q-64 101.5 77 146.5q128 -50 87 -149 q-100 -99 -164 2.5z" />
<glyph unicode="&#xcc;" horiz-adv-x="608" d="M-269 2409l28 7q277 -178 367.5 -213t19 -116.5t-368.5 196.5l-11 11q-78 69 -35 115zM45 1860q16 152 112 152h8q72 0 266 -1701l32 -200q-64 -120 -128 -120q-57 0 -72 152q0 132 -218 1717z" />
<glyph unicode="&#xcd;" horiz-adv-x="608" d="M45 1860q16 152 112 152h8q72 0 266 -1701l32 -200q-64 -120 -128 -120q-57 0 -72 152q0 132 -218 1717zM90.5 2118.5q-71.5 81.5 19 116.5t367.5 213l28 -7q43 -46 -35 -115l-11 -11q-297 -278 -368.5 -196.5z" />
<glyph unicode="&#xce;" horiz-adv-x="608" d="M-36 2143v22q-1 25 14 53q11 -9 100 149t147 159q64 1 92 -98q113 -220 113 -243q2 -80 -57.5 -97.5t-154.5 224.5q-15 -2 -110 -134q-20 -58 -75 -59l-16 -1q-40 -1 -53 25zM45 1860q16 152 112 152h8q72 0 266 -1701l32 -200q-64 -120 -128 -120q-57 0 -72 152 q0 132 -218 1717z" />
<glyph unicode="&#xcf;" horiz-adv-x="608" d="M-133.5 2133.5q-64.5 101.5 77.5 146.5q127 -50 87 -149q-100 -99 -164.5 2.5zM45 1860q16 152 112 152h8q72 0 266 -1701l32 -200q-64 -120 -128 -120q-57 0 -72 152q0 132 -218 1717zM256 2137.5q-64 101.5 78 146.5q127 -50 86 -149q-100 -99 -164 2.5z" />
<glyph unicode="&#xd0;" horiz-adv-x="1962" d="M-42 920v32q31 85 143 84.5t432 1.5q337 -20 337 -125v-8q1 -40 -111 -41h-24q-283 -2 -664 -23l-32 -1q-80 16 -81 80zM-3 1505q0 117 136 136q18 18 32 112q29 24 56 24h32q149 -144 256 -144q821 -79 1077.5 -320t269.5 -492.5t-419.5 -449.5t-871.5 -282l-16 -24 l8 -96q-31 -88 -96 -88h-40q-40 18 -40 80v96q0 24 -64 32l-120 -8q-36 16 -40 32v80q0 69 160 160l16 40q-112 539 -160 1032l-40 -32h-40q-85 0 -96 112zM341 1465q0 -268 184 -1192l40 -8q295 0 733 215.5t417 372t-195 323t-963 273.5l-216 24v-8z" />
<glyph unicode="&#xd1;" horiz-adv-x="1982" d="M15 1769v32q0 46 80 72q0 19 56 40q230 -150 680 -672q263 -359 648 -720q199 -160 232 -160h8q24 75 24 136v64q-24 885 -56 1312q0 69 56 104h72l64 -16l32 -1624q0 -165 -120 -240q-28 1 -188.5 78.5t-763.5 785.5q-231 303 -352 432l-160 120l-8 -8 q48 -169 114.5 -744t165.5 -896v-24q0 -116 -136 -128q-100 0 -112 144v8l-168 1528l-120 288q-48 46 -48 88zM415 2121v19q29 117 118.5 169.5t193 52.5t162 -82t226.5 8q24 28 84 49t111 -72q-353 -275 -509 -106.5t-311 -62.5h-50z" />
<glyph unicode="&#xd2;" horiz-adv-x="1399" d="M83 1024q0 245 96 480q34 56 120 56q195 160 392 160h24q276 0 434 -247t158 -562t-213.5 -482t-402.5 -189q-261 0 -440 272q-168 317 -168 512zM106 2148l28 7q277 -178 367.5 -213t19 -116.5t-368.5 196.5l-11 11q-78 69 -35 115zM259 1080q0 -435 384 -656l32 -8h40 q137 0 297.5 156.5t135.5 389t-126.5 407.5t-314.5 175h-40q-189 0 -344 -232q0 -18 -48 -56z" />
<glyph unicode="&#xd3;" horiz-adv-x="1399" d="M83 1024q0 245 96 480q34 56 120 56q195 160 392 160h24q276 0 434 -247t158 -562t-213.5 -482t-402.5 -189q-261 0 -440 272q-168 317 -168 512zM259 1080q0 -435 384 -656l32 -8h40q137 0 297.5 156.5t135.5 389t-126.5 407.5t-314.5 175h-40q-189 0 -344 -232 q0 -18 -48 -56zM533.5 1857.5q-71.5 81.5 19 116.5t367.5 213l28 -7q43 -46 -35 -115l-11 -11q-297 -278 -368.5 -196.5z" />
<glyph unicode="&#xd4;" horiz-adv-x="1399" d="M83 1024q0 245 96 480q34 56 120 56q195 160 392 160h24q276 0 434 -247t158 -562t-213.5 -482t-402.5 -189q-261 0 -440 272q-168 317 -168 512zM259 1080q0 -435 384 -656l32 -8h40q137 0 297.5 156.5t135.5 389t-126.5 407.5t-314.5 175h-40q-189 0 -344 -232 q0 -18 -48 -56zM348 1992v22q-1 25 14 53q11 -9 100 149t147 159q64 1 92 -98q113 -220 113 -243q2 -80 -57.5 -97.5t-154.5 224.5q-15 -2 -110 -134q-20 -58 -75 -59l-16 -1q-40 -1 -53 25z" />
<glyph unicode="&#xd5;" horiz-adv-x="1399" d="M83 1024q0 245 96 480q34 56 120 56q195 160 392 160h24q276 0 434 -247t158 -562t-213.5 -482t-402.5 -189q-261 0 -440 272q-168 317 -168 512zM246 1888v19q29 117 118.5 169.5t193 52.5t162 -82t226.5 8q24 28 84 49t111 -72q-353 -275 -509 -106.5t-311 -62.5h-50z M259 1080q0 -435 384 -656l32 -8h40q137 0 297.5 156.5t135.5 389t-126.5 407.5t-314.5 175h-40q-189 0 -344 -232q0 -18 -48 -56z" />
<glyph unicode="&#xd6;" horiz-adv-x="1399" d="M83 1024q0 245 96 480q34 56 120 56q195 160 392 160h24q276 0 434 -247t158 -562t-213.5 -482t-402.5 -189q-261 0 -440 272q-168 317 -168 512zM259 1080q0 -435 384 -656l32 -8h40q137 0 297.5 156.5t135.5 389t-126.5 407.5t-314.5 175h-40q-189 0 -344 -232 q0 -18 -48 -56zM310 1908.5q-64 101.5 77 146.5q128 -50 87 -149q-100 -99 -164 2.5zM700 1912.5q-64 101.5 77 146.5q128 -50 87 -149q-100 -99 -164 2.5z" />
<glyph unicode="&#xd7;" horiz-adv-x="1102" d="M102 176v24q32 101 256 501q0 37 -118.5 156t-118.5 213q8 80 72 80h24q148 -197 261 -281q37 0 176 188q55 40 104 40q37 0 56 -96q0 -31 -160 -220l-56 -64q342 -416 342 -502q0 -43 -32 -64q-71 0 -390 390l-32 24h-8q-75 -105 -178 -272.5t-163 -168.5z" />
<glyph unicode="&#xd8;" horiz-adv-x="1399" d="M83 1024q0 245 96 480q34 56 120 56q195 160 392 160h24q114 0 208 -42q47 104 97 214q77 150 157 105q55 -32 -121 -410q51 -48 93 -114q158 -247 158 -562t-213.5 -482t-402.5 -189q-108 0 -202 47q-82 -196 -122 -277l-64 -56h-24q-32 13 -32 56v16q0 63 114 352 q-58 56 -110 134q-168 317 -168 512zM259 1080q0 -301 184 -500q148 358 409 939q-65 25 -145 25h-40q-189 0 -344 -232q0 -18 -48 -56zM566 473q36 -25 77 -49l32 -8h40q137 0 297.5 156.5t135.5 389t-126 407.5q-20 33 -43 60q-55 -111 -124 -243l-56 -128 q-137 -347 -233 -585z" />
<glyph unicode="&#xd9;" horiz-adv-x="1521" d="M3 1705v8q0 78 72 120h48q60 0 69 -889q34 -600 144 -704q171 151 264 304q336 701 336 856l-5 313q0 170 104 192q120 0 120 -32v-24l-35 -449q52 -756 136 -896q106 -288 208 -288q44 0 56 -80q0 -117 -152 -136q-152 0 -296 528q-56 129 -88 408h-8q-20 -15 -360 -648 q-213 -280 -336 -280q-184 0 -240 832q0 509 -37 865zM33 2336l28 7q277 -178 367.5 -213t19 -116.5t-368.5 196.5l-11 11q-78 69 -35 115z" />
<glyph unicode="&#xda;" horiz-adv-x="1521" d="M3 1705v8q0 78 72 120h48q60 0 69 -889q34 -600 144 -704q171 151 264 304q336 701 336 856l-5 313q0 170 104 192q120 0 120 -32v-24l-35 -449q52 -756 136 -896q106 -288 208 -288q44 0 56 -80q0 -117 -152 -136q-152 0 -296 528q-56 129 -88 408h-8q-20 -15 -360 -648 q-213 -280 -336 -280q-184 0 -240 832q0 509 -37 865zM506.5 2036.5q-71.5 81.5 19 116.5t367.5 213l28 -7q43 -46 -35 -115l-11 -11q-297 -278 -368.5 -196.5z" />
<glyph unicode="&#xdb;" horiz-adv-x="1521" d="M3 1705v8q0 78 72 120h48q60 0 69 -889q34 -600 144 -704q171 151 264 304q336 701 336 856l-5 313q0 170 104 192q120 0 120 -32v-24l-35 -449q52 -756 136 -896q106 -288 208 -288q44 0 56 -80q0 -117 -152 -136q-152 0 -296 528q-56 129 -88 408h-8q-20 -15 -360 -648 q-213 -280 -336 -280q-184 0 -240 832q0 509 -37 865zM308 2007v22q-1 25 14 53q11 -9 100 149t147 159q64 1 92 -98q113 -220 113 -243q2 -80 -57.5 -97.5t-154.5 224.5q-15 -2 -110 -134q-20 -58 -75 -59l-16 -1q-40 -1 -53 25z" />
<glyph unicode="&#xdc;" horiz-adv-x="1521" d="M3 1705v8q0 78 72 120h48q60 0 69 -889q34 -600 144 -704q171 151 264 304q336 701 336 856l-5 313q0 170 104 192q120 0 120 -32v-24l-35 -449q52 -756 136 -896q106 -288 208 -288q44 0 56 -80q0 -117 -152 -136q-152 0 -296 528q-56 129 -88 408h-8q-20 -15 -360 -648 q-213 -280 -336 -280q-184 0 -240 832q0 509 -37 865zM273 2073.5q-64 101.5 77 146.5q128 -50 87 -149q-100 -99 -164 2.5zM663 2077.5q-64 101.5 77 146.5q128 -50 87 -149q-100 -99 -164 2.5z" />
<glyph unicode="&#xdd;" horiz-adv-x="1896" d="M0 1976q0 104 96 104q23 0 216 -136q651 -360 893 -414q-7 14 308.5 206.5t447 268t141.5 -60.5t-118.5 -141.5t-342 -165t-329.5 -349.5v-32l40 -560v-352q0 -344 -72 -344q-152 8 -104 496v168q-25 616 -39 605q-89 123 -481 291q-409 216 -624 304q-32 37 -32 112z M1028.5 2187.5q-71.5 81.5 19 116.5t367.5 213l28 -7q43 -46 -35 -115l-11 -11q-297 -278 -368.5 -196.5z" />
<glyph unicode="&#xde;" horiz-adv-x="1610" d="M45 1860q16 152 112 152h8q72 0 266 -1701l32 -200q-64 -120 -128 -120q-57 0 -72 152q0 132 -218 1717zM184 1380v48q0 120 296 120h8q172 0 336 -56q728 -262 728 -408v-32q-181 -432 -992 -432l-128 8q-106 0 -128 152q25 96 88 96h16q212 -80 312 -80q173 0 344 56 q256 103 256 200q0 34 -40 72q-439 256 -704 256h-48l-96 -24q-248 -86 -248 24z" />
<glyph unicode="&#xdf;" horiz-adv-x="1431" d="M4 1441q0 193 208 256q142 64 320 64q351 -23 424 -208l16 -136q0 -224 -200 -512l8 -8q376 -71 512 -216q72 -71 72 -112v-40q0 -424 -584 -424h-40q-214 0 -234 48.5t13.5 72t292.5 23.5q374 33 400 192v24q0 197 -464 256h-40q-107 0 -264 -40q-88 26 -88 120v24 q0 97 120 112q90 0 248 224q72 135 72 224v8q0 165 -288 192q-152 0 -344 -200q-43 -32 -72 -32h-40q-27 0 -48 88zM26 1467q16 152 112 152h8q72 0 266 -1701l32 -200q-64 -120 -128 -120q-57 0 -72 152q0 132 -218 1717z" />
<glyph unicode="&#xe0;" horiz-adv-x="1582" d="M0 312v48q0 290 608 600q223 144 480 224q37 35 74 106.5t145.5 -1t-35.5 -425.5q-24 -91 -24 -256q0 -356 224 -432l40 -8l-40 -168h-48q-146 0 -296 280q-30 64 -56 224l-8 8h-8l-280 -264q-250 -168 -408 -168h-64q-238 0 -304 232zM176 352q44 -104 144 -104h40 q184 0 456 224q256 254 256 440l-8 32v32h-16v8q-120 0 -640 -320q-192 -158 -192 -184zM449 1765l29 7q276 -178 366.5 -213t19 -116.5t-367.5 196.5l-12 11q-78 69 -35 115z" />
<glyph unicode="&#xe1;" horiz-adv-x="1582" d="M0 312v48q0 290 608 600q223 144 480 224q37 35 74 106.5t145.5 -1t-35.5 -425.5q-24 -91 -24 -256q0 -356 224 -432l40 -8l-40 -168h-48q-146 0 -296 280q-30 64 -56 224l-8 8h-8l-280 -264q-250 -168 -408 -168h-64q-238 0 -304 232zM176 352q44 -104 144 -104h40 q184 0 456 224q256 254 256 440l-8 32v32h-16v8q-120 0 -640 -320q-192 -158 -192 -184zM771.5 1446.5q-71.5 81.5 19 116.5t367.5 213l28 -7q43 -46 -35 -115l-11 -11q-297 -278 -368.5 -196.5z" />
<glyph unicode="&#xe2;" horiz-adv-x="1582" d="M0 312v48q0 290 608 600q223 144 480 224q37 35 74 106.5t145.5 -1t-35.5 -425.5q-24 -91 -24 -256q0 -356 224 -432l40 -8l-40 -168h-48q-146 0 -296 280q-30 64 -56 224l-8 8h-8l-280 -264q-250 -168 -408 -168h-64q-238 0 -304 232zM176 352q44 -104 144 -104h40 q184 0 456 224q256 254 256 440l-8 32v32h-16v8q-120 0 -640 -320q-192 -158 -192 -184zM678 1608v22q-1 25 14 53q11 -9 100 149t147 159q64 1 92 -98q113 -220 113 -243q2 -80 -57.5 -97.5t-154.5 224.5q-15 -2 -110 -134q-20 -58 -75 -59l-16 -1q-40 -1 -53 25z" />
<glyph unicode="&#xe3;" horiz-adv-x="1582" d="M0 312v48q0 290 608 600q223 144 480 224q37 35 74 106.5t145.5 -1t-35.5 -425.5q-24 -91 -24 -256q0 -356 224 -432l40 -8l-40 -168h-48q-146 0 -296 280q-30 64 -56 224l-8 8h-8l-280 -264q-250 -168 -408 -168h-64q-238 0 -304 232zM176 352q44 -104 144 -104h40 q184 0 456 224q256 254 256 440l-8 32v32h-16v8q-120 0 -640 -320q-192 -158 -192 -184zM387 1439v19q29 117 118.5 169.5t193 52.5t162 -82t226.5 8q24 28 84 49t111 -72q-353 -275 -509 -106.5t-311 -62.5h-50z" />
<glyph unicode="&#xe4;" horiz-adv-x="1582" d="M0 312v48q0 290 608 600q223 144 480 224q37 35 74 106.5t145.5 -1t-35.5 -425.5q-24 -91 -24 -256q0 -356 224 -432l40 -8l-40 -168h-48q-146 0 -296 280q-30 64 -56 224l-8 8h-8l-280 -264q-250 -168 -408 -168h-64q-238 0 -304 232zM176 352q44 -104 144 -104h40 q184 0 456 224q256 254 256 440l-8 32v32h-16v8q-120 0 -640 -320q-192 -158 -192 -184zM565 1433.5q-64 101.5 77 146.5q128 -50 87 -149q-100 -99 -164 2.5zM955 1437.5q-64 101.5 77 146.5q128 -50 87 -149q-100 -99 -164 2.5z" />
<glyph unicode="&#xe5;" horiz-adv-x="1582" d="M0 312v48q0 290 608 600q223 144 480 224q37 35 74 106.5t145.5 -1t-35.5 -425.5q-24 -91 -24 -256q0 -356 224 -432l40 -8l-40 -168h-48q-146 0 -296 280q-30 64 -56 224l-8 8h-8l-280 -264q-250 -168 -408 -168h-64q-238 0 -304 232zM176 352q44 -104 144 -104h40 q184 0 456 224q256 254 256 440l-8 32v32h-16v8q-120 0 -640 -320q-192 -158 -192 -184zM778 1678v29q0 92 223 251h17q54 0 132 -125l11 -57q0 -101 -177 -172l-75 -40h-5q-55 0 -126 114zM923 1690h38q57 33 57 86v28h-19q-76 -51 -76 -114z" />
<glyph unicode="&#xe6;" horiz-adv-x="1866" d="M0 312v48q0 290 608 600q223 144 480 224q37 35 74 106.5t146 -0.5q70 -48 34 -214q99 63 230 63q150 0 201.5 -184t-353.5 -440q-112 -20 -112 -104q0 -176 280 -240q144 0 147 -54t-211 -106q-25 0 -49 3l-3 -14h-48q-146 0 -296 280q-16 34 -30 94q-7 14 -14 29 q-107 -26 -176 -31l-132 -124q-250 -168 -408 -168h-64q-238 0 -304 232zM176 352q44 -104 144 -104h40q164 0 398 178q-10 12 -10 25v48q0 61 164 76q160 190 160 337l-8 32v32h-16v8q-120 0 -640 -320q-192 -158 -192 -184zM1300 667h8q272 126 272 232q0 32 -32 48h-16 q-97 0 -164.5 -85.5t-67.5 -170.5v-24z" />
<glyph unicode="&#xe7;" horiz-adv-x="1477" d="M10 650v32q0 146 728 408q164 56 336 56h8q296 0 296 -120v-48q0 -110 -248 -24l-96 24h-48q-265 0 -704 -256q-40 -38 -40 -72q0 -97 256 -200q171 -56 344 -56q100 0 312 80h16q63 0 88 -96q-22 -152 -128 -152l-128 -8q-811 0 -992 432zM407 35q11 4 50 -67 q138 -74 180 -53t21.5 191t-7 213.5t64 9t51.5 -299.5q32 -197 -93 -243t-265 74q-130 137 -2 175z" />
<glyph unicode="&#xe8;" horiz-adv-x="1130" d="M26 529v48q0 70 216 80h16q128 0 160 232q134 328 432 328q150 0 201.5 -184t-353.5 -440q-112 -20 -112 -104q0 -176 280 -240q144 0 147 -54t-211 -106q-263 0 -440 392q-134 -32 -208 -32q-128 34 -128 80zM316 1724l29 7q276 -178 366.5 -213t19 -116.5t-367.5 196.5 l-12 11q-78 69 -35 115zM578 745h8q272 126 272 232q0 32 -32 48h-16q-97 0 -164.5 -85.5t-67.5 -170.5v-24z" />
<glyph unicode="&#xe9;" horiz-adv-x="1130" d="M26 529v48q0 70 216 80h16q128 0 160 232q134 328 432 328q150 0 201.5 -184t-353.5 -440q-112 -20 -112 -104q0 -176 280 -240q144 0 147 -54t-211 -106q-263 0 -440 392q-134 -32 -208 -32q-128 34 -128 80zM578 745h8q272 126 272 232q0 32 -32 48h-16 q-97 0 -164.5 -85.5t-67.5 -170.5v-24zM699.5 1437.5q-71.5 81.5 19 116.5t367.5 213l28 -7q43 -46 -35 -115l-11 -11q-297 -278 -368.5 -196.5z" />
<glyph unicode="&#xea;" horiz-adv-x="1130" d="M26 529v48q0 70 216 80h16q128 0 160 232q134 328 432 328q150 0 201.5 -184t-353.5 -440q-112 -20 -112 -104q0 -176 280 -240q144 0 147 -54t-211 -106q-263 0 -440 392q-134 -32 -208 -32q-128 34 -128 80zM477 1343v22q-1 25 14 53q11 -9 100 149t147 159 q64 1 92 -98q113 -220 113 -243q2 -80 -57.5 -97.5t-154.5 224.5q-15 -2 -110 -134q-20 -58 -75 -59l-16 -1q-40 -1 -53 25zM578 745h8q272 126 272 232q0 32 -32 48h-16q-97 0 -164.5 -85.5t-67.5 -170.5v-24z" />
<glyph unicode="&#xeb;" horiz-adv-x="1130" d="M26 529v48q0 70 216 80h16q128 0 160 232q134 328 432 328q150 0 201.5 -184t-353.5 -440q-112 -20 -112 -104q0 -176 280 -240q144 0 147 -54t-211 -106q-263 0 -440 392q-134 -32 -208 -32q-128 34 -128 80zM433 1451.5q-64 101.5 77 146.5q128 -50 87 -149 q-100 -99 -164 2.5zM578 745h8q272 126 272 232q0 32 -32 48h-16q-97 0 -164.5 -85.5t-67.5 -170.5v-24zM823 1455.5q-64 101.5 77 146.5q128 -50 87 -149q-100 -99 -164 2.5z" />
<glyph unicode="&#xec;" horiz-adv-x="558" d="M-100 1838l28 7q277 -178 367.5 -213t19 -116.5t-368.5 196.5l-11 11q-78 69 -35 115zM158 1245q33 96 104 96h24q104 0 104 -208q13 -142 13 -395v-128q0 -584 -64 -584h-32q-64 0 -64 120q3 1003 -45 1003z" />
<glyph unicode="&#xed;" horiz-adv-x="558" d="M158 1245q33 96 104 96h24q104 0 104 -208q13 -142 13 -395v-128q0 -584 -64 -584h-32q-64 0 -64 120q3 1003 -45 1003zM250.5 1501.5q-71.5 81.5 19 116.5t367.5 213l28 -7q43 -46 -35 -115l-11 -11q-297 -278 -368.5 -196.5z" />
<glyph unicode="&#xee;" horiz-adv-x="558" d="M15 1540v22q-1 25 14 53q11 -9 100 149t147 159q64 1 92 -98q113 -220 113 -243q2 -80 -57.5 -97.5t-154.5 224.5q-15 -2 -110 -134q-20 -58 -75 -59l-16 -1q-40 -1 -53 25zM158 1245q33 96 104 96h24q104 0 104 -208q13 -142 13 -395v-128q0 -584 -64 -584h-32 q-64 0 -64 120q3 1003 -45 1003z" />
<glyph unicode="&#xef;" horiz-adv-x="558" d="M-32.5 1538.5q-64.5 101.5 77.5 146.5q127 -50 87 -149q-100 -99 -164.5 2.5zM158 1245q33 96 104 96h24q104 0 104 -208q13 -142 13 -395v-128q0 -584 -64 -584h-32q-64 0 -64 120q3 1003 -45 1003zM357 1542.5q-64 101.5 78 146.5q127 -50 86 -149q-100 -99 -164 2.5z " />
<glyph unicode="&#xf0;" horiz-adv-x="905" d="M0 440v8q0 184 96 544q0 174 264 208h16q280 -29 358 -480.5t-75.5 -585.5t-321.5 -134t-313 264q-24 101 -24 176zM40 1470l13 14q101 64 221 57t222.5 -154t154 -320.5t19 -137.5t-59.5 -66q-131 323 -232.5 442t-300.5 95l-36 34zM111 1269q-11 33 79 65l20 7 q434 164 461 90t-62 -95t-349 -113q-116 -45 -146 40zM168 512q0 -278 192 -336h72q135 -19 175.5 100.5t13 341t-212.5 446.5q-105 0 -144 -120q-96 -248 -96 -400v-32z" />
<glyph unicode="&#xf1;" horiz-adv-x="1198" d="M-101 1117v16q32 128 99 114q207 0 392 -184h8q247 200 344 200q254 0 296 -440l41 -751l-168 -24l-8 24q-9 959 -137 959q0 16 -48 16q-107 0 -224 -176l-8 -40l9 -319q-29 -512 -168 -512h-24q-80 0 -114 36t-55 320.5t120 530.5l8 40q-78 160 -312 160l-3 6 q-48 8 -48 24zM95 1481v19q29 117 118.5 169.5t193 52.5t162 -82t226.5 8q24 28 84 49t111 -72q-353 -275 -509 -106.5t-311 -62.5h-50zM255 384l24 -112h8q48 134 48 240l-9 167h-8q-63 -194 -63 -295z" />
<glyph unicode="&#xf2;" horiz-adv-x="850" d="M-21 1710l28 7q277 -178 367.5 -213t19 -116.5t-368.5 196.5l-11 11q-78 69 -35 115zM0 440v8q0 184 96 544q0 174 264 208h16q299 -75 367.5 -503.5t-85 -562.5t-321.5 -134t-313 264q-24 101 -24 176zM168 512q0 -278 192 -336h72q135 -19 175.5 100.5t13 341 t-212.5 446.5q-105 0 -144 -120q-96 -248 -96 -400v-32z" />
<glyph unicode="&#xf3;" horiz-adv-x="850" d="M0 440v8q0 184 96 544q0 174 264 208h16q299 -75 367.5 -503.5t-85 -562.5t-321.5 -134t-313 264q-24 101 -24 176zM168 512q0 -278 192 -336h72q135 -19 175.5 100.5t13 341t-212.5 446.5q-105 0 -144 -120q-96 -248 -96 -400v-32zM287.5 1359.5q-71.5 81.5 19 116.5 t367.5 213l28 -7q43 -46 -35 -115l-11 -11q-297 -278 -368.5 -196.5z" />
<glyph unicode="&#xf4;" horiz-adv-x="850" d="M0 440v8q0 184 96 544q0 174 264 208h16q299 -75 367.5 -503.5t-85 -562.5t-321.5 -134t-313 264q-24 101 -24 176zM84 1348v22q-1 25 14 53q11 -9 100 149t147 159q64 1 92 -98q113 -220 113 -243q2 -80 -57.5 -97.5t-154.5 224.5q-15 -2 -110 -134q-20 -58 -75 -59 l-16 -1q-40 -1 -53 25zM168 512q0 -278 192 -336h72q135 -19 175.5 100.5t13 341t-212.5 446.5q-105 0 -144 -120q-96 -248 -96 -400v-32z" />
<glyph unicode="&#xf5;" horiz-adv-x="850" d="M-120 1367v19q29 117 118.5 169.5t193 52.5t162 -82t226.5 8q24 28 84 49t111 -72q-353 -275 -509 -106.5t-311 -62.5h-50zM0 440v8q0 184 96 544q0 174 264 208h16q299 -75 367.5 -503.5t-85 -562.5t-321.5 -134t-313 264q-24 101 -24 176zM168 512q0 -278 192 -336h72 q135 -19 175.5 100.5t13 341t-212.5 446.5q-105 0 -144 -120q-96 -248 -96 -400v-32z" />
<glyph unicode="&#xf6;" horiz-adv-x="850" d="M0 440v8q0 184 96 544q0 174 264 208h16q299 -75 367.5 -503.5t-85 -562.5t-321.5 -134t-313 264q-24 101 -24 176zM58.5 1351.5q-64.5 101.5 77.5 146.5q127 -50 87 -149q-100 -99 -164.5 2.5zM168 512q0 -278 192 -336h72q135 -19 175.5 100.5t13 341t-212.5 446.5 q-105 0 -144 -120q-96 -248 -96 -400v-32zM448 1355.5q-64 101.5 78 146.5q127 -50 86 -149q-100 -99 -164 2.5z" />
<glyph unicode="&#xf7;" horiz-adv-x="1341" d="M115 628v8q-4 40 108 50l23 2q89 35 668 50q46 4 160 95l32 3q81 -9 87 -73l3 -31q12 -135 -298.5 -149t-629.5 -43q-143 -17 -153 88zM542 277.5q0 108.5 126 108.5q117 -23 97 -147.5t-121.5 -97t-101.5 136zM542 1026.5q0 108.5 126 108.5q117 -23 97 -147.5 t-121.5 -97t-101.5 136z" />
<glyph unicode="&#xf8;" horiz-adv-x="850" d="M-9 -188q0 67 100 345q-34 47 -67 107q-24 101 -24 176v8q0 184 96 544q0 174 264 208h16q61 -15 112 -45q47 113 98 235q77 150 157 105q75 -43 -119 -468q87 -125 120 -330q68 -429 -85.5 -563t-321.5 -134q-62 0 -120 35q-70 -166 -106 -239l-64 -56h-24 q-32 13 -32 56v16zM168 512q0 -67 11 -121q101 262 257 638q-14 18 -28 35q-105 0 -144 -120q-96 -248 -96 -400v-32zM289 209q31 -21 71 -33h72q135 -19 175.5 100.5t13.5 341.5q-15 117 -74 235l-4 -9q-151 -384 -254 -635z" />
<glyph unicode="&#xf9;" horiz-adv-x="1209" d="M-100 1784l28 7q277 -178 367.5 -213t19 -116.5t-368.5 196.5l-11 11q-78 69 -35 115zM0 1104l168 24l8 -24q0 -872 128 -872q0 -16 48 -16q107 0 224 176l8 40v232q29 512 168 512h24q80 0 114 -36t50.5 -277t-124.5 -487l-8 -40q78 -160 312 -160l144 8q48 -8 48 -24 v-16q-32 -128 -240 -128q-207 0 -392 184h-8q-247 -200 -344 -200q-254 0 -296 440zM744 584h8q72 107 72 208l-24 112h-8q-48 -134 -48 -240v-80z" />
<glyph unicode="&#xfa;" horiz-adv-x="1209" d="M0 1104l168 24l8 -24q0 -872 128 -872q0 -16 48 -16q107 0 224 176l8 40v232q29 512 168 512h24q80 0 114 -36t50.5 -277t-124.5 -487l-8 -40q78 -160 312 -160l144 8q48 -8 48 -24v-16q-32 -128 -240 -128q-207 0 -392 184h-8q-247 -200 -344 -200q-254 0 -296 440z M465.5 1442.5q-71.5 81.5 19 116.5t367.5 213l28 -7q43 -46 -35 -115l-11 -11q-297 -278 -368.5 -196.5zM744 584h8q72 107 72 208l-24 112h-8q-48 -134 -48 -240v-80z" />
<glyph unicode="&#xfb;" horiz-adv-x="1209" d="M0 1104l168 24l8 -24q0 -872 128 -872q0 -16 48 -16q107 0 224 176l8 40v232q29 512 168 512h24q80 0 114 -36t50.5 -277t-124.5 -487l-8 -40q78 -160 312 -160l144 8q48 -8 48 -24v-16q-32 -128 -240 -128q-207 0 -392 184h-8q-247 -200 -344 -200q-254 0 -296 440z M248 1366v22q-1 25 14 53q11 -9 100 149t147 159q64 1 92 -98q113 -220 113 -243q2 -80 -57.5 -97.5t-154.5 224.5q-15 -2 -110 -134q-20 -58 -75 -59l-16 -1q-40 -1 -53 25zM744 584h8q72 107 72 208l-24 112h-8q-48 -134 -48 -240v-80z" />
<glyph unicode="&#xfc;" horiz-adv-x="1209" d="M0 1104l168 24l8 -24q0 -872 128 -872q0 -16 48 -16q107 0 224 176l8 40v232q29 512 168 512h24q80 0 114 -36t50.5 -277t-124.5 -487l-8 -40q78 -160 312 -160l144 8q48 -8 48 -24v-16q-32 -128 -240 -128q-207 0 -392 184h-8q-247 -200 -344 -200q-254 0 -296 440z M140 1383.5q-64 101.5 77 146.5q128 -50 87 -149q-100 -99 -164 2.5zM530 1387.5q-64 101.5 77 146.5q128 -50 87 -149q-100 -99 -164 2.5zM744 584h8q72 107 72 208l-24 112h-8q-48 -134 -48 -240v-80z" />
<glyph unicode="&#xfd;" horiz-adv-x="1368" d="M23 790q0 118 104 136h16q25 0 312 -152q496 -168 608 -168l8 24q0 167 -48 480q44 112 128 112q98 0 98.5 -410t0.5 -538.5t-184 -822.5q-163 -264 -328 -264h-48q-150 34 -264 224q-96 205 -96 344q0 71 40 104q54 0 120 -248q14 0 32 -96q128 -136 208 -136h24 q176 0 256 464q88 330 53 515q0 40 -40 40q-1000 262 -1000 392zM639.5 1405.5q-71.5 81.5 19 116.5t367.5 213l28 -7q43 -46 -35 -115l-11 -11q-297 -278 -368.5 -196.5z" />
<glyph unicode="&#xfe;" horiz-adv-x="1610" d="M54 1389q16 152 112 152h8q72 0 266 -1701l32 -200q-64 -120 -128 -120q-57 0 -72 152q0 132 -218 1717zM193 909v48q0 120 296 120h8q172 0 336 -56q728 -262 728 -408v-32q-181 -432 -992 -432l-128 8q-106 0 -128 152q25 96 88 96h16q212 -80 312 -80q173 0 344 56 q256 103 256 200q0 34 -40 72q-439 256 -704 256h-48l-96 -24q-248 -86 -248 24z" />
<glyph unicode="&#xff;" horiz-adv-x="1368" d="M23 790q0 118 104 136h16q25 0 312 -152q496 -168 608 -168l8 24q0 167 -48 480q44 112 128 112q98 0 98.5 -410t-8 -549.5t-192.5 -833.5q-163 -264 -328 -264h-48q-150 34 -264 224q-96 205 -96 344q0 71 40 104q54 0 120 -248q14 0 32 -96q128 -136 208 -136h24 q176 0 256 464q88 330 70 537q0 40 -40 40q-1000 262 -1000 392zM300 1314.5q-64 101.5 77 146.5q128 -50 87 -149q-100 -99 -164 2.5zM690 1318.5q-64 101.5 77 146.5q128 -50 87 -149q-100 -99 -164 2.5z" />
<glyph unicode="&#x152;" horiz-adv-x="2826" d="M83 1024q0 245 96 480q34 56 120 56q195 160 392 160h24q276 0 434 -247q3 -5 7 -11q-17 94 -40 213v8q0 128 240 128q631 42 1081 135h16q106 0 120 -128q0 -104 -88 -104l-641 -55q-488 0 -488 -64l-8 -64q21 -333 59 -333h48q307 58 504 72q157 -8 176 -56 q0 -78 -584 -168q-136 -43 -136 -56l6 -279q0 -384 24 -384q209 0 1158 294q69 56 104 56h24q40 -15 40 -88q0 -91 -176 -176q-1030 -294 -1270 -294h-24q-72 0 -72 176l6 300q-52 -96 -141 -166q-214 -167 -403 -189q-261 0 -440 272q-168 317 -168 512zM259 1080 q0 -435 384 -656l32 -8h40q137 0 298 157q144 141 138 344l-176 -39q-64 0 -112 96q0 100 260 135q-34 143 -101 260q-102 175 -315 175h-40q-189 0 -344 -232q0 -18 -48 -56z" />
<glyph unicode="&#x153;" horiz-adv-x="1472" d="M0 440v8q0 184 96 544q0 174 264 208h16q278 -70 357 -444q18 49 28 120q134 328 432 328q150 0 201.5 -184t-353.5 -440q-112 -20 -112 -104q0 -176 280 -240q144 0 147 -54t-211 -106q-224 0 -386 285q-19 -155 -100 -227q-154 -134 -322 -134t-313 264 q-24 101 -24 176zM168 512q0 -278 192 -336h72q135 -19 176 101q23 70 24 175q-83 -16 -135 -16q-128 34 -128 80v48q0 70 216 80h16q8 0 15 1q-34 208 -208 419q-105 0 -144 -120q-96 -248 -96 -400v-32zM921 732h8q272 126 272 232q0 32 -32 48h-16q-97 0 -164.5 -85.5 t-67.5 -170.5v-24z" />
<glyph unicode="&#x178;" horiz-adv-x="1896" d="M0 1976q0 104 96 104q23 0 216 -136q651 -360 893 -414q-7 14 308.5 206.5t447 268t141.5 -60.5t-118.5 -141.5t-342 -165t-329.5 -349.5v-32l40 -560v-352q0 -344 -72 -344q-152 8 -104 496v168q-25 616 -39 605q-89 123 -481 291q-409 216 -624 304q-32 37 -32 112z M822 2215.5q-64 101.5 77 146.5q128 -50 87 -149q-100 -99 -164 2.5zM1212 2219.5q-64 101.5 77 146.5q128 -50 87 -149q-100 -99 -164 2.5z" />
<glyph unicode="&#x2c6;" horiz-adv-x="1155" d="M143 2116v22q-1 25 14 53q11 -9 100 149t147 159q64 1 92 -98q113 -220 113 -243q2 -80 -57.5 -97.5t-154.5 224.5q-15 -2 -110 -134q-20 -58 -75 -59l-16 -1q-40 -1 -53 25z" />
<glyph unicode="&#x2dc;" horiz-adv-x="1093" d="M112 1722v19q29 117 118.5 169.5t193 52.5t162 -82t226.5 8q24 28 84 49t111 -72q-353 -275 -509 -106.5t-311 -62.5h-50z" />
<glyph unicode="&#x2000;" horiz-adv-x="1263" />
<glyph unicode="&#x2001;" horiz-adv-x="2526" />
<glyph unicode="&#x2002;" horiz-adv-x="1263" />
<glyph unicode="&#x2003;" horiz-adv-x="2526" />
<glyph unicode="&#x2004;" horiz-adv-x="842" />
<glyph unicode="&#x2005;" horiz-adv-x="631" />
<glyph unicode="&#x2006;" horiz-adv-x="421" />
<glyph unicode="&#x2007;" horiz-adv-x="421" />
<glyph unicode="&#x2008;" horiz-adv-x="315" />
<glyph unicode="&#x2009;" horiz-adv-x="505" />
<glyph unicode="&#x200a;" horiz-adv-x="140" />
<glyph unicode="&#x2010;" horiz-adv-x="1258" d="M139 949v8q-4 40 108 50l23 2l562 31q46 4 164 28t124 -40l3 -31q25 -116 -241.5 -118t-585.5 -31q-143 -17 -157 101z" />
<glyph unicode="&#x2011;" horiz-adv-x="1258" d="M139 949v8q-4 40 108 50l23 2l562 31q46 4 164 28t124 -40l3 -31q25 -116 -241.5 -118t-585.5 -31q-143 -17 -157 101z" />
<glyph unicode="&#x2012;" horiz-adv-x="1258" d="M139 949v8q-4 40 108 50l23 2l562 31q46 4 164 28t124 -40l3 -31q25 -116 -241.5 -118t-585.5 -31q-143 -17 -157 101z" />
<glyph unicode="&#x2013;" horiz-adv-x="1341" d="M143 936v8q-4 40 108 50l23 2q89 35 668 50q46 4 160 95l32 3q81 -9 87 -73l3 -31q12 -135 -298.5 -149t-629.5 -43q-143 -17 -153 88z" />
<glyph unicode="&#x2014;" horiz-adv-x="1525" d="M143 936v8q-4 40 108 50l23 2q89 35 852 50q46 4 164 28t124 -40l3 -31q12 -135 -395 -130.5t-726 -24.5q-143 -17 -153 88z" />
<glyph unicode="&#x2018;" horiz-adv-x="529" d="M106 1530q6 189 162 446q93 24 136 -48v-24q0 -21 -40 -96q-80 -195 -80 -280v-16q0 -54 168 -152l8 -8v-8q0 -37 -160 -64q-200 61 -194 250z" />
<glyph unicode="&#x2019;" horiz-adv-x="533" d="M106 1910v8q0 37 160 64q200 -61 194 -250t-162 -446q-93 -24 -136 48v24q0 21 40 96q80 195 80 280v16q0 54 -168 152z" />
<glyph unicode="&#x201a;" horiz-adv-x="600" d="M178 155v8q0 37 160 64q200 -61 194 -250t-162 -446q-93 -24 -136 48v24q0 21 40 96q80 195 80 280v16q0 54 -168 152z" />
<glyph unicode="&#x201c;" horiz-adv-x="907" d="M106 1530q6 189 162 446q93 24 136 -48v-24q0 -21 -40 -96q-80 -195 -80 -280v-16q0 -54 168 -152l8 -8v-8q0 -37 -160 -64q-200 61 -194 250zM489 1538q6 189 162 446q93 24 136 -48v-24q0 -21 -40 -96q-80 -195 -80 -280v-16q0 -54 168 -152l8 -8v-8q0 -37 -160 -64 q-200 61 -194 250z" />
<glyph unicode="&#x201d;" horiz-adv-x="907" d="M106 1910v8q0 37 160 64q200 -61 194 -250t-162 -446q-93 -24 -136 48v24q0 21 40 96q80 195 80 280v16q0 54 -168 152zM489 1918v8q0 37 160 64q200 -61 194 -250t-162 -446q-93 -24 -136 48v24q0 21 40 96q80 195 80 280v16q0 54 -168 152z" />
<glyph unicode="&#x201e;" horiz-adv-x="951" d="M151 110v8q0 37 160 64q200 -61 194 -250t-162 -446q-93 -24 -136 48v24q0 21 40 96q80 195 80 280v16q0 54 -168 152zM534 118v8q0 37 160 64q200 -61 194 -250t-162 -446q-93 -24 -136 48v24q0 21 40 96q80 195 80 280v16q0 54 -168 152z" />
<glyph unicode="&#x2022;" horiz-adv-x="600" d="M71 993q0 81 57.5 138.5t138.5 57.5t138.5 -57.5t57.5 -138.5t-57.5 -138.5t-138.5 -57.5t-138.5 57.5t-57.5 138.5z" />
<glyph unicode="&#x2026;" horiz-adv-x="1075" d="M160 111q0 43 30.5 73.5t73.5 30.5q44 0 74.5 -30.5t30.5 -73.5t-30.5 -74t-74.5 -31q-43 0 -73.5 31t-30.5 74zM467 120q0 43 30.5 73.5t73.5 30.5q44 0 74.5 -30.5t30.5 -73.5t-30.5 -74t-74.5 -31q-43 0 -73.5 31t-30.5 74zM791 115q0 43 30.5 73.5t73.5 30.5 q44 0 74.5 -30.5t30.5 -73.5t-30.5 -74t-74.5 -31q-43 0 -73.5 31t-30.5 74z" />
<glyph unicode="&#x202f;" horiz-adv-x="505" />
<glyph unicode="&#x2039;" horiz-adv-x="1216" d="M54 1006v24q0 118 120 144l80 -8q219 0 546 155q140 80 192 80h32q24 0 32 -72q0 -157 -408 -256q-133 -48 -258 -83q-57 -35 -64 -64q41 -168 130 -192l144 -72q255 -64 312 -64h48q40 -18 40 -80q0 -179 -120 -208q-66 0 -456 224q-39 1 -218 200q-108 188 -144 224z " />
<glyph unicode="&#x203a;" horiz-adv-x="1317" d="M219 1220q8 72 32 72h32q52 0 192 -80q327 -155 546 -155l80 8q120 -26 120 -144v-24l-8 -48q-36 -36 -144 -224q-179 -199 -218 -200q-390 -224 -456 -224q-120 29 -120 208q0 62 40 80h48q57 0 312 64l144 72q89 24 130 192q-7 29 -64 64q-125 35 -258 83 q-408 99 -408 256z" />
<glyph unicode="&#x205f;" horiz-adv-x="631" />
<glyph unicode="&#x20ac;" horiz-adv-x="1689" d="M19 821v8q-3 34 77 46q10 77 55 158q-40 26 -47 85v8q-4 40 108 50l23 2l21 1q189 215 596 456q119 40 192 40h64q116 0 202 -36t86 -124q-26 -144 -128 -144q-35 0 -152 104l-80 16q-204 0 -539 -299l300 17q46 4 164 28t124 -40l3 -31q25 -116 -241 -118 q-232 -2 -503 -24q-51 -82 -65 -136l433 24q46 4 164 28t124 -40l3 -31q25 -116 -241 -118q-200 -2 -430 -18q39 -63 104 -122q115 -48 256 -48h16q549 0 775 136q98 -4 80 -58v-40q-62 -78 -289.5 -142t-597.5 -64q-399 0 -560 320q-1 2 -2 5q-84 12 -95 101z" />
<glyph unicode="&#x2122;" horiz-adv-x="1497" />
<glyph unicode="&#x25fc;" horiz-adv-x="1225" d="M0 0v1225h1225v-1225h-1225z" />
<glyph unicode="&#xfb03;" horiz-adv-x="1600" d="M-57 876q1 50 39 94l278 47l-1 497q39 415 363 528l81 8q239 -22 335.5 -131t89.5 -174q-23 -77 -109 -54q-37 3 -61 78q-93 73 -153 79l-48 4q-208 20 -316 -195l-27 -206l11 -391q310 -1 487 19t152 -80q0 -80 -154 -77q-99 9 -454 -37q114 -638 90 -894q-19 -2 -104 6 l-25 -6l-8 1q-47 5 -26 232q-52 462 -100 613q-64 -10 -228 -27q-124 -60 -112 66zM1168 1720q0 50 37 85.5t90 35.5q52 0 89.5 -35.5t37.5 -85.5t-37.5 -85t-89.5 -35q-53 0 -90 35t-37 85zM1234 1055q0 79 102 124h16q59 0 142 -1065q5 -99 -64.5 -110t-100.5 95z" />
<glyph unicode="&#xfb04;" horiz-adv-x="1609" d="M-57 876q1 50 39 94l278 47l-1 497q39 415 363 528l81 8q239 -22 335.5 -131t89.5 -174q-23 -77 -109 -54q-37 3 -61 78q-93 73 -153 79l-48 4q-208 20 -316 -195l-27 -206l11 -391q310 -1 487 19t152 -80q0 -80 -154 -77q-99 9 -454 -37q114 -638 90 -894q-19 -2 -104 6 l-25 -6l-8 1q-47 5 -26 232q-52 462 -100 613q-64 -10 -228 -27q-124 -60 -112 66zM1194 1868q0 79 102 124h16q59 0 182 -1878q5 -99 -64.5 -110t-100.5 95z" />
</font>
</defs>
</svg>
